/* XPM */
static char * frameIBL_xpm[] = {
"23 23 4 1",
" 	c None",
".	c #757575",
"+	c #CFD4DC",
"@	c #D0D6DF",
".+@.                   ",
".+@.                   ",
".+@.                   ",
".+@.                   ",
".+@.                   ",
".+@.                   ",
".+@.                   ",
".+@.                   ",
".+@.                   ",
".+@.                   ",
".+@.                   ",
".+@.                   ",
".+@.                   ",
".+@.                   ",
".+@.                   ",
".+@.                   ",
".+@.                   ",
".+@.                   ",
".+@.                   ",
".+@....................",
".@@@@@@@@@@@@@@@@@@@@@@",
".++++++++++++++++++++++",
"......................."};
