/* XPM */
static char * maximizeA_xpm[] = {
"22 38 376 2",
"  	c None",
". 	c #EAEAEA",
"+ 	c #E9E9E9",
"@ 	c #E8E8E8",
"# 	c #9B9B9B",
"$ 	c #595959",
"% 	c #262626",
"& 	c #090909",
"* 	c #F1F1F1",
"= 	c #EFEFEF",
"- 	c #D6D6D6",
"; 	c #6B6B6B",
"> 	c #3D3D3D",
", 	c #8C8C8C",
"' 	c #BABABA",
") 	c #CACACB",
"! 	c #FEFEFE",
"~ 	c #FFFFFF",
"{ 	c #FCFDFD",
"] 	c #FCFCFC",
"^ 	c #F8F8F8",
"/ 	c #6D6D6D",
"( 	c #3F3F3F",
"_ 	c #8E939B",
": 	c #C8CCD3",
"< 	c #E3E5EA",
"[ 	c #E5E7EC",
"} 	c #F0F0F0",
"| 	c #949494",
"1 	c #212328",
"2 	c #536178",
"3 	c #7283A3",
"4 	c #93AEC4",
"5 	c #9BBCCC",
"6 	c #9BBFCC",
"7 	c #E7E7E7",
"8 	c #DBDBDB",
"9 	c #4B4B4B",
"0 	c #31415E",
"a 	c #355786",
"b 	c #2D7B98",
"c 	c #2F99A8",
"d 	c #369CAB",
"e 	c #3A9AAB",
"f 	c #2E97A7",
"g 	c #345885",
"h 	c #30405D",
"i 	c #EEEEEE",
"j 	c #E7E8E8",
"k 	c #D3D3D3",
"l 	c #1B2536",
"m 	c #334E80",
"n 	c #1C7093",
"o 	c #1B8AA2",
"p 	c #2997AA",
"q 	c #37A3B6",
"r 	c #37A6B6",
"s 	c #2B9DAE",
"t 	c #1B8CA4",
"u 	c #1B7698",
"v 	c #FDFDFD",
"w 	c #F3F3F3",
"x 	c #D2D2D2",
"y 	c #051B3D",
"z 	c #337197",
"A 	c #208FA7",
"B 	c #2EA1B5",
"C 	c #42ADC1",
"D 	c #4EB5CB",
"E 	c #50BBCB",
"F 	c #4FB6CC",
"G 	c #42AEC5",
"H 	c #2EA5B7",
"I 	c #1F96AC",
"J 	c #327399",
"K 	c #061A3F",
"L 	c #ECECEC",
"M 	c #E1E1E1",
"N 	c #BCBCBC",
"O 	c #162D57",
"P 	c #318CA6",
"Q 	c #37A6BA",
"R 	c #46B6CB",
"S 	c #59C4D4",
"T 	c #63D1DE",
"U 	c #67CCDE",
"V 	c #66CFDF",
"W 	c #5BC2D8",
"X 	c #45B7CC",
"Y 	c #37A8BC",
"Z 	c #3288A7",
"` 	c #E6E6E6",
" .	c #E5E5E5",
"..	c #E4E4E4",
"+.	c #D7D6D6",
"@.	c #B2B2B2",
"#.	c #2D3F60",
"$.	c #2A94AB",
"%.	c #47B4C8",
"&.	c #57C6DA",
"*.	c #68D3E3",
"=.	c #76E1F1",
"-.	c #79E7F4",
";.	c #78E3F3",
">.	c #69D7E8",
",.	c #4AB6CD",
"'.	c #2B3F60",
").	c #EBEBEB",
"!.	c #DFDFDF",
"~.	c #505A6B",
"{.	c #1A7FA1",
"].	c #53BDD0",
"^.	c #68D2E5",
"/.	c #78E7F7",
"(.	c #81EFFC",
"_.	c #88F0FD",
":.	c #83ECFC",
"<.	c #7AE7FB",
"[.	c #6BD6EA",
"}.	c #55C3D4",
"|.	c #1B85A4",
"1.	c #F7F7F7",
"2.	c #CECECE",
"3.	c #909090",
"4.	c #2A5C71",
"5.	c #41B3CC",
"6.	c #72D7ED",
"7.	c #87EDFC",
"8.	c #8FF3FC",
"9.	c #96F9FD",
"0.	c #91F6FC",
"a.	c #87F0FC",
"b.	c #72DFF3",
"c.	c #42BED1",
"d.	c #2A5F73",
"e.	c #E2E2E2",
"f.	c #CDCDCD",
"g.	c #9F9F9F",
"h.	c #5D6266",
"i.	c #226979",
"j.	c #4ACCDF",
"k.	c #7AEAF7",
"l.	c #90F5FB",
"m.	c #9AFBFA",
"n.	c #94F7FB",
"o.	c #7CEDF7",
"p.	c #4BD2E6",
"q.	c #236E7E",
"r.	c #5E6367",
"s.	c #9E9E9E",
"t.	c #E0E0E0",
"u.	c #DEDEDE",
"v.	c #B4B4B4",
"w.	c #878787",
"x.	c #5C5C5C",
"y.	c #2C5965",
"z.	c #328E9B",
"A.	c #46C0CB",
"B.	c #54DEE7",
"C.	c #338E9C",
"D.	c #2D5C68",
"E.	c #E1E2E2",
"F.	c #D1D1D1",
"G.	c #B1B1B1",
"H.	c #8A8A8A",
"I.	c #666666",
"J.	c #515151",
"K.	c #454545",
"L.	c #424242",
"M.	c #EEEFEF",
"N.	c #EDEDED",
"O.	c #DADADA",
"P.	c #C2C2C2",
"Q.	c #A4A4A4",
"R.	c #7B7B7B",
"S.	c #747575",
"T.	c #C7C7C7",
"U.	c #BBBBBB",
"V.	c #AEAEAE",
"W.	c #D9D9D9",
"X.	c #D8D8D8",
"Y.	c #D7D7D7",
"Z.	c #D0D0D0",
"`.	c #DDDDDD",
" +	c #DCDBDB",
".+	c #7F7F7F",
"++	c #A1A2A2",
"@+	c #585959",
"#+	c #222323",
"$+	c #030807",
"%+	c #2C2C2C",
"&+	c #565656",
"*+	c #B0B1B0",
"=+	c #65625E",
"-+	c #717171",
";+	c #989898",
">+	c #8D8D8D",
",+	c #696969",
"'+	c #383838",
")+	c #726570",
"!+	c #696C6E",
"~+	c #3B4248",
"{+	c #70777F",
"]+	c #8F9CA0",
"^+	c #A3AEB0",
"/+	c #97A2A6",
"(+	c #A1AAAE",
"_+	c #969BA1",
":+	c #535464",
"<+	c #393B4E",
"[+	c #686167",
"}+	c #929794",
"|+	c #1B1D36",
"1+	c #314250",
"2+	c #4A6671",
"3+	c #597A82",
"4+	c #47686E",
"5+	c #29474E",
"6+	c #446369",
"7+	c #657F88",
"8+	c #495F6C",
"9+	c #344151",
"0+	c #111430",
"a+	c #929392",
"b+	c #3F4A52",
"c+	c #142A3D",
"d+	c #315260",
"e+	c #305D69",
"f+	c #356370",
"g+	c #174450",
"h+	c #001825",
"i+	c #0F3C46",
"j+	c #3B6472",
"k+	c #345B69",
"l+	c #2B4A5A",
"m+	c #18293D",
"n+	c #383C4D",
"o+	c #DCDCDC",
"p+	c #172A36",
"q+	c #1C4757",
"r+	c #245667",
"s+	c #26576B",
"t+	c #326175",
"u+	c #1E4F5F",
"v+	c #01323E",
"w+	c #154956",
"x+	c #2F6874",
"y+	c #245B6B",
"z+	c #265265",
"A+	c #314D62",
"B+	c #19253C",
"C+	c #081F33",
"D+	c #2C5E6F",
"E+	c #205F71",
"F+	c #00213B",
"G+	c #002942",
"H+	c #002E42",
"I+	c #002D42",
"J+	c #003446",
"K+	c #00283D",
"L+	c #003146",
"M+	c #2A6075",
"N+	c #30576B",
"O+	c #0E213D",
"P+	c #213F56",
"Q+	c #336777",
"R+	c #2E7385",
"S+	c #002C46",
"T+	c #01394E",
"U+	c #0B4256",
"V+	c #0C4657",
"W+	c #084957",
"X+	c #00354A",
"Y+	c #00384E",
"Z+	c #2B6B7E",
"`+	c #2D5B6E",
" @	c #16304F",
".@	c #C6C9C7",
"+@	c #22455D",
"@@	c #306471",
"#@	c #397E8C",
"$@	c #43869A",
"%@	c #5194A8",
"&@	c #3A7C8D",
"*@	c #135864",
"=@	c #28707D",
"-@	c #4D9AA6",
";@	c #428E9F",
">@	c #3F8092",
",@	c #3B6A7E",
"'@	c #294768",
")@	c #BCC1C5",
"!@	c #D4D4D4",
"~@	c #516876",
"{@	c #2C5865",
"]@	c #488995",
"^@	c #4F9CAA",
"/@	c #51A4B0",
"(@	c #398E96",
"_@	c #1A6D75",
":@	c #2A7F87",
"<@	c #50A4AB",
"[@	c #50A3AD",
"}@	c #418594",
"|@	c #2D596C",
"1@	c #526075",
"2@	c #D0D1D1",
"3@	c #6B8792",
"4@	c #3A5867",
"5@	c #3B7077",
"6@	c #58A2AB",
"7@	c #57ABB0",
"8@	c #409497",
"9@	c #1F6F74",
"0@	c #33848C",
"a@	c #61ABB0",
"b@	c #61A8B0",
"c@	c #47808E",
"d@	c #1B3F52",
"e@	c #7A8293",
"f@	c #9D9C9F",
"g@	c #3E4359",
"h@	c #294854",
"i@	c #50888F",
"j@	c #60AAAD",
"k@	c #6DAFB0",
"l@	c #66A8AB",
"m@	c #6DACB0",
"n@	c #6DAAB0",
"o@	c #4E7D87",
"p@	c #274856",
"q@	c #1B2C42",
"r@	c #999E9E",
"s@	c #7A7782",
"t@	c #3A4655",
"u@	c #1E414B",
"v@	c #315D62",
"w@	c #547F83",
"x@	c #658F92",
"y@	c #5D8588",
"z@	c #41626A",
"A@	c #243B47",
"B@	c #1C263B",
"C@	c #7A7B7F",
"D@	c #86848D",
"E@	c #5A5964",
"F@	c #454950",
"G@	c #37444A",
"H@	c #2E4347",
"I@	c #315258",
"J@	c #324F53",
"K@	c #4D5B5E",
"L@	c #868182",
"M@	c #B3B3B3",
"N@	c #CBCBCB",
"O@	c #E3E3E3",
"P@	c #BDBDBD",
"Q@	c #AAA3A6",
"R@	c #91848B",
"S@	c #7D7279",
"T@	c #776A73",
"U@	c #6C6C71",
"V@	c #8B898C",
"W@	c #A5A0A7",
"X@	c #ACACAC",
"Y@	c #A3A4A4",
"Z@	c #A5A5A5",
"`@	c #A6A5A5",
" #	c #B0B0B0",
".#	c #C9C9C9",
"+#	c #CACACA",
"@#	c #C5C5C5",
"##	c #B8B8B8",
"$#	c #C0C0C0",
"%#	c #C8C8C8",
"&#	c #C6C6C6",
". . . . . . + @ # $ % & % $ # @ + . . . . . ",
"* * * * * = - ; > , ' ) ' , > ; - = * * * * ",
"! ~ ! { ] ^ / ( _ : < [ < : _ ( / ^ ] { ! ~ ",
"} } } = . | 1 2 3 4 5 6 5 4 3 2 1 | . = } } ",
"+ + + 7 8 9 0 a b c d e d f b g h 9 8 7 + + ",
"= } i j k l m n o p q q r s t u m l k j i } ",
"v v ] w x y z A B C D E F G H I J K x w ] v ",
"i i L M N O P Q R S T U V W X Y Z O N M L i ",
"`  ...+.@.#.$.%.&.*.=.-.;.>.&.,.$.'.@.+... .",
"L ).. !.' ~.{.].^./.(._.:.<.[.}.|.~.' !.. ).",
"^ ^ 1.i 2.3.4.5.6.7.8.9.0.a.b.c.d.3.2.i 1.^ ",
"@ @ 7 e.f.g.h.i.j.k.l.m.n.o.p.q.r.s.f.e.7 @ ",
"t.t.t.u.x v.w.x.y.z.A.B.A.C.D.x.w.v.x u.t.t.",
".. ...E.u.F.G.H.I.J.K.L.K.J.I.H.G.F.u.E... .",
"= * = M.N.. O.P.Q., R.S.R., Q.P.O.. N.M.= * ",
"M M M M M !.8 k T.U.@.V.@.U.T.k 8 u.M M M M ",
"W.W.W.W.W.W.X.Y.k Z.f.f.f.Z.k Y.X.W.W.W.W.W.",
"u.`.u. +u.`.u.`.u.`.u. +u.`.u.`.u.`.u. +u.`.",
".+.+.+.+.+.+.+.+.+.+.+.+.+.+.+.+.+.+.+.+.+.+",
"+ + + + + + +  .++@+#+$+%+&+*+ .+ + + + + + ",
"* * * * * } . =+$ -+3.;+>+,+'+)+. } * * * * ",
"~ ~ ~ ~ ~ ^ !+~+{+]+^+/+(+_+:+<+[+^ ~ ~ ~ ~ ",
"* * * * L }+|+1+2+3+4+5+6+7+8+9+0+a+L * * * ",
"+ + + + `.b+c+d+e+f+g+h+i+j+k+l+m+n+`.+ + + ",
"i i i i o+p+q+r+s+t+u+v+w+x+y+z+A+B+o+i i i ",
"v v v v @ C+D+E+F+G+H+I+J+K+L+M+N+O+@ v v v ",
"= = = = O.P+Q+R+S+T+U+V+W+X+Y+Z+`+ @O.= = = ",
"` ` ` ` .@+@@@#@$@%@&@*@=@-@;@>@,@'@)@` ` ` ",
". . . . !@~@{@]@^@/@(@_@:@<@[@}@|@1@2@. . . ",
"1.1.1.1.M 3@4@5@6@7@8@9@0@a@b@c@d@e@e.1.1.1.",
"@ @ @ @ Y.f@g@h@i@j@k@l@m@n@o@p@q@r@- @ @ @ ",
"u.u.u.u.!@N s@t@u@v@w@x@y@z@A@B@C@' x u.u.u.",
"t.t.t.t.o+f.v.D@E@F@G@H@I@J@K@L@M@N@8 t.t.t.",
". . . . . O@x P@Q@R@S@T@U@V@W@P@x O@. . . . ",
"W.W.W.W.W.X.k T.' X@Y@Z@`@ #N .#k X.W.W.W.W.",
"2.2.2.2.2.2.2.+#@#P@####U.$#T.N@2.2.2.2.2.2.",
"N@N@N@N@.#+#+#%#T.T.@#@#&#T..#+#.#+#+#N@N@N@",
".+.+.+.+.+.+.+.+.+.+.+.+.+.+.+.+.+.+.+.+.+.+"};
