/* XPM */
static char * restoreA_xpm[] = {
"22 38 351 2",
"  	c None",
". 	c #E9E9E9",
"+ 	c #E5E5E5",
"@ 	c #A1A2A2",
"# 	c #585959",
"$ 	c #222323",
"% 	c #030807",
"& 	c #2C2C2C",
"* 	c #565656",
"= 	c #B0B1B0",
"- 	c #F1F1F1",
"; 	c #F0F0F0",
"> 	c #EAEAEA",
", 	c #65625E",
"' 	c #42403F",
") 	c #8A8989",
"! 	c #C2BDBE",
"~ 	c #D5CACC",
"{ 	c #C2BDB1",
"] 	c #928D8E",
"^ 	c #302B36",
"/ 	c #726570",
"( 	c #FFFFFF",
"_ 	c #F8F8F8",
": 	c #696C6E",
"< 	c #3B4248",
"[ 	c #849299",
"} 	c #BECCD3",
"| 	c #CEDBE1",
"1 	c #E5F1F6",
"2 	c #D9E4E2",
"3 	c #C0CED5",
"4 	c #8C97A5",
"5 	c #393B4E",
"6 	c #686167",
"7 	c #ECECEC",
"8 	c #929794",
"9 	c #1E2E3B",
"0 	c #3D5B6E",
"a 	c #6C94A3",
"b 	c #7FB1BC",
"c 	c #68989F",
"d 	c #3C6971",
"e 	c #639098",
"f 	c #90B8C5",
"g 	c #69899C",
"h 	c #385367",
"i 	c #242A3B",
"j 	c #929392",
"k 	c #DDDDDD",
"l 	c #3F4A52",
"m 	c #21425A",
"n 	c #396C8C",
"o 	c #478496",
"p 	c #4E8FA1",
"q 	c #236373",
"r 	c #002437",
"s 	c #165765",
"t 	c #5693A5",
"u 	c #4A8497",
"v 	c #427593",
"w 	c #30475F",
"x 	c #383C4D",
"y 	c #EEEEEE",
"z 	c #DCDCDC",
"A 	c #172A36",
"B 	c #2B5E7E",
"C 	c #1F6C90",
"D 	c #38809B",
"E 	c #4A8CA7",
"F 	c #2C7489",
"G 	c #01485A",
"H 	c #1D687E",
"I 	c #4694A7",
"J 	c #35849A",
"K 	c #216F90",
"L 	c #2D5676",
"M 	c #19253C",
"N 	c #FDFDFD",
"O 	c #E8E8E8",
"P 	c #081F33",
"Q 	c #337597",
"R 	c #2583AA",
"S 	c #003256",
"T 	c #003D5E",
"U 	c #004262",
"V 	c #00405E",
"W 	c #004A66",
"X 	c #003B5A",
"Y 	c #004566",
"Z 	c #2488A5",
"` 	c #407A9B",
" .	c #0E213D",
"..	c #EFEFEF",
"+.	c #DADADA",
"@.	c #213F56",
"#.	c #3C88AB",
"$.	c #349EC1",
"%.	c #004066",
"&.	c #015172",
"*.	c #125F7B",
"=.	c #12637D",
"-.	c #0A6981",
";.	c #004D6A",
">.	c #005072",
",.	c #379FBC",
"'.	c #4784AA",
").	c #16304F",
"!.	c #E6E6E6",
"~.	c #C6C9C7",
"{.	c #22455D",
"].	c #3388AC",
"^.	c #3CA9CD",
"/.	c #60C5DF",
"(.	c #75D7F4",
"_.	c #54B8CD",
":.	c #1B7D92",
"<.	c #3AA4B7",
"[.	c #6FDBF2",
"}.	c #61D2E6",
"|.	c #49BACE",
"1.	c #4287A7",
"2.	c #294768",
"3.	c #BCC1C5",
"4.	c #D4D4D4",
"5.	c #516876",
"6.	c #367A8B",
"7.	c #55C2D6",
"8.	c #72E1F5",
"9.	c #76EFFD",
"0.	c #52CAD9",
"a.	c #259AA8",
"b.	c #3CB4C3",
"c.	c #72EBF9",
"d.	c #73E9FA",
"e.	c #57C4DC",
"f.	c #3F7692",
"g.	c #526075",
"h.	c #D0D1D1",
"i.	c #F7F7F7",
"j.	c #E1E1E1",
"k.	c #6B8792",
"l.	c #30717D",
"m.	c #46A5B3",
"n.	c #7FEBF8",
"o.	c #7EFBFD",
"p.	c #5CD6DB",
"q.	c #2CA1A9",
"r.	c #4BC2CA",
"s.	c #8CF9FD",
"t.	c #8AEEFD",
"u.	c #4BABC0",
"v.	c #406F83",
"w.	c #7A8293",
"x.	c #E2E2E2",
"y.	c #D7D7D7",
"z.	c #9D9C9F",
"A.	c #4D6370",
"B.	c #3B7282",
"C.	c #60BCC7",
"D.	c #7AEFF3",
"E.	c #7AFDFB",
"F.	c #82FDF0",
"G.	c #8EFCFD",
"H.	c #72E9ED",
"I.	c #5AC6CD",
"J.	c #317A82",
"K.	c #45606C",
"L.	c #999E9E",
"M.	c #D6D6D6",
"N.	c #DEDEDE",
"O.	c #BCBCBC",
"P.	c #7A7782",
"Q.	c #475662",
"R.	c #34636D",
"S.	c #409293",
"T.	c #56BDB7",
"U.	c #67DAD0",
"V.	c #65B7BE",
"W.	c #337376",
"X.	c #406163",
"Y.	c #7A7B7F",
"Z.	c #BABABA",
"`.	c #D2D2D2",
" +	c #E0E0E0",
".+	c #CDCDCD",
"++	c #B4B4B4",
"@+	c #86848D",
"#+	c #5A5964",
"$+	c #454950",
"%+	c #37444A",
"&+	c #2E4347",
"*+	c #315258",
"=+	c #324F53",
"-+	c #4D5B5E",
";+	c #868182",
">+	c #B3B3B3",
",+	c #CBCBCB",
"'+	c #DBDBDB",
")+	c #E3E3E3",
"!+	c #BDBDBD",
"~+	c #AAA3A6",
"{+	c #91848B",
"]+	c #7D7279",
"^+	c #776A73",
"/+	c #6C6C71",
"(+	c #8B898C",
"_+	c #A5A0A7",
":+	c #D9D9D9",
"<+	c #D8D8D8",
"[+	c #D3D3D3",
"}+	c #C7C7C7",
"|+	c #ACACAC",
"1+	c #A3A4A4",
"2+	c #A5A5A5",
"3+	c #A6A5A5",
"4+	c #B0B0B0",
"5+	c #C9C9C9",
"6+	c #CECECE",
"7+	c #CACACA",
"8+	c #C5C5C5",
"9+	c #B8B8B8",
"0+	c #BBBBBB",
"a+	c #C0C0C0",
"b+	c #C8C8C8",
"c+	c #C6C6C6",
"d+	c #757575",
"e+	c #6D6D6D",
"f+	c #6C6C6C",
"g+	c #595959",
"h+	c #717171",
"i+	c #909090",
"j+	c #989898",
"k+	c #8D8D8D",
"l+	c #696969",
"m+	c #383838",
"n+	c #70777F",
"o+	c #8F9CA0",
"p+	c #A3AEB0",
"q+	c #97A2A6",
"r+	c #A1AAAE",
"s+	c #969BA1",
"t+	c #535464",
"u+	c #1B1D36",
"v+	c #314250",
"w+	c #4A6671",
"x+	c #597A82",
"y+	c #47686E",
"z+	c #29474E",
"A+	c #446369",
"B+	c #657F88",
"C+	c #495F6C",
"D+	c #344151",
"E+	c #111430",
"F+	c #142A3D",
"G+	c #315260",
"H+	c #305D69",
"I+	c #356370",
"J+	c #174450",
"K+	c #001825",
"L+	c #0F3C46",
"M+	c #3B6472",
"N+	c #345B69",
"O+	c #2B4A5A",
"P+	c #18293D",
"Q+	c #1C4757",
"R+	c #245667",
"S+	c #26576B",
"T+	c #326175",
"U+	c #1E4F5F",
"V+	c #01323E",
"W+	c #154956",
"X+	c #2F6874",
"Y+	c #245B6B",
"Z+	c #265265",
"`+	c #314D62",
" @	c #2C5E6F",
".@	c #205F71",
"+@	c #00213B",
"@@	c #002942",
"#@	c #002E42",
"$@	c #002D42",
"%@	c #003446",
"&@	c #00283D",
"*@	c #003146",
"=@	c #2A6075",
"-@	c #30576B",
";@	c #336777",
">@	c #2E7385",
",@	c #002C46",
"'@	c #01394E",
")@	c #0B4256",
"!@	c #0C4657",
"~@	c #084957",
"{@	c #00354A",
"]@	c #00384E",
"^@	c #2B6B7E",
"/@	c #2D5B6E",
"(@	c #306471",
"_@	c #397E8C",
":@	c #43869A",
"<@	c #5194A8",
"[@	c #3A7C8D",
"}@	c #135864",
"|@	c #28707D",
"1@	c #4D9AA6",
"2@	c #428E9F",
"3@	c #3F8092",
"4@	c #3B6A7E",
"5@	c #2C5865",
"6@	c #488995",
"7@	c #4F9CAA",
"8@	c #51A4B0",
"9@	c #398E96",
"0@	c #1A6D75",
"a@	c #2A7F87",
"b@	c #50A4AB",
"c@	c #50A3AD",
"d@	c #418594",
"e@	c #2D596C",
"f@	c #3A5867",
"g@	c #3B7077",
"h@	c #58A2AB",
"i@	c #57ABB0",
"j@	c #409497",
"k@	c #1F6F74",
"l@	c #33848C",
"m@	c #61ABB0",
"n@	c #61A8B0",
"o@	c #47808E",
"p@	c #1B3F52",
"q@	c #3E4359",
"r@	c #294854",
"s@	c #50888F",
"t@	c #60AAAD",
"u@	c #6DAFB0",
"v@	c #66A8AB",
"w@	c #6DACB0",
"x@	c #6DAAB0",
"y@	c #4E7D87",
"z@	c #274856",
"A@	c #1B2C42",
"B@	c #3A4655",
"C@	c #1E414B",
"D@	c #315D62",
"E@	c #547F83",
"F@	c #658F92",
"G@	c #5D8588",
"H@	c #41626A",
"I@	c #243B47",
"J@	c #1C263B",
". . . . . . . + @ # $ % & * = + . . . . . . ",
"- - - - - ; > , ' ) ! ~ { ] ^ / > ; - - - - ",
"( ( ( ( ( _ : < [ } | 1 2 3 4 5 6 _ ( ( ( ( ",
"- - - - 7 8 9 0 a b c d e f g h i j 7 - - - ",
". . . . k l m n o p q r s t u v w x k . . . ",
"y y y y z A B C D E F G H I J K L M z y y y ",
"N N N N O P Q R S T U V W X Y Z `  .O N N N ",
"........+.@.#.$.%.&.*.=.-.;.>.,.'.).+.......",
"!.!.!.!.~.{.].^./.(._.:.<.[.}.|.1.2.3.!.!.!.",
"> > > > 4.5.6.7.8.9.0.a.b.c.d.e.f.g.h.> > > ",
"i.i.i.i.j.k.l.m.n.o.p.q.r.s.t.u.v.w.x.i.i.i.",
"O O O O y.z.A.B.C.D.E.F.G.H.I.J.K.L.M.O O O ",
"N.N.N.N.4.O.P.Q.R.S.T.U.V.S.W.X.Y.Z.`.N.N.N.",
" + + + +z .+++@+#+$+%+&+*+=+-+;+>+,+'+ + + +",
"> > > > > )+`.!+~+{+]+^+/+(+_+!+`.)+> > > > ",
":+:+:+:+:+<+[+}+Z.|+1+2+3+4+O.5+[+<+:+:+:+:+",
"6+6+6+6+6+6+6+7+8+!+9+9+0+a+}+,+6+6+6+6+6+6+",
",+,+,+,+5+7+7+b+}+}+8+8+c+}+5+7+5+7+7+,+,+,+",
"d+d+d+d+e+f+f+e+e+f+f+e+e+e+f+f+e+f+f+d+d+d+",
". . . . . . . + @ # $ % & * = + . . . . . . ",
"- - - - - ; > , g+h+i+j+k+l+m+/ > ; - - - - ",
"( ( ( ( ( _ : < n+o+p+q+r+s+t+5 6 _ ( ( ( ( ",
"- - - - 7 8 u+v+w+x+y+z+A+B+C+D+E+j 7 - - - ",
". . . . k l F+G+H+I+J+K+L+M+N+O+P+x k . . . ",
"y y y y z A Q+R+S+T+U+V+W+X+Y+Z+`+M z y y y ",
"N N N N O P  @.@+@@@#@$@%@&@*@=@-@ .O N N N ",
"........+.@.;@>@,@'@)@!@~@{@]@^@/@).+.......",
"!.!.!.!.~.{.(@_@:@<@[@}@|@1@2@3@4@2.3.!.!.!.",
"> > > > 4.5.5@6@7@8@9@0@a@b@c@d@e@g.h.> > > ",
"i.i.i.i.j.k.f@g@h@i@j@k@l@m@n@o@p@w.x.i.i.i.",
"O O O O y.z.q@r@s@t@u@v@w@x@y@z@A@L.M.O O O ",
"N.N.N.N.4.O.P.B@C@D@E@F@G@H@I@J@Y.Z.`.N.N.N.",
" + + + +z .+++@+#+$+%+&+*+=+-+;+>+,+'+ + + +",
"> > > > > )+`.!+~+{+]+^+/+(+_+!+`.)+> > > > ",
":+:+:+:+:+<+[+}+Z.|+1+2+3+4+O.5+[+<+:+:+:+:+",
"6+6+6+6+6+6+6+7+8+!+9+9+0+a+}+,+6+6+6+6+6+6+",
",+,+,+,+5+7+7+b+}+}+8+8+c+}+5+7+5+7+7+,+,+,+",
"d+d+d+d+e+f+f+e+e+f+f+e+e+e+f+f+e+f+f+d+d+d+"};
