/* XPM */
static char * anybuttonI_xpm[] = {
"22 38 253 2",
"  	c None",
". 	c #C3C9D3",
"+ 	c #C2C8D2",
"@ 	c #ABB1BA",
"# 	c #989DA5",
"$ 	c #8A8E95",
"% 	c #82868D",
"& 	c #999EA5",
"* 	c #ABB0B9",
"= 	c #C2C9D3",
"- 	c #C3CAD3",
"; 	c #C9CFDA",
"> 	c #C9CED9",
", 	c #C8CFD9",
"' 	c #C7CED8",
") 	c #BFC6D0",
"! 	c #A2A8B0",
"~ 	c #9DA1A8",
"{ 	c #B8BCC3",
"] 	c #C7CBD2",
"^ 	c #CCD0D7",
"/ 	c #B9BDC4",
"( 	c #A3A8B0",
"_ 	c #C1C7D1",
": 	c #C9CFD9",
"< 	c #CAD0DA",
"[ 	c #D3DAE5",
"} 	c #D5DBE6",
"| 	c #D3DAE4",
"1 	c #D5DBE5",
"2 	c #D2D9E4",
"3 	c #D2D9E3",
"4 	c #AAB0B8",
"5 	c #A5A9B0",
"6 	c #C5C9D0",
"7 	c #D6DBE2",
"8 	c #DDE1E8",
"9 	c #DEE3EA",
"0 	c #DEE2E9",
"a 	c #D6DAE1",
"b 	c #C5CAD1",
"c 	c #D2D8E3",
"d 	c #D5DCE5",
"e 	c #D5DCE6",
"f 	c #C9D0DB",
"g 	c #C7CDD8",
"h 	c #AEB4BD",
"i 	c #979BA2",
"j 	c #B3B8BF",
"k 	c #C2C6CE",
"l 	c #CDD2D9",
"m 	c #CBD0D7",
"n 	c #C2C7CE",
"o 	c #B3B7BF",
"p 	c #969AA2",
"q 	c #AEB3BD",
"r 	c #C7CED9",
"s 	c #C5CCD7",
"t 	c #C4CBD6",
"u 	c #C4CBD7",
"v 	c #C3CAD5",
"w 	c #BFC6D1",
"x 	c #979CA5",
"y 	c #A7ACB3",
"z 	c #B6BAC2",
"A 	c #BBC0C7",
"B 	c #C0C4CB",
"C 	c #C0C5CC",
"D 	c #C0C4CC",
"E 	c #BABFC7",
"F 	c #B4B9C0",
"G 	c #A8ACB4",
"H 	c #969CA4",
"I 	c #CAD1DD",
"J 	c #CBD2DD",
"K 	c #C8CFDB",
"L 	c #C1C8D3",
"M 	c #999EA6",
"N 	c #B7BCC4",
"O 	c #BDC2CA",
"P 	c #C2C7CF",
"Q 	c #C4CAD1",
"R 	c #C7CCD4",
"S 	c #C8CDD5",
"T 	c #C6CAD2",
"U 	c #BFC3CB",
"V 	c #B8BDC5",
"W 	c #C2C9D4",
"X 	c #C9CFDB",
"Y 	c #CAD2DD",
"Z 	c #D5DCE7",
"` 	c #D4DBE7",
" .	c #D2D8E4",
"..	c #A7ACB4",
"+.	c #C5CAD2",
"@.	c #CBD0D8",
"#.	c #CED3DB",
"$.	c #D1D6DE",
"%.	c #D5DAE2",
"&.	c #D5DAE1",
"*.	c #D3D8DF",
"=.	c #CFD4DC",
"-.	c #CCD1D9",
";.	c #A9ADB5",
">.	c #D1D8E3",
",.	c #D3DBE6",
"'.	c #D5DDE8",
").	c #C9D1DD",
"!.	c #C9D0DC",
"~.	c #C5CCD8",
"{.	c #BAC1CC",
"].	c #A8ADB5",
"^.	c #C3C8D0",
"/.	c #C9CED5",
"(.	c #D4D9E1",
"_.	c #D5D9E1",
":.	c #D3D8E0",
"<.	c #CACFD7",
"[.	c #C4C9D0",
"}.	c #BCC2CD",
"|.	c #C8D0DC",
"1.	c #C4CCD8",
"2.	c #C3CBD7",
"3.	c #C3CAD7",
"4.	c #BFC5D2",
"5.	c #B4BBC6",
"6.	c #A3A9B1",
"7.	c #C1C6CE",
"8.	c #D0D5DD",
"9.	c #D1D6DD",
"0.	c #D6DBE4",
"a.	c #D7DCE3",
"b.	c #D0D5DC",
"c.	c #C1C7CF",
"d.	c #C3CAD6",
"e.	c #C8CFDC",
"f.	c #C7CFDA",
"g.	c #B9C0CB",
"h.	c #A6ADB6",
"i.	c #D6DAE3",
"j.	c #DBDFE8",
"k.	c #DBE0E8",
"l.	c #DCE1E9",
"m.	c #DAE0E8",
"n.	c #D6DBE3",
"o.	c #A6ACB5",
"p.	c #B8BFCB",
"q.	c #C4CCD7",
"r.	c #D2D9E5",
"s.	c #D1D9E5",
"t.	c #CED6E2",
"u.	c #C6CDD8",
"v.	c #B2B9C4",
"w.	c #B2B8C0",
"x.	c #D2D7E0",
"y.	c #DDE2EA",
"z.	c #E1E6EE",
"A.	c #E1E6EF",
"B.	c #E2E7EF",
"C.	c #E0E6EE",
"D.	c #DEE4EC",
"E.	c #B2B7C0",
"F.	c #B2B8C3",
"G.	c #CDD6E1",
"H.	c #D2DAE6",
"I.	c #C6CEDA",
"J.	c #C7CEDA",
"K.	c #BDC4D0",
"L.	c #B0B7C1",
"M.	c #9FA6AF",
"N.	c #ADB3BC",
"O.	c #D2D7DF",
"P.	c #D9DEE6",
"Q.	c #DADFE7",
"R.	c #D9DEE7",
"S.	c #D4D9E2",
"T.	c #AEB4BC",
"U.	c #A1A7B1",
"V.	c #B0B7C2",
"W.	c #C8CEDA",
"X.	c #C6CDDA",
"Y.	c #C0C8D4",
"Z.	c #BFC7D3",
"`.	c #BEC6D2",
" +	c #BBC2CE",
".+	c #B2B9C5",
"++	c #A4ABB5",
"@+	c #999FA9",
"#+	c #9EA4AD",
"$+	c #B4B9C2",
"%+	c #C6CBD3",
"&+	c #B4BAC2",
"*+	c #A0A5AE",
"=+	c #989EA7",
"-+	c #A5ABB5",
";+	c #BCC3CF",
">+	c #C0C7D3",
",+	c #C1C9D4",
"'+	c #C2CAD6",
")+	c #BDC4CF",
"!+	c #B3BAC5",
"~+	c #A8AEB8",
"{+	c #9DA3AD",
"]+	c #9398A2",
"^+	c #9398A0",
"/+	c #9399A2",
"(+	c #9CA2AB",
"_+	c #A8AEB9",
":+	c #B3B9C4",
"<+	c #BEC4CF",
"[+	c #CCD4E0",
"}+	c #CDD5E1",
"|+	c #CDD5E0",
"1+	c #CAD2DE",
"2+	c #C9D1DC",
"3+	c #B5BCC6",
"4+	c #AEB5BF",
"5+	c #A9AFB9",
"6+	c #A7ADB6",
"7+	c #A9B0B9",
"8+	c #AFB6BF",
"9+	c #B4BBC5",
"0+	c #C0C6D1",
"a+	c #CBD2DE",
"b+	c #CED4DF",
"c+	c #CDD3E0",
"d+	c #C2C9D5",
"e+	c #C1C8D4",
"f+	c #BEC5D1",
"g+	c #BBC3CE",
"h+	c #B8BFCA",
"i+	c #B5BCC7",
"j+	c #B1B8C3",
"k+	c #B1B7C2",
"l+	c #B7BECA",
"m+	c #C1C8D5",
"n+	c #C1C9D5",
"o+	c #BCC4CF",
"p+	c #BBC3CF",
"q+	c #BAC2CE",
"r+	c #BAC1CD",
"s+	c #B9C0CC",
"t+	c #B7BEC9",
"u+	c #B6BEC9",
"v+	c #B6BDC9",
"w+	c #B5BDC8",
"x+	c #BEC5D2",
"y+	c #BDC5D1",
"z+	c #BFC6D2",
"A+	c #BDC5D0",
"B+	c #BCC3D0",
"C+	c #BFC7D2",
"D+	c #7F7F7F",
". . . . + + . + @ # $ % $ & * + . = . - . = ",
"; > , , , ' ) ! ~ { ] ^ ] / ~ ( _ ' , : < , ",
"[ } | 1 2 3 4 5 6 7 8 9 0 a b 5 4 c 2 d | e ",
"f f f f g h i j k ^ l l l m n o p q r f f f ",
"s t u v w x y z A B C k C D E F G H w t s s ",
"I I J K L M N O P Q R S S T P U V M W X I Y ",
"Z ` `  .g ..+.@.#.$.%.&.%.*.=.-.+.;.r >.,.'.",
").).!.~.{.].^./.#.$.(.(._.:.#.<.[.].}.~.|.).",
"1.2.3.4.5.6.7.S 8.9.%.0.a.$.b.@.c.6.5.4.d.2.",
"!.e.f.u g.h.7.#.i.j.k.l.l.m.n.$.P o.p.q.e.|.",
"r.r.s.t.u.v.w.x.y.z.A.B.C.A.D.(.E.F.s G.s.H.",
"I.I.J.2.K.L.M.N.O.P.Q.Q.Q.R.S.T.U.V.K.u W.X.",
"Y.Z.Y.`. +.+++@+#+$+%+8.%+&+*+=+-+v.;+`.>+,+",
"'+q.d.t Y.)+!+~+{+=+]+^+/+=+(+_+:+<+>+t q.1.",
"[+}+[+|+1+2+s w 3+4+5+6+7+8+9+0+u.I a+b+c+}+",
"d+e+Y.Y.Y.>+f+g+h+i+j+k+j+i+l+;+w >+e+m+e+n+",
"o+;+p+p+q+r+ +s+s+t+u+v+w+l+p.s+ +g+p+o+p+ +",
">+f+`.x+`.y+`.K.z+A+A+B+K.y+A+f+z+A+>+x+C+z+",
"D+D+D+D+D+D+D+D+D+D+D+D+D+D+D+D+D+D+D+D+D+D+",
". . . . + + . + @ # $ % $ & * + . = . - . = ",
"; > , , , ' ) ! ~ { ] ^ ] / ~ ( _ ' , : < , ",
"[ } | 1 2 3 4 5 6 7 8 9 0 a b 5 4 c 2 d | e ",
"f f f f g h i j k ^ l l l m n o p q r f f f ",
"s t u v w x y z A B C k C D E F G H w t s s ",
"I I J K L M N O P Q R S S T P U V M W X I Y ",
"Z ` `  .g ..+.@.#.$.%.&.%.*.=.-.+.;.r >.,.'.",
").).!.~.{.].^./.#.$.(.(._.:.#.<.[.].}.~.|.).",
"1.2.3.4.5.6.7.S 8.9.%.0.a.$.b.@.c.6.5.4.d.2.",
"!.e.f.u g.h.7.#.i.j.k.l.l.m.n.$.P o.p.q.e.|.",
"r.r.s.t.u.v.w.x.y.z.A.B.C.A.D.(.E.F.s G.s.H.",
"I.I.J.2.K.L.M.N.O.P.Q.Q.Q.R.S.T.U.V.K.u W.X.",
"Y.Z.Y.`. +.+++@+#+$+%+8.%+&+*+=+-+v.;+`.>+,+",
"'+q.d.t Y.)+!+~+{+=+]+^+/+=+(+_+:+<+>+t q.1.",
"[+}+[+|+1+2+s w 3+4+5+6+7+8+9+0+u.I a+b+c+}+",
"d+e+Y.Y.Y.>+f+g+h+i+j+k+j+i+l+;+w >+e+m+e+n+",
"o+;+p+p+q+r+ +s+s+t+u+v+w+l+p.s+ +g+p+o+p+ +",
">+f+`.x+`.y+`.K.z+A+A+B+K.y+A+f+z+A+>+x+C+z+",
"D+D+D+D+D+D+D+D+D+D+D+D+D+D+D+D+D+D+D+D+D+D+"};
