#define desk_toggled_width 10
#define desk_toggled_height 10
static unsigned char desk_toggled_bits[] = {
 0x00, 0x00, 0x00, 0x00, 0x00, 0x00, 0x78, 0x00, 0x78, 0x00, 0x78, 0x00,
 0x78, 0x00, 0x00, 0x00, 0x00, 0x00, 0x00, 0x00 };
