/* XPM */
static char * admin_xpm[] = {
"32 32 82 1",
" 	c None",
".	c #000000",
"+	c #030100",
"@	c #090601",
"#	c #AC8844",
"$	c #FBC969",
"%	c #E5A223",
"&	c #462E00",
"*	c #020000",
"=	c #4E1414",
"-	c #992828",
";	c #B62E2E",
">	c #AC2727",
",	c #821919",
"'	c #3D0707",
")	c #634813",
"!	c #FFD992",
"~	c #FFDD9D",
"{	c #FFBD3E",
"]	c #E39600",
"^	c #852525",
"/	c #D23F3F",
"(	c #D74343",
"_	c #C43636",
":	c #B32929",
"<	c #9F1B1B",
"[	c #5E0808",
"}	c #7E5811",
"|	c #FFCD6C",
"1	c #FFCF73",
"2	c #FFB72C",
"3	c #F9A400",
"4	c #E36F6F",
"5	c #EB9999",
"6	c #BD3030",
"7	c #A72121",
"8	c #911111",
"9	c #3C0707",
"0	c #322100",
"a	c #FBB226",
"b	c #FFB62A",
"c	c #FFA800",
"d	c #A76E00",
"e	c #FFFFFF",
"f	c #C13333",
"g	c #AA2323",
"h	c #931212",
"i	c #720D0D",
"j	c #2F1F00",
"k	c #7B5100",
"l	c #624100",
"m	c #080500",
"n	c #8B1111",
"o	c #8A0C0C",
"p	c #8E1313",
"q	c #060401",
"r	c #120C01",
"s	c #A41F1F",
"t	c #8E0F0F",
"u	c #791414",
"v	c #302209",
"w	c #ECC478",
"x	c #FFC454",
"y	c #9C6700",
"z	c #8B0D0D",
"A	c #961515",
"B	c #410C0C",
"C	c #926B21",
"D	c #FFDFA2",
"E	c #FFCA64",
"F	c #120C00",
"G	c #6C1414",
"H	c #704C06",
"I	c #FFC049",
"J	c #EC9C00",
"K	c #040300",
"L	c #3B0707",
"M	c #7A1414",
"N	c #060300",
"O	c #704A00",
"P	c #916000",
"Q	c #302000",
"                                ",
"                                ",
"                                ",
"                                ",
"                                ",
"                                ",
"                                ",
"                                ",
"                                ",
"                                ",
"   .+.        ....              ",
"  @#$%&.    *=-;>,'*            ",
"  )!~{].   *^/(/_:<[*           ",
"  }|123+   =/454/6789           ",
"  0abcd.  .-(5e5(fghi.          ",
"   jklm   .;/454/678n.          ",
"    .     .>_/(/_:<op.    qr.   ",
"          .,:6f6:shtu.   vwxy.  ",
"           '<7g7<hzAB   .CDEcF  ",
"           *[8h8otAG*    HIbJK  ",
"            *LinpMB*     NOPQ   ",
"              ....         .    ",
"                                ",
"                                ",
"                                ",
"                                ",
"                            .   ",
"                                ",
"                                ",
"                                ",
"                                ",
"                                "};
