/* XPM */
static char * av_xpm[] = {
"32 32 338 2",
"  	c None",
". 	c #000000",
"+ 	c #030302",
"@ 	c #6A5F42",
"# 	c #DFC786",
"$ 	c #A4915E",
"% 	c #4A4129",
"& 	c #050403",
"* 	c #3D3729",
"= 	c #CEBB85",
"- 	c #FFE59F",
"; 	c #FFE399",
"> 	c #FFE192",
", 	c #FFE08C",
"' 	c #EACC7B",
") 	c #94804A",
"! 	c #3A321C",
"~ 	c #010100",
"{ 	c #1A1813",
"] 	c #A69873",
"^ 	c #FEE7AA",
"/ 	c #FFE6A5",
"( 	c #FFDE86",
"_ 	c #FFDC7F",
": 	c #FFDB79",
"< 	c #DDBC64",
"[ 	c #836E38",
"} 	c #292210",
"| 	c #060605",
"1 	c #79705A",
"2 	c #F3E1AF",
"3 	c #FFEAB1",
"4 	c #FFE8AB",
"5 	c #FFE59E",
"6 	c #FFE398",
"7 	c #FFD973",
"8 	c #FFD76D",
"9 	c #FFD666",
"0 	c #CEAB4E",
"a 	c #735F29",
"b 	c #1B160A",
"c 	c #4A463A",
"d 	c #DBCDA8",
"e 	c #FFEDBE",
"f 	c #FFEBB7",
"g 	c #FFD76C",
"h 	c #FFD460",
"i 	c #FFD35B",
"j 	c #FDD15A",
"k 	c #BE9D44",
"l 	c #625123",
"m 	c #0F0C05",
"n 	c #CBAC57",
"o 	c #E8D5A2",
"p 	c #FFE08B",
"q 	c #F8CD59",
"r 	c #8C7129",
"s 	c #B59235",
"t 	c #F1C347",
"u 	c #F3C955",
"v 	c #FADE96",
"w 	c #FFE6A4",
"x 	c #FFDE85",
"y 	c #D6AB37",
"z 	c #A37800",
"A 	c #90742A",
"B 	c #C49E3A",
"C 	c #EFC146",
"D 	c #F1C449",
"E 	c #F7D57A",
"F 	c #FEE4A2",
"G 	c #FFDB78",
"H 	c #FFD25B",
"I 	c #C79A23",
"J 	c #A67A00",
"K 	c #573F00",
"L 	c #CCA53C",
"M 	c #91752B",
"N 	c #816825",
"O 	c #BA9534",
"P 	c #E9BB3F",
"Q 	c #EDBD3F",
"R 	c #F2CB5F",
"S 	c #FEE08F",
"T 	c #FFD972",
"U 	c #FBCF57",
"V 	c #AF8410",
"W 	c #A57900",
"X 	c #8A6500",
"Y 	c #EFC144",
"Z 	c #D2A93A",
"` 	c #977929",
" .	c #7A6220",
"..	c #AE8B2C",
"+.	c #E1B337",
"@.	c #E9B937",
"#.	c #EDBE45",
"$.	c #FAD878",
"%.	c #F2C750",
"&.	c #A27805",
"*.	c #A17501",
"=.	c #765700",
"-.	c #5C4400",
";.	c #EEBF41",
">.	c #EDBE3F",
",.	c #ECBD3D",
"'.	c #D7AB36",
").	c #9D7D26",
"!.	c #765D1B",
"~.	c #A48125",
"{.	c #D9AB2F",
"].	c #E6B42F",
"^.	c #E7B633",
"/.	c #F4CB5E",
"(.	c #FFDA77",
"_.	c #FFD565",
":.	c #E0B543",
"<.	c #9B7202",
"[.	c #996F01",
"}.	c #644901",
"|.	c #664B00",
"1.	c #A57800",
"2.	c #ECBC3C",
"3.	c #EBBB3A",
"4.	c #EAB938",
"5.	c #E9A630",
"6.	c #D9942A",
"7.	c #A28023",
"8.	c #745B18",
"9.	c #99771E",
"0.	c #CFA226",
"a.	c #E2AF28",
"b.	c #E2AF27",
"c.	c #EEC046",
"d.	c #FED568",
"e.	c #C59D30",
"f.	c #976E01",
"g.	c #8C6601",
"h.	c #573F01",
"i.	c #745500",
"j.	c #A77A00",
"k.	c #AD7E00",
"l.	c #EDBD3E",
"m.	c #EBBC3C",
"n.	c #EABA39",
"o.	c #E9B034",
"p.	c #E77424",
"q.	c #E5170F",
"r.	c #DE180E",
"s.	c #E12912",
"t.	c #DA9025",
"u.	c #A8821E",
"v.	c #755B14",
"w.	c #8F6F18",
"x.	c #C6981F",
"y.	c #DFAB20",
"z.	c #DDA91E",
"A.	c #946C01",
"B.	c #7C5B01",
"C.	c #503B01",
"D.	c #835F01",
"E.	c #A97C00",
"F.	c #AE7F00",
"G.	c #EBBB3B",
"H.	c #E95820",
"I.	c #E7110C",
"J.	c #E0130C",
"K.	c #C9A883",
"L.	c #9B8D60",
"M.	c #D0775C",
"N.	c #D91F0E",
"O.	c #E0AC26",
"P.	c #DCAA23",
"Q.	c #AD861A",
"R.	c #775B11",
"S.	c #856512",
"T.	c #B98D17",
"U.	c #6A4D01",
"V.	c #533D01",
"W.	c #8E6801",
"X.	c #A27601",
"Y.	c #AA7D00",
"Z.	c #AF8000",
"`.	c #EABA38",
" +	c #E9B836",
".+	c #E70907",
"++	c #C8B48C",
"@+	c #9B8E60",
"#+	c #C7BA91",
"$+	c #C53B25",
"%+	c #DC6D19",
"&+	c #DFAB21",
"*+	c #DEAA1F",
"=+	c #DBA81D",
"-+	c #B38816",
";+	c #71550C",
">+	c #946D01",
",+	c #9F7401",
"'+	c #543E01",
")+	c #100C00",
"!+	c #191200",
"~+	c #815E00",
"{+	c #E8B835",
"]+	c #E30505",
"^+	c #A67650",
"/+	c #D41B0E",
"(+	c #DB7A17",
"_+	c #DDA81C",
":+	c #DCA71A",
"<+	c #DBA618",
"[+	c #D8A316",
"}+	c #966E01",
"|+	c #9B7101",
"1+	c #A07501",
"2+	c #0D0900",
"3+	c #AAB0B3",
"4+	c #70777C",
"5+	c #050400",
"6+	c #E7B632",
"7+	c #E6B530",
"8+	c #E00505",
"9+	c #D64D39",
"0+	c #A57851",
"a+	c #CA8A6C",
"b+	c #CA190F",
"c+	c #D56C13",
"d+	c #DAA517",
"e+	c #D9A415",
"f+	c #D8A213",
"g+	c #986F01",
"h+	c #9C7201",
"i+	c #493600",
"j+	c #0C0D0E",
"k+	c #8D9CA5",
"l+	c #E6B430",
"m+	c #E5B32D",
"n+	c #E3A328",
"o+	c #DE5B19",
"p+	c #D6150B",
"q+	c #D33928",
"r+	c #AB6947",
"s+	c #C7B990",
"t+	c #A27A53",
"u+	c #C8190B",
"v+	c #D9A314",
"w+	c #D8A212",
"x+	c #D7A110",
"y+	c #997001",
"z+	c #9D7301",
"A+	c #A67900",
"B+	c #B5C3CE",
"C+	c #E4B22D",
"D+	c #E3B12A",
"E+	c #E2B028",
"F+	c #E1AE26",
"G+	c #E0A822",
"H+	c #DA6C17",
"I+	c #D0210D",
"J+	c #CE2418",
"K+	c #AE5A3D",
"L+	c #C8B58D",
"M+	c #C60505",
"N+	c #D8A211",
"O+	c #D6A00F",
"P+	c #D59F0D",
"Q+	c #9A7101",
"R+	c #9E7401",
"S+	c #A37701",
"T+	c #AA851F",
"U+	c #977519",
"V+	c #352808",
"W+	c #9D7817",
"X+	c #DDA91F",
"Y+	c #DDA71C",
"Z+	c #D77B14",
"`+	c #CA320F",
" @	c #C7160F",
".@	c #B14A32",
"+@	c #D59E0C",
"@@	c #D49D0A",
"#@	c #A47800",
"$@	c #A87B00",
"%@	c #84929D",
"&@	c #382C09",
"*@	c #130F03",
"=@	c #261D05",
"-@	c #8B6910",
";@	c #D6A217",
">@	c #D58810",
",@	c #CB430C",
"'@	c #D49D09",
")@	c #D39B07",
"!@	c #1D1500",
"~@	c #15191B",
"{@	c #251908",
"]@	c #AD8751",
"^@	c #7C6441",
"/@	c #171109",
"(@	c #1A1402",
"_@	c #7B5C0A",
":@	c #CE990F",
"<@	c #D69F0D",
"[@	c #D4920A",
"}@	c #D49C09",
"|@	c #D29B07",
"1@	c #D29A05",
"2@	c #9C7200",
"3@	c #241B00",
"4@	c #201301",
"5@	c #9B6F31",
"6@	c #D5AE78",
"7@	c #EBC896",
"8@	c #715733",
"9@	c #110B02",
"0@	c #110C01",
"a@	c #866306",
"b@	c #D39C08",
"c@	c #D29A06",
"d@	c #AC7D00",
"e@	c #584100",
"f@	c #100A00",
"g@	c #573B12",
"h@	c #B38A4F",
"i@	c #BE955B",
"j@	c #9D7032",
"k@	c #0D0A01",
"l@	c #C59005",
"m@	c #9F7501",
"n@	c #51340A",
"o@	c #7B5012",
"p@	c #1F1301",
"q@	c #694D03",
"r@	c #553E00",
"s@	c #0D0A00",
"t@	c #9D7304",
"u@	c #533D00",
"v@	c #352701",
"w@	c #523C01",
"                                                                ",
"                                                                ",
"                  . . .                                         ",
"                + @ # $ % & .                                   ",
"            . * = - ; > , ' ) ! ~ .                             ",
"        . { ] ^ / - ; > , ( _ : < [ } . .                       ",
"      | 1 2 3 4 / 5 6 > , ( _ : 7 8 9 0 a b .                   ",
"  . c d e f 3 4 / 5 6 > , ( _ : 7 g 9 h i j k l m .             ",
"  . n o e f 3 4 / 5 6 > p ( _ : 7 g 9 h i i i i q r .           ",
"  . s t u v 3 4 w 5 6 > p x _ : 7 g 9 h i i i i y z .           ",
"    . A B C D E F 5 6 > p x _ G 7 g 9 h i i H I J K .           ",
"    . L M N O P Q R S > p x _ G T g 9 h i U V W X .             ",
"    . t Y Z `  ...+.@.#.$.x _ G T g 9 h %.&.*.=.-..             ",
"    . Y ;.>.,.'.).!.~.{.].^./.(.T g _.:.<.[.}.|.1..             ",
"    . ;.>.2.3.4.5.6.7.8.9.0.a.b.c.d.e.f.g.h.i.j.k..             ",
"    . l.m.n.o.p.q.r.s.t.u.v.w.x.y.z.A.B.C.D.W E.F..             ",
"    . G.n.H.I.J.K.L.M.N.O.P.Q.R.S.T.U.V.W.X.J Y.Z..             ",
"    . `. +.+++@+#+@+#+$+%+&+*+=+-+;+h.>+,+'+)+!+~+.             ",
"    . {+^.]+#+@+#+@+#+^+/+(+_+:+<+[+}+|+1+2+3+4+5+.             ",
"    . 6+7+8+9+0+#+@+#+@+a+b+c+d+e+f+g+h+*.i+j+k+. .             ",
"    . l+m+n+o+p+q+r+s+@+#+t+u+v+w+x+y+z+X.A+. B+. .             ",
"    . C+D+E+F+G+H+I+J+K+L+@+M+N+O+P+Q+R+S+j.. B+. .             ",
"    . T+a.U+V+W+X+Y+Z+`+ @.@M+O++@@@|+1+#@$@. %@. . . .         ",
"      . &@*@. . =@-@;@e+>@,@M++@'@)@h+*.W E.!@~@{@]@^@/@.       ",
"                  . (@_@:@<@[@}@|@1@z+X.A+Y.2@3@4@5@6@7@8@9@.   ",
"                      . 0@a@b@c@1@1@R+S+j.d@e@. . f@g@h@i@j@4@  ",
"                          k@l@1@1@1@m@#@$@K . .   . . f@n@o@p@  ",
"                          . q@1@1@1@*.W r@. .           . . .   ",
"                            s@t@1@1@X.u@. .                     ",
"                              . v@t@w@. .                       ",
"                                  . .                           ",
"                                                                "};
