/* XPM */
static char * deci_xpm[] = {
"32 32 143 2",
"  	c None",
". 	c #020202",
"+ 	c #010101",
"@ 	c #1A1A1A",
"# 	c #373737",
"$ 	c #4D4D4D",
"% 	c #5A5A5A",
"& 	c #5E5E5E",
"* 	c #5D5D5D",
"= 	c #555555",
"- 	c #484848",
"; 	c #313131",
"> 	c #161616",
", 	c #050505",
"' 	c #323232",
") 	c #5F5F5F",
"! 	c #5C5C5C",
"~ 	c #515151",
"{ 	c #494949",
"] 	c #454545",
"^ 	c #474747",
"/ 	c #4C4C4C",
"( 	c #525252",
"_ 	c #4E4E4E",
": 	c #272727",
"< 	c #040404",
"[ 	c #252525",
"} 	c #585858",
"| 	c #6C6C6C",
"1 	c #959595",
"2 	c #A8A8A8",
"3 	c #9F9F9F",
"4 	c #8D8D8D",
"5 	c #7D7D7D",
"6 	c #6D6D6D",
"7 	c #5B5B5B",
"8 	c #444444",
"9 	c #1B1B1B",
"0 	c #383838",
"a 	c #626262",
"b 	c #7C7C7C",
"c 	c #C5C5C5",
"d 	c #ABABAB",
"e 	c #818181",
"f 	c #666666",
"g 	c #595959",
"h 	c #565656",
"i 	c #1D1D1D",
"j 	c #353535",
"k 	c #4B4B4B",
"l 	c #282828",
"m 	c #4F4F4F",
"n 	c #BFBFBF",
"o 	c #BABABA",
"p 	c #767676",
"q 	c #606060",
"r 	c #575757",
"s 	c #545454",
"t 	c #434343",
"u 	c #1E1E1E",
"v 	c #414141",
"w 	c #303030",
"x 	c #D0D0D0",
"y 	c #999999",
"z 	c #505050",
"A 	c #2D2D2D",
"B 	c #151515",
"C 	c #3E3E3E",
"D 	c #242424",
"E 	c #CBCBCB",
"F 	c #878787",
"G 	c #616161",
"H 	c #4A4A4A",
"I 	c #343434",
"J 	c #424242",
"K 	c #B5B5B5",
"L 	c #949494",
"M 	c #2A2A2A",
"N 	c #1F1F1F",
"O 	c #3A3A3A",
"P 	c #030303",
"Q 	c #717171",
"R 	c #AFAFAF",
"S 	c #646464",
"T 	c #636363",
"U 	c #363636",
"V 	c #404040",
"W 	c #6F6F6F",
"X 	c #737373",
"Y 	c #6E6E6E",
"Z 	c #686868",
"` 	c #393939",
" .	c #171717",
"..	c #797979",
"+.	c #3F3F3F",
"@.	c #181818",
"#.	c #0E0E0E",
"$.	c #8A8A8A",
"%.	c #7B7B7B",
"&.	c #727272",
"*.	c #848484",
"=.	c #747474",
"-.	c #656565",
";.	c #464646",
">.	c #3D3D3D",
",.	c #292929",
"'.	c #262626",
").	c #969696",
"!.	c #3B3B3B",
"~.	c #3C3C3C",
"{.	c #141414",
"].	c #8B8B8B",
"^.	c #0D0D0D",
"/.	c #777777",
"(.	c #535353",
"_.	c #333333",
":.	c #9A9A9A",
"<.	c #2B2B2B",
"[.	c #2F2F2F",
"}.	c #989898",
"|.	c #232323",
"1.	c #222222",
"2.	c #7E7E7E",
"3.	c #212121",
"4.	c #7A7A7A",
"5.	c #0B0B0B",
"6.	c #B2B2B2",
"7.	c #B4B4B4",
"8.	c #BDBDBD",
"9.	c #1C1C1C",
"0.	c #121212",
"a.	c #C3C3C3",
"b.	c #131313",
"c.	c #191919",
"d.	c #757575",
"e.	c #C1C1C1",
"f.	c #0F0F0F",
"g.	c #888888",
"h.	c #919191",
"i.	c #9B9B9B",
"j.	c #A3A3A3",
"k.	c #858585",
"l.	c #2C2C2C",
"                        . + + + + + + .                         ",
"                  . . @ # $ % & * = - ; > . .                   ",
"                , ' ) ! ~ { ] ^ ^ ] ^ / ( _ : <                 ",
"            + [ & } - | 1 2 3 4 5 6 7 / 8 ] / ^ 9 +             ",
"          . 0 a - b c d e f * ! % g h { ' i j 8 k l .           ",
"        . ^ * m n o p q ) * ! % g r = s ( t 9 u v - w +         ",
"      + 0 & ! x y a q ) * ! % g r = s ( z m $ A B C ] D +       ",
"      D a z E F a G ) * ! % g r = s ( ~ m $ / H I > J 8 >       ",
"    , & k K L a G ) * ! % g r = s ( ~ m $ / H - ^ M N J O P     ",
"  . ' 7 Q R a G ) & ! % % G S T & h z $ / H - ^ ] 8 @ U V i .   ",
"  . & { K W G ) & ! % G X X Y Z a 7 s / - - ^ ] 8 J `  .J # +   ",
"  @ * Z 3 G ) & ! % a ..b ..X | S * = _ ] t ] 8 J v +.@.O v #.  ",
". 0 ( $.%.) & ! 7 % &.b *.b =.6 -.& h m ;.>.t J v +.C ,.'.z u . ",
"+ _ { ).S & ! 7 g a X ..b ..X | S * = _ ] !.O v +.C ~.U {.-.,.+ ",
"+ % ] ].& ! 7 g r -.Y X =.X Y Z a 7 s / t O I +.C ~.!.` ^./.w + ",
"+ ) ;./.! 7 g } h a Z | 6 | Z T & r ~ H V # ' C ~.!.` # #.e I + ",
"+ * ;.-.7 g } h s * a S -.S a & g (.$ ] ~._.' ~.!.` 0 U #.4 _.+ ",
"+ h ] (.g } h s (.h 7 * & * 7 r (._ - V # ' I !.` 0 U I ^.:.<.+ ",
"+ ^ - J s h = (.~ ~ s = h = s ~ $ - v O ' ' # ` 0 U j [.{.}.|.+ ",
". ' $ O C = (.~ z $ / _ m _ / H ] V O _.' ' ` 0 U j _.1.U 2.@.. ",
"  > (.>.3.(.( z _ / { ] ;.] t V ~.# ' ' ' # 0 U j _.; {.4.( 5.  ",
"  . _ ;.9 ^ z _ $ k { 8 ~.!.O # _.' ' _.# 0 U j _.; M  .6.M +   ",
"  . ,.$ !.N _ $ k { - ;.8 O j ' ' I U ` 0 U j _.; w {.=.f {..   ",
"    < { ;.1.[.k { - ;.] t J V +.>.!.` 0 U j _.; w i : 7.[ .     ",
"      9 $ J  .j - ;.] t J V +.>.!.O 0 U j _.; w |.B 8.^ #.      ",
"      + l { C B M ] t J V +.>.!.O 0 U j _.; w i {.R G B +       ",
"        + ; ;.V 9.@.# V +.>.!.O 0 U j _.; ,.0.D a.f @ +         ",
"          . [ ] t ; b.c.,.U O 0 # j [.1.{.{.d.e./ B +           ",
"            +  .O t m ] ,.b.#.f.#.^.{.U 2.n d.l #.+             ",
"                P u 0 - * p g.h.i.2 j.k.} M {..                 ",
"                  . + f.N <.w U I l.D @.5.+ .                   ",
"                        . + + + + + + .                         "};
