/* XPM */
static char * devel_xpm[] = {
"32 32 163 2",
"  	c None",
". 	c #000000",
"+ 	c #0A0A0A",
"@ 	c #2D2D2D",
"# 	c #3A3A3A",
"$ 	c #383838",
"% 	c #282828",
"& 	c #090909",
"* 	c #0E0E0E",
"= 	c #5A5A5A",
"- 	c #858585",
"; 	c #838383",
"> 	c #7E7E7E",
", 	c #787878",
"' 	c #747474",
") 	c #6C6C6C",
"! 	c #434343",
"~ 	c #151515",
"{ 	c #7A7A7A",
"] 	c #828282",
"^ 	c #7D7D7D",
"/ 	c #737373",
"( 	c #6E6E6E",
"_ 	c #696969",
": 	c #646464",
"< 	c #5E5E5E",
"[ 	c #505050",
"} 	c #050505",
"| 	c #6D6D6D",
"1 	c #686868",
"2 	c #636363",
"3 	c #595959",
"4 	c #545454",
"5 	c #4F4F4F",
"6 	c #3F3F3F",
"7 	c #030303",
"8 	c #393939",
"9 	c #777777",
"0 	c #727272",
"a 	c #5D5D5D",
"b 	c #535353",
"c 	c #4E4E4E",
"d 	c #4A4A4A",
"e 	c #232323",
"f 	c #0C0C0C",
"g 	c #1E1E1E",
"h 	c #2E2E2E",
"i 	c #414141",
"j 	c #474747",
"k 	c #484848",
"l 	c #3B3B3B",
"m 	c #343434",
"n 	c #2B2B2B",
"o 	c #212121",
"p 	c #080808",
"q 	c #7A4C4C",
"r 	c #D48080",
"s 	c #A86262",
"t 	c #804848",
"u 	c #562E2E",
"v 	c #2E1818",
"w 	c #070303",
"x 	c #2D1313",
"y 	c #542222",
"z 	c #7D3030",
"A 	c #A43B3B",
"B 	c #CC4646",
"C 	c #7C2828",
"D 	c #6D4141",
"E 	c #F68E8E",
"F 	c #B26363",
"G 	c #1D0F0F",
"H 	c #321A1A",
"I 	c #B65A5A",
"J 	c #E36C6C",
"K 	c #E15D5D",
"L 	c #F15F5F",
"M 	c #F15A5A",
"N 	c #F05454",
"O 	c #EF4F4F",
"P 	c #EF4A4A",
"Q 	c #6A1F1F",
"R 	c #553030",
"S 	c #F58686",
"T 	c #331B1B",
"U 	c #100808",
"V 	c #E16464",
"W 	c #E35757",
"X 	c #F05757",
"Y 	c #F05252",
"Z 	c #EF4D4D",
"` 	c #EF4848",
" .	c #EE4343",
"..	c #561616",
"+.	c #391F1F",
"@.	c #F57F7F",
"#.	c #211111",
"$.	c #D65959",
"%.	c #E25050",
"&.	c #CA4343",
"*.	c #541A1A",
"=.	c #401313",
"-.	c #BF3434",
";.	c #ED3B3B",
">.	c #3B0D0D",
",.	c #0A0505",
"'.	c #F07575",
").	c #6E3333",
"!.	c #632828",
"~.	c #E35858",
"{.	c #DF4848",
"].	c #1D0909",
"^.	c #3A0E0E",
"/.	c #EA3333",
"(.	c #0B0202",
"_.	c #C25A5A",
":.	c #EF6A6A",
"<.	c #AD4949",
"[.	c #C04D4D",
"}.	c #F15C5C",
"|.	c #E25151",
"1.	c #D33F3F",
"2.	c #1C0606",
"3.	c #C02525",
"4.	c #813838",
"5.	c #F26464",
"6.	c #F15E5E",
"7.	c #F05959",
"8.	c #E14A4A",
"9.	c #E03B3B",
"0.	c #441111",
"a.	c #520F0F",
"b.	c #7D1414",
"c.	c #1F0D0D",
"d.	c #E95959",
"e.	c #E14444",
"f.	c #DF3535",
"g.	c #E73232",
"h.	c #9A1E1E",
"i.	c #851717",
"j.	c #D82020",
"k.	c #200404",
"l.	c #5D2121",
"m.	c #EC4F4F",
"n.	c #EE4545",
"o.	c #E03C3C",
"p.	c #DE2D2D",
"q.	c #EC2B2B",
"r.	c #EB2626",
"s.	c #E82121",
"t.	c #5F0B0B",
"u.	c #431414",
"v.	c #D93D3D",
"w.	c #EE3E3E",
"x.	c #DD2727",
"y.	c #EB2424",
"z.	c #D61C1C",
"A.	c #420707",
"B.	c #090202",
"C.	c #601616",
"D.	c #951F1F",
"E.	c #951616",
"F.	c #090101",
"                                                                ",
"                                                                ",
"                                                                ",
"                                                                ",
"                              . .                               ",
"                        . . . . . . . .                         ",
"                    . . . + @ # $ % & . . .                     ",
"          . . .   . . * = - ; > , ' ) ! & . .   . . .           ",
"        . . . . . . ~ { ] ^ , / ( _ : < [ * . . . . . .         ",
"        . . . . . } ( ^ , / | 1 2 < 3 4 5 6 7 . . . . .         ",
"          . . . . 8 9 0 | 1 2 a 3 b c d d d e . . . .           ",
"            . . . f g h $ i j k ! l m n o ~ p . . .             ",
"              . . . . . . . . . . . . . . . . . .               ",
"              . q r s t u v w . . w x y z A B C .               ",
"            . . D E F G H I J . . K L M N O P Q . .             ",
"    . . . . . . R S T . . U V . . W X Y Z `  .... . . . . .     ",
"  . . . . . . . +.@.#.. . . $.. . %.&.*.=.-.;.>.. . . . . . .   ",
"  . . . . . . . ,.'.).. . !.~.. . {.].. . ^./.(.. . . . . . .   ",
"  . . . . . . . . _.:.<.[.}.|.. . 1.. . . 2.3.. . . . . . . .   ",
"            . . . 4.5.6.7.N 8.. . 9.0.. . a.b.. . .             ",
"              . . c.d.X Y Z e.. . f.g.h.i.j.k.. .               ",
"                . . l.m.P n.o.. . p.q.r.s.t.. .                 ",
"              . . . . u.v.w.f.. . x.y.z.A.. . . .               ",
"            . . . . . . B.C.D.. . E.t.F.. . . . . .             ",
"          . . . . . . . . . . . . . . . . . . . . . .           ",
"          . . . . .       . . . . . .       . . . . .           ",
"            . . .                             . . .             ",
"                                                                ",
"                                                                ",
"                                                                ",
"                                                                ",
"                                                                "};
