/* XPM */
static char * firefox_xpm[] = {
"32 32 275 2",
"  	c None",
". 	c #000000",
"+ 	c #101310",
"@ 	c #415541",
"# 	c #151E15",
"$ 	c #131613",
"% 	c #446E44",
"& 	c #1B2D1B",
"* 	c #010101",
"= 	c #588358",
"- 	c #377F37",
"; 	c #386F38",
"> 	c #496649",
", 	c #070907",
"' 	c #567D56",
") 	c #398139",
"! 	c #337B33",
"~ 	c #1D301D",
"{ 	c #475747",
"] 	c #659165",
"^ 	c #4D924D",
"/ 	c #3F873F",
"( 	c #2C742C",
"_ 	c #317931",
": 	c #488548",
"< 	c #4A914A",
"[ 	c #182718",
"} 	c #3C493C",
"| 	c #7AB17A",
"1 	c #58A058",
"2 	c #4D954D",
"3 	c #4A924A",
"4 	c #478F47",
"5 	c #347C34",
"6 	c #296A29",
"7 	c #397B39",
"8 	c #397939",
"9 	c #2C6A2C",
"0 	c #307730",
"a 	c #111B11",
"b 	c #2F3C2F",
"c 	c #223122",
"d 	c #5A735A",
"e 	c #6AB06A",
"f 	c #66AE66",
"g 	c #5EA65E",
"h 	c #539B53",
"i 	c #3A763A",
"j 	c #235423",
"k 	c #204C20",
"l 	c #225122",
"m 	c #2E702E",
"n 	c #317531",
"o 	c #2D6C2D",
"p 	c #364D36",
"q 	c #435843",
"r 	c #488C48",
"s 	c #080E08",
"t 	c #659D65",
"u 	c #4E964E",
"v 	c #5DA55D",
"w 	c #65AD65",
"x 	c #5AA25A",
"y 	c #4C934C",
"z 	c #428942",
"A 	c #377D37",
"B 	c #327832",
"C 	c #3D843D",
"D 	c #458D45",
"E 	c #1F431F",
"F 	c #0C100C",
"G 	c #61A861",
"H 	c #59A159",
"I 	c #519951",
"J 	c #438B43",
"K 	c #559D55",
"L 	c #367E36",
"M 	c #3C843C",
"N 	c #3E863E",
"O 	c #408840",
"P 	c #162C16",
"Q 	c #070A07",
"R 	c #477A47",
"S 	c #3D853D",
"T 	c #3A823A",
"U 	c #4C944C",
"V 	c #388038",
"W 	c #357D35",
"X 	c #3B833B",
"Y 	c #418941",
"Z 	c #2D752D",
"` 	c #070D07",
" .	c #0E130E",
"..	c #528852",
"+.	c #4B934B",
"@.	c #499149",
"#.	c #428A42",
"$.	c #347834",
"%.	c #387C38",
"&.	c #448C44",
"*.	c #3E803E",
"=.	c #212C21",
"-.	c #5F9D5F",
";.	c #569E56",
">.	c #4F974F",
",.	c #327A32",
"'.	c #2E762E",
").	c #466C3A",
"!.	c #C06B29",
"~.	c #7B7E39",
"{.	c #487448",
"].	c #487C48",
"^.	c #070C07",
"/.	c #486248",
"(.	c #68AC68",
"_.	c #60A860",
":.	c #549C54",
"<.	c #489048",
"[.	c #99533B",
"}.	c #C63D26",
"|.	c #44813B",
"1.	c #468E46",
"2.	c #234823",
"3.	c #3F843F",
"4.	c #529A52",
"5.	c #2B732B",
"6.	c #265026",
"7.	c #529652",
"8.	c #509850",
"9.	c #142414",
"0.	c #5A9A5A",
"a.	c #364E36",
"b.	c #609B60",
"c.	c #5CA45C",
"d.	c #559255",
"e.	c #405640",
"f.	c #161B16",
"g.	c #101510",
"h.	c #608D60",
"i.	c #63AB63",
"j.	c #62AA62",
"k.	c #3E7232",
"l.	c #356035",
"m.	c #3A4D3A",
"n.	c #6AA96A",
"o.	c #3D7836",
"p.	c #456E34",
"q.	c #773E25",
"r.	c #80351E",
"s.	c #458C45",
"t.	c #468C46",
"u.	c #559855",
"v.	c #367C36",
"w.	c #071007",
"x.	c #0B0E0B",
"y.	c #2C472C",
"z.	c #203620",
"A.	c #4B6A4B",
"B.	c #926B63",
"C.	c #D21514",
"D.	c #CB1212",
"E.	c #BF1616",
"F.	c #9D4747",
"G.	c #4A6945",
"H.	c #418341",
"I.	c #569156",
"J.	c #67A767",
"K.	c #579F57",
"L.	c #132E13",
"M.	c #0C110C",
"N.	c #9CAE9C",
"O.	c #C06363",
"P.	c #DF4141",
"Q.	c #B94040",
"R.	c #897373",
"S.	c #737D73",
"T.	c #377437",
"U.	c #3E7C3E",
"V.	c #4F894F",
"W.	c #81B281",
"X.	c #579E57",
"Y.	c #122612",
"Z.	c #8EA88E",
"`.	c #BDBCBC",
" +	c #B19090",
".+	c #949494",
"++	c #617961",
"@+	c #327632",
"#+	c #438943",
"$+	c #3B773B",
"%+	c #438643",
"&+	c #447E44",
"*+	c #77A477",
"=+	c #71AE71",
"-+	c #446044",
";+	c #335133",
">+	c #538653",
",+	c #ABB6AB",
"'+	c #5E885E",
")+	c #517E40",
"!+	c #587E43",
"~+	c #427A42",
"{+	c #649164",
"]+	c #92C192",
"^+	c #5EA45E",
"/+	c #4F724F",
"(+	c #080B08",
"_+	c #4F784F",
":+	c #528142",
"<+	c #919D53",
"[+	c #CACA6F",
"}+	c #9CA660",
"|+	c #427942",
"1+	c #527E52",
"2+	c #93BF93",
"3+	c #7BB57B",
"4+	c #61A161",
"5+	c #364936",
"6+	c #599859",
"7+	c #497F42",
"8+	c #8F9A51",
"9+	c #C6C76B",
"0+	c #CCCC70",
"a+	c #417741",
"b+	c #3E6B3E",
"c+	c #7FAC7F",
"d+	c #97BB97",
"e+	c #263026",
"f+	c #61623C",
"g+	c #D2D276",
"h+	c #CDCD71",
"i+	c #CECE72",
"j+	c #A4AE64",
"k+	c #477747",
"l+	c #406040",
"m+	c #334233",
"n+	c #070707",
"o+	c #A1A162",
"p+	c #D8D87C",
"q+	c #D5D579",
"r+	c #ABB56A",
"s+	c #579D57",
"t+	c #466546",
"u+	c #030301",
"v+	c #D3D37C",
"w+	c #DBDB7F",
"x+	c #DDDD81",
"y+	c #B7BF76",
"z+	c #599559",
"A+	c #222F22",
"B+	c #060603",
"C+	c #D5D57D",
"D+	c #E3E387",
"E+	c #DCDC80",
"F+	c #DFDF83",
"G+	c #E1E185",
"H+	c #BEC67D",
"I+	c #507A50",
"J+	c #686841",
"K+	c #E0E085",
"L+	c #ECEC90",
"M+	c #E9E98D",
"N+	c #E7E78B",
"O+	c #C6CE83",
"P+	c #549654",
"Q+	c #324732",
"R+	c #4E4E34",
"S+	c #B5B576",
"T+	c #E7E791",
"U+	c #F2F296",
"V+	c #D0D78A",
"W+	c #528652",
"X+	c #121812",
"Y+	c #25251B",
"Z+	c #343627",
"                                    .                           ",
"                        + @ # .   $ % & *                       ",
"                      . = - ; > , ' ) ! ~                       ",
"                  . { ] ^ / ( _ : < ) ! [     .                 ",
"              . } | 1 2 3 4 5 6 7 8 9 0 a . b c                 ",
"            . d e f g h ^ i j k l m n o p q r 8 s               ",
"            . t u v w x y z A B ! ! ! ! 5 C D - E .             ",
"            F G H I J H K 3 / L ! _ L M N O ) - P               ",
"          Q R S I I 3 O T U V W V ) X S / Y J Z `               ",
"         ...+.D S ) @.#.T ( W $.%.T M N O #.&.*.* . .           ",
"    . =.-.;.>.@.J S ,.- '.! ).!.~.M N / Y J D 4 {.].^.          ",
"  . /.(._.x :.u <.#.M ( ( W [.}.|.S N O #.&.1.<.J &.2..         ",
"  . 3.h w g 1 4.U O 5.! 5 L V T M N O #.&.D 4 @.+.- 6..         ",
"  . 7.u O x v 8.5 ,.! 5 L - ) X S / Y J D 1.<.3 U Y 9.          ",
"  . 0.;.;.>.V ! ! ! ! W - V T M N O #.&.1.<.3 U 2 >.a..         ",
"  . b.c.c.c.5 ! ! ! 5 L V T M N / Y J D 4 @.+.U u 8.d.e.f.      ",
"    g.h.i.j.L ! ! ! W - ) X k.N O #.&.1.<.3 U u >.I h O l..     ",
"      . m.n.V ! ! 5 L o.p.q.r.O #.&.s.t.@.+.2 >.u.4.:.+.v.w.    ",
"          x.y.z.A.B.C.D.E.F.G.Y J D H.<.3 U u 8.I.J.;.K.'.L.    ",
"            . M.N.O.P.Q.R.S.T.#.&.1.U.3 U 2 >.I V.W.X.1 3 Y.    ",
"              y.Z.`. +.+++@+Y J #+$+%++.U u 8.4.&+*+=+x c.-+.   ",
"              ;+O >+,+'+L O Y )+!+4 3 U u >.I h ~+{+]+^+v /+.   ",
"              (+_+;.Y X O :+<+[+}+@.+.2 >.8.4.:.|+1+2+3+4+M.    ",
"                . 5+6+7+8+9+0+0+}+3 U u 8.4.:.;.a+b+c+d+e+.     ",
"                    (+f+g+h+0+i+j++.2 >.I h K ;.k+l+m+n+.       ",
"                    . o+p+g+q+q+r+U u 8.4.:.s+t+* . .           ",
"                    u+v+w+x+w+x+y+u >.I h z+A+.                 ",
"                    B+C+D+E+F+G+H+u 8.h I+, .                   ",
"                    . J+K+L+M+N+O+8.P+Q+. .                     ",
"                      . R+S+T+U+V+W+X+.                         ",
"                        . . . Y+Z+* .                           ",
"                            . . . .                             "};
