/* XPM */
static char * closeA_xpm[] = {
"18 36 34 1",
" 	c None",
".	c #E87E00",
"+	c #6F6F6F",
"@	c #6E6E6E",
"#	c #6D6D6D",
"$	c #6C6C6C",
"%	c #6B6B6B",
"&	c #6A6A6A",
"*	c #666666",
"=	c #656565",
"-	c #646464",
";	c #636363",
">	c #626262",
",	c #616161",
"'	c #5E5E5E",
")	c #5D5D5D",
"!	c #5A5A5A",
"~	c #595959",
"{	c #585858",
"]	c #575757",
"^	c #565656",
"/	c #555555",
"(	c #545454",
"_	c #525252",
":	c #515151",
"<	c #505050",
"[	c #4C4C4C",
"}	c #4B4B4B",
"|	c #3C3C3C",
"1	c #3B3B3B",
"2	c #393939",
"3	c #3A3A3A",
"4	c #383838",
"5	c #373737",
"..................",
"+@#########$$$$$$#",
"%%%%%&&&&&&&&&&&&&",
"********========-=",
";;>>>>>>>>>>,,,,,,",
"''''''''''''''))))",
"!!!!!.!~~~.~~~~~~{",
"]]]^^^.^/.//((((((",
"______:..:::::<<<<",
"[[[[[[[..}[}}}}}}}",
"||||||.||.||||||||",
"11111.1111.1111111",
"222222222222223333",
"222222222222222222",
"222222222222222222",
"444444444444444444",
"555555555555555555",
"..................",
"..................",
"+@#########$$$$$$#",
"%%%%%&&&&&&&&&&&&&",
"********========-=",
";;>>>>>>>>>>,,,,,,",
"''''''''''''''))))",
"!!!!!!!~~~~~~~~~~{",
"]]]^^.^^//./((((((",
"______.::.::::<<<<",
"[[[[[[[..}[}}}}}}}",
"|||||||..|||||||||",
"111111.11.11111111",
"22222.2222.2223333",
"222222222222222222",
"222222222222222222",
"444444444444444444",
"555555555555555555",
".................."};
