/* XPM */
static char * titleAP_xpm[] = {
"20 18 35 1",
" 	c None",
".	c #E87E00",
"+	c #6F6F6F",
"@	c #6E6E6E",
"#	c #6D6D6D",
"$	c #6C6C6C",
"%	c #6B6B6B",
"&	c #6A6A6A",
"*	c #666666",
"=	c #656565",
"-	c #646464",
";	c #636363",
">	c #626262",
",	c #616161",
"'	c #5E5E5E",
")	c #5D5D5D",
"!	c #5A5A5A",
"~	c #595959",
"{	c #585858",
"]	c #575757",
"^	c #565656",
"/	c #555555",
"(	c #545454",
"_	c #535353",
":	c #525252",
"<	c #515151",
"[	c #505050",
"}	c #4C4C4C",
"|	c #4B4B4B",
"1	c #3C3C3C",
"2	c #3B3B3B",
"3	c #393939",
"4	c #3A3A3A",
"5	c #383838",
"6	c #373737",
"....................",
"+@#########$$$$$$#$$",
"%%%%%&&&&&&&&&&&&&&&",
"********========-=--",
";;>>>>>>>>>>,,,,,,,,",
"''''''''''''''))))))",
"!!!!!!!~~~~~~~~~~{{{",
"]]]^^^^^////(((((((_",
"::::::<<<<<<<<[[[[[[",
"}}}}}}}}}|}|||||||||",
"11111111111111111111",
"22222222222222222222",
"33333333333333444444",
"33333333333333333333",
"33333333333333333333",
"55555555555555555555",
"66666666666666666666",
"...................."};
