/* XPM */
static char * titleIB_xpm[] = {
"20 18 30 1",
" 	c None",
".	c #ED9B3A",
"+	c #8F8F8F",
"@	c #8E8E8E",
"#	c #8D8D8D",
"$	c #8C8C8C",
"%	c #8B8B8B",
"&	c #888888",
"*	c #878787",
"=	c #868686",
"-	c #858585",
";	c #848484",
">	c #828282",
",	c #818181",
"'	c #7F7F7F",
")	c #7E7E7E",
"!	c #7D7D7D",
"~	c #7C7C7C",
"{	c #7B7B7B",
"]	c #7A7A7A",
"^	c #797979",
"/	c #787878",
"(	c #777777",
"_	c #747474",
":	c #737373",
"<	c #686868",
"[	c #676767",
"}	c #666666",
"|	c #656565",
"1	c #646464",
"....................",
"+@@@@@@@@@@######@##",
"$$$$$%%%%%%%%%%%%%%%",
"&&&&&&&&&&&&&&&&*&**",
"==----------;;;;;;;;",
">>>>>>>>>>>>>>,,,,,,",
"'''''''))))))))))!!!",
"!!!~~~~~{{{{]]]]]]]]",
"^^^^^^////////((((((",
"_________:_:::::::::",
"<<<<<<<<<<<<<<<<<<<<",
"[[[[[[[[[[[[[[[[[[[[",
"}}}}}}}}}}}}}}}}}}}}",
"}}}}}}}}}}}}}}}}}}}}",
"}}}}}}}}}}}}}}}}}}}}",
"||||||||||||||||||||",
"11111111111111111111",
"...................."};
