/* XPM */
static char * tmp_xpm[] = {
"13 36 29 1",
" 	c None",
".	c #E87E00",
"+	c #6F6F6F",
"@	c #6E6E6E",
"#	c #6D6D6D",
"$	c #6C6C6C",
"%	c #6B6B6B",
"&	c #6A6A6A",
"*	c #666666",
"=	c #656565",
"-	c #636363",
";	c #626262",
">	c #616161",
",	c #5E5E5E",
"'	c #5A5A5A",
")	c #595959",
"!	c #575757",
"~	c #565656",
"{	c #555555",
"]	c #545454",
"^	c #525252",
"/	c #515151",
"(	c #4C4C4C",
"_	c #4B4B4B",
":	c #3C3C3C",
"<	c #3B3B3B",
"[	c #393939",
"}	c #383838",
"|	c #373737",
".............",
"+@#########$$",
"%%%%%&&&&&&&&",
"********=====",
"--;;;;;;;;;;>",
",,,,,,,,,,,,,",
"'''''''))))))",
"!!!~~~~~{{{{]",
"^^^^^^///////",
"(((((((((_(__",
":::::::::::::",
"<<<<<<<<<<<<<",
"[[[[[[[[[[[[[",
"[[[[[[[[[[[[[",
"[[[[[[[[[[[[[",
"}}}}}}}}}}}}}",
"|||||||||||||",
".............",
".............",
"+@#########$$",
"%%%%%&&&&&&&&",
"********=====",
"--;;;;;;;;;;>",
",,,,,,,,,,,,,",
"'''''''))))))",
"!!!~~~~~{{{{]",
"^^^^^^///////",
"(((((((((_(__",
":::::::::::::",
"<<<<<<<<<<<<<",
"[[[[[[[[[[[[[",
"[[[[[[[[[[[[[",
"[[[[[[[[[[[[[",
"}}}}}}}}}}}}}",
"|||||||||||||",
"............."};
