/* XPM */
static char * minimizeA_xpm[] = {
"16 32 15 1",
" 	c None",
".	c #A0DBEF",
"+	c #16A7DA",
"@	c #16A6D9",
"#	c #15A5D8",
"$	c #000000",
"%	c #15A5D7",
"&	c #15A3D7",
"*	c #139FD4",
"=	c #129CD1",
"-	c #1097CF",
";	c #1199CF",
">	c #D1E9F1",
",	c #30819D",
"'	c #FFFFFF",
"................",
"++++++++++++++++",
"++++++++++++++++",
"++++++++++++++++",
"++++++++++++++++",
"++++++++++++++++",
"@@@@@@@@@@@@@@@@",
"####$$$$$$$$####",
"%%%%$$$$$$$$%%%%",
"&&&&&&&&&&&&&&&&",
"****************",
"================",
"----------------",
";;;;;;;;;;;;;;;;",
">>>>>>>>>>>>>>>>",
",,,,,,,,,,,,,,,,",
"................",
"++++++++++++++++",
"++++++++++++++++",
"++++++++++++++++",
"++++++++++++++++",
"++++++++++++++++",
"@@@@@@@@@@@@@@@@",
"####''''''''####",
"%%%%''''''''%%%%",
"&&&&&&&&&&&&&&&&",
"****************",
"================",
"----------------",
";;;;;;;;;;;;;;;;",
">>>>>>>>>>>>>>>>",
",,,,,,,,,,,,,,,,"};
