/* XPM */
static char * desktop_xpm[] = {
"20 20 270 2",
"  	c None",
". 	c #807D85",
"+ 	c #807B83",
"@ 	c #8B818E",
"# 	c #8C818D",
"$ 	c #928492",
"% 	c #968695",
"& 	c #998895",
"* 	c #9B8896",
"= 	c #9F8E9B",
"- 	c #998794",
"; 	c #998894",
"> 	c #9A8995",
", 	c #9A8A97",
"' 	c #9B8998",
") 	c #988893",
"! 	c #8F828C",
"~ 	c #8F838D",
"{ 	c #8A8991",
"] 	c #494453",
"^ 	c #AFA7B4",
"/ 	c #B3A5B5",
"( 	c #B8A5B7",
"_ 	c #C2ADC1",
": 	c #C8AFC3",
"< 	c #C9B0C1",
"[ 	c #CFB7CA",
"} 	c #C8AEC1",
"| 	c #C4ACBC",
"1 	c #C6AEBE",
"2 	c #C8B0C1",
"3 	c #CBB7C6",
"4 	c #CAB3C4",
"5 	c #C8B1C1",
"6 	c #70646C",
"7 	c #B9AAB6",
"8 	c #7F7E87",
"9 	c #73707B",
"0 	c #86808A",
"a 	c #8C848F",
"b 	c #948693",
"c 	c #9F8B9C",
"d 	c #A691A0",
"e 	c #A890A0",
"f 	c #AC99A8",
"g 	c #A6909F",
"h 	c #A58E9C",
"i 	c #A88FA1",
"j 	c #AA94A3",
"k 	c #AC98A6",
"l 	c #A892A1",
"m 	c #A38D9B",
"n 	c #9B8A95",
"o 	c #8E7D8A",
"p 	c #352B49",
"q 	c #3D2F4B",
"r 	c #3E2F47",
"s 	c #3F2F42",
"t 	c #4D394B",
"u 	c #684D63",
"v 	c #755467",
"w 	c #7C5869",
"x 	c #896677",
"y 	c #7C546A",
"z 	c #7D576F",
"A 	c #805870",
"B 	c #826072",
"C 	c #7F5B6E",
"D 	c #764F61",
"E 	c #694B59",
"F 	c #614355",
"G 	c #533444",
"H 	c #4D3669",
"I 	c #5E3D74",
"J 	c #623E70",
"K 	c #56375B",
"L 	c #5B3B57",
"M 	c #77536C",
"N 	c #8D627A",
"O 	c #95667F",
"P 	c #A77890",
"Q 	c #9C6680",
"R 	c #9D6B86",
"S 	c #A06F87",
"T 	c #A4798E",
"U 	c #926679",
"V 	c #8E6477",
"W 	c #805C6E",
"X 	c #6A4B55",
"Y 	c #593B41",
"Z 	c #5A3B7F",
"` 	c #6A3D85",
" .	c #844997",
"..	c #814989",
"+.	c #744372",
"@.	c #835179",
"#.	c #9E688A",
"$.	c #B47296",
"%.	c #C082A5",
"&.	c #B27591",
"*.	c #B87998",
"=.	c #C085A4",
"-.	c #B6859D",
";.	c #A6748C",
">.	c #9D7287",
",.	c #80606D",
"'.	c #664A51",
").	c #674354",
"!.	c #61508C",
"~.	c #6F498D",
"{.	c #7C478E",
"].	c #AC5EB3",
"^.	c #A859A5",
"/.	c #964E8E",
"(.	c #B26DA3",
"_.	c #CE86B5",
":.	c #E190C1",
"<.	c #DD94BA",
"[.	c #E4A0C5",
"}.	c #DC99BF",
"|.	c #C993AF",
"1.	c #B9819D",
"2.	c #A67B8F",
"3.	c #846271",
"4.	c #815071",
"5.	c #A05C92",
"6.	c #8465B1",
"7.	c #7F60A6",
"8.	c #885AA4",
"9.	c #9851A3",
"0.	c #C25ABC",
"a.	c #B950AC",
"b.	c #B95DAD",
"c.	c #E794D4",
"d.	c #F99ED9",
"e.	c #FEAADE",
"f.	c #FCB2E1",
"g.	c #EBA4D1",
"h.	c #DB92C1",
"i.	c #C380AC",
"j.	c #985E80",
"k.	c #9B5186",
"l.	c #BE5EA9",
"m.	c #C36BB4",
"n.	c #9B85D3",
"o.	c #AE7FD7",
"p.	c #A568C5",
"q.	c #9A50B4",
"r.	c #A03DA7",
"s.	c #B644A8",
"t.	c #CF66C1",
"u.	c #E58DD8",
"v.	c #FFAEF0",
"w.	c #FFB9F1",
"x.	c #FFC2F5",
"y.	c #FCB6ED",
"z.	c #E98BDA",
"A.	c #AD489B",
"B.	c #B24799",
"C.	c #C053A7",
"D.	c #AB5BA7",
"E.	c #7F5492",
"F.	c #312971",
"G.	c #52388D",
"H.	c #7340A1",
"I.	c #9049B3",
"J.	c #9941B4",
"K.	c #913AA0",
"L.	c #9D5DA3",
"M.	c #BB79BE",
"N.	c #F49AED",
"O.	c #FE9DF1",
"P.	c #FDC0F7",
"Q.	c #D182C9",
"R.	c #962C84",
"S.	c #972A7E",
"T.	c #94307E",
"U.	c #722F6D",
"V.	c #45234B",
"W.	c #291C2F",
"X.	c #101A3A",
"Y.	c #161C4A",
"Z.	c #241D5B",
"`.	c #311D65",
" +	c #3A2066",
".+	c #432563",
"++	c #57437B",
"@+	c #5B5286",
"#+	c #905AA4",
"$+	c #CB83CF",
"%+	c #75417D",
"&+	c #4A1B42",
"*+	c #4B1639",
"=+	c #451A3D",
"-+	c #341834",
";+	c #261528",
">+	c #1E1223",
",+	c #17101F",
"'+	c #06232E",
")+	c #052431",
"!+	c #0C273C",
"~+	c #516991",
"{+	c #767C92",
"]+	c #2A2A50",
"^+	c #80849B",
"/+	c #6D6789",
"(+	c #8E92B7",
"_+	c #959ECB",
":+	c #1D1125",
"<+	c #606DAB",
"[+	c #5E6AAA",
"}+	c #443A4D",
"|+	c #645F67",
"1+	c #1F1425",
"2+	c #110B1A",
"3+	c #0D0B17",
"4+	c #0C253B",
"5+	c #07233B",
"6+	c #26475F",
"7+	c #4060AB",
"8+	c #949EBD",
"9+	c #5D5B63",
"0+	c #6F9ABC",
"a+	c #6489A8",
"b+	c #7384AE",
"c+	c #737A87",
"d+	c #4D5776",
"e+	c #ADD3FC",
"f+	c #88B0E2",
"g+	c #565A67",
"h+	c #68696B",
"i+	c #3F3C48",
"j+	c #0A0A15",
"k+	c #0B0B16",
"l+	c #08080D",
"m+	c #1D222C",
"n+	c #586B7B",
"o+	c #556681",
"p+	c #5B627B",
"q+	c #656581",
"r+	c #646981",
"s+	c #6E6F8D",
"t+	c #777495",
"u+	c #796D91",
"v+	c #716776",
"w+	c #6D7084",
"x+	c #786D7E",
"y+	c #776A78",
"z+	c #77707C",
"A+	c #746D78",
"B+	c #2F2C35",
"C+	c #0E0D1C",
"D+	c #030203",
"E+	c #18181C",
"F+	c #272630",
"G+	c #2B2934",
"H+	c #312C38",
"I+	c #332F3A",
"J+	c #363541",
"K+	c #3A3A45",
"L+	c #423C49",
"M+	c #473E4B",
"N+	c #3D3842",
"O+	c #3B353D",
"P+	c #38333A",
"Q+	c #342F35",
"R+	c #2F2B31",
"S+	c #2C2A2E",
"T+	c #201F23",
"U+	c #040304",
"                                        ",
"                                        ",
"                                        ",
"  . + @ # $ % & * = * - ; > , ' ) ! ~   ",
"  { ] ^ / ( _ : < [ } | 1 2 3 4 5 6 7   ",
"  8 9 0 a b c d e f g h i j k l m n o   ",
"  p q r s t u v w x y z A B C D E F G   ",
"  H I J K L M N O P Q R S T U V W X Y   ",
"  Z `  ...+.@.#.$.%.&.*.=.-.;.>.,.'.).  ",
"  !.~.{.].^./.(._.:.<.[.}.|.1.2.3.4.5.  ",
"  6.7.8.9.0.a.b.c.d.e.f.g.h.i.j.k.l.m.  ",
"  n.o.p.q.r.s.t.u.v.w.x.y.z.A.B.C.D.E.  ",
"  F.G.H.I.J.K.L.M.N.O.P.Q.R.S.T.U.V.W.  ",
"  X.Y.Z.`. +.+++@+#+$+%+&+*+=+-+;+>+,+  ",
"  '+)+!+~+{+]+^+/+(+_+:+<+[+}+|+1+2+3+  ",
"  4+5+6+7+8+9+0+a+b+c+d+e+f+g+h+i+j+k+  ",
"  l+m+n+o+p+q+r+s+t+u+v+w+x+y+z+A+B+C+  ",
"  D+E+F+G+H+I+J+K+L+M+N+O+P+Q+R+S+T+U+  ",
"                                        ",
"                                        "};
