/* XPM */
static char * linux_xpm[] = {
"48 20 136 2",
"  	c None",
". 	c #16A7DA",
"+ 	c #1AA3D3",
"@ 	c #72C2DE",
"# 	c #DFF1F8",
"$ 	c #A0D6E9",
"% 	c #16A6D8",
"& 	c #84CAE2",
"* 	c #EBF6FA",
"= 	c #FFFFFF",
"- 	c #E9F4F7",
"; 	c #29A3CE",
"> 	c #96D2E7",
", 	c #F5FBFD",
"' 	c #3C96B6",
") 	c #38A9D1",
"! 	c #A7D9EB",
"~ 	c #FBFDFE",
"{ 	c #CEE1E8",
"] 	c #5B9BB1",
"^ 	c #066C8F",
"/ 	c #16A6D9",
"( 	c #48B0D5",
"_ 	c #B9E1EF",
": 	c #FEFEFF",
"< 	c #B5D2DC",
"[ 	c #428CA5",
"} 	c #006486",
"| 	c #036F95",
"1 	c #15A5D8",
"2 	c #5AB8D9",
"3 	c #CBE9F3",
"4 	c #F7FAFB",
"5 	c #9BC2D0",
"6 	c #297D99",
"7 	c #006487",
"8 	c #04749A",
"9 	c #15A5D7",
"0 	c #6CC0DD",
"a 	c #DAEFF6",
"b 	c #EBF3F6",
"c 	c #81B2C3",
"d 	c #167190",
"e 	c #016689",
"f 	c #0579A2",
"g 	c #6BBFDD",
"h 	c #C8E7F2",
"i 	c #C4E6F1",
"j 	c #14A4D6",
"k 	c #39AAD1",
"l 	c #E7F5FA",
"m 	c #D9E8ED",
"n 	c #68A3B7",
"o 	c #09698A",
"p 	c #01698C",
"q 	c #077FA8",
"r 	c #27A2CD",
"s 	c #FEFFFF",
"t 	c #A5D5E6",
"u 	c #14A3D5",
"v 	c #53B5D7",
"w 	c #C1D9E2",
"x 	c #4E93AB",
"y 	c #016586",
"z 	c #026D91",
"A 	c #0884AE",
"B 	c #E1EFF4",
"C 	c #F6FAFB",
"D 	c #13A2D4",
"E 	c #F4F8FA",
"F 	c #047298",
"G 	c #119DCF",
"H 	c #2596BE",
"I 	c #B8D5DE",
"J 	c #93BFCD",
"K 	c #087EA6",
"L 	c #13A1D3",
"M 	c #4BB2D5",
"N 	c #F7FBFD",
"O 	c #34A8D0",
"P 	c #129FD0",
"Q 	c #0D7397",
"R 	c #107193",
"S 	c #036E92",
"T 	c #12A0D2",
"U 	c #3496B9",
"V 	c #A4C8D4",
"W 	c #FBFDFD",
"X 	c #B8E0EF",
"Y 	c #129FD1",
"Z 	c #037096",
"` 	c #1F7795",
" .	c #91BCCB",
"..	c #D0EBF4",
"+.	c #63BCDB",
"@.	c #119FD0",
"#.	c #13708F",
"$.	c #7EB1C2",
"%.	c #E4F4F9",
"&.	c #7CC7E1",
"*.	c #119ECF",
"=.	c #05789F",
"-.	c #0A6C8D",
";.	c #6CA6B9",
">.	c #DEEBEF",
",.	c #F3FAFC",
"'.	c #94D1E6",
").	c #2AA4CE",
"!.	c #109DCE",
"~.	c #067BA4",
"{.	c #04698B",
"].	c #599AB0",
"^.	c #CFE2E8",
"/.	c #FCFEFE",
"(.	c #40ADD3",
"_.	c #109CCD",
":.	c #0780A9",
"<.	c #01698D",
"[.	c #468FA7",
"}.	c #BDD7E0",
"|.	c #F5F9FA",
"1.	c #0E80A8",
"2.	c #0F9BCC",
"3.	c #0883AE",
"4.	c #026C90",
"5.	c #34849F",
"6.	c #AACBD7",
"7.	c #FDFEFE",
"8.	c #AFCED9",
"9.	c #016789",
"0.	c #0F9ACB",
"a.	c #0C91C0",
"b.	c #036F94",
"c.	c #247A97",
"d.	c #35849F",
"e.	c #04759B",
". . . . . . . . . . . . . . . . . . . . . . . . . . . . . + . . . . . . . . . . . . . . . . . . ",
". . . . . . . . . . . . . . . . . . . . . . . . . . . @ # $ . . . . . . . . . . . . . . . . . . ",
". . . . . . . . . . . . . . . . . . . . . . . . % & * = = - . . . . . . . . . . . . . . . . . . ",
". . . . . . . . . . . . . . . . . . . . . . ; > , = = = = = ' . . . . . . . . . . . . . . . . . ",
". . . . . . . . . . . . . . . . . . . . ) ! ~ = = = = = { ] ^ . . . . . . . . . . . . . . . . . ",
"/ / / / / / / / / / / / / / / / / / ( _ = = = = = : < [ } } | / / / / / / / / / / / / / / / / / ",
"1 1 1 1 1 1 1 1 1 1 1 1 1 1 1 1 2 3 = = = = = 4 5 6 } 7 8 1 1 1 1 1 1 1 1 1 1 1 1 1 1 1 1 1 1 1 ",
"9 9 9 9 9 9 9 9 9 9 9 9 9 9 0 a = = = = = b c d } e f 9 9 9 g h i g 9 9 9 9 9 9 9 9 9 9 9 9 9 9 ",
"j j j j j j j j j j j j k l = = = = = m n o } p q j j j j r s = = = t j j j j j j j j j j j j j ",
"u u u u u u u u u u u u v = = = = w x y } z A u u u u u u u B = = = C u u u u u u u u u u u u u ",
"D D D D D D D D D D D D v = = = E c d F G D D D D D D D D D H I = = J K D D D D D D D D D D D D ",
"L L L L L L L L L L L L M = = = = = N $ O L L L L L L L L L L P Q R S L L L L L L L L L L L L L ",
"T T T T T T T T T T T T T U V W = = = = s X M T T T T T T T T T T T T T T T T T T T T T T T T T ",
"Y Y Y Y Y Y Y Y Y Y Y Y Y Y Z `  .E = = = = = ..+.Y Y Y Y Y Y Y Y Y Y Y Y Y Y Y Y Y Y Y Y Y Y Y ",
"@.@.@.@.@.@.@.@.@.@.@.@.@.@.@.@.8 #.$.b = = = = = %.&.@.@.@.@.@.@.@.@.@.@.@.@.@.@.@.@.@.@.@.@.@.",
"*.*.*.*.*.*.*.*.*.*.*.*.*.*.*.*.*.*.=.-.;.>.= = = = = ,.'.).*.*.*.*.*.*.*.*.*.*.*.*.*.*.*.*.*.*.",
"!.!.!.!.!.!.!.!.!.!.!.!.!.!.!.!.!.!.!.!.~.{.].^.= = = = = /.(.!.!.!.!.!.!.!.!.!.!.!.!.!.!.!.!.!.",
"_._._._._._._._._._._._._._._._._._._._._._.:.<.[.}.= = = |.1._._._._._._._._._._._._._._._._._.",
"2.2.2.2.2.2.2.2.2.2.2.2.2.2.2.2.2.2.2.2.2.2.2.2.3.4.5.6.7.8.9.2.2.2.2.2.2.2.2.2.2.2.2.2.2.2.2.2.",
"0.0.0.0.0.0.0.0.0.0.0.0.0.0.0.0.0.0.0.0.0.0.0.0.0.0.a.b.c.d.e.0.0.0.0.0.0.0.0.0.0.0.0.0.0.0.0.0."};
