/* XPM */
static char * linux_ren_xpm[] = {
"48 20 240 2",
"  	c None",
". 	c #16A7DA",
"+ 	c #1BA8DA",
"@ 	c #1AA8DA",
"# 	c #1DA9DB",
"$ 	c #1CA9DA",
"% 	c #DCEFF5",
"& 	c #E9F4F7",
"* 	c #E5F2F7",
"= 	c #F7F9F9",
"- 	c #2CAFDD",
"; 	c #25ACDC",
"> 	c #20AADB",
", 	c #2AAEDC",
"' 	c #22ABDB",
") 	c #24ACDC",
"! 	c #19A8DA",
"~ 	c #1FAADB",
"{ 	c #17A7DA",
"] 	c #AADDEE",
"^ 	c #CDE9F3",
"/ 	c #F3F7F9",
"( 	c #F0F6F8",
"_ 	c #F4F8F9",
": 	c #C7E7F2",
"< 	c #99D6EC",
"[ 	c #FAFAFA",
"} 	c #D9EEF5",
"| 	c #B6E1F0",
"1 	c #4FBBE2",
"2 	c #F6F8F9",
"3 	c #E0F0F6",
"4 	c #C5E6F2",
"5 	c #B0DFEF",
"6 	c #D8EDF5",
"7 	c #EEF5F8",
"8 	c #E4F2F6",
"9 	c #9CD7EC",
"0 	c #5FC1E4",
"a 	c #F1F7F8",
"b 	c #ADDEEF",
"c 	c #16A6D9",
"d 	c #CFEAF3",
"e 	c #6FC6E5",
"f 	c #6DC6E5",
"g 	c #C2E5F1",
"h 	c #9AD6EC",
"i 	c #F5F8F9",
"j 	c #6BC5E5",
"k 	c #9FD8EC",
"l 	c #E9F3F7",
"m 	c #72C8E6",
"n 	c #56BDE2",
"o 	c #EBF4F7",
"p 	c #78CAE7",
"q 	c #15A5D8",
"r 	c #75C8E6",
"s 	c #52BBE1",
"t 	c #1AA7D8",
"u 	c #C4E6F2",
"v 	c #67C3E4",
"w 	c #5CBFE2",
"x 	c #B0DEEF",
"y 	c #DEEFF5",
"z 	c #B5E0EF",
"A 	c #EDF5F8",
"B 	c #BAE2F0",
"C 	c #DBEEF5",
"D 	c #A6DBED",
"E 	c #ABDDEE",
"F 	c #49B8DF",
"G 	c #55BDE1",
"H 	c #B3DFEF",
"I 	c #5BBFE2",
"J 	c #C8E7F2",
"K 	c #E1F1F6",
"L 	c #15A5D7",
"M 	c #B3E0EF",
"N 	c #AADCED",
"O 	c #91D3EA",
"P 	c #75C9E5",
"Q 	c #3CB3DD",
"R 	c #76C9E5",
"S 	c #D4ECF4",
"T 	c #1DA8D8",
"U 	c #D6ECF4",
"V 	c #5CBFE1",
"W 	c #38B2DC",
"X 	c #32B0DB",
"Y 	c #D2EBF3",
"Z 	c #23AAD9",
"` 	c #26ABD9",
" .	c #64C2E3",
"..	c #D6EDF4",
"+.	c #14A4D6",
"@.	c #E3F1F6",
"#.	c #94D4EA",
"$.	c #57BDE0",
"%.	c #B9E2EF",
"&.	c #DAEEF5",
"*.	c #BDE3F0",
"=.	c #83CDE7",
"-.	c #4DB9DF",
";.	c #2BACD9",
">.	c #2FAEDA",
",.	c #40B4DC",
"'.	c #38B1DB",
").	c #46B6DD",
"!.	c #ADDDEE",
"~.	c #1DA7D7",
"{.	c #BEE3F0",
"].	c #F9F9F9",
"^.	c #E1F0F6",
"/.	c #14A3D5",
"(.	c #E4F1F6",
"_.	c #F3F7F8",
":.	c #C7E6F1",
"<.	c #96D4EA",
"[.	c #5DBEE0",
"}.	c #38B0DA",
"|.	c #82CCE6",
"1.	c #F2F7F8",
"2.	c #81CCE6",
"3.	c #E6F2F6",
"4.	c #F7F8F9",
"5.	c #C9E7F2",
"6.	c #A7DAEC",
"7.	c #F4F7F9",
"8.	c #EFF5F8",
"9.	c #CEE9F3",
"0.	c #68C3E2",
"a.	c #44B5DC",
"b.	c #D5ECF4",
"c.	c #C0E4F0",
"d.	c #ECF4F7",
"e.	c #97D4EA",
"f.	c #13A2D4",
"g.	c #B0DEED",
"h.	c #A9DBEC",
"i.	c #ADDCED",
"j.	c #D7ECF4",
"k.	c #BAE1EF",
"l.	c #AEDDED",
"m.	c #CCE8F2",
"n.	c #7CCAE5",
"o.	c #BCE2EF",
"p.	c #D2EAF3",
"q.	c #DFEFF5",
"r.	c #65C1E1",
"s.	c #93D3E9",
"t.	c #D4EBF3",
"u.	c #E2F1F6",
"v.	c #C2E4F0",
"w.	c #9FD7EB",
"x.	c #B2DEEE",
"y.	c #84CDE6",
"z.	c #13A1D3",
"A.	c #E8F3F7",
"B.	c #DCEEF4",
"C.	c #B7E0EE",
"D.	c #C4E5F0",
"E.	c #53B9DD",
"F.	c #9AD5E9",
"G.	c #A8DAEC",
"H.	c #83CCE5",
"I.	c #B9E1EF",
"J.	c #B1DEED",
"K.	c #73C5E3",
"L.	c #67C1E1",
"M.	c #CAE7F2",
"N.	c #5DBDDF",
"O.	c #37AED9",
"P.	c #F1F6F8",
"Q.	c #7DCAE5",
"R.	c #12A0D2",
"S.	c #F8F9F9",
"T.	c #95D2E8",
"U.	c #88CDE6",
"V.	c #B6DFEE",
"W.	c #93D2E8",
"X.	c #75C6E3",
"Y.	c #5ABCDE",
"Z.	c #17A2D2",
"`.	c #D6ECF3",
" +	c #A5D9EB",
".+	c #CEE9F2",
"++	c #90D1E7",
"@+	c #16A1D2",
"#+	c #A7D9EB",
"$+	c #D1EAF3",
"%+	c #A1D7EA",
"&+	c #129FD1",
"*+	c #E8F3F6",
"=+	c #16A0D1",
"-+	c #D0E9F2",
";+	c #BEE2EF",
">+	c #81CAE4",
",+	c #52B8DC",
"'+	c #80CAE4",
")+	c #5ABBDD",
"!+	c #C0E3EF",
"~+	c #76C6E2",
"{+	c #26A7D4",
"]+	c #23A5D4",
"^+	c #E3F1F5",
"/+	c #1CA3D2",
"(+	c #119FD0",
"_+	c #94D2E7",
":+	c #3DB0D8",
"<+	c #ABDBEB",
"[+	c #CFE9F2",
"}+	c #129FD0",
"|+	c #93D2E7",
"1+	c #C4E4F0",
"2+	c #E7F2F6",
"3+	c #B9E0EE",
"4+	c #5DBCDD",
"5+	c #3BAFD7",
"6+	c #E5F2F6",
"7+	c #DBEEF4",
"8+	c #119ECF",
"9+	c #94D1E7",
"0+	c #ABDAEB",
"a+	c #66BFDE",
"b+	c #CEE8F1",
"c+	c #8BCEE5",
"d+	c #F4F7F8",
"e+	c #65BFDE",
"f+	c #98D3E7",
"g+	c #AADAEB",
"h+	c #DAEDF4",
"i+	c #109DCE",
"j+	c #92D0E6",
"k+	c #26A6D2",
"l+	c #DBEDF4",
"m+	c #55B8DB",
"n+	c #5BBADC",
"o+	c #109CCD",
"p+	c #0F9BCC",
"q+	c #0F9ACB",
". . . . . . . . . . . . . . . . . . . . . . . . . . . . . . . . . . . . . . . . . . . . . . . . ",
". . . . . . . . . . . . . . . . . . . . . . . . . . . . . . . . . . . . . . . . . . . . . . . . ",
". . . . + @ # $ . . . . . . . . . . . . . . . . . . . . . . . . . . . . . . . . . . . . . . . . ",
". . . . % & * = - ; > , @ . . . . . ' ) + ) ) ) ! ~ ) ) ) > # # ! . . . . . { # # # + . . . . . ",
". . . . ] ^ / ( _ : < [ = } | 1 . . 2 3 4 [ [ [ 5 6 7 [ [ [ [ [ 8 9 . . . . 0 a [ [ b . . . . . ",
"c c c c d e f 6 = g h [ [ [ [ i j c 7 k [ [ [ [ 2 l 3 [ [ [ [ [ [ [ m c c c n o a p e c c c c c ",
"q q q q r e s t u v w x 7 2 [ [ y q z i [ A ^ B C D E B B [ _ / [ [ i F q q G H I J K q q q q q ",
"L L L L M N O P Q L L L R [ [ _ S T U [ [ [ V L W X L L L Y [ 2 [ [ [ S Z L `  ...[ K L L L L L ",
"+.+.+.+.@.[ 2 [ #.+.+.+.$.%.&.y *.+.y [ [ [ =.-.;.>.,.'.).U [ [ [ [ [ i !.+.~.{.].[ ^.+.+.+.+.+.",
"/./././.(.i ( _.:.<.[.}.|.( 1.[ 2./.3.4.[ [ [ [ 5.6.3.[ g U 7.[ [ [ [ 8.9.0.a.b.c.d.e./././././.",
"f.f.f.f.g.h.i.7.].j.k.i l.2.m.n.f.f.o.p.[ [ [ [ 3.q.( [ r.U [ [ i s.t.:.u.v.w.x.d.o y.r.f.f.f.f.",
"z.z.z.z.A.[ [ [ B.C.D.[ [ 3.E.z.z.z.U F.[ [ G.H.I.J.K.H.L.M.7 [ i N.O._.[ P.[ 1.[ [ [ Q.z.z.z.z.",
"R.R.R.R.A.[ [ S.T.R.U.[ [ V.W.U.R.R.[ X.[ [ Y.R.Z.Z.R.R.R.`. +.+++@+R.#+[ $+[ [ [ [ [ %+R.R.R.R.",
"&+&+&+&+*+[ [ 4.T.&+=+-+;+>+].[ ,+&+[ '+1.[ )+&+&+&+&+&+&+`.[ !+~+{+&+]+B.[ [ [ [ [ ^+/+&+&+&+&+",
"(+(+(+(+*+[ [ [ _+(+(+:+<+[ [ [ [+}+[ |+1+[ i 2+l _._._._.[ 3+o [ 4+(+(+5+`.6+7.4.2 7+(+(+(+(+(+",
"8+8+8+8+*+[ [ [ 9+8+8+8+0+[ [ [ S.a+[ b+c+S.[ [ [ [ [ [ [ [ d+[ [ 4+8+8+8+e+f+g+h+[ q.8+8+8+8+8+",
"i+i+i+i+3.[ [ [ j+i+i+i+k+d.[ [ [ l+].S.m+( [ [ [ [ 4.[ [ [ 8.[ [ n+i+i+i+i+0+[ ( ( a+i+i+i+i+i+",
"o+o+o+o+o+o+o+o+o+o+o+o+o+o+o+o+o+o+o+o+o+o+o+o+o+o+o+o+o+o+o+o+o+o+o+o+o+o+o+o+o+o+o+o+o+o+o+o+",
"p+p+p+p+p+p+p+p+p+p+p+p+p+p+p+p+p+p+p+p+p+p+p+p+p+p+p+p+p+p+p+p+p+p+p+p+p+p+p+p+p+p+p+p+p+p+p+p+",
"q+q+q+q+q+q+q+q+q+q+q+q+q+q+q+q+q+q+q+q+q+q+q+q+q+q+q+q+q+q+q+q+q+q+q+q+q+q+q+q+q+q+q+q+q+q+q+q+"};
