/* XPM */
static char * linux_tris_xpm[] = {
"48 20 186 2",
"  	c None",
". 	c #16A7DA",
"+ 	c #18A7DA",
"@ 	c #35B2DE",
"# 	c #23ABDB",
"$ 	c #8FD3EB",
"% 	c #EDF5F8",
"& 	c #F2F7F8",
"* 	c #F1F7F8",
"= 	c #B2DFEF",
"- 	c #1AA8DA",
"; 	c #29AEDC",
"> 	c #51BCE2",
", 	c #55BEE2",
"' 	c #30B0DD",
") 	c #64C3E5",
"! 	c #EFF6F8",
"~ 	c #98D6EC",
"{ 	c #39B4DF",
"] 	c #91D3EB",
"^ 	c #F0F6F8",
"/ 	c #B1DFEF",
"( 	c #1CA9DA",
"_ 	c #B6E1F0",
": 	c #F5F8F9",
"< 	c #F4F8F9",
"[ 	c #ECF5F8",
"} 	c #BDE3F1",
"| 	c #24ACDC",
"1 	c #BAE2F1",
"2 	c #A8DCEE",
"3 	c #87D0E9",
"4 	c #5BC0E3",
"5 	c #B8E2F0",
"6 	c #E0F0F6",
"7 	c #1EA9DB",
"8 	c #16A6D9",
"9 	c #AEDEEF",
"0 	c #EEF5F8",
"a 	c #C7E7F2",
"b 	c #ABDDEE",
"c 	c #BEE3F1",
"d 	c #E8F3F7",
"e 	c #CAE8F3",
"f 	c #1BA7D9",
"g 	c #A1D9ED",
"h 	c #94D4EB",
"i 	c #48B8E0",
"j 	c #96D5EB",
"k 	c #9DD8EC",
"l 	c #2FAFDC",
"m 	c #15A5D8",
"n 	c #21A9D9",
"o 	c #DFF0F6",
"p 	c #9FD8EC",
"q 	c #30AFDC",
"r 	c #A4DAED",
"s 	c #94D4EA",
"t 	c #5FC0E3",
"u 	c #DAEEF5",
"v 	c #E5F2F6",
"w 	c #91D3EA",
"x 	c #2EAEDB",
"y 	c #BCE3F0",
"z 	c #43B6DE",
"A 	c #C0E4F1",
"B 	c #CEEAF3",
"C 	c #1EA8D9",
"D 	c #15A5D7",
"E 	c #2FAEDA",
"F 	c #DAEDF5",
"G 	c #3CB3DD",
"H 	c #99D6EB",
"I 	c #50BBE0",
"J 	c #90D2E9",
"K 	c #8CD1E9",
"L 	c #D9EEF5",
"M 	c #CFEAF3",
"N 	c #57BDE1",
"O 	c #23AAD9",
"P 	c #51BBE0",
"Q 	c #31AFDB",
"R 	c #CDE9F3",
"S 	c #9AD6EB",
"T 	c #14A4D6",
"U 	c #1EA8D7",
"V 	c #C8E7F2",
"W 	c #55BCE0",
"X 	c #2AACD9",
"Y 	c #23A9D8",
"Z 	c #9CD6EB",
"` 	c #4FBADF",
" .	c #C9E7F2",
"..	c #BEE3F0",
"+.	c #9FD8EB",
"@.	c #9BD6EB",
"#.	c #ABDCED",
"$.	c #A2D9EC",
"%.	c #22A9D8",
"&.	c #14A3D5",
"*.	c #96D4EA",
"=.	c #B2DFEE",
"-.	c #58BCE0",
";.	c #33AEDA",
">.	c #7ECBE6",
",.	c #67C2E2",
"'.	c #60C0E1",
").	c #B5E0EE",
"!.	c #B3DFEE",
"~.	c #B0DEEE",
"{.	c #AEDDED",
"].	c #ACDCED",
"^.	c #A3D9EC",
"/.	c #76C8E4",
"(.	c #1EA7D6",
"_.	c #13A2D4",
":.	c #1AA4D5",
"<.	c #70C5E3",
"[.	c #96D4E9",
"}.	c #91D2E8",
"|.	c #5DBEE0",
"1.	c #7DCAE5",
"2.	c #A2D8EB",
"3.	c #8ED0E8",
"4.	c #69C3E2",
"5.	c #4BB7DD",
"6.	c #44B4DC",
"7.	c #28AAD7",
"8.	c #13A1D3",
"9.	c #1CA4D4",
"0.	c #85CCE6",
"a.	c #28A9D6",
"b.	c #26A8D6",
"c.	c #1AA3D4",
"d.	c #12A0D2",
"e.	c #31ACD7",
"f.	c #86CDE6",
"g.	c #58BBDE",
"h.	c #26A7D5",
"i.	c #63BFE0",
"j.	c #67C1E0",
"k.	c #33ADD7",
"l.	c #129FD1",
"m.	c #37ADD7",
"n.	c #7FC9E4",
"o.	c #47B4DA",
"p.	c #4FB7DB",
"q.	c #26A7D4",
"r.	c #20A4D3",
"s.	c #6AC1E0",
"t.	c #139FD1",
"u.	c #119FD0",
"v.	c #26A7D3",
"w.	c #7AC8E2",
"x.	c #4CB6DA",
"y.	c #3CB0D7",
"z.	c #1AA2D1",
"A.	c #6DC3E0",
"B.	c #1FA4D2",
"C.	c #119ECF",
"D.	c #159FCF",
"E.	c #6FC3E0",
"F.	c #17A0D0",
"G.	c #35ACD5",
"H.	c #21A4D2",
"I.	c #76C6E1",
"J.	c #1BA1D0",
"K.	c #109DCE",
"L.	c #34ABD4",
"M.	c #7FC9E3",
"N.	c #6BC1DF",
"O.	c #37ACD5",
"P.	c #3CAED6",
"Q.	c #74C4E0",
"R.	c #61BDDD",
"S.	c #109CCD",
"T.	c #2DA7D2",
"U.	c #73C3E0",
"V.	c #88CCE4",
"W.	c #83CAE3",
"X.	c #5DBADB",
"Y.	c #169ECE",
"Z.	c #0F9BCC",
"`.	c #169DCD",
" +	c #129CCC",
".+	c #0F9ACB",
". . . . . . . . . . . . . . . . . . . . . . . . . . . . . . . . . . . . . . . . . . . . . . . . ",
". . . . . . . . . . . . . . . . . . . . . . . . . . . + @ # . . . . . . . . . . . . . . . . . . ",
". . . . . . . . . . . . . . . . . . . . . . . . . . $ % & * = - . . . . . . . . . . . . . . . . ",
". . . . . . . . . . . . . . . . . . ; > , ' . . . ) ! ~ { ] ^ / . . . . . . . . . . . . . . . . ",
". . . . . . . . . . . . . . . . ( _ % : < [ } | . 1 2 . 3 4 5 6 7 . . . . . . . . . . . . . . . ",
"8 8 8 8 8 8 8 8 8 8 8 8 8 8 8 8 9 0 a b c d ! e f g h 8 i j k 6 l 8 8 8 8 8 8 8 8 8 8 8 8 8 8 8 ",
"m m m m m m m m m m m m m m m n o p q r s t u v w x y b _ z A B C m m m m m m m m m m m m m m m ",
"D D D D D D D D D D D D D D D E F G H I s J K L M N O P Q H R S D D D D D D D D D D D D D D D D ",
"T T T T T T T T T T T T T T T U V W X T Y Z `  .a ..+.@.#...$.%.T T T T T T T T T T T T T T T T ",
"&.&.&.&.&.&.&.&.&.&.&.&.&.&.&.&.*.=.-.;.>.,.'.).!.~.{.].^./.(.&.&.&.&.&.&.&.&.&.&.&.&.&.&.&.&.&.",
"_._._._._._._._._._._._._._._._.:.<.[.}.|._.1.2.3.4.5.6.7._._._._._._._._._._._._._._._._._._._.",
"8.8.8.8.8.8.8.8.8.8.8.8.8.8.8.8.8.8.8.8.8.9.0.0.a.9.b.c.8.8.8.8.8.8.8.8.8.8.8.8.8.8.8.8.8.8.8.8.",
"d.d.d.d.d.d.d.d.d.d.d.d.d.d.d.d.d.d.d.d.d.e.f.g.h.i.g.j.k.d.d.d.d.d.d.d.d.d.d.d.d.d.d.d.d.d.d.d.",
"l.l.l.l.l.l.l.l.l.l.l.l.l.l.l.l.l.l.l.l.l.m.n.o.p.q.l.r.s.t.l.l.l.l.l.l.l.l.l.l.l.l.l.l.l.l.l.l.",
"u.u.u.u.u.u.u.u.u.u.u.u.u.u.u.u.u.u.u.u.u.v.w.x.y.y.z.u.A.B.u.u.u.u.u.u.u.u.u.u.u.u.u.u.u.u.u.u.",
"C.C.C.C.C.C.C.C.C.C.C.C.C.C.C.C.C.C.C.C.C.D.E.E.F.G.G.H.I.J.C.C.C.C.C.C.C.C.C.C.C.C.C.C.C.C.C.C.",
"K.K.K.K.K.K.K.K.K.K.K.K.K.K.K.K.K.K.K.K.K.K.L.M.N.O.P.Q.R.K.K.K.K.K.K.K.K.K.K.K.K.K.K.K.K.K.K.K.",
"S.S.S.S.S.S.S.S.S.S.S.S.S.S.S.S.S.S.S.S.S.S.S.T.U.V.W.X.Y.S.S.S.S.S.S.S.S.S.S.S.S.S.S.S.S.S.S.S.",
"Z.Z.Z.Z.Z.Z.Z.Z.Z.Z.Z.Z.Z.Z.Z.Z.Z.Z.Z.Z.Z.Z.Z.Z.Z.`. +Z.Z.Z.Z.Z.Z.Z.Z.Z.Z.Z.Z.Z.Z.Z.Z.Z.Z.Z.Z.Z.",
".+.+.+.+.+.+.+.+.+.+.+.+.+.+.+.+.+.+.+.+.+.+.+.+.+.+.+.+.+.+.+.+.+.+.+.+.+.+.+.+.+.+.+.+.+.+.+.+"};
