/* XPM */
static char * taskbargb_xpm[] = {
"4 25 22 1",
" 	c None",
".	c #70A8BB",
"+	c #A0DBEF",
"@	c #16A7DA",
"#	c #16A6D9",
"$	c #15A5D8",
"%	c #15A5D7",
"&	c #14A4D6",
"*	c #14A3D5",
"=	c #13A2D4",
"-	c #13A1D3",
";	c #12A0D2",
">	c #129FD1",
",	c #119FD0",
"'	c #119ECF",
")	c #109DCE",
"!	c #109CCD",
"~	c #0F9BCC",
"{	c #0F9ACB",
"]	c #0E99CA",
"^	c #0E99C9",
"/	c #0D98C8",
"....",
"++++",
"@@@@",
"@@@@",
"@@@@",
"@@@@",
"@@@@",
"####",
"$$$$",
"%%%%",
"&&&&",
"****",
"====",
"----",
";;;;",
">>>>",
",,,,",
"''''",
"))))",
"!!!!",
"~~~~",
"{{{{",
"]]]]",
"^^^^",
"////"};
