#define desk_hover_hover_width 13
#define desk_hover_hover_height 13
static unsigned char desk_hover_hover_bits[] = {
 0x00, 0x00, 0x00, 0x00, 0x00, 0x00, 0x00, 0x00, 0xF0, 0x01, 0xF0, 0x01,
 0xF0, 0x01, 0xF0, 0x01, 0xF0, 0x01, 0x00, 0x00, 0x00, 0x00, 0x00, 0x00,
 0x00, 0x00 };
