#define desk_width 13
#define desk_height 13
static unsigned char desk_bits[] = {
 0x00, 0x00, 0x00, 0x00, 0x00, 0x00, 0x00, 0x00, 0x40, 0x00, 0xA0, 0x00,
 0x10, 0x01, 0xA0, 0x00, 0x40, 0x00, 0x00, 0x00, 0x00, 0x00, 0x00, 0x00,
 0x00, 0x00 };
