#define iconify_hover_width 13
#define iconify_hover_height 13
static unsigned char iconify_hover_bits[] = {
 0xF0, 0x01, 0x0C, 0x06, 0x02, 0x08, 0x02, 0x08, 0x01, 0x10, 0x05, 0x14,
 0x09, 0x12, 0x11, 0x11, 0xA1, 0x10, 0x42, 0x08, 0x02, 0x08, 0x0C, 0x06,
 0xF0, 0x01 };
