#define max_toggled_hover_width 13
#define max_toggled_hover_height 13
static unsigned char max_toggled_hover_bits[] = {
 0xFC, 0x10, 0x02, 0x08, 0x01, 0x04, 0x01, 0x02, 0x01, 0x01, 0x89, 0x10,
 0x49, 0x10, 0x29, 0x10, 0x19, 0x10, 0xF9, 0x10, 0x01, 0x10, 0x02, 0x08,
 0xFC, 0x07 };
