/* XPM */
static char * rolldownO_xpm[] = {
"26 58 4 1",
" 	c None",
".	c #33393B",
"+	c #F5F6F7",
"@	c #6DAAE9",
"..........................",
"..........................",
"..........................",
"..........................",
"..........................",
"..........................",
"..........................",
"..........................",
"..........................",
"..........................",
"..........................",
"..........................",
".........++++++++.........",
".........++++++++.........",
"..........................",
".........++++++++.........",
"..........++++++..........",
"...........++++...........",
"............++............",
"..........................",
"..........................",
"..........................",
"..........................",
"..........................",
"..........................",
"..........................",
"..........................",
"..........................",
"..........................",
"..........................",
"..........................",
"..........................",
"..........................",
"..........................",
"..........................",
"..........................",
"..........................",
"..........................",
"..........................",
"..........................",
"..........................",
"..........................",
".........@@@@@@@@.........",
".........@@@@@@@@.........",
"..........................",
".........@@@@@@@@.........",
"..........@@@@@@..........",
"...........@@@@...........",
"............@@............",
"..........................",
"..........................",
"..........................",
"..........................",
"..........................",
"..........................",
"..........................",
"..........................",
".........................."};
