/* XPM */

static char* bottom_left_inactive_xpm [] = {

"32 6 2 1",

". c #444444 s inactive_color_2",
"- c #000000 s inactive_shadow_2",

"--------------------------------",
"-..............................-",
"-..............................-",
"-..............................-",
"-..............................-",
"--------------------------------",

};
