/* XPM */

static char* bottom_right_active_xpm [] = {

"32 6 2 1",

". c #555555 s active_color_2",
"- c #000000 s active_shadow_2",

"--------------------------------",
"-..............................-",
"-..............................-",
"-..............................-",
"-..............................-",
"--------------------------------",

};
