/* XPM */

static char* shade_prelight_xpm [] = {

"22 22 3 1",

". c #888888 s active_color_1",
"+ c #FFFFFF s active_hilight_1",
"- c #000000 s active_shadow_2",

"----------------------",
"......................",
"......................",
"......................",
"......................",
"......................",
"......................",
"..........++..........",
".........+..+.........",
"........+....+........",
".......+......+.......",
"......................",
"......................",
"......................",
"......................",
"......................",
"......................",
"......................",
"......................",
"......................",
"......................",
"----------------------",

};
