#define close_width 10
#define close_height 10
static unsigned char close_bits[] = {
 0xFF, 0x03, 0xFF, 0x03, 0x03, 0x03, 0x03, 0x03, 0x33, 0x03, 0x33, 0x03,
 0x03, 0x03, 0x03, 0x03, 0xFF, 0x03, 0xFF, 0x03 };
