/* XPM */
static char * desktop_xpm[] = {
"18 16 37 1",
" 	c None",
".	c #316CA3",
"+	c #336B9E",
"@	c #316798",
"#	c #3670A6",
"$	c #306495",
"%	c #2F608F",
"&	c #32699C",
"*	c #306696",
"=	c #3C80BF",
"-	c #448AC9",
";	c #4386C5",
">	c #458CCD",
",	c #4285C3",
"'	c #4082BF",
")	c #4489C8",
"!	c #4490D6",
"~	c #53A8F6",
"{	c #67B2F7",
"]	c #78BBF8",
"^	c #5DADF7",
"/	c #80BFF8",
"(	c #55AAF6",
"_	c #5EADF7",
":	c #B4D9FB",
"<	c #E8F4FE",
"[	c #95C9F9",
"}	c #FFFFFF",
"|	c #7FBEF7",
"1	c #3A80C1",
"2	c #4897DF",
"3	c #63A6E4",
"4	c #7CB4E9",
"5	c #80B7E9",
"6	c #79B2E8",
"7	c #82B7E9",
"8	c #77B1E8",
"                  ",
"                  ",
".+@####$%$###&*&. ",
"=-;>>>>,',>>>);)= ",
"!~~~~~~~~~~~~~~~! ",
"!~~~~~~~~~~~~~~~! ",
"!~~~~~~~~~~~~~~~! ",
"!~~~~~~~~~~~~~~~! ",
"!~~~~~~~~~~~~~~~! ",
"!~~~~~~~~~~~~~~~! ",
"!~~~~~~~~~~~~~~~! ",
"!~~~~~~~~~~~~~~~! ",
"!~~~{]^/(/_]{~~~! ",
"!~~^:<[}|}[<:^~~! ",
"12234567876543221 ",
"                  "};
