/* XPM */
static char * m_xpm[] = {
"7 9 4 1",
" 	c None",
".	c #D0D9B9",
"+	c #FFFFFF",
"@	c #999999",
".......",
".+...+.",
".++.++@",
".+@+.+@",
".+@.@+@",
".+@..+@",
".+@..+@",
".+@..+@",
"..@...@"};
