/* XPM */
static char * maximizeI_xpm[] = {
"23 60 168 2",
"  	g None",
". 	g #ACACAC",
"+ 	g #BDBDBD",
"@ 	g #BEBEBE",
"# 	g #C9C9C9",
"$ 	g #CCCCCC",
"% 	g #C3C3C3",
"& 	g #C4C4C4",
"* 	g #C7C7C7",
"= 	g #CBCBCB",
"- 	g #CECECE",
"; 	g #CFCFCF",
"> 	g #C5C5C5",
", 	g #BCBCBC",
"' 	g #525252",
") 	g #2B2B2B",
"! 	g #232323",
"~ 	g #262626",
"{ 	g #2D2D2D",
"] 	g #959595",
"^ 	g #B9B9B9",
"/ 	g #252525",
"( 	g #808080",
"_ 	g #B0B0B0",
": 	g #B4B4B4",
"< 	g #B3B3B3",
"[ 	g #A4A4A4",
"} 	g #363636",
"| 	g #7A7A7A",
"1 	g #5D5D5D",
"2 	g #777777",
"3 	g #AEAEAE",
"4 	g #AFAFAF",
"5 	g #B1B1B1",
"6 	g #B2B2B2",
"7 	g #1C1C1C",
"8 	g #ADADAD",
"9 	g #2C2C2C",
"0 	g #AAAAAA",
"a 	g #ABABAB",
"b 	g #757575",
"c 	g #5A5A5A",
"d 	g #565656",
"e 	g #575757",
"f 	g #666666",
"g 	g #A1A1A1",
"h 	g #A9A9A9",
"i 	g #2A2A2A",
"j 	g #A3A3A3",
"k 	g #A7A7A7",
"l 	g #272727",
"m 	g #A8A8A8",
"n 	g #A6A6A6",
"o 	g #3B3B3B",
"p 	g #BBBBBB",
"q 	g #BABABA",
"r 	g #8B8B8B",
"s 	g #181818",
"t 	g #929292",
"u 	g #2E2E2E",
"v 	g #9B9B9B",
"w 	g #A0A0A0",
"x 	g #A2A2A2",
"y 	g #949494",
"z 	g #FFFFFF",
"A 	g #494949",
"B 	g #A5A5A5",
"C 	g #979797",
"D 	g #222222",
"E 	g #EBEBEB",
"F 	g #8C8C8C",
"G 	g #8E8E8E",
"H 	g #1E1E1E",
"I 	g #9C9C9C",
"J 	g #787878",
"K 	g #343434",
"L 	g #9F9F9F",
"M 	g #848484",
"N 	g #8A8A8A",
"O 	g #999999",
"P 	g #989898",
"Q 	g #838383",
"R 	g #373737",
"S 	g #9A9A9A",
"T 	g #353535",
"U 	g #878787",
"V 	g #939393",
"W 	g #7F7F7F",
"X 	g #676767",
"Y 	g #F2F2F2",
"Z 	g #313131",
"` 	g #292929",
" .	g #7D7D7D",
"..	g #1D1D1D",
"+.	g #909090",
"@.	g #606060",
"#.	g #EAEAEA",
"$.	g #282828",
"%.	g #8D8D8D",
"&.	g #767676",
"*.	g #8F8F8F",
"=.	g #7C7C7C",
"-.	g #1B1B1B",
";.	g #898989",
">.	g #717171",
",.	g #737373",
"'.	g #7B7B7B",
").	g #858585",
"!.	g #6E6E6E",
"~.	g #616161",
"{.	g #242424",
"].	g #727272",
"^.	g #818181",
"/.	g #202020",
"(.	g #6D6D6D",
"_.	g #828282",
":.	g #FDFDFD",
"<.	g #919191",
"[.	g #464646",
"}.	g #212121",
"|.	g #797979",
"1.	g #4F4F4F",
"2.	g #2F2F2F",
"3.	g #636363",
"4.	g #656565",
"5.	g #484848",
"6.	g #5E5E5E",
"7.	g #747474",
"8.	g #515151",
"9.	g #707070",
"0.	g #191919",
"a.	g #646464",
"b.	g #3D3D3D",
"c.	g #6F6F6F",
"d.	g #414141",
"e.	g #9E9E9E",
"f.	g #9D9D9D",
"g.	g #969696",
"h.	g #6B6B6B",
"i.	g #686868",
"j.	g #474747",
"k.	g #4B4B4B",
"l.	g #0C0C0C",
"m.	g #010101",
"n.	g #CDCDCD",
"o.	g #BFBFBF",
"p.	g #B5B5B5",
"q.	g #B6B6B6",
"r.	g #B8B8B8",
"s.	g #B7B7B7",
"t.	g #626262",
"u.	g #404040",
"v.	g #4E4E4E",
"w.	g #5C5C5C",
"x.	g #3F3F3F",
"y.	g #D2D2D2",
"z.	g #C0C0C0",
"A.	g #303030",
"B.	g #F5F5F5",
"C.	g #868686",
"D.	g #7E7E7E",
"E.	g #6A6A6A",
"F.	g #444444",
"G.	g #383838",
"H.	g #888888",
"I.	g #545454",
"J.	g #535353",
"K.	g #000000",
". . . . . . . . . . . . . . . . . . . . . . . ",
"+ @ @ @ @ @ @ @ @ @ @ @ @ @ @ @ @ @ @ @ @ @ + ",
"# $ $ $ $ $ $ $ $ $ $ $ $ $ $ $ $ $ $ $ $ $ # ",
"% & * = - ; ; ; ; ; ; ; ; ; ; ; ; ; ; $ # > % ",
"@ % , ' ) ! ! ! ! ! ! ! ! ! ! ! ! ! ~ { ] > @ ",
"^ ^ / ( _ : : : : : : : : : : : : : < [ } | ^ ",
"< 1 2 < 3 3 4 5 6 6 6 6 6 6 6 5 _ 3 3 _ _ 7 < ",
"8 9 0 0 a . b c d d d d d d d e f g . h _ i j ",
"k l m n m o ' : p q q q q q q ^ r s t k . u v ",
"w / j x y o z z z z z z z z z z z 5 A B k { ] ",
"C D w w | 1 z z z z z z z z z z z E 9 j j 9 F ",
"G H I I J K q h h h h h h h h h 3 y u L L ) M ",
"N H O P Q R a S S S S S S S S S L G T v v i ( ",
"U H ] V W X z z z z z z z z z z z Y Z C C `  .",
"Q ..+.+.| @.z z z z z z z z z z z #.9 V y $.| ",
"( 7 %.F &.@.z z z z z z z z z z z #.i *.*.l 2 ",
"=.-.;.U >.@.z z z z z z z z z z z E l N F ~ ,.",
"'.-.).M !.~.z z z z z z z z z z z E / U U {.].",
"^./.^.( (.@.z z z z z z z z z z z #.$._.Q ! J ",
"W H  .'.J T :.z z z z z z z z z z <.[. .W }.&.",
"=...|.2 |.1.2.3.4.4.4.4.4.4.4.4.5.9 b |.'./.,.",
"|.{.(.b ,.b ].~.1 1 1 1 1 1 1 6.(.7.b ,.2 s 7.",
"'.8.T >.>.9.9.>.>.>.>.>.>.>.>.>.9.9.>.>.4.0. .",
"Q ;.Z ) d a.a.a.a.a.a.a.a.a.a.a.a.a.@.b.7 J ).",
"F *.t c.d.u { { { { { { { { { { u u T e <.t G ",
"] ] C O v I e.e.e.e.e.e.e.f.f.f.e.e.f.v S C g.",
"v [ [ [ [ [ [ [ [ [ [ B B B B B B B B B B n f.",
"h.i.i.i.i.i.i.i.i.i.i.i.i.i.i.i.i.i.i.i.i.i.h.",
"j.k.k.k.k.k.k.k.k.k.k.k.k.k.k.k.k.k.k.k.k.k.j.",
"l.m.m.m.m.m.m.m.m.m.m.m.m.m.m.m.m.m.m.m.m.m.l.",
"S a a a a a a a a a a a a a a a a a a a a a S ",
"q p p p p p p p p p p p p p p p p p p p p p q ",
"# n.n.n.n.n.n.n.n.n.n.n.n.n.n.n.n.n.n.n.n.n.# ",
"& & & & & & & & & & & & & & & & & & & & & & & ",
"o.o.o.o.o.o.o.o.o.o.o.o.o.o.o.o.o.o.o.o.o.o.o.",
"^ ^ ^ ^ ^ ^ ^ ^ ^ ^ ^ ^ ^ ^ ^ ^ ^ ^ ^ ^ ^ ^ ^ ",
"< < < < < p.q.r.^ ^ ^ ^ ^ ^ ^ ^ s.p.< < < < < ",
"3 3 3 3 _ 6 <.i.3.t.t.t.t.t.3.a.| 4 5 4 3 3 3 ",
"k k k m . j.u.+.P P P P P P P ] 4.-.I 0 k k k ",
"g g g j S K z z z z z z z z z z z w v.n g g g ",
"P P P v &.w.z z z z z z z z z z z #.) L P P P ",
"G G G <.!.x.y.z.z.z.z.z.z.z.z.z.> h $.y G G G ",
"r r r G J 9 y _._._._._._._._._.U | A.<.r r r ",
"U U U N &.i.z z z z z z z z z z z B.{ %.U U U ",
"Q Q Q C.9.@.z z z z z z z z z z z E l ;.Q Q Q ",
"( ( ( _.(.~.z z z z z z z z z z z E / ).( ( ( ",
"=.=.=.D.E.~.z z z z z z z z z z z E {._.=.=.=.",
"'.|.|.=.X ~.z z z z z z z z z z z E }.W |.|.'.",
"^.Q Q M 9.~.z z z z z z z z z z z #.l U Q Q ^.",
"W W W ^. .b.z z z z z z z z z z z k F.M W W W ",
"=.=.=. .W 5.G._.;.;.;.;.;.;.;.H.6.` |.D.=.=.=.",
"|.J J J | '.].e ' ' ' ' ' ' ' I.X | '.|.J J |.",
"| |.|.|.|.| '. . . . . .D.D.D.D. .'.'.'.'.'.=.",
"_._._._._._.Q Q Q Q Q M M M M M M M M M M M M ",
"r r r r r r F F F F F F F F F F %.%.%.%.%.%.%.",
"y y ] ] ] y ] ] ] ] ] ] ] ] ] ] g.] ] ] ] g.g.",
"v j j j j j j j j j [ [ [ [ [ j [ [ [ [ [ [ I ",
"9.(.!.!.!.!.!.!.!.!.!.!.!.!.!.!.!.!.!.!.!.!.9.",
"J.w.w.w.w.w.w.w.w.w.w.w.w.w.w.w.w.w.w.w.w.w.J.",
"K.K.K.K.K.K.K.K.K.K.K.K.K.K.K.K.K.K.K.K.K.K.K."};
