/* XPM */
static char * menuButtonI_xpm[] = {
"30 60 116 2",
"  	g None",
". 	g #ACACAC",
"+ 	g #BEBEBE",
"@ 	g #CCCCCC",
"# 	g #C3C3C3",
"$ 	g #C4C4C4",
"% 	g #C7C7C7",
"& 	g #CBCBCB",
"* 	g #CECECE",
"= 	g #CFCFCF",
"- 	g #C0C0C0",
"; 	g #B1B1B1",
"> 	g #535353",
", 	g #2A2A2A",
"' 	g #232323",
") 	g #292929",
"! 	g #B2B2B2",
"~ 	g #BFBFBF",
"{ 	g #B9B9B9",
"] 	g #BCBCBC",
"^ 	g #A6A6A6",
"/ 	g #262626",
"( 	g #8D8D8D",
"_ 	g #B4B4B4",
": 	g #898989",
"< 	g #282828",
"[ 	g #AAAAAA",
"} 	g #B3B3B3",
"| 	g #BABABA",
"1 	g #494949",
"2 	g #8A8A8A",
"3 	g #AEAEAE",
"4 	g #888888",
"5 	g #4E4E4E",
"6 	g #ADADAD",
"7 	g #B6B6B6",
"8 	g #333333",
"9 	g #A4A4A4",
"0 	g #A8A8A8",
"a 	g #A3A3A3",
"b 	g #353535",
"c 	g #A7A7A7",
"d 	g #AFAFAF",
"e 	g #313131",
"f 	g #A2A2A2",
"g 	g #A0A0A0",
"h 	g #323232",
"i 	g #A1A1A1",
"j 	g #2E2E2E",
"k 	g #9E9E9E",
"l 	g #9C9C9C",
"m 	g #303030",
"n 	g #979797",
"o 	g #2D2D2D",
"p 	g #999999",
"q 	g #989898",
"r 	g #949494",
"s 	g #969696",
"t 	g #9A9A9A",
"u 	g #959595",
"v 	g #919191",
"w 	g #939393",
"x 	g #909090",
"y 	g #878787",
"z 	g #8F8F8F",
"A 	g #929292",
"B 	g #838383",
"C 	g #272727",
"D 	g #8C8C8C",
"E 	g #8E8E8E",
"F 	g #808080",
"G 	g #858585",
"H 	g #868686",
"I 	g #7B7B7B",
"J 	g #818181",
"K 	g #252525",
"L 	g #848484",
"M 	g #828282",
"N 	g #797979",
"O 	g #7F7F7F",
"P 	g #242424",
"Q 	g #7E7E7E",
"R 	g #7D7D7D",
"S 	g #7A7A7A",
"T 	g #787878",
"U 	g #767676",
"V 	g #7C7C7C",
"W 	g #747474",
"X 	g #777777",
"Y 	g #757575",
"Z 	g #737373",
"` 	g #6D6D6D",
" .	g #727272",
"..	g #6C6C6C",
"+.	g #3F3F3F",
"@.	g #434343",
"#.	g #717171",
"$.	g #707070",
"%.	g #6F6F6F",
"&.	g #414141",
"*.	g #595959",
"=.	g #646464",
"-.	g #656565",
";.	g #585858",
">.	g #2C2C2C",
",.	g #2B2B2B",
"'.	g #8B8B8B",
").	g #676767",
"!.	g #3B3B3B",
"~.	g #3C3C3C",
"{.	g #696969",
"].	g #9B9B9B",
"^.	g #686868",
"/.	g #4B4B4B",
"(.	g #0C0C0C",
"_.	g #9F9F9F",
". . . . . . . . . . . . . . . . . . . . . . . . . . . . . . ",
"+ + + + + + + + + + + + + + + + + + + + + + + + + + + + + + ",
"@ @ @ @ @ @ @ @ @ @ @ @ @ @ @ @ @ @ @ @ @ @ @ @ @ @ @ @ @ @ ",
"# # # # # $ % & * = = = = = = = = = = = = = * & % $ # # # # ",
"+ + + + - $ ; > , ' ' ' ' ' ' ' ' ' ' ' ' ' ) > ! $ ~ + + + ",
"{ { { { ] ^ / ( ; _ _ _ _ _ _ _ _ _ _ _ _ _ ; : < [ ] { { { ",
"} } } } | 1 2 ! 3 . . . . . . . . . . . . . 3 ! 4 5 { } } } ",
"6 6 6 6 7 8 9 [ 0 0 0 0 0 0 0 0 0 0 0 0 0 0 0 [ a b 7 6 6 6 ",
"c c c c d e f ^ 9 9 9 9 9 9 9 9 9 9 9 9 9 9 9 ^ g h d c c c ",
"i i i i 0 j k f g g g g g g g g g g g g g g g f l m 0 i i i ",
"n n n n k o p k l l l l l l l l l l l l l l l k q j k n n n ",
"( ( ( ( r ) s t q q q q q q q q q q q q q q q t u , r ( ( ( ",
"2 2 2 2 v ) w s r r r r r r r r r r r r r r r s v , x 2 2 2 ",
"y y y y ( < z A v v v v v v v v v v v v v v v w ( ) ( y y y ",
"B B B B : C D E ( ( ( ( ( ( ( ( ( ( ( ( ( ( ( z : < : B B B ",
"F F F F G / y 2 : : : : : : : : : : : : : : : 2 H C G F F F ",
"I I I I J K L H G G G G G G G G G G G G G G G H M K J I I I ",
"N N N N O P O M J J J J J J J J J J J J J J J M O K O N N N ",
"B B B B : / I Q R R R R R R R R R R R R R R R Q S < : B B B ",
"O O O O H P T I N N N N N N N N N N N N N N N I U K H O O O ",
"V V V V M P W X U Y U U U U U U U U U U U U U T Z P M V V V ",
"T T T T R P ` Y  . . . . . . . . . . . . . . .Y ..K O T T T ",
"X X X X R +.@.#.#.$.%.%.%.%.%.%.%.%.%.%.%.$.#.#.&.@.Q X X X ",
"F F F O L L < o *.=.-.=.=.=.=.=.=.=.=.=.-.=.;.>.,.H H O F F ",
": : : 4 '.E z ).!.,.o o o o o o o o o o o >.~.{.v x D 4 : : ",
"v v A A r r u q t t ].].].l l l l l l l l l ].p n u u v A A ",
"i g g g f i i i a a a a a a a a a a 9 9 9 9 a 9 9 9 a g g g ",
"^.^.^.^.^.^.^.^.^.^.^.^.^.^.^.^.^.^.^.^.^.^.^.^.^.^.^.^.^.^.",
"/./././././././././././././././././././././././././././././.",
"(.(.(.(.(.(.(.(.(.(.(.(.(.(.(.(.(.(.(.(.(.(.(.(.(.(.(.(.(.(.",
". . . . . . . . . . . . . . . . . . . . . . . . . . . . . . ",
"+ + + + + + + + + + + + + + + + + + + + + + + + + + + + + + ",
"@ @ @ @ @ @ @ @ @ @ @ @ @ @ @ @ @ @ @ @ @ @ @ @ @ @ @ @ @ @ ",
"$ $ $ $ $ $ $ $ $ $ $ $ $ $ $ $ $ # # # # # # # # # # # # # ",
"+ + + + + + + + + + + + + + + + + + + + + + + + + + + + + + ",
"{ { { { { { { { { { { { { { { { { { { { { { { { { { { { { { ",
"} } } } } } } } } } } } } } } } } } } } } } } } } } } } } } ",
"6 6 6 6 6 6 6 6 6 6 6 6 6 6 6 6 6 6 6 6 6 6 6 6 6 6 6 6 6 6 ",
"c c c c c c c c c c c c c c c c c c c c c c c c c c c c c c ",
"i i i i i i i i i i i i i i i i i i i i i i i i i i i i i i ",
"s s s s s s n n n s s s s s s n n n n n n n n n n n n n n n ",
"( ( ( ( ( ( ( ( ( ( ( ( ( ( ( ( ( ( ( ( ( ( ( ( ( ( ( ( ( ( ",
"'.'.'.'.'.'.'.2 '.'.'.'.'.'.'.'.2 2 2 2 2 2 2 2 2 2 2 2 2 2 ",
"y y y y y y y y y y y y y y y y y y y y y y y y y y y y y y ",
"L L L L L L L B L L L L L L L L B B B B B B B B B B B B B B ",
"F F F F F F F F F F F F F F F F F F F F F F F F F F F F F F ",
"V V V V V V V V V V V V V V V V V I I I I I I I I I I I I I ",
"N N N N N N N N N N N N N N N N N N N N N N N N N N N N N N ",
"B B B B B B B B B B B B B B B B B B B B B B B B B B B B B B ",
"O O O O O O O O O O O O O O O O O O O O O O O O O O O O O O ",
"V V V V V V V V V V V V V V V V V V V V V V V V V V V V V V ",
"T T T T T T N T N T T T T T T N T T T T T T T T T T T T T T ",
"U U U U U X X X U U U U U U X X X X X X X X X X X X X X X X ",
"O O O O F F F F O O O O O F F F F F F F F F F F J J J J J J ",
"4 4 4 4 4 : : : y 4 4 4 4 4 : : : : : : : : : 2 2 2 2 2 2 2 ",
"v A A A A A v A x v A A A A A v v v v A A A A A A A A A w w ",
"_._._._._.i i i _._._._._._.i i i i g g g g g g i i i i i i ",
"^.^.^.^.^.^.^.^.^.^.^.^.^.^.^.^.^.^.^.^.^.^.^.^.^.^.^.^.^.^.",
"/./././././././././././././././././././././././././././././.",
"(.(.(.(.(.(.(.(.(.(.(.(.(.(.(.(.(.(.(.(.(.(.(.(.(.(.(.(.(.(."};
