/* XPM */
static char * titleAQ_xpm[] = {
"10 30 152 2",
"  	c None",
". 	c #E38C20",
"+ 	c #E08B20",
"@ 	c #B26E19",
"# 	c #412809",
"$ 	c #040404",
"% 	c #FFAD46",
"& 	c #FFAF46",
"* 	c #FFB046",
"= 	c #FFAE43",
"- 	c #FFAC3E",
"; 	c #FFA62D",
"> 	c #FFA51F",
", 	c #FFB527",
"' 	c #472C0A",
") 	c #FFBF6E",
"! 	c #FFC376",
"~ 	c #FFC275",
"{ 	c #FFC276",
"] 	c #FFC478",
"^ 	c #FFBA63",
"/ 	c #FFA523",
"( 	c #C3781B",
"_ 	c #FFB865",
": 	c #FFB966",
"< 	c #FFBC6E",
"[ 	c #FFA63B",
"} 	c #F19020",
"| 	c #FEB15D",
"1 	c #FEB463",
"2 	c #FFA03A",
"3 	c #F88F1F",
"4 	c #FEA955",
"5 	c #FEAB5A",
"6 	c #FF9A37",
"7 	c #F88A1E",
"8 	c #FDA14C",
"9 	c #FDA451",
"0 	c #FE922E",
"a 	c #F7851C",
"b 	c #FD9943",
"c 	c #FD9C47",
"d 	c #FE841D",
"e 	c #F77F1A",
"f 	c #FD903A",
"g 	c #FD913C",
"h 	c #FD8B31",
"i 	c #FE7B16",
"j 	c #F67A18",
"k 	c #FC8730",
"l 	c #FC8731",
"m 	c #FC8832",
"n 	c #FC852B",
"o 	c #FC7916",
"p 	c #FD7816",
"q 	c #F67416",
"r 	c #FC7B23",
"s 	c #FC771D",
"t 	c #FC7113",
"u 	c #FC7214",
"v 	c #FD7215",
"w 	c #F66F14",
"x 	c #FB6E14",
"y 	c #FB6D12",
"z 	c #FB6C13",
"A 	c #FB6D14",
"B 	c #FC6D14",
"C 	c #F56A13",
"D 	c #FB6812",
"E 	c #FC6912",
"F 	c #F46511",
"G 	c #FB6310",
"H 	c #FC6210",
"I 	c #F45F0F",
"J 	c #FA5D0E",
"K 	c #FB5E0E",
"L 	c #F45A0D",
"M 	c #FA570C",
"N 	c #FB570C",
"O 	c #F3550C",
"P 	c #F9520A",
"Q 	c #FA530A",
"R 	c #F24F0A",
"S 	c #F94F0B",
"T 	c #F94D08",
"U 	c #F94C09",
"V 	c #F94A06",
"W 	c #F94B07",
"X 	c #F94C08",
"Y 	c #FA4C08",
"Z 	c #F34A08",
"` 	c #F9571C",
" .	c #F9591F",
"..	c #F9581E",
"+.	c #F95216",
"@.	c #F84807",
"#.	c #F84606",
"$.	c #F94707",
"%.	c #F24407",
"&.	c #F9541D",
"*.	c #F9551E",
"=.	c #F9561F",
"-.	c #F95119",
";.	c #F84005",
">.	c #F94104",
",.	c #F23F05",
"'.	c #F94F1B",
").	c #F9511D",
"!.	c #F84611",
"~.	c #F93B01",
"{.	c #F13A03",
"].	c #F84A1A",
"^.	c #F84818",
"/.	c #F84919",
"(.	c #F84B1A",
"_.	c #F83400",
":.	c #F13501",
"<.	c #F85024",
"[.	c #F84F23",
"}.	c #F84F25",
"|.	c #F84F24",
"1.	c #F8542A",
"2.	c #F83100",
"3.	c #F13100",
"4.	c #F95B33",
"5.	c #F95B34",
"6.	c #F9613C",
"7.	c #F83200",
"8.	c #F96742",
"9.	c #F96F4B",
"0.	c #FA7350",
"a.	c #FA7451",
"b.	c #FA7452",
"c.	c #FB7D5D",
"d.	c #F93100",
"e.	c #F03000",
"f.	c #FA7B5B",
"g.	c #FB8669",
"h.	c #FB876A",
"i.	c #FB8F73",
"j.	c #F83505",
"k.	c #F73E0F",
"l.	c #FF3805",
"m.	c #FF3807",
"n.	c #FF3806",
"o.	c #FF3C0B",
"p.	c #FF3000",
"q.	c #C52800",
"r.	c #DD2B00",
"s.	c #DD2C00",
"t.	c #BF2700",
"u.	c #000000",
". . . . . . + @ # $ ",
"% & & * = - ; > , ' ",
") ! ! ! ~ { ] ^ / ( ",
"_ _ _ _ _ _ : < [ } ",
"| | | | | | | 1 2 3 ",
"4 4 4 4 4 4 4 5 6 7 ",
"8 8 8 8 8 8 8 9 0 a ",
"b b b b b b b c d e ",
"f f f f f f g h i j ",
"k k k k l m n o p q ",
"r r r r r s t u v w ",
"x y y y y z z A B C ",
"D D D D D D D D E F ",
"G G G G G G G G H I ",
"J J J J J J J J K L ",
"M M M M M M M M N O ",
"P P P P P P P P Q R ",
"S T T T U V W X Y Z ",
"`  . . ...+.@.#.$.%.",
"&.&.&.&.*.=.-.;.>.,.",
"'.'.'.'.'.'.).!.~.{.",
"].^.^.^.^.^./.(._.:.",
"<.[.[.[.}.|.}.1.2.3.",
"4.4.4.4.5.5.5.6.7.3.",
"8.8.8.8.8.8.8.9.7.3.",
"0.a.a.a.b.b.b.c.d.e.",
"f.g.g.g.h.h.h.i.j.3.",
"k.l.l.l.m.n.n.o.p.3.",
"q.r.r.r.r.r.r.r.s.t.",
"u.u.u.u.u.u.u.u.u.u."};
