/* XPM */
static char * titleAJ_xpm[] = {
"10 30 152 2",
"  	c None",
". 	c #040404",
"+ 	c #412809",
"@ 	c #B26E19",
"# 	c #E08B20",
"$ 	c #E38C20",
"% 	c #472C0A",
"& 	c #FFB527",
"* 	c #FFA51F",
"= 	c #FFA62D",
"- 	c #FFAC3E",
"; 	c #FFAE43",
"> 	c #FFB046",
", 	c #FFAF46",
"' 	c #FFAD46",
") 	c #C3781B",
"! 	c #FFA523",
"~ 	c #FFBA63",
"{ 	c #FFC478",
"] 	c #FFC276",
"^ 	c #FFC275",
"/ 	c #FFC376",
"( 	c #FFBF6E",
"_ 	c #F19020",
": 	c #FFA63B",
"< 	c #FFBC6E",
"[ 	c #FFB966",
"} 	c #FFB865",
"| 	c #F88F1F",
"1 	c #FFA03A",
"2 	c #FEB463",
"3 	c #FEB15D",
"4 	c #F88A1E",
"5 	c #FF9A37",
"6 	c #FEAB5A",
"7 	c #FEA955",
"8 	c #F7851C",
"9 	c #FE922E",
"0 	c #FDA451",
"a 	c #FDA14C",
"b 	c #F77F1A",
"c 	c #FE841D",
"d 	c #FD9C47",
"e 	c #FD9943",
"f 	c #F67A18",
"g 	c #FE7B16",
"h 	c #FD8B31",
"i 	c #FD913C",
"j 	c #FD903A",
"k 	c #F67416",
"l 	c #FD7816",
"m 	c #FC7916",
"n 	c #FC852B",
"o 	c #FC8832",
"p 	c #FC8731",
"q 	c #FC8730",
"r 	c #F66F14",
"s 	c #FD7215",
"t 	c #FC7214",
"u 	c #FC7113",
"v 	c #FC771D",
"w 	c #FC7B23",
"x 	c #F56A13",
"y 	c #FC6D14",
"z 	c #FB6D14",
"A 	c #FB6C13",
"B 	c #FB6D12",
"C 	c #FB6E14",
"D 	c #F46511",
"E 	c #FC6912",
"F 	c #FB6812",
"G 	c #F45F0F",
"H 	c #FC6210",
"I 	c #FB6310",
"J 	c #F45A0D",
"K 	c #FB5E0E",
"L 	c #FA5D0E",
"M 	c #F3550C",
"N 	c #FB570C",
"O 	c #FA570C",
"P 	c #F24F0A",
"Q 	c #FA530A",
"R 	c #F9520A",
"S 	c #F34A08",
"T 	c #FA4C08",
"U 	c #F94C08",
"V 	c #F94B07",
"W 	c #F94A06",
"X 	c #F94C09",
"Y 	c #F94D08",
"Z 	c #F94F0B",
"` 	c #F24407",
" .	c #F94707",
"..	c #F84606",
"+.	c #F84807",
"@.	c #F95216",
"#.	c #F9581E",
"$.	c #F9591F",
"%.	c #F9571C",
"&.	c #F23F05",
"*.	c #F94104",
"=.	c #F84005",
"-.	c #F95119",
";.	c #F9561F",
">.	c #F9551E",
",.	c #F9541D",
"'.	c #F13A03",
").	c #F93B01",
"!.	c #F84611",
"~.	c #F9511D",
"{.	c #F94F1B",
"].	c #F13501",
"^.	c #F83400",
"/.	c #F84B1A",
"(.	c #F84919",
"_.	c #F84818",
":.	c #F84A1A",
"<.	c #F13100",
"[.	c #F83100",
"}.	c #F8542A",
"|.	c #F84F25",
"1.	c #F84F24",
"2.	c #F84F23",
"3.	c #F85024",
"4.	c #F83200",
"5.	c #F9613C",
"6.	c #F95B34",
"7.	c #F95B33",
"8.	c #F96F4B",
"9.	c #F96742",
"0.	c #F03000",
"a.	c #F93100",
"b.	c #FB7D5D",
"c.	c #FA7452",
"d.	c #FA7451",
"e.	c #FA7350",
"f.	c #F83505",
"g.	c #FB8F73",
"h.	c #FB876A",
"i.	c #FB8669",
"j.	c #FA7B5B",
"k.	c #FF3000",
"l.	c #FF3C0B",
"m.	c #FF3806",
"n.	c #FF3807",
"o.	c #FF3805",
"p.	c #F73E0F",
"q.	c #BF2700",
"r.	c #DD2C00",
"s.	c #DD2B00",
"t.	c #C52800",
"u.	c #000000",
". + @ # $ $ $ $ $ $ ",
"% & * = - ; > , , ' ",
") ! ~ { ] ^ / / / ( ",
"_ : < [ } } } } } } ",
"| 1 2 3 3 3 3 3 3 3 ",
"4 5 6 7 7 7 7 7 7 7 ",
"8 9 0 a a a a a a a ",
"b c d e e e e e e e ",
"f g h i j j j j j j ",
"k l m n o p q q q q ",
"r s t u v w w w w w ",
"x y z A A B B B B C ",
"D E F F F F F F F F ",
"G H I I I I I I I I ",
"J K L L L L L L L L ",
"M N O O O O O O O O ",
"P Q R R R R R R R R ",
"S T U V W X Y Y Y Z ",
"`  ...+.@.#.$.$.$.%.",
"&.*.=.-.;.>.,.,.,.,.",
"'.).!.~.{.{.{.{.{.{.",
"].^./.(._._._._._.:.",
"<.[.}.|.1.|.2.2.2.3.",
"<.4.5.6.6.6.7.7.7.7.",
"<.4.8.9.9.9.9.9.9.9.",
"0.a.b.c.c.c.d.d.d.e.",
"<.f.g.h.h.h.i.i.i.j.",
"<.k.l.m.m.n.o.o.o.p.",
"q.r.s.s.s.s.s.s.s.t.",
"u.u.u.u.u.u.u.u.u.u."};
