/* XPM */
static char * titleIJ_xpm[] = {
"10 30 82 1",
" 	g None",
".	g #040404",
"+	g #2C2C2C",
"@	g #797979",
"#	g #999999",
"$	g #9A9A9A",
"%	g #303030",
"&	g #BCBCBC",
"*	g #B1B1B1",
"=	g #B3B3B3",
"-	g #B9B9B9",
";	g #BBBBBB",
">	g #BABABA",
",	g #848484",
"'	g #B2B2B2",
")	g #C5C5C5",
"!	g #CDCDCD",
"~	g #CCCCCC",
"{	g #C9C9C9",
"]	g #A1A1A1",
"^	g #B5B5B5",
"/	g #C8C8C8",
"(	g #C4C4C4",
"_	g #A2A2A2",
":	g #C1C1C1",
"<	g #BFBFBF",
"[	g #9F9F9F",
"}	g #ADADAD",
"|	g #9C9C9C",
"1	g #A7A7A7",
"2	g #B6B6B6",
"3	g #989898",
"4	g #9D9D9D",
"5	g #B0B0B0",
"6	g #AEAEAE",
"7	g #949494",
"8	g #979797",
"9	g #A3A3A3",
"0	g #A8A8A8",
"a	g #919191",
"b	g #959595",
"c	g #8D8D8D",
"d	g #909090",
"e	g #8A8A8A",
"f	g #8E8E8E",
"g	g #878787",
"h	g #8C8C8C",
"i	g #8B8B8B",
"j	g #838383",
"k	g #808080",
"l	g #7C7C7C",
"m	g #787878",
"n	g #7D7D7D",
"o	g #757575",
"p	g #777777",
"q	g #7B7B7B",
"r	g #717171",
"s	g #747474",
"t	g #767676",
"u	g #828282",
"v	g #818181",
"w	g #6E6E6E",
"x	g #7F7F7F",
"y	g #6B6B6B",
"z	g #7E7E7E",
"A	g #686868",
"B	g #696969",
"C	g #7A7A7A",
"D	g #656565",
"E	g #676767",
"F	g #868686",
"G	g #8F8F8F",
"H	g #646464",
"I	g #6A6A6A",
"J	g #ACACAC",
"K	g #A6A6A6",
"L	g #9E9E9E",
"M	g #707070",
"N	g #505050",
"O	g #5C5C5C",
"P	g #535353",
"Q	g #000000",
".+@#$$$$$$",
"%&*=-;&;;>",
",')!~~!!!{",
"]^/)((((((",
"_*:<<<<<<<",
"[};-------",
"|12=======",
"3456666666",
"7890111111",
"abb[]]]]]]",
"caadb33333",
"effccfffff",
"ghiiiiiiii",
"jggggggggg",
"k,jjjjjjjj",
"lkkkkkkkkk",
"mnllllllll",
"o@mmp@@@@q",
"rostnujjjv",
"wrrnvkxxxx",
"ywtzllllll",
"ABCmmmmmm@",
"DEvnnnnnnz",
"DAiFFFFFFF",
"DA7GGGGGGG",
"HA[3333333",
"DIJ111KKKL",
"DBrwwwwwwM",
"NOOOOOOOOP",
"QQQQQQQQQQ"};
