/* XPM */
static char * titleIB_xpm[] = {
"5 30 38 1",
" 	g None",
".	g #9A9A9A",
"+	g #BABABA",
"@	g #BBBBBB",
"#	g #C9C9C9",
"$	g #CDCDCD",
"%	g #C4C4C4",
"&	g #BFBFBF",
"*	g #B9B9B9",
"=	g #B3B3B3",
"-	g #AEAEAE",
";	g #A8A8A8",
">	g #A7A7A7",
",	g #A1A1A1",
"'	g #989898",
")	g #8E8E8E",
"!	g #8B8B8B",
"~	g #888888",
"{	g #878787",
"]	g #848484",
"^	g #838383",
"/	g #808080",
"(	g #7C7C7C",
"_	g #7B7B7B",
":	g #797979",
"<	g #818181",
"[	g #7F7F7F",
"}	g #787878",
"|	g #767676",
"1	g #7E7E7E",
"2	g #909090",
"3	g #979797",
"4	g #9E9E9E",
"5	g #707070",
"6	g #6E6E6E",
"7	g #535353",
"8	g #5C5C5C",
"9	g #000000",
".....",
"+@@@+",
"#$$$#",
"%%%%%",
"&&&&&",
"++++*",
"=====",
"-----",
";;;;>",
",,,,,",
"'''''",
")))))",
"!!!!!",
"~~~~{",
"]]]]^",
"/////",
"(((((",
"_:::_",
"<^^^<",
"////[",
"(((((",
":}}}:",
"}|||}",
"11[[[",
"{{~~~",
"22222",
"34443",
"56665",
"78887",
"99999"};
