/* XPM */
static char * titleAB_xpm[] = {
"5 30 67 1",
" 	c None",
".	c #E38C20",
"+	c #FFAD46",
"@	c #FFAF46",
"#	c #FFBF6E",
"$	c #FFC376",
"%	c #FFB865",
"&	c #FEB25D",
"*	c #FEB15D",
"=	c #FEAA55",
"-	c #FEA955",
";	c #FDA14C",
">	c #FD9944",
",	c #FD9943",
"'	c #FD913A",
")	c #FD903A",
"!	c #FC8731",
"~	c #FC8732",
"{	c #FC8730",
"]	c #FC7B24",
"^	c #FC7B23",
"/	c #FB6E14",
"(	c #FB6D12",
"_	c #FB6913",
":	c #FB6812",
"<	c #FB6311",
"[	c #FB6310",
"}	c #FA5D0F",
"|	c #FA5D0E",
"1	c #FA580D",
"2	c #FA570C",
"3	c #F9520B",
"4	c #F9510A",
"5	c #F9520A",
"6	c #F94F0C",
"7	c #F94D0A",
"8	c #F94F0B",
"9	c #F9571C",
"0	c #F9591E",
"a	c #F9541E",
"b	c #F9541F",
"c	c #F9541D",
"d	c #F94F1C",
"e	c #F94F1B",
"f	c #F84A1A",
"g	c #F84919",
"h	c #F84A19",
"i	c #F8481B",
"j	c #F84619",
"k	c #F85127",
"l	c #F85026",
"m	c #F85226",
"n	c #F85228",
"o	c #F95D35",
"p	c #F95D36",
"q	c #F96944",
"r	c #F96946",
"s	c #F96945",
"t	c #F9724F",
"u	c #F97C5B",
"v	c #F97C5C",
"w	c #F97250",
"x	c #F73D0E",
"y	c #FF3806",
"z	c #C52800",
"A	c #DD2B00",
"B	c #000000",
".....",
"+@@@+",
"#$$$#",
"%%%%%",
"&&&&*",
"====-",
";;;;;",
">>>>,",
"'''')",
"!~~~{",
"]]]]^",
"/(((/",
"____:",
"<<<<[",
"}}}}|",
"11112",
"34435",
"67778",
"90009",
"abbbc",
"dddde",
"fgggh",
"ijjji",
"klmnn",
"ooppp",
"qqrrs",
"tuvvw",
"xyyyx",
"zAAAz",
"BBBBB"};
