/* XPM */
static char * closeA_xpm[] = {
"36 54 4 1",
" 	c None",
".	c #0064C8",
"+	c #F1F2F6",
"@	c #C83232",
"....................................",
"....................................",
"....................................",
"....................................",
"++++++++++++++++++++++++++++++++++++",
"++++++++++++++++++++++++++++++++++++",
"++++++++++++++++++++++++++++++++++++",
"++++++++++++++++++++++++++++++++++++",
"++++++++++++++++++++++++++++++++++++",
"++++++++++++++++++++++++++++++++++++",
"++++++++++++++++++++++++++++++++++++",
"++++++++++@@@+++++++++++++++++++++++",
"++++++++@@@@@@@+++++++++++++++++++++",
"+++++++@@@@@@@@@++++++++++++++++++++",
"+++++++@@@@@@@@@++++++++++++++++++++",
"++++++@@@@@@@@@@@+++++++++++++++++++",
"++++++@@@@@@@@@@@+++++++++++++++++++",
"++++++@@@@@@@@@@@+++++++++++++++++++",
"+++++++@@@@@@@@@++++++++++++++++++++",
"+++++++@@@@@@@@@++++++++++++++++++++",
"++++++++@@@@@@@+++++++++++++++++++++",
"++++++++++@@@+++++++++++++++++++++++",
"++++++++++++++++++++++++++++++++++++",
"++++++++++++++++++++++++++++++++++++",
"++++++++++++++++++++++++++++++++++++",
"++++++++++++++++++++++++++++++++++++",
"++++++++++++++++++++++++++++++++++++",
"....................................",
"....................................",
"....................................",
"....................................",
"++++++++++++++++++++++++++++++++++++",
"++++++++++++++++++++++++++++++++++++",
"++++++++++++++++++++++++++++++++++++",
"++++++++++++++++++++++++++++++++++++",
"++++++++++++++++++++++++++++++++++++",
"+++++++++@@@@@++++++++++++++++++++++",
"+++++++@@@@@@@@@++++++++++++++++++++",
"++++++@@@@@@@@@@@+++++++++++++++++++",
"+++++@@@@@@@@@@@@@++++++++++++++++++",
"+++++@@@@@@@@@@@@@++++++++++++++++++",
"++++@@@@@@@@@@@@@@@+++++++++++++++++",
"++++@@@@@@@@@@@@@@@+++++++++++++++++",
"++++@@@@@@@@@@@@@@@+++++++++++++++++",
"++++@@@@@@@@@@@@@@@+++++++++++++++++",
"++++@@@@@@@@@@@@@@@+++++++++++++++++",
"+++++@@@@@@@@@@@@@++++++++++++++++++",
"+++++@@@@@@@@@@@@@++++++++++++++++++",
"++++++@@@@@@@@@@@+++++++++++++++++++",
"+++++++@@@@@@@@@++++++++++++++++++++",
"+++++++++@@@@@++++++++++++++++++++++",
"++++++++++++++++++++++++++++++++++++",
"++++++++++++++++++++++++++++++++++++",
"++++++++++++++++++++++++++++++++++++"};
