/* XPM */
static char * maximizeA_xpm[] = {
"22 54 4 1",
" 	c None",
".	c #0064C8",
"+	c #F1F2F6",
"@	c #00C800",
"......................",
"......................",
"......................",
"......................",
"++++++++++++++++++++++",
"++++++++++++++++++++++",
"++++++++++++++++++++++",
"++++++++++++++++++++++",
"++++++++++++++++++++++",
"++++++++++++++++++++++",
"++++++++++++++++++++++",
"++++++++++@@@+++++++++",
"++++++++@@@@@@@+++++++",
"+++++++@@@@@@@@@++++++",
"+++++++@@@@@@@@@++++++",
"++++++@@@@@@@@@@@+++++",
"++++++@@@@@@@@@@@+++++",
"++++++@@@@@@@@@@@+++++",
"+++++++@@@@@@@@@++++++",
"+++++++@@@@@@@@@++++++",
"++++++++@@@@@@@+++++++",
"++++++++++@@@+++++++++",
"++++++++++++++++++++++",
"++++++++++++++++++++++",
"++++++++++++++++++++++",
"++++++++++++++++++++++",
"++++++++++++++++++++++",
"......................",
"......................",
"......................",
"......................",
"++++++++++++++++++++++",
"++++++++++++++++++++++",
"++++++++++++++++++++++",
"++++++++++++++++++++++",
"++++++++++++++++++++++",
"+++++++++@@@@@++++++++",
"+++++++@@@@@@@@@++++++",
"++++++@@@@@@@@@@@+++++",
"+++++@@@@@@@@@@@@@++++",
"+++++@@@@@@@@@@@@@++++",
"++++@@@@@@@@@@@@@@@+++",
"++++@@@@@@@@@@@@@@@+++",
"++++@@@@@@@@@@@@@@@+++",
"++++@@@@@@@@@@@@@@@+++",
"++++@@@@@@@@@@@@@@@+++",
"+++++@@@@@@@@@@@@@++++",
"+++++@@@@@@@@@@@@@++++",
"++++++@@@@@@@@@@@+++++",
"+++++++@@@@@@@@@++++++",
"+++++++++@@@@@++++++++",
"++++++++++++++++++++++",
"++++++++++++++++++++++",
"++++++++++++++++++++++"};
