/* XPM */
static char * menuButtonA_xpm[] = {
"27 54 3 1",
" 	c None",
".	c #0064C8",
"+	c #F1F2F6",
"...........................",
"...........................",
"...........................",
"...........................",
"+++++++++++++++++++++++++++",
"+++++++++++++++++++++++++++",
"+++++++++++++++++++++++++++",
"+++++++++++++++++++++++++++",
"+++++++++++++++++++++++++++",
"+++++++++++++++++++++++++++",
"+++++++++++++++++++++++++++",
"+++++++++++++++++++++++++++",
"+++++++++++++++++++++++++++",
"+++++++++++++++++++++++++++",
"+++++++++++++++++++++++++++",
"+++++++++++++++++++++++++++",
"+++++++++++++++++++++++++++",
"+++++++++++++++++++++++++++",
"+++++++++++++++++++++++++++",
"+++++++++++++++++++++++++++",
"+++++++++++++++++++++++++++",
"+++++++++++++++++++++++++++",
"+++++++++++++++++++++++++++",
"+++++++++++++++++++++++++++",
"+++++++++++++++++++++++++++",
"+++++++++++++++++++++++++++",
"+++++++++++++++++++++++++++",
"...........................",
"...........................",
"...........................",
"...........................",
"+++++++++++++++++++++++++++",
"+++++++++++++++++++++++++++",
"+++++++++++++++++++++++++++",
"+++++++++++++++++++++++++++",
"+++++++++++++++++++++++++++",
"+++++++++++++++++++++++++++",
"+++++++++++++++++++++++++++",
"+++++++++++++++++++++++++++",
"+++++++++++++++++++++++++++",
"+++++++++++++++++++++++++++",
"+++++++++++++++++++++++++++",
"+++++++++++++++++++++++++++",
"+++++++++++++++++++++++++++",
"+++++++++++++++++++++++++++",
"+++++++++++++++++++++++++++",
"+++++++++++++++++++++++++++",
"+++++++++++++++++++++++++++",
"+++++++++++++++++++++++++++",
"+++++++++++++++++++++++++++",
"+++++++++++++++++++++++++++",
"+++++++++++++++++++++++++++",
"+++++++++++++++++++++++++++",
"+++++++++++++++++++++++++++"};
