/* XPM */
static char * restoreI_xpm[] = {
"22 54 3 1",
" 	c None",
".	c #F0F0F0",
"+	c #EA9824",
"......................",
"......................",
"......................",
"......................",
"......................",
"......................",
"......................",
"......................",
"......................",
"......................",
"......................",
"..........+++.........",
"........+++++++.......",
".......+++++++++......",
".......+++++++++......",
"......+++++++++++.....",
"......+++++++++++.....",
"......+++++++++++.....",
".......+++++++++......",
".......+++++++++......",
"........+++++++.......",
"..........+++.........",
"......................",
"......................",
"......................",
"......................",
"......................",
"......................",
"......................",
"......................",
"......................",
"......................",
"......................",
"......................",
"......................",
"......................",
".........+++++........",
".......+++++++++......",
"......+++++++++++.....",
".....+++++++++++++....",
".....+++++++++++++....",
"....+++++++++++++++...",
"....+++++++++++++++...",
"....+++++++++++++++...",
"....+++++++++++++++...",
"....+++++++++++++++...",
".....+++++++++++++....",
".....+++++++++++++....",
"......+++++++++++.....",
".......+++++++++......",
".........+++++........",
"......................",
"......................",
"......................"};
