/* XPM */
static char * titleAT_xpm[] = {
"1 27 3 1",
" 	c None",
".	c #0064C8",
"+	c #F1F2F6",
".",
".",
".",
".",
"+",
"+",
"+",
"+",
"+",
"+",
"+",
"+",
"+",
"+",
"+",
"+",
"+",
"+",
"+",
"+",
"+",
"+",
"+",
"+",
"+",
"+",
"+"};
