/* XPM */

static char* {name} [] = {

"32 6 2 1",

". c #888888 s {bottom}",
"- c #000000 s {border}",

"--------------------------------",
"-..............................-",
"-..............................-",
"-..............................-",
"-..............................-",
"--------------------------------",

};
