/* XPM */
static char * linux_xpm[] = {
"24 24 73 1",
"       c None",
".      c #BE3F3B",
"+      c #BF433F",
"@      c #C04541",
"#      c #D9928F",
"$      c #D27C79",
"%      c #C4524E",
"&      c #FAF2F1",
"*      c #F1D7D6",
"=      c #C65955",
"-      c #BE413D",
";      c #E2ADAB",
">      c #FDFAFA",
",      c #FAF1F0",
"'      c #E7BBBA",
")      c #C04642",
"!      c #C75E5B",
"~      c #CA6460",
"{      c #F7E8E8",
"]      c #DB9895",
"^      c #D3807D",
"/      c #F9EDED",
"(      c #DD9E9C",
"_      c #D88E8C",
":      c #D37F7C",
"<      c #C14945",
"[      c #DE9F9D",
"}      c #F8EBEB",
"|      c #CA6662",
"1      c #E3B0AE",
"2      c #C96360",
"3      c #EFD1D1",
"4      c #CE726F",
"5      c #BE403C",
"6      c #C55653",
"7      c #F0D5D5",
"8      c #F7EBEA",
"9      c #C75C58",
"0      c #C14844",
"a      c #E1A8A6",
"b      c #FCF8F8",
"c      c #F9F1F0",
"d      c #DEA19F",
"e      c #C65754",
"f      c #E2ABA9",
"g      c #C4534F",
"h      c #D88F8D",
"i      c #C24E4A",
"j      c #DC9A98",
"k      c #E0A6A4",
"l      c #DC9B99",
"m      c #C55652",
"n      c #E6B7B5",
"o      c #F7E9E9",
"p      c #DFA2A0",
"q      c #CB6764",
"r      c #E2ACAA",
"s      c #D58784",
"t      c #CC6966",
"u      c #C24C49",
"v      c #BF423E",
"w      c #D58582",
"x      c #BF4440",
"y      c #C14B47",
"z      c #E0A5A3",
"A      c #C55552",
"B      c #CE716E",
"C      c #CF7572",
"D      c #D07571",
"E      c #C3504C",
"F      c #C65753",
"G      c #C65855",
"H      c #C55451",
"........................",
"........................",
"........................",
"........................",
"........................",
"........................",
"........................",
"............+@..........",
"............#$..........",
"...........%&*=.........",
"..........-;>,'@...)-...",
"......!-..~{]^/(..-_:...",
"....<[}|.+(1..23456789..",
"...0abcd+efg...9hijkl'm.",
"..)nopqr%st5....uqq@vtwx",
".y1zA..BCD...........5Ex",
".FG.....H...............",
"........................",
"........................",
"........................",
"........................",
"........................",
"........................",
"........................"};
