/* XPM */
static char * cards_xpm[] = {
"32 32 209 2",
"  	c None",
". 	c #000000",
"+ 	c #151007",
"@ 	c #453617",
"# 	c #010100",
"$ 	c #BB9036",
"% 	c #EEB94A",
"& 	c #1A1409",
"* 	c #624A19",
"= 	c #FFC346",
"- 	c #FFC54B",
"; 	c #AD8736",
"> 	c #0C0903",
", 	c #EBB038",
"' 	c #FFC142",
") 	c #FFC348",
"! 	c #FFC54C",
"~ 	c #443516",
"{ 	c #715317",
"] 	c #FFBD39",
"^ 	c #FFC03F",
"/ 	c #FFC245",
"( 	c #FFC44A",
"_ 	c #BA913A",
": 	c #D19829",
"< 	c #FFBD37",
"[ 	c #FFBF3D",
"} 	c #FFC143",
"| 	c #FFC448",
"1 	c #FEC54E",
"2 	c #1D170A",
"3 	c #775717",
"4 	c #4F390D",
"5 	c #030200",
"6 	c #261B07",
"7 	c #FFBA31",
"8 	c #FFBC37",
"9 	c #FFC64E",
"0 	c #715925",
"a 	c #312916",
"b 	c #8D7844",
"c 	c #0A0905",
"d 	c #CA9428",
"e 	c #FFB92F",
"f 	c #E4A426",
"g 	c #6A4C10",
"h 	c #040301",
"i 	c #604611",
"j 	c #FFBB33",
"k 	c #FFBD38",
"l 	c #AC8739",
"m 	c #40351B",
"n 	c #C7A557",
"o 	c #FFD675",
"p 	c #FFD97B",
"q 	c #17140C",
"r 	c #B58628",
"s 	c #FFBA30",
"t 	c #FFB82D",
"u 	c #C28C21",
"v 	c #191204",
"w 	c #946C1D",
"x 	c #FFBC36",
"y 	c #FFBE3B",
"z 	c #FFC64F",
"A 	c #E0B14A",
"B 	c #030201",
"C 	c #8E7438",
"D 	c #FED16A",
"E 	c #FFD470",
"F 	c #FBD679",
"G 	c #060503",
"H 	c #82611F",
"I 	c #FFBB34",
"J 	c #D99F2B",
"K 	c #161005",
"L 	c #B08226",
"M 	c #FFC751",
"N 	c #FCC855",
"O 	c #A2833E",
"P 	c #FFD066",
"Q 	c #FFD26B",
"R 	c #FFD571",
"S 	c #FFD777",
"T 	c #CEAF64",
"U 	c #30240D",
"V 	c #FFBE3A",
"W 	c #B5872A",
"X 	c #C1912E",
"Y 	c #FFC347",
"Z 	c #FFC750",
"` 	c #FFC954",
" .	c #FFCB59",
"..	c #79612D",
"+.	c #FFCF63",
"@.	c #FFD168",
"#.	c #FFD36D",
"$.	c #FFD573",
"%.	c #FFD878",
"&.	c #7A683C",
"*.	c #B78C32",
"=.	c #FFC243",
"-.	c #FFC141",
";.	c #FCC042",
">.	c #FFC854",
",.	c #FFCA58",
"'.	c #FFCC5C",
").	c #FACA5E",
"!.	c #FFD26A",
"~.	c #FFD46F",
"{.	c #EDC971",
"].	c #15120A",
"^.	c #241C0B",
"/.	c #F0B846",
"(.	c #FFC449",
"_.	c #FFCD60",
":.	c #FFCF64",
"<.	c #FFD572",
"[.	c #60522F",
"}.	c #382C12",
"|.	c #F2BD4C",
"1.	c #FFC852",
"2.	c #FFCA56",
"3.	c #FFCE60",
"4.	c #FFD36C",
"5.	c #766438",
"6.	c #251D0C",
"7.	c #BF9740",
"8.	c #FFC956",
"9.	c #FFCB5A",
"0.	c #FFCD5E",
"a.	c #FFCE62",
"b.	c #FFD065",
"c.	c #E4BF69",
"d.	c #4E4225",
"e.	c #1B160A",
"f.	c #5B4921",
"g.	c #F4C358",
"h.	c #FFCC5D",
"i.	c #FFD167",
"j.	c #8C7742",
"k.	c #2B2515",
"l.	c #030302",
"m.	c #604F28",
"n.	c #DCB45A",
"o.	c #E5BC5C",
"p.	c #F2C560",
"q.	c #FFD776",
"r.	c #FFD879",
"s.	c #FFDA7D",
"t.	c #FFDC81",
"u.	c #F7D681",
"v.	c #EACD7E",
"w.	c #DDC37A",
"x.	c #A3915D",
"y.	c #070603",
"z.	c #C8A657",
"A.	c #FFD36E",
"B.	c #FFD46E",
"C.	c #FFDA7F",
"D.	c #FFDC82",
"E.	c #FFDD85",
"F.	c #FFDF89",
"G.	c #FFE18D",
"H.	c #F0D588",
"I.	c #2C271A",
"J.	c #0D0B06",
"K.	c #B59853",
"L.	c #FFD673",
"M.	c #FFDB81",
"N.	c #FFDC83",
"O.	c #FFDE87",
"P.	c #FFDF8B",
"Q.	c #FFE18E",
"R.	c #E0C780",
"S.	c #2D281A",
"T.	c #594B2B",
"U.	c #D9B867",
"V.	c #FFD87A",
"W.	c #FFDE86",
"X.	c #FFE08C",
"Y.	c #EED285",
"Z.	c #84764C",
"`.	c #0C0B07",
" +	c #2E2817",
".+	c #685934",
"++	c #7C6A3E",
"@+	c #887444",
"#+	c #74643A",
"$+	c #4B4026",
"%+	c #DABC6E",
"&+	c #554A2C",
"*+	c #6B5D39",
"=+	c #847347",
"-+	c #817147",
";+	c #6E613E",
">+	c #463E28",
",+	c #050403",
"'+	c #D2B770",
")+	c #1E1A10",
"!+	c #D2B976",
"~+	c #FFE290",
"{+	c #1E1B11",
"]+	c #D2BC7B",
"^+	c #FFE597",
"/+	c #1E1B12",
"(+	c #1C1911",
"_+	c #221F15",
":+	c #040402",
"                                                                ",
"                                                                ",
"                              . .                               ",
"                            . . . .                             ",
"                            . + @ . .                           ",
"                          . # $ % & .                           ",
"                        . . * = - ; . .                         ",
"                        . > , ' ) ! ~ .                         ",
"        . .             . { ] ^ / ( _ . .           . . .       ",
"      . . . . . .     . . : < [ } | 1 2 .       . . . . .       ",
"      . . 3 4 5 . . . . 6 7 8 [ ' | 9 0 . . . . . a b c .       ",
"      . . d e f g h . . i j k [ } | 9 l . . . m n o p q .       ",
"      . . r j s t u v . w x y ^ / ( z A . B C D E o F G .       ",
"        . H ] x I j J K L y ^ } ) ! M N # O P Q R S T . .       ",
"        . U ^ [ y V V W X ^ } Y - Z `  ...+.@.#.$.%.&.. .       ",
"        . . *.=.-.-.-.-.;.= | ! Z >.,.'.).P !.~.o {.]..         ",
"          . ^./.(.) ) | ( ! 9 M ` ,.'._.:.@.#.<.S [.. .         ",
"          . . }.|.z 9 z Z 1.>.2. .'.3.:.@.4.R o 5.. .           ",
"  . . . . . . . 6.7.8.8.2.,.9.'.0.a.b.@.4.R c.d.. . . . . . .   ",
"    . . . . . . e.f.g.'.h.0._.a.:.i.!.#.R o j.k.l.. . . . . .   ",
"    . . m.n.o.p.:.:.+.+.:.b.P @.!.4.E $.q.r.s.t.u.v.w.x.. .     ",
"      . y.z.A.4.Q !.!.!.!.4.4.B.R $.o %.p C.D.E.F.G.H.I.. .     ",
"      . . J.K.L.<.R R R R <.L.o S r.p s.M.N.O.P.Q.R.S.. .       ",
"        . . # T.U.%.%.%.%.r.V.p s.C.M.N.W.F.X.Y.Z.`.. .         ",
"            . . .  +.+++@+#+$+%+N.&+*+=+-+;+>+,+. . .           ",
"              . . . . . . . . '+F.)+. . . . . . .               ",
"                          . . !+~+{+. .                         ",
"                          . . ]+^+/+.                           ",
"                          . . (+_+:+.                           ",
"                          . . . . . .                           ",
"                                                                ",
"                                                                "};
