/* XPM */
static char * off_xpm[] = {
"32 32 374 2",
"  	c None",
". 	c #010101",
"+ 	c #020202",
"@ 	c #0F0F0E",
"# 	c #C6C6BC",
"$ 	c #A5A59C",
"% 	c #2E2E2C",
"& 	c #96968E",
"* 	c #ABABA2",
"= 	c #0A0A08",
"- 	c #A3A39B",
"; 	c #E2E2D7",
"> 	c #DADACF",
", 	c #C4C4BC",
"' 	c #BFBFB7",
") 	c #F1F0E7",
"! 	c #EFEEE5",
"~ 	c #BCBCB4",
"{ 	c #070705",
"] 	c #6F6F69",
"^ 	c #E0E0D5",
"/ 	c #CDCDC4",
"( 	c #BEBEB7",
"_ 	c #E3E3DB",
": 	c #F7F6EE",
"< 	c #F6F5ED",
"[ 	c #F3F2EA",
"} 	c #F0EFE7",
"| 	c #B4B4AD",
"1 	c #52524F",
"2 	c #CECEC4",
"3 	c #CECDC6",
"4 	c #F6F5EF",
"5 	c #FCFBF4",
"6 	c #FAF9F2",
"7 	c #F0F2EF",
"8 	c #F3F3EA",
"9 	c #EFEEE6",
"0 	c #8F8E88",
"a 	c #52524E",
"b 	c #BBBBB2",
"c 	c #BFBFB8",
"d 	c #E9E8E1",
"e 	c #C6DDF9",
"f 	c #86B9FD",
"g 	c #D7E4EF",
"h 	c #EBEAE1",
"i 	c #70706B",
"j 	c #6D6D68",
"k 	c #B7B7B1",
"l 	c #DEDDD6",
"m 	c #E3EDF6",
"n 	c #89BBFF",
"o 	c #C3DCF9",
"p 	c #F5F5EE",
"q 	c #F1F0E8",
"r 	c #ECEBE2",
"s 	c #E4E3D9",
"t 	c #53534F",
"u 	c #2F2F2D",
"v 	c #9A9A94",
"w 	c #D3D3CC",
"x 	c #F3F2EC",
"y 	c #CECDCA",
"z 	c #B5B5B4",
"A 	c #ECEBE5",
"B 	c #DFEBF7",
"C 	c #BFD9FA",
"D 	c #E5E4DA",
"E 	c #D9D8CF",
"F 	c #363633",
"G 	c #2D2D2A",
"H 	c #85857F",
"I 	c #C5C5BE",
"J 	c #F3F3EC",
"K 	c #F8F7F0",
"L 	c #D2D1CE",
"M 	c #AFAFAF",
"N 	c #ACACAC",
"O 	c #BBBBBA",
"P 	c #FBFAF2",
"Q 	c #F5F4EC",
"R 	c #C0D1E3",
"S 	c #6399E2",
"T 	c #8EAFD8",
"U 	c #C5C5BA",
"V 	c #121211",
"W 	c #333330",
"X 	c #878782",
"Y 	c #BCBCB5",
"Z 	c #E7E7DE",
"` 	c #F4F3EC",
" .	c #E4E3DE",
"..	c #B6B6B5",
"+.	c #D3D2CF",
"@.	c #F2F1E9",
"#.	c #B5CCE7",
"$.	c #5D97E7",
"%.	c #4E8CE0",
"&.	c #4181DA",
"*.	c #8EABCD",
"=.	c #A1A197",
"-.	c #8C8C85",
";.	c #BBBBB4",
">.	c #E0DFD5",
",.	c #E0DFDB",
"'.	c #ADADAD",
").	c #B1B1B0",
"!.	c #E1E0DC",
"~.	c #B2CCEA",
"{.	c #609AEA",
"].	c #5390E3",
"^.	c #4786DD",
"/.	c #3A7CD6",
"(.	c #3677CF",
"_.	c #BFC4BE",
":.	c #42423B",
"<.	c #DBDACF",
"[.	c #E6E5DC",
"}.	c #F6F6EE",
"|.	c #F1F5F5",
"1.	c #C6DEF9",
"2.	c #C4C4C2",
"3.	c #FBFAF3",
"4.	c #F5F4ED",
"5.	c #D2DFE9",
"6.	c #649DEB",
"7.	c #5793E5",
"8.	c #4B89DF",
"9.	c #3E7FD8",
"0.	c #3276D2",
"a.	c #266CCC",
"b.	c #86A2BE",
"c.	c #78786E",
"d.	c #000000",
"e.	c #D1D1C6",
"f.	c #E1E0D6",
"g.	c #E6E6DC",
"h.	c #EAECE8",
"i.	c #7CB1F8",
"j.	c #BDD7FA",
"k.	c #F8F7F1",
"l.	c #E8E7E2",
"m.	c #DBDAD6",
"n.	c #C9C8C4",
"o.	c #A7C2E0",
"p.	c #4182DA",
"q.	c #3578D4",
"r.	c #296FCD",
"s.	c #1D65C7",
"t.	c #86A0BA",
"u.	c #52524B",
"v.	c #74746F",
"w.	c #CDDAE4",
"x.	c #8BB6EF",
"y.	c #9FC2F3",
"z.	c #F8F7EF",
"A.	c #CECDC9",
"B.	c #A2A2A1",
"C.	c #D9D8D1",
"D.	c #E6E5DB",
"E.	c #E1E0D5",
"F.	c #729ED7",
"G.	c #377AD5",
"H.	c #2C71CF",
"I.	c #1F67C8",
"J.	c #4A7DBF",
"K.	c #A7A89C",
"L.	c #070707",
"M.	c #9D9C97",
"N.	c #C7D5E2",
"O.	c #A8C5E9",
"P.	c #D3DFEA",
"Q.	c #F9F8F1",
"R.	c #F3F2EB",
"S.	c #BEBEBB",
"T.	c #A5A5A3",
"U.	c #DFDFD6",
"V.	c #DBDBD0",
"W.	c #C4CBCB",
"X.	c #3174CF",
"Y.	c #2168C9",
"Z.	c #4C7FBF",
"`.	c #B1B3A7",
" +	c #20201F",
".+	c #AAA9A1",
"++	c #E7E6DC",
"@+	c #EAEAE0",
"#+	c #EDEDE4",
"$+	c #F0EFE6",
"%+	c #F2F2E9",
"&+	c #E6E5DD",
"*+	c #B3B3B0",
"=+	c #E2E2D9",
"-+	c #CBCBC3",
";+	c #B3B2AD",
">+	c #D6D5C9",
",+	c #D1D1C4",
"'+	c #6690C5",
")+	c #7798BE",
"!+	c #A8A89D",
"~+	c #161614",
"{+	c #1B1B1A",
"]+	c #85847E",
"^+	c #CCCCC3",
"/+	c #E9E8DF",
"(+	c #ECECE3",
"_+	c #EDECE3",
":+	c #C7C7C1",
"<+	c #BFBFBA",
"[+	c #E7E6DD",
"}+	c #E4E4D9",
"|+	c #C9C8C0",
"1+	c #828281",
"2+	c #C0C0B7",
"3+	c #D2D2C6",
"4+	c #91918C",
"5+	c #C0C0B5",
"6+	c #C6C6B8",
"7+	c #949488",
"8+	c #080808",
"9+	c #060606",
"0+	c #6B6B67",
"a+	c #CAC9C1",
"b+	c #C7C6BE",
"c+	c #BBA4A3",
"d+	c #C89CA0",
"e+	c #E0DFD6",
"f+	c #A6A6A3",
"g+	c #9A9A98",
"h+	c #D4D3CB",
"i+	c #DDDDD2",
"j+	c #ACACA6",
"k+	c #BDBCB3",
"l+	c #D0CFC3",
"m+	c #858581",
"n+	c #7E7E7A",
"o+	c #C1C1B5",
"p+	c #797970",
"q+	c #333231",
"r+	c #CAC9C3",
"s+	c #E4E2DB",
"t+	c #DAD8D2",
"u+	c #CC9CA4",
"v+	c #BD536B",
"w+	c #B0435C",
"x+	c #C5959C",
"y+	c #D8D8CE",
"z+	c #8B8B89",
"A+	c #AAAAA5",
"B+	c #DCDCD1",
"C+	c #BBBBB3",
"D+	c #A8A8A2",
"E+	c #D4D3C7",
"F+	c #CDCDC0",
"G+	c #82827E",
"H+	c #7C7C77",
"I+	c #BEBEB1",
"J+	c #5A5A52",
"K+	c #474644",
"L+	c #ECEAE5",
"M+	c #F7F5EF",
"N+	c #ECE2DF",
"O+	c #E093A3",
"P+	c #D1647D",
"Q+	c #C45771",
"R+	c #B74A63",
"S+	c #AA3E57",
"T+	c #C29799",
"U+	c #C9C8BF",
"V+	c #D9D9CD",
"W+	c #D8D7CB",
"X+	c #A8A8A1",
"Y+	c #777776",
"Z+	c #BABAB0",
"`+	c #BEBEB2",
" @	c #84847E",
".@	c #B8B8AA",
"+@	c #3C3C37",
"@@	c #CAC8C2",
"#@	c #EDECE5",
"$@	c #F3E4E1",
"%@	c #EF8EA4",
"&@	c #E3748E",
"*@	c #D66882",
"=@	c #C95B75",
"-@	c #BC4F68",
";@	c #AF425B",
">@	c #A65667",
",@	c #C3C1B6",
"'@	c #D3D3C7",
")@	c #D2D1C5",
"!@	c #93938E",
"~@	c #777774",
"{@	c #C1C0B4",
"]@	c #CACABC",
"^@	c #C7C6B9",
"/@	c #C3C3B5",
"(@	c #B5B5A6",
"_@	c #262622",
":@	c #595855",
"<@	c #CECCC4",
"[@	c #E5DED9",
"}@	c #E7B6BE",
"|@	c #E18096",
"1@	c #D76982",
"2@	c #CB5E77",
"3@	c #BF516B",
"4@	c #B56F7C",
"5@	c #B1ADA6",
"6@	c #8D8D87",
"7@	c #ABABA1",
"8@	c #C2C2B5",
"9@	c #868681",
"0@	c #C3C3B6",
"a@	c #80807A",
"b@	c #B4B4A7",
"c@	c #B1B1A4",
"d@	c #20201D",
"e@	c #090908",
"f@	c #656461",
"g@	c #C0BFB7",
"h@	c #DBD7D2",
"i@	c #D5B0B3",
"j@	c #CA7588",
"k@	c #C28590",
"l@	c #BDBBB3",
"m@	c #979791",
"n@	c #424241",
"o@	c #888881",
"p@	c #C0C0B2",
"q@	c #C4C4B5",
"r@	c #BFBFB1",
"s@	c #6F6F6A",
"t@	c #B0B0A1",
"u@	c #1B1B18",
"v@	c #030303",
"w@	c #575753",
"x@	c #A9A9A1",
"y@	c #C4C3BB",
"z@	c #AEADA6",
"A@	c #4F4F4E",
"B@	c #8D8C85",
"C@	c #82817B",
"D@	c #5C5C56",
"E@	c #BFBFB0",
"F@	c #7B7B75",
"G@	c #B2B2A3",
"H@	c #21211F",
"I@	c #64635D",
"J@	c #AEAEA4",
"K@	c #B8B7AF",
"L@	c #A3A29B",
"M@	c #989891",
"N@	c #343434",
"O@	c #76766F",
"P@	c #B9B9AB",
"Q@	c #B3B3A5",
"R@	c #B1B1A3",
"S@	c #242422",
"T@	c #222220",
"U@	c #9D9D91",
"V@	c #B3B2A7",
"W@	c #A5A49B",
"X@	c #8F8E86",
"Y@	c #94948B",
"Z@	c #BBBBAD",
"`@	c #A9A99C",
" #	c #504F4A",
".#	c #A2A196",
"+#	c #AAAA9E",
"@#	c #A8A89C",
"##	c #83837A",
"$#	c #0A0A09",
"                                                                ",
"                                                                ",
"                                                                ",
"                                . +     . .                     ",
"                              @ # $ % . & * =                   ",
"                            . - ; > , ' ) ! ~ {                 ",
"                          . ] ^ / ( _ : < [ } | .               ",
"                        + 1 2 ' 3 4 5 5 6 7 8 9 0 .             ",
"                      . a b c d 5 5 5 5 e f g ) h i +           ",
"                    . j k l 5 5 5 5 5 m n o p q r s t +         ",
"                . u v w 6 5 5 x y z A B C 5 < } h D E F         ",
"            . G H I J 5 5 K L M N N O 5 5 P Q ! R S T U V       ",
"        . W X Y Z ` 6 5  ...N N N N +.5 5 K @.#.$.%.&.*.=..     ",
"      . -.;.>.h } < 5 5 ,.'.N N ).!.5 5 6 ` ~.{.].^./.(._.:.    ",
"      . <.^ [.r q }.|.1.5 +.N 2.x 5 5 3.4.5.6.7.8.9.0.a.b.c.d.  ",
"      . e.f.g.r h.i.f j.5 k.l.5 5 5 6 m.n.h o.%.p.q.r.s.t.u.d.  ",
"        v.f.[.w.x.y.K 3.5 5 5 5 3.z.A.B.C.D.E.F.G.H.I.J.K.L.    ",
"        . M.D N.O.P.` : K Q.K : R.S.T.U.D ^ V.W.X.Y.Z.`. +d.    ",
"          . .+++@+#+$+@.%+[ @.} &+*+=+-+;+> >+,+'+)+!+~+d.      ",
"        + {+]+^+++/+h (+_+(+:+<+[+}+|+1+2+3+4+5+6+7+8+d.        ",
"      9+0+a+b+c+d+}+D.g.e+f+g+h+^ i+j+k+l+m+n+o+p+. d.          ",
"  + q+r+s+t+u+v+w+x+^ y+z+A+B+B+C+D+E+F+G+H+I+J+.               ",
"+ K+L+M+N+O+P+Q+R+S+T+> U+V+W+X+Y+Z+F+`+ @.@+@.                 ",
". @@#@$@%@&@*@=@-@;@>@,@'@)@!@~@{@]@^@/@(@_@d.                  ",
". :@<@[@}@|@1@2@3@4@5@6@7@8@9@0@0@a@b@c@d@d.                    ",
"  + e@f@g@h@i@j@k@l@m@n@o@p@q@r@s@s@t@u@d.                      ",
"      + v@w@x@a+y@z@A@B@C@D@E@F@s@G@H@d.                        ",
"            . I@J@K@L@M@N@O@P@Q@R@S@d.                          ",
"                T@U@V@W@X@Y@Z@`@~+d.                            ",
"                  .  #.#+#@###$#d.                              ",
"                      . . . .                                   ",
"                                                                "};
