/* XPM */
static char * std_games_xpm[] = {
"32 32 357 2",
"  	c None",
". 	c #101010",
"+ 	c #111111",
"@ 	c #0F0F0F",
"# 	c #020000",
"$ 	c #221D0A",
"% 	c #958638",
"& 	c #948743",
"* 	c #756A32",
"= 	c #2F2912",
"- 	c #010000",
"; 	c #282203",
"> 	c #D0B621",
", 	c #E5CA31",
"' 	c #EDCE25",
") 	c #DBC034",
"! 	c #958324",
"~ 	c #695C1A",
"{ 	c #191500",
"] 	c #C4A604",
"^ 	c #D4B404",
"/ 	c #D5B60B",
"( 	c #9D891A",
"_ 	c #161303",
": 	c #998203",
"< 	c #BB9F04",
"[ 	c #030200",
"} 	c #907A02",
"| 	c #DBBA04",
"1 	c #C9AB04",
"2 	c #060400",
"3 	c #322901",
"4 	c #AB9003",
"5 	c #B49804",
"6 	c #29260E",
"7 	c #706A2B",
"8 	c #B6AC53",
"9 	c #D6C766",
"0 	c #DCCA69",
"a 	c #DBC762",
"b 	c #D9C258",
"c 	c #D4BD48",
"d 	c #C7B235",
"e 	c #A6941A",
"f 	c #625603",
"g 	c #231E01",
"h 	c #322A01",
"i 	c #766502",
"j 	c #7E6B03",
"k 	c #BC9F03",
"l 	c #746303",
"m 	c #322E0F",
"n 	c #AEA643",
"o 	c #F0E778",
"p 	c #F0E198",
"q 	c #C0A56D",
"r 	c #916A3B",
"s 	c #7B4E20",
"t 	c #794916",
"u 	c #805215",
"v 	c #90651C",
"w 	c #A6822E",
"x 	c #C3A74D",
"y 	c #D8C157",
"z 	c #CFB619",
"A 	c #907E03",
"B 	c #282201",
"C 	c #2E2601",
"D 	c #BA9E04",
"E 	c #B29704",
"F 	c #1B1601",
"G 	c #615B19",
"H 	c #E8DE54",
"I 	c #F0E76E",
"J 	c #F8ECAB",
"K 	c #82583E",
"L 	c #430901",
"M 	c #4C1401",
"N 	c #562001",
"O 	c #612C02",
"P 	c #6B3802",
"Q 	c #764502",
"R 	c #805103",
"S 	c #8B5E03",
"T 	c #AF8D2E",
"U 	c #DDC764",
"V 	c #C6AE04",
"W 	c #BBA204",
"X 	c #4C4002",
"Y 	c #241E01",
"Z 	c #B09504",
"` 	c #796803",
" .	c #49430D",
"..	c #EADD45",
"+.	c #EEE561",
"@.	c #F1EA7B",
"#.	c #FEF1BB",
"$.	c #602E1E",
"%.	c #A27C1A",
"&.	c #E5D27D",
"*.	c #C8AF05",
"=.	c #C0A604",
"-.	c #B79C04",
";.	c #382E01",
">.	c #534602",
",.	c #151100",
"'.	c #0E0B01",
").	c #D7C929",
"!.	c #EBDF47",
"~.	c #EEE563",
"{.	c #F2EB7F",
"].	c #F8F2A8",
"^.	c #F5E6B5",
"/.	c #A3805D",
"(.	c #703F20",
"_.	c #5C2803",
":.	c #643002",
"<.	c #6E3B02",
"[.	c #7A4904",
"}.	c #956B1E",
"|.	c #BD9D4F",
"1.	c #EAD78E",
"2.	c #DBC63A",
"3.	c #B89D04",
"4.	c #A48904",
"5.	c #0F0C00",
"6.	c #585005",
"7.	c #E7D828",
"8.	c #EBDE43",
"9.	c #EEE45E",
"0.	c #F1EA78",
"a.	c #F4EF91",
"b.	c #F7F2A6",
"c.	c #FBF2B2",
"d.	c #FDF1B8",
"e.	c #FBEEB8",
"f.	c #EEDDA6",
"g.	c #EDDBA2",
"h.	c #F6E7AB",
"i.	c #F3E390",
"j.	c #EAD95C",
"k.	c #DAC619",
"l.	c #CFB805",
"m.	c #C7AF04",
"n.	c #B89C04",
"o.	c #B19404",
"p.	c #4D4002",
"q.	c #A29404",
"r.	c #E7D620",
"s.	c #EADC3A",
"t.	c #ECE253",
"u.	c #EFE669",
"v.	c #F1EB7D",
"w.	c #F3ED89",
"x.	c #EFE66A",
"y.	c #EEE35C",
"z.	c #ECDE45",
"A.	c #E7D621",
"B.	c #E4D106",
"C.	c #DCC805",
"D.	c #D5BF05",
"E.	c #CEB605",
"F.	c #C6AD04",
"G.	c #BFA404",
"H.	c #B79B04",
"I.	c #B09204",
"J.	c #7E6A03",
"K.	c #0A0701",
"L.	c #1F1A05",
"M.	c #CAB512",
"N.	c #E2CC20",
"O.	c #E1CA21",
"P.	c #E0C820",
"Q.	c #E7D847",
"R.	c #EFE665",
"S.	c #EDE256",
"T.	c #E8D92C",
"U.	c #E5D415",
"V.	c #E1CD05",
"W.	c #DAC505",
"X.	c #D3BD05",
"Y.	c #CCB405",
"Z.	c #C4AB04",
"`.	c #BDA204",
" +	c #B69A04",
".+	c #AE9104",
"++	c #957F03",
"@+	c #584D02",
"#+	c #A59305",
"$+	c #C7BF55",
"%+	c #EAD25B",
"&+	c #F0DC7B",
"*+	c #F3E087",
"=+	c #EFDA73",
"-+	c #E8CF51",
";+	c #E0C32A",
">+	c #E9DA41",
",+	c #ECE152",
"'+	c #ECE04C",
")+	c #EADD40",
"!+	c #E8DA2F",
"~+	c #E6D51C",
"{+	c #DDC905",
"]+	c #D7C105",
"^+	c #D0B905",
"/+	c #C9B105",
"(+	c #C2A804",
"_+	c #BBA004",
":+	c #B49704",
"<+	c #AC8E04",
"[+	c #A99204",
"}+	c #817603",
"|+	c #A89812",
"1+	c #E5CB46",
"2+	c #EED971",
"3+	c #F6E597",
"4+	c #F8E8A0",
"5+	c #F1DD7E",
"6+	c #E8D054",
"7+	c #CEB423",
"8+	c #E9DB37",
"9+	c #E9DA32",
"0+	c #E6D51A",
"a+	c #E4D108",
"b+	c #DFCB05",
"c+	c #D9C405",
"d+	c #CCB505",
"e+	c #BFA504",
"f+	c #AD9604",
"g+	c #9B8E03",
"h+	c #877A03",
"i+	c #D5B805",
"j+	c #D7B603",
"k+	c #DEC022",
"l+	c #E3C83C",
"m+	c #E7CD4C",
"n+	c #E6CD4B",
"o+	c #E3C83A",
"p+	c #DCBD1E",
"q+	c #A48C09",
"r+	c #E6D417",
"s+	c #E5D20E",
"t+	c #E3CF05",
"u+	c #DECA05",
"v+	c #D4BE05",
"w+	c #CEB705",
"x+	c #C8B005",
"y+	c #BBA104",
"z+	c #B59804",
"A+	c #AE9004",
"B+	c #B19604",
"C+	c #9C8903",
"D+	c #2C2603",
"E+	c #B39B0B",
"F+	c #BEA409",
"G+	c #C5A907",
"H+	c #CBAE06",
"I+	c #D0B104",
"J+	c #D5B503",
"K+	c #D5B403",
"L+	c #D2B304",
"M+	c #C4A003",
"N+	c #B49703",
"O+	c #E1CE05",
"P+	c #D8C305",
"Q+	c #BEA304",
"R+	c #AD9004",
"S+	c #B59C04",
"T+	c #726603",
"U+	c #362F04",
"V+	c #A7930D",
"W+	c #B29C0C",
"X+	c #B8A00B",
"Y+	c #BCA30A",
"Z+	c #C0A609",
"`+	c #C2A708",
" @	c #C3A808",
".@	c #B99805",
"+@	c #C09A03",
"@@	c #B49604",
"#@	c #D2BB05",
"$@	c #B99E04",
"%@	c #B39704",
"&@	c #AD8F04",
"*@	c #B19704",
"=@	c #B9A304",
"-@	c #312B01",
";@	c #000000",
">@	c #1F1A02",
",@	c #88770B",
"'@	c #AE990E",
")@	c #AE990D",
"!@	c #B09A0D",
"~@	c #B09B0D",
"{@	c #AA8A05",
"]@	c #B28F03",
"^@	c #BA9603",
"/@	c #AD8E03",
"(@	c #CBB305",
"_@	c #C3AA04",
":@	c #AF9304",
"<@	c #B69F04",
"[@	c #8B7C04",
"}@	c #6A5D09",
"|@	c #94820B",
"1@	c #AB960D",
"2@	c #AE980E",
"3@	c #A28B09",
"4@	c #9C7D02",
"5@	c #A58502",
"6@	c #AD8B03",
"7@	c #B39003",
"8@	c #A58702",
"9@	c #BFA604",
"0@	c #C1A704",
"a@	c #B99D04",
"b@	c #AF9104",
"c@	c #AE9204",
"d@	c #AC9904",
"e@	c #161301",
"f@	c #1B1500",
"g@	c #6C5702",
"h@	c #846A02",
"i@	c #8F7302",
"j@	c #987A02",
"k@	c #A08002",
"l@	c #A68502",
"m@	c #AA8903",
"n@	c #A28203",
"o@	c #A98E03",
"p@	c #B39604",
"q@	c #B49C04",
"r@	c #A79504",
"s@	c #221E01",
"t@	c #080500",
"u@	c #403401",
"v@	c #745D02",
"w@	c #8A6F02",
"x@	c #927602",
"y@	c #997B02",
"z@	c #9E7F02",
"A@	c #A08102",
"B@	c #A18102",
"C@	c #8F7401",
"D@	c #957B02",
"E@	c #A78C04",
"F@	c #A58F04",
"G@	c #6A5E02",
"H@	c #0E0C00",
"I@	c #493B01",
"J@	c #836902",
"K@	c #8E7202",
"L@	c #937602",
"M@	c #8B7002",
"N@	c #876D02",
"O@	c #765F02",
"P@	c #483A01",
"                                                                ",
"        . + + . . . . . . .                                     ",
"    @ .                   . . +                                 ",
"    .                     . . .                                 ",
"    . .                   . .                                   ",
"          .         . . +                                       ",
"            . .                                 # #             ",
"            . .                             # $ % & * = -       ",
"          . @                               ; > , ' ) ! ~ -     ",
"        . .                               { ] ^ / ( _ : < -     ",
"      .                 - - - - - - - - [ } | 1 : 2 3 4 5 -     ",
"    .             - 6 7 8 9 0 a b c d e f g h i 2 - j k l #     ",
"    .         - m n o p q r s t u v w x y z A B - C D E F       ",
"            - G H I J K L M N O P Q R S T U V W X Y Z ` -       ",
"          #  ...+.@.#.$.L M N O P Q R S %.&.*.=.-.;.>.,.        ",
"          '.).!.~.{.].^./.(._.:.<.[.}.|.1.2.*.=.3.4.5.#         ",
"          6.7.8.9.0.a.b.c.d.e.f.g.h.i.j.k.l.m.=.n.o.p.          ",
"        - q.r.s.t.u.v.w.w.v.x.y.z.A.B.C.D.E.F.G.H.I.J.-         ",
"    - K.L.M.N.O.P.Q.R.I I R.S.8.T.U.V.W.X.Y.Z.`. +.+++-         ",
"  @+#+$+%+&+*+=+-+;+>+,+,+'+)+!+~+B.{+]+^+/+(+_+:+<+[+-         ",
"- }+- |+1+2+3+4+5+6+7+8+8+9+7.0+a+b+c+X.d+F.e+n.o..+f+-         ",
"- g+h+i+j+k+l+m+n+o+p+q+~+r+s+t+u+c+v+w+x+(+y+z+A+B+C+-         ",
"  D+E+F+G+H+I+^ J+K+L+M+N+O+b+C.P+v+l./+Z.Q+n.o.R+S+T+-         ",
"  - U+V+W+X+Y+Z+`+ @`+.@+@@@P+D.#@E./+Z.e+$@%@&@*@=@-@;@        ",
"    # >@,@'@'@'@)@!@~@{@]@^@/@E.(@*._@G.D 5 .+:@<@[@-           ",
"        - ; }@|@1@2@3@4@5@6@7@8@9@0@`.a@:+b@c@S+d@e@;@          ",
"            - - f@g@h@i@j@k@l@m@n@o@H.p@A+c@q@r@s@;@            ",
"                - t@u@v@w@x@y@z@A@B@C@D@E@F@G@H@;@              ",
"                  ;@- - I@v@J@K@L@M@N@O@P@- - ;@                ",
"                      ;@- - - - - - - - -                       ",
"                                                                ",
"                                                                "};
