/* XPM */
static char * desktop_xpm[] = {
"20 20 236 2",
"  	c None",
". 	c #000B00",
"+ 	c #005601",
"@ 	c #025805",
"# 	c #012304",
"$ 	c #04840D",
"% 	c #05D613",
"& 	c #06D115",
"* 	c #08C61A",
"= 	c #077D16",
"- 	c #000902",
"; 	c #12100D",
"> 	c #65584C",
", 	c #362F28",
"' 	c #000000",
") 	c #043D0D",
"! 	c #087C1B",
"~ 	c #0CA727",
"{ 	c #0DA02C",
"] 	c #08531B",
"^ 	c #070705",
"/ 	c #6C5F53",
"( 	c #ECCFB4",
"_ 	c #FFDFC0",
": 	c #FFDDBC",
"< 	c #E3C3A5",
"[ 	c #8D7965",
"} 	c #42392F",
"| 	c #030302",
"1 	c #464646",
"2 	c #151F18",
"3 	c #053012",
"4 	c #010A03",
"5 	c #544C43",
"6 	c #DDC5AE",
"7 	c #FFE2C6",
"8 	c #FFE0C3",
"9 	c #FFE9D4",
"0 	c #FFF9F4",
"a 	c #FFF2E6",
"b 	c #FFE8D1",
"c 	c #FFDCBB",
"d 	c #EFC9A5",
"e 	c #9B8269",
"f 	c #949494",
"g 	c #5E5E5E",
"h 	c #3E3833",
"i 	c #CBB7A6",
"j 	c #FFE5CC",
"k 	c #FFE3C9",
"l 	c #FFE4CA",
"m 	c #FFF4EA",
"n 	c #FFFFFF",
"o 	c #FFFCF8",
"p 	c #FBE0C4",
"q 	c #FFD7B0",
"r 	c #E0BE9D",
"s 	c #8B8B8B",
"t 	c #585858",
"u 	c #927960",
"v 	c #594939",
"w 	c #14100D",
"x 	c #3E3123",
"y 	c #B99C7F",
"z 	c #FDE4CD",
"A 	c #FFE3CB",
"B 	c #FEF7F0",
"C 	c #FBFBFB",
"D 	c #767676",
"E 	c #43413E",
"F 	c #41372D",
"G 	c #B2977D",
"H 	c #7C736B",
"I 	c #DCDCDC",
"J 	c #9A9A9A",
"K 	c #5A5045",
"L 	c #DEAC7C",
"M 	c #CA9A6D",
"N 	c #362615",
"O 	c #16110B",
"P 	c #76583C",
"Q 	c #BA8C60",
"R 	c #CCA37A",
"S 	c #F7D9BA",
"T 	c #FDDEC2",
"U 	c #F5DABF",
"V 	c #F7E8D8",
"W 	c #F4E0CC",
"X 	c #ECC39D",
"Y 	c #FFDAB6",
"Z 	c #FFD8B3",
"` 	c #C9AA8C",
" .	c #6E6257",
"..	c #64584C",
"+.	c #A7835F",
"@.	c #C39262",
"#.	c #7C5025",
"$.	c #140C05",
"%.	c #0F0C07",
"&.	c #2D2113",
"*.	c #604831",
"=.	c #BA8B5F",
"-.	c #C19569",
";.	c #EEC7A4",
">.	c #FDDCBB",
",.	c #F2CCA7",
"'.	c #FFDBB9",
").	c #FFD5AC",
"!.	c #FFD3A9",
"~.	c #F8CA9E",
"{.	c #926031",
"].	c #5F3C19",
"^.	c #0D0803",
"/.	c #20180F",
"(.	c #A87542",
"_.	c #7B5128",
":.	c #402C17",
"<.	c #4E3B27",
"[.	c #A97E56",
"}.	c #C19163",
"|.	c #DDB389",
"1.	c #FCD7B4",
"2.	c #E0B083",
"3.	c #855222",
"4.	c #3D260F",
"5.	c #4C2E11",
"6.	c #150D05",
"7.	c #261C12",
"8.	c #D29C69",
"9.	c #DAAB7F",
"0.	c #B57E4B",
"a.	c #AD7A4A",
"b.	c #553B22",
"c.	c #3F2E1E",
"d.	c #936F4A",
"e.	c #C79464",
"f.	c #CFA174",
"g.	c #F5CBA3",
"h.	c #FED6AF",
"i.	c #AD7D4E",
"j.	c #7F4D1E",
"k.	c #281909",
"l.	c #653C14",
"m.	c #885421",
"n.	c #150E06",
"o.	c #241A12",
"p.	c #B57F4B",
"q.	c #B47F4C",
"r.	c #BB8754",
"s.	c #976737",
"t.	c #AA7745",
"u.	c #6A492A",
"v.	c #352719",
"w.	c #7C5D3E",
"x.	c #C79565",
"y.	c #8E5F34",
"z.	c #683F16",
"A.	c #271706",
"B.	c #724213",
"C.	c #84501C",
"D.	c #8C5824",
"E.	c #AF7C48",
"F.	c #AB7744",
"G.	c #9E6935",
"H.	c #A9723E",
"I.	c #DAAC80",
"J.	c #B9834F",
"K.	c #CF9762",
"L.	c #BF8854",
"M.	c #815B36",
"N.	c #372717",
"O.	c #382817",
"P.	c #371E04",
"Q.	c #774310",
"R.	c #7F4B18",
"S.	c #87531F",
"T.	c #8F5B27",
"U.	c #130C06",
"V.	c #D8A26E",
"W.	c #D1A378",
"X.	c #9F6831",
"Y.	c #6F3801",
"Z.	c #3B2004",
"`.	c #6D4E2E",
" +	c #C8925D",
".+	c #B18050",
"++	c #A77645",
"@+	c #C8935C",
"#+	c #623305",
"$+	c #733F0C",
"%+	c #7B4714",
"&+	c #834F1B",
"*+	c #8B5622",
"=+	c #462C14",
"-+	c #0E0A07",
";+	c #946D48",
">+	c #D59D68",
",+	c #905D2B",
"'+	c #3C1E01",
")+	c #AE7A49",
"!+	c #B7814E",
"~+	c #D8A677",
"{+	c #D49C66",
"]+	c #6E3B08",
"^+	c #76430F",
"/+	c #7E4A17",
"(+	c #86521E",
"_+	c #4A2E14",
":+	c #2D2116",
"<+	c #3D2915",
"[+	c #C28F5F",
"}+	c #CF9761",
"|+	c #B57E4C",
"1+	c #723E0B",
"2+	c #7A4612",
"3+	c #814D1A",
"4+	c #4E3013",
"5+	c #A87646",
"6+	c #D19762",
"7+	c #75410E",
"8+	c #7D4916",
"9+	c #523212",
"0+	c #020000",
"a+	c #876442",
"b+	c #D7A26E",
"c+	c #DCAB7C",
"d+	c #D59C66",
"e+	c #784511",
"f+	c #543210",
"g+	c #030100",
"h+	c #2C2015",
"i+	c #936D47",
"j+	c #C3905E",
"k+	c #57320E",
"l+	c #040301",
"m+	c #1F160E",
"                        . + @ #         ",
"                        $ % & * = -     ",
"            ; > , '     - ) ! ~ { ]     ",
"        ^ / ( _ : < [ } |   1 2 3 4     ",
"      5 6 7 8 9 0 a b c d e f g         ",
"  h i j k l m n n n o p q r s t u v w   ",
"x y z j A B n C D E F G q H I J K L M N ",
"O P Q R S T U V W X Y Z q `  ...+.@.#.$.",
"  %.&.*.=.-.;.>.,.'.Y Z q ).!.~.{.].^.  ",
"  /.(._.:.<.[.}.|.1.Y Z q ).2.3.4.5.6.  ",
"  7.8.9.0.a.b.c.d.e.f.g.h.i.j.k.l.m.n.  ",
"  o.p.p.q.r.s.t.u.v.w.x.y.z.A.B.C.D.n.  ",
"  /.E.F.G.H.I.J.K.L.M.N.O.P.Q.R.S.T.U.  ",
"  /.V.W.X.Y.Z.`. +.+++@+#+$+%+&+*+=+'   ",
"  -+;+>+,+'+' ' )+!+~+{+]+^+/+(+_+'     ",
"      :+<+'   ' [+}+p.|+1+2+3+4+'       ",
"              ' [+5+(.6+7+8+9+0+        ",
"                a+b+c+d+e+f+g+          ",
"                  h+i+j+k+l+            ",
"                      m+l+              "};
