/* XPM */
static char *dummy[]={
"3 24 3 1",
". c #666666",
"a c #cccccc",
"# c #ffffff",
"...",
"###",
"aaa",
"aaa",
"aaa",
"aaa",
"aaa",
"aaa",
"aaa",
"aaa",
"aaa",
"aaa",
"aaa",
"aaa",
"aaa",
"aaa",
"aaa",
"aaa",
"aaa",
"aaa",
"aaa",
"aaa",
"...",
"###"};
