/* XPM */
static char *dummy[]={
"50 22 32 1",
"d c #00009a",
"k c #0000b3",
"a c #003398",
"e c #0033cb",
"C c #003498",
"u c #333398",
"z c #3333cb",
"j c #3366cb",
"f c #660066",
"l c #660098",
"B c #663398",
"y c #6666cb",
"h c #6698cb",
"c c #980066",
"i c #9898cb",
"t c #b0b0b0",
"D c #b8b8b8",
"A c #c8c8c8",
"b c #cb0033",
"m c #cb3366",
"v c #cb6666",
"q c #cb6698",
"s c #cbcbff",
"g c #cc0034",
"# c #d8d8d8",
"x c #e0e0e0",
". c #e8e8e8",
"r c #f0f0f0",
"n c #ff9898",
"w c #ff98cb",
"o c #ffcbcb",
"p c #ffffff",
"..................................................",
"##################################################",
"###aaaaaaaaaaaaaaaaaaaabbbbbbbbbbbbbbbbbbbbbbb####",
"###aaaaaaaaaaaaaaaaaaaacbbbbbbbbbbbbbbbbbbbbbb####",
"###aaaaddaadaaaaaaaaaaefbbbbbbbbbbbbgbbbbbbbbb####",
"###aaahiihiijkaaaaaaaaelbbbbmnoponmbbbbqornbbb####",
"###aaaaspaahptkaaaaaaaaubbbvr.qmq.rqbbmpnqrnbb####",
"###aaadipaadspaaaaaaaaaubbmrnbbbbbnrmbnobbq.bb####",
"###aaadipaadsraaaaadaaaubbw.bbbbbbb.wbnobbbbbb####",
"###aaadipaaj.jadjiiiaaaubb.qbbbbbbbq.bmpovbbbb####",
"###aaadiphixjdkjxddxikaubbpmbbbbbbbmpbbmopombg####",
"###aaadipaaa.#d#syy#xaaubbpqbbbbbbbqpbbbbmo.bb####",
"###aaadipaadjpj.yazaaaaubboobbbbbbbnobmbbbmpmb####",
"###aaadipaakjpy.hdaaaaaubbqpqbbbbbqpvb.qbbvpmb####",
"###aaadipdddApaipadataaubbbnpnbbbnpnbbn.mmoobb####",
"###aaahxrhhs.jdaxrsxhaaubbbbnpppprqbbbmoppombb####",
"###aaazaaezaakaadzjaaaeBbbbbbbmmmbbbbbbbmmbbbb####",
"###Caaaaaaaaaaaaaaaaaaefbbbbbbbbbbbbbbbbbbbbbb####",
"###aaaaaaaaaaaaaaaaaaaacbbbbbbbbbbbbbbbbbbbbbb####",
"###aaaaaaaaaaaaaaaaaaaabbbbbbbbbbbbbbbbbbbbbbb####",
"##################################################",
"DDDDDDDDDDDDDDDDDDDDDDDDDDDDDDDDDDDDDDDDDDDDDDDDDD"};
