/* XPM */
static char * windows_xpm[] = {
"20 20 172 2",
"  	c None",
". 	c #000000",
"+ 	c #030302",
"@ 	c #605C40",
"# 	c #EADC91",
"$ 	c #8A804F",
"% 	c #16140C",
"& 	c #090906",
"* 	c #9F9766",
"= 	c #FFEE98",
"- 	c #FFEB8C",
"; 	c #FFE780",
"> 	c #F4D96F",
", 	c #8A7938",
"' 	c #151207",
") 	c #3C3825",
"! 	c #FFEC92",
"~ 	c #FFE986",
"{ 	c #FFE57A",
"] 	c #FFE16E",
"^ 	c #FFDD61",
"/ 	c #FFDA55",
"( 	c #786522",
"_ 	c #3C3721",
": 	c #FFE781",
"< 	c #FFE375",
"[ 	c #FFE068",
"} 	c #FFDC5C",
"| 	c #FFD850",
"1 	c #FFD443",
"2 	c #78621A",
"3 	c #3C361D",
"4 	c #FFE26F",
"5 	c #FFDE63",
"6 	c #FFDA57",
"7 	c #FFD64A",
"8 	c #FFD23E",
"9 	c #FFCF32",
"0 	c #786012",
"a 	c #3C3519",
"b 	c #FFDC5D",
"c 	c #FFD851",
"d 	c #FFD444",
"e 	c #FFD138",
"f 	c #FFCD2C",
"g 	c #FFC920",
"h 	c #785D09",
"i 	c #2A240E",
"j 	c #F1CB47",
"k 	c #FFD33F",
"l 	c #FFCB26",
"m 	c #FFC81A",
"n 	c #FFC40E",
"o 	c #604902",
"p 	c #131619",
"q 	c #626F89",
"r 	c #1A1E27",
"s 	c #110E04",
"t 	c #826917",
"u 	c #F1BE1F",
"v 	c #FFC615",
"w 	c #F3B908",
"x 	c #5B4501",
"y 	c #1D1111",
"z 	c #4C2A2A",
"A 	c #353C46",
"B 	c #A8BEEA",
"C 	c #ACC1FF",
"D 	c #A1B4FD",
"E 	c #626BA4",
"F 	c #161828",
"G 	c #110D01",
"H 	c #7A5C02",
"I 	c #281E01",
"J 	c #E47C7C",
"K 	c #F48080",
"L 	c #BB6060",
"M 	c #341A1A",
"N 	c #2C323A",
"O 	c #B5CCFD",
"P 	c #A2B4FF",
"Q 	c #98A7FF",
"R 	c #8D9AFF",
"S 	c #828CFD",
"T 	c #272A53",
"U 	c #050303",
"V 	c #8A4B4B",
"W 	c #F38181",
"X 	c #F27C7C",
"Y 	c #F07878",
"Z 	c #ED7373",
"` 	c #EA6E6E",
" .	c #5A2929",
"..	c #363D4B",
"+.	c #97A7FF",
"@.	c #838DFF",
"#.	c #7980FF",
"$.	c #2D2F69",
"%.	c #3A1F1F",
"&.	c #F27E7E",
"*.	c #F07979",
"=.	c #EE7474",
"-.	c #EB6F6F",
";.	c #E96A6A",
">.	c #E66565",
",.	c #6B2D2D",
"'.	c #33394B",
").	c #A1B3FF",
"!.	c #8D99FF",
"~.	c #787FFF",
"{.	c #6E73FF",
"].	c #292A69",
"^.	c #391D1D",
"/.	c #EE7575",
"(.	c #EC7070",
"_.	c #E96B6B",
":.	c #E76666",
"<.	c #E46161",
"[.	c #E25C5C",
"}.	c #692929",
"|.	c #2F354B",
"1.	c #97A6FF",
"2.	c #828CFF",
"3.	c #6E72FF",
"4.	c #6465FF",
"5.	c #252469",
"6.	c #381B1B",
"7.	c #EA6C6C",
"8.	c #E86767",
"9.	c #E56262",
"0.	c #E35D5D",
"a.	c #E05858",
"b.	c #DE5353",
"c.	c #672525",
"d.	c #2C314B",
"e.	c #8C99FF",
"f.	c #6365FF",
"g.	c #5958FF",
"h.	c #211F69",
"i.	c #371818",
"j.	c #E66363",
"k.	c #E35E5E",
"l.	c #E15959",
"m.	c #DE5454",
"n.	c #DC4F4F",
"o.	c #DA4A4A",
"p.	c #652020",
"q.	c #030406",
"r.	c #353968",
"s.	c #6A70E1",
"t.	c #6D71FF",
"u.	c #5957FF",
"v.	c #3835B4",
"w.	c #060515",
"x.	c #040101",
"y.	c #562323",
"z.	c #C14A4A",
"A.	c #DC5050",
"B.	c #DA4C4C",
"C.	c #D84646",
"D.	c #9F3131",
"E.	c #140606",
"F.	c #030306",
"G.	c #282968",
"H.	c #4D4BDD",
"I.	c #242377",
"J.	c #000001",
"K.	c #030101",
"L.	c #521B1B",
"M.	c #B83939",
"N.	c #6C2020",
"O.	c #020101",
"                                        ",
"                . + . .                 ",
"            . . @ # $ % . .             ",
"          . & * = - ; > , ' .           ",
"          . ) ! ~ { ] ^ / ( .           ",
"          . _ : < [ } | 1 2 .           ",
"          . 3 4 5 6 7 8 9 0 .           ",
"          . a b c d e f g h .           ",
"        . . i j k 9 l m n o .           ",
"      . p q r s t u v w x y z . .       ",
"    . A B C D E F G H I z J K L M . .   ",
"  . N O C P Q R S T U V W X Y Z `  ..   ",
"  . ..C P +.R @.#.$.%.&.*.=.-.;.>.,..   ",
"  . '.).+.!.@.~.{.].^./.(._.:.<.[.}..   ",
"  . |.1.!.2.~.3.4.5.6.7.8.9.0.a.b.c..   ",
"  . d.e.2.~.3.f.g.h.i.j.k.l.m.n.o.p..   ",
"  . q.r.s.t.f.u.v.w.x.y.z.A.B.C.D.E..   ",
"      . F.G.H.I.J..   . K.L.M.N.O..     ",
"          . . .           . . .         ",
"                                        "};
