/* XPM */
static char * closeA_xpm[] = {
"26 36 5 1",
" 	c None",
".	c #51A0F3",
"+	c #FDFDFD",
"@	c #FFFFFF",
"#	c #000000",
"..........................",
"..........................",
"..........................",
"..........................",
"........++......++........",
"........+++....+++........",
".........@@@..@@@.........",
"..........@@@@@@..........",
"...........@@@@...........",
"...........@@@@...........",
"..........@@@@@@..........",
".........@@@..@@@.........",
"........+++....+++........",
"........++......++........",
"..........................",
"..........................",
"..........................",
"..........................",
"##########################",
"##########################",
"##########################",
"##########################",
"##########################",
"##########################",
"##########################",
"##########################",
"##########################",
"##########################",
"##########################",
"##########################",
"##########################",
"##########################",
"##########################",
"##########################",
"##########################",
"##########################"};
