/* XPM */
static char * dframeITL_xpm[] = {
"22 21 4 1",
" 	c None",
".	c #878787",
"+	c #404040",
"@	c #BFBFBF",
"    ..................",
"  ..++++++++++++++++++",
" ..+++++++++++++++++++",
" .++                  ",
".@++                  ",
".+++                  ",
".+++                  ",
".+++                  ",
".+++                  ",
".+++                  ",
".+++                  ",
".+++                  ",
".+++                  ",
".+++                  ",
".+++                  ",
".+++                  ",
".+++                  ",
".+++                  ",
".+++                  ",
".+++                  ",
".+++                  "};
