/* XPM */
static char * frameABR_xpm[] = {
"22 21 4 1",
" 	c None",
".	c #51A0F3",
"+	c #7DB8F4",
"@	c #62A4E8",
"                  ...+",
"                  ...+",
"                  ...+",
"                  ...+",
"                  ...+",
"                  ...+",
"                  ...+",
"                  ...+",
"                  ...+",
"                  ...+",
"                  ...+",
"                  ...+",
"                  ...+",
"                  ...+",
"                  ...+",
"                  ...+",
"                  ...+",
"                  ...+",
".....................+",
"....................@+",
"+++++++++++++++++++++ "};
