/* XPM */
static char * maximizeO_xpm[] = {
"26 36 5 1",
" 	c None",
".	c #7DB8F4",
"+	c #FFFFFF",
"@	c #FDFDFD",
"#	c #EEEEEE",
"..........................",
"..........................",
"..........................",
"..........................",
"............++++@@........",
".............++@@@........",
"..............++++........",
".............+++++........",
"............+++.++........",
"...........+++...+........",
"..........+++.............",
".........+++..............",
"........@@@...............",
"........@@................",
"..........................",
"..........................",
"..........................",
"..........................",
"##########################",
"##########################",
"##########################",
"##########################",
"############......########",
"#############.....########",
"##############....########",
"#############.....########",
"############...#..########",
"###########...###.########",
"##########...#############",
"#########...##############",
"########...###############",
"########..################",
"##########################",
"##########################",
"##########################",
"##########################"};
