/* XPM */
static char * restoreO_xpm[] = {
"26 36 5 1",
" 	c None",
".	c #7DB8F4",
"+	c #FDFDFD",
"@	c #FFFFFF",
"#	c #EEEEEE",
"..........................",
"..........................",
"..........................",
"..........................",
"................++........",
"...............+++........",
"..............@@@.........",
".............@@@..........",
"........@...@@@...........",
"........@@.@@@............",
"........@@@@@.............",
"........@@@@..............",
"........+++@@.............",
"........++@@@@............",
"..........................",
"..........................",
"..........................",
"..........................",
"##########################",
"##########################",
"##########################",
"##########################",
"################..########",
"###############...########",
"##############...#########",
"#############...##########",
"########.###...###########",
"########..#...############",
"########.....#############",
"########....##############",
"########.....#############",
"########......############",
"##########################",
"##########################",
"##########################",
"##########################"};
