/* XPM */
static char * desktop_xpm[] = {
"21 20 131 2",
"  	c None",
". 	c #26508D",
"+ 	c #204B88",
"@ 	c #204A87",
"# 	c #244E8A",
"$ 	c #224B88",
"% 	c #98B7DA",
"& 	c #9BBBDD",
"* 	c #98B7D9",
"= 	c #335A92",
"- 	c #414F60",
"; 	c #555753",
"> 	c #3D4F67",
", 	c #395F95",
"' 	c #99B7DA",
") 	c #97B7DA",
"! 	c #6290C2",
"~ 	c #335B94",
"{ 	c #728AAC",
"] 	c #DDDFDB",
"^ 	c #F4F6F2",
"/ 	c #F2F5EF",
"( 	c #F1F4ED",
"_ 	c #EFF3EB",
": 	c #E0E5DC",
"< 	c #6B88A8",
"[ 	c #365F97",
"} 	c #618EC1",
"| 	c #8FAFD3",
"1 	c #87A8CE",
"2 	c #305993",
"3 	c #617C9A",
"4 	c #949790",
"5 	c #888A85",
"6 	c #94998D",
"7 	c #A4BB8F",
"8 	c #527789",
"9 	c #325B94",
"0 	c #80A0C8",
"a 	c #234D8A",
"b 	c #31578F",
"c 	c #6F88AA",
"d 	c #B5BDAC",
"e 	c #FFFFFF",
"f 	c #888984",
"g 	c #CE5C00",
"h 	c #DF8922",
"i 	c #6583A0",
"j 	c #365C92",
"k 	c #214C89",
"l 	c #404F61",
"m 	c #D7D9D4",
"n 	c #C2CEB7",
"o 	c #D7D9D5",
"p 	c #DBDCD9",
"q 	c #DCDEDA",
"r 	c #FEFEFE",
"s 	c #FCE94F",
"t 	c #CBD7C1",
"u 	c #3F5065",
"v 	c #E9EEE4",
"w 	c #C0CEB2",
"x 	c #DFE0DD",
"y 	c #E4E5E2",
"z 	c #E4E6E3",
"A 	c #9BA46F",
"B 	c #D1E0C3",
"C 	c #E4EADE",
"D 	c #BBCCAB",
"E 	c #E6E7E4",
"F 	c #ECEDEB",
"G 	c #FCAF3E",
"H 	c #9CA470",
"I 	c #A2BE86",
"J 	c #CBDCBA",
"K 	c #405267",
"L 	c #DDE5D6",
"M 	c #B7CAA5",
"N 	c #EAEBE9",
"O 	c #F2F2F1",
"P 	c #1A1A1A",
"Q 	c #82786A",
"R 	c #A3BF87",
"S 	c #A1C084",
"T 	c #C4D8B2",
"U 	c #435265",
"V 	c #254F8C",
"W 	c #244D89",
"X 	c #6585A3",
"Y 	c #B1C79E",
"Z 	c #A2C085",
"` 	c #9FBF80",
" .	c #658697",
"..	c #214B87",
"+.	c #9FBCDC",
"@.	c #4B70A2",
"#.	c #567A90",
"$.	c #949A8D",
"%.	c #939A8A",
"&.	c #577D85",
"*.	c #476D9E",
"=.	c #A1BEDC",
"-.	c #759ECC",
";.	c #9BB7D8",
">.	c #476D9F",
",.	c #5F809A",
"'.	c #C3D6B3",
").	c #C2D5B1",
"!.	c #C0D4AD",
"~.	c #BED3AA",
"{.	c #BAD1A5",
"].	c #B8CFA1",
"^.	c #608493",
"/.	c #456B9D",
"(.	c #A8C1DD",
"_.	c #7AA1CC",
":.	c #214A88",
"<.	c #5484B9",
"[.	c #6690C2",
"}.	c #8AA9CE",
"|.	c #234D88",
"1.	c #3E516A",
"2.	c #445264",
"3.	c #214B88",
"4.	c #94B2D3",
"5.	c #7199C7",
"6.	c #5280B8",
"7.	c #244E8B",
"8.	c #204A88",
"9.	c #214D89",
"0.	c #234D89",
"                                          ",
"                                          ",
"                                          ",
"    . + @ @ #             # @ @ + .       ",
"    $ % & * = - ; ; ; ; > , ' & * $       ",
"    @ ) ! ~ { ] ^ / ( _ : < [ } | @       ",
"    @ 1 2 3 4 5 5 5 5 5 6 7 8 9 0 @       ",
"    a b c d 5 e e e e e f g h i j k       ",
"      l m n 5 e o p q r g s g t u         ",
"      ; v w 5 e x y z g s g A B ;         ",
"      ; C D 5 e E F G s g H I J ;         ",
"      K L M 5 e N O P G Q R S T U         ",
"    V W X Y 5 e e e r e 5 Z `  ...V       ",
"    @ +.@.#.$.5 5 5 5 5 %.` &.*.=.@       ",
"    @ -.;.>.,.'.).!.~.{.].^./.(._.@       ",
"    :.<.[.}.|.1.; ; ; ; 2.3.4.5.6.:.      ",
"    7.8.@ @ 9.            0.@ @ 8.7.      ",
"                                          ",
"                                          ",
"                                          "};
