/* XPM */
static char * icewm_xpm[] = {
"106 20 371 2",
"  	c None",
". 	c #E2E2DE",
"+ 	c #ECD7D4",
"@ 	c #E48A88",
"# 	c #E17675",
"$ 	c #EAC5C2",
"% 	c #EFCFC0",
"& 	c #F0BCA5",
"* 	c #F0B79D",
"= 	c #EFCCBC",
"- 	c #E37C78",
"; 	c #D61615",
"> 	c #D40000",
", 	c #DF5D5C",
"' 	c #F3ECEA",
") 	c #F0DBCC",
"! 	c #F1A07D",
"~ 	c #F35919",
"{ 	c #F44D07",
"] 	c #F34B05",
"^ 	c #F38355",
"/ 	c #E36559",
"( 	c #D61717",
"_ 	c #D40706",
": 	c #E15757",
"< 	c #000000",
"[ 	c #F0E5D7",
"} 	c #F3C68F",
"| 	c #F4C38A",
"1 	c #F1B090",
"2 	c #F35C1D",
"3 	c #F44B05",
"4 	c #F46427",
"5 	c #ED8A70",
"6 	c #E15C55",
"7 	c #DE4945",
"8 	c #EEA7A0",
"9 	c #F3C58C",
"0 	c #F99315",
"a 	c #F9A339",
"b 	c #F3C49C",
"c 	c #F29A75",
"d 	c #F47F4E",
"e 	c #F48556",
"f 	c #F47742",
"g 	c #F37C4B",
"h 	c #F1936F",
"i 	c #F29A79",
"j 	c #F3936A",
"k 	c #F1D1C2",
"l 	c #BD8134",
"m 	c #030703",
"n 	c #3581B9",
"o 	c #F1D7B8",
"p 	c #F89E2E",
"q 	c #FB8B00",
"r 	c #FA9821",
"s 	c #F6C993",
"t 	c #F2B094",
"u 	c #F36E36",
"v 	c #F34E08",
"w 	c #F44802",
"x 	c #E2E1DB",
"y 	c #3F0F07",
"z 	c #76AC73",
"A 	c #070F3E",
"B 	c #DEE1DE",
"C 	c #EFDFD2",
"D 	c #F3C996",
"E 	c #FA8F0B",
"F 	c #FA8E07",
"G 	c #F9AD4F",
"H 	c #F5E2C9",
"I 	c #F0B49A",
"J 	c #F35F21",
"K 	c #F34800",
"L 	c #F45C1D",
"M 	c #F2D7C9",
"N 	c #D0B762",
"O 	c #0C1B5C",
"P 	c #5D1A0B",
"Q 	c #64B7CD",
"R 	c #9B7152",
"S 	c #1B100A",
"T 	c #04080F",
"U 	c #3B5371",
"V 	c #D5DFDD",
"W 	c #E1E0D4",
"X 	c #816248",
"Y 	c #060C18",
"Z 	c #597AA1",
"` 	c #D6C8AF",
" .	c #5B422E",
"..	c #0F0905",
"+.	c #020409",
"@.	c #293A52",
"#.	c #B5D6D9",
"$.	c #E1DECF",
"%.	c #75583F",
"&.	c #140C06",
"*.	c #060C14",
"=.	c #415A76",
"-.	c #A88263",
";.	c #26190F",
">.	c #030305",
",.	c #1C2B3D",
"'.	c #97BFD1",
").	c #C7A07A",
"!.	c #35251A",
"~.	c #070403",
"{.	c #101A27",
"].	c #6885A7",
"^.	c #EFD5C8",
"/.	c #F19D7A",
"(.	c #F19971",
"_.	c #F3B280",
":.	c #F89E30",
"<.	c #FA971C",
"[.	c #F7C990",
"}.	c #F2885B",
"|.	c #F46225",
"1.	c #F46226",
"2.	c #F5C9B6",
"3.	c #7F2C12",
"4.	c #4A9EC3",
"5.	c #C79E48",
"6.	c #132C7C",
"7.	c #193E6B",
"8.	c #C2D1D5",
"9.	c #D9D1BF",
"0.	c #6C3D18",
"a.	c #2961A8",
"b.	c #AD652B",
"c.	c #153762",
"d.	c #BACAD2",
"e.	c #DCD6C5",
"f.	c #85643A",
"g.	c #11233D",
"h.	c #97ADB9",
"i.	c #D7DDDB",
"j.	c #DEDACD",
"k.	c #926C36",
"l.	c #183A8C",
"m.	c #A85C25",
"n.	c #183E6B",
"o.	c #D9D0BE",
"p.	c #6A3A17",
"q.	c #275FA6",
"r.	c #204C72",
"s.	c #BECCD1",
"t.	c #DFDED4",
"u.	c #A58147",
"v.	c #0C1A5B",
"w.	c #230904",
"x.	c #7CA4B7",
"y.	c #DADEDB",
"z.	c #D3C9B8",
"A.	c #795B35",
"B.	c #F1A483",
"C.	c #F44C06",
"D.	c #F34F0A",
"E.	c #F38551",
"F.	c #F6B66D",
"G.	c #FA9E2C",
"H.	c #F6D7B0",
"I.	c #F0C5B2",
"J.	c #F2AE95",
"K.	c #F3AD92",
"L.	c #F4D9CE",
"M.	c #DCD3A1",
"N.	c #080A23",
"O.	c #D3DEDD",
"P.	c #230A08",
"Q.	c #A4D3D8",
"R.	c #9FD2D7",
"S.	c #DBD29A",
"T.	c #060C31",
"U.	c #320C06",
"V.	c #9AD1D6",
"W.	c #E0DECD",
"X.	c #040922",
"Y.	c #2E0C05",
"Z.	c #9ED2D7",
"`.	c #DBD197",
" +	c #050C2E",
".+	c #BFDADB",
"++	c #E1DFD2",
"@+	c #010206",
"#+	c #300C05",
"$+	c #698796",
"%+	c #BFC9CD",
"&+	c #F1A17F",
"*+	c #F44F0A",
"=+	c #F58550",
"-+	c #F8B971",
";+	c #FA9D29",
">+	c #F6D3A8",
",+	c #E69A97",
"'+	c #E26F6D",
")+	c #E26D6C",
"!+	c #EDC3C1",
"~+	c #AE6125",
"{+	c #2661AB",
"]+	c #DCE1DE",
"^+	c #E2E0D7",
"/+	c #010204",
"(+	c #040101",
"_+	c #DBE0DE",
":+	c #CFB18A",
"<+	c #453426",
"[+	c #0E0905",
"}+	c #010102",
"|+	c #010104",
"1+	c #D1B592",
"2+	c #534336",
"3+	c #1B1208",
"4+	c #0C1929",
"5+	c #7298C0",
"6+	c #EFD2C4",
"7+	c #F29871",
"8+	c #F5966D",
"9+	c #F7B688",
"0+	c #F9A237",
"a+	c #FA9415",
"b+	c #F7BF7B",
"c+	c #ECD1CD",
"d+	c #DB403F",
"e+	c #D40605",
"f+	c #D40A0A",
"g+	c #EDB8B6",
"h+	c #A5D4D8",
"i+	c #DCD4A2",
"j+	c #DBD29C",
"k+	c #330C06",
"l+	c #9CD1D7",
"m+	c #310C06",
"n+	c #779BAD",
"o+	c #D0D6D6",
"p+	c #E0E1DE",
"q+	c #DFDDC6",
"r+	c #010101",
"s+	c #A0D2D7",
"t+	c #E2E2DD",
"u+	c #BFA982",
"v+	c #040924",
"w+	c #F1DDD2",
"x+	c #F3D0A6",
"y+	c #F99313",
"z+	c #FA8C04",
"A+	c #F9A238",
"B+	c #F3D4AE",
"C+	c #E27C7A",
"D+	c #DA2F2F",
"E+	c #EEDEDB",
"F+	c #C79F48",
"G+	c #132B7C",
"H+	c #7E2B12",
"I+	c #4A9FC4",
"J+	c #1A416E",
"K+	c #C4D2D7",
"L+	c #DBD2C0",
"M+	c #6F4018",
"N+	c #2861A7",
"O+	c #AE652B",
"P+	c #173A66",
"Q+	c #BCCCD3",
"R+	c #DED7C8",
"S+	c #8C693F",
"T+	c #240904",
"U+	c #80A6B9",
"V+	c #DEE0DC",
"W+	c #D5CBB9",
"X+	c #775225",
"Y+	c #200803",
"Z+	c #A5CAD4",
"`+	c #A75A24",
" @	c #1A426F",
".@	c #C4D3D7",
"+@	c #DAD2C0",
"@@	c #6D3D18",
"#@	c #265CA5",
"$@	c #31526D",
"%@	c #B1C0CA",
"&@	c #DEE0DA",
"*@	c #C0AB82",
"=@	c #F0DDC5",
"-@	c #F6A948",
";@	c #FB8B01",
">@	c #FA9B24",
",@	c #F5C794",
"'@	c #ECC8C5",
")@	c #E9BCB9",
"!@	c #EAC6C3",
"~@	c #E8ABA8",
"{@	c #E06766",
"]@	c #D71F1F",
"^@	c #D40303",
"/@	c #D50A0A",
"(@	c #E88D8C",
"_@	c #601B0C",
":@	c #61B5CC",
"<@	c #CFB55F",
"[@	c #0C1B5E",
"}@	c #9C7253",
"|@	c #1B1009",
"1@	c #04080E",
"2@	c #3A5270",
"3@	c #D4DEDD",
"4@	c #806147",
"5@	c #180E09",
"6@	c #5A7CA2",
"7@	c #C79D75",
"8@	c #2D1D12",
"9@	c #030103",
"0@	c #111A25",
"a@	c #617FA2",
"b@	c #AA6F47",
"c@	c #110904",
"d@	c #71553C",
"e@	c #130B06",
"f@	c #060B12",
"g@	c #3E5672",
"h@	c #D2DEDD",
"i@	c #B29071",
"j@	c #302013",
"k@	c #192433",
"l@	c #7DA1C4",
"m@	c #F2CFA5",
"n@	c #F89F30",
"o@	c #FAAD4E",
"p@	c #F0B9A4",
"q@	c #DE5A59",
"r@	c #D92E2E",
"s@	c #DA3332",
"t@	c #D82726",
"u@	c #D92828",
"v@	c #E15959",
"w@	c #E36968",
"x@	c #E67C7B",
"y@	c #F0D9D7",
"z@	c #F3D8B6",
"A@	c #F5CEAC",
"B@	c #E58682",
"C@	c #D50E0E",
"D@	c #D40101",
"E@	c #D71818",
"F@	c #E98373",
"G@	c #F4A768",
"H@	c #F4A253",
"I@	c #F1C9AA",
"J@	c #E8A19F",
"K@	c #DE4A4A",
"L@	c #D82020",
"M@	c #E26362",
"N@	c #F3A368",
"O@	c #FA9820",
"P@	c #FA8F0A",
"Q@	c #F8B057",
"R@	c #EEE6DE",
"S@	c #EEE5E2",
"T@	c #EFD2CF",
"U@	c #EFD0CD",
"V@	c #EEEAE7",
"W@	c #F6BC7A",
"X@	c #FA9315",
"Y@	c #FAAC4D",
"Z@	c #EFE8E2",
"`@	c #F0E0CA",
" #	c #F6BB70",
".#	c #FAB158",
"+#	c #F8DDBA",
". . . . . . . . . . . . . . . . . . . . . . . . . . . . . . . . . . . . . . . . . . . . . . . . . . . . . . . . . . . . . . . . . . . . . . . . . . . . . . . . . . . . . . . . . . . . . . . . . . . . . . . . . . ",
". . . . . . . . . . . . . + @ # $ . . . . . . . . . . . . . . . . . . . . . . . . . . . . . . . . . . . . . . . . . . . . . . . . . . . . . . . . . . . . . . . . . . . . . . . . . . . . . . . . . . . . . . . . . ",
". . . . . . . . . % & * = - ; > , ' . . . . . . . . . . . . . . . . . . . . . . . . . . . . . . . . . . . . . . . . . . . . . . . . . . . . . . . . . . . . . . . . . . . . . . . . . . . . . . . . . . . . . . . . ",
". . . . . . . ) ! ~ { ] ^ / ( _ : ' . . . . . . . . . . . . . . . . . . . . . . . . . . . . . . . . . < . . . . . . . . . . . . . . . . . . . . . . . . . . . . . . . . . . . . . . . . . . . . . . . . . . . . . . ",
". . . . . [ } | 1 2 3 { 4 5 6 7 8 . . . . . . . . . . . . . . . . . . . . . . . . . . . . . . . . . . < . . < . . . . . . . . . . . . . . . . . . . . . . < . . . . . . . . . . . . . . . . . . . . . . . . . . . . ",
". . . . . 9 0 a b c d e f g h i j k . . . . . . . . . . l m n . . . . . . . . . . . . . . . . . . . . < . . . . . . . . . . . . . . . . . . . . < . . . . . . . . . . . . . . . . . . . . . . . . . . . . . . . . . ",
". . . . o p q r s . . . . t u v w j . . . . . . . . . x y z A B . . . . . . . . . . . . . . . . . . . < . . . . . . . . . . . . . . . . . . . . < . . . . . . . . . . . . . . . . . . . . . . . . . . . . . . . . . ",
". . . C D E F G H . . . . . I J K L M . . . . . . . . N O . P Q . . . < R S T U V . . < R S T U V . . < . . < . . W X S Y Z . . `  ...+.@.#.. < < < < . . < . . $.%.&.*.=.V . . < -.;.>.,.'.. . ).!.~.{.].. . . . . ",
". ^./.(._.:.<.[.. . . . . . . }.|.1.2.. . . . . . . . 3.4.. 5.6.. . . < 7.8.9.0.a.. . < 7.8.9.0.a.. . < . . < . . b.c.d.e.f.. . g.h.i.j.k.l.. . < . . . . < . . m.n.8.o.p.q.. . < r.s.t.u.v.. . w.x.y.z.A.. . . . . ",
". B.C.D.E.F.G.H.. . . . . . . I.J.K.L.. . . . . . . M.N.O.. $.P.Q.. . < R.. . S.T.. . < R.. . S.T.. . < . . < . . U.V.. . . . . . . . . W.X.. . < . . . . < . . Y.Z.. . `. +. . < .+. . ++@+. . #+$+%+. . . . . . . ",
". &+] *+=+-+;+>+. . . . . . . ,+'+)+!+. . . . . . . ~+< < < < < {+. . < ]+. . ^+/+. . < ]+. . ^+/+. . < . . < . . (+_+. . . . . :+<+[+< < }+. . < . . . . < . . (+]+. . ^+|+. . < . . . . < . . 1+2+3+4+5+. . . . . ",
". 6+7+8+9+0+a+b+. . . . . . c+d+e+f+g+. . . . . . $.P.h+. . . i+N.O.. < R.. . j+T.. . < R.. . j+T.. . < . . < . . k+l+. . . . . m+n+o+p+q+< . . r+. . . . < . . Y.s+. . S. +. . < . . . . < . . . . t+u+v+. . . . . ",
". . . w+x+y+z+A+B+. . . . . C+( > D+E+. . . . . . F+G+. . . . . H+I+. < J+K+L+M+N+. . < J+K+L+M+N+. . < . . < . . O+P+Q+R+S+. . T+U+V+W+X+< . . Y+Z+. . . < . . `+ @.@+@@@#@. . < . . . . < . . $@%@&@*@X.. . . . . ",
". . . . =@-@;@>@,@'@)@!@~@{@]@^@/@(@. . . . . . . _@:@. . . . . <@[@. < }@|@1@2@3@. . < }@|@1@2@3@. . < . . < . . W 4@5@Y 6@. . 7@8@9@0@a@< . . b@c@< . . < . . W.d@e@f@g@h@. . < . . . . < . . i@j@>.k@l@. . . . . ",
". . . . . m@n@o@p@q@r@s@t@u@v@w@x@y@. . . . . . . . . . . . . . . . . < . . . . . . . < . . . . . . . . . . . . . . . . . . . . . . . . . . . . . . . . . . . . . . . . . . . . . . . . . . . . . . . . . . . . . . ",
". . . . . . z@A@B@C@> D@E@F@G@H@I@. . . . . . . . . . . . . . . . . . < . . . . . . . < . . . . . . . . . . . . . . . . . . . . . . . . . . . . . . . . . . . . . . . . . . . . . . . . . . . . . . . . . . . . . . ",
". . . . . . . . J@K@u@L@M@N@O@P@Q@R@. . . . . . . . . . . . . . . . . < . . . . . . . < . . . . . . . . . . . . . . . . . . . . . . . . . . . . . . . . . . . . . . . . . . . . . . . . . . . . . . . . . . . . . . ",
". . . . . . . . . S@T@U@V@W@X@q Y@Z@. . . . . . . . . . . . . . . . . . . . . . . . . . . . . . . . . . . . . . . . . . . . . . . . . . . . . . . . . . . . . . . . . . . . . . . . . . . . . . . . . . . . . . . . ",
". . . . . . . . . . . . . `@ #.#+#. . . . . . . . . . . . . . . . . . . . . . . . . . . . . . . . . . . . . . . . . . . . . . . . . . . . . . . . . . . . . . . . . . . . . . . . . . . . . . . . . . . . . . . . . ",
". . . . . . . . . . . . . . . . . . . . . . . . . . . . . . . . . . . . . . . . . . . . . . . . . . . . . . . . . . . . . . . . . . . . . . . . . . . . . . . . . . . . . . . . . . . . . . . . . . . . . . . . . . "};
