/* XPM */
static char * windows_xpm[] = {
"20 20 49 1",
" 	c None",
".	c #204A87",
"+	c #729FCF",
"@	c #3465A4",
"#	c #888A85",
"$	c #FFFFFF",
"%	c #D6D9D2",
"&	c #D7DAD3",
"*	c #D8DCD4",
"=	c #D9DCD5",
"-	c #DADDD6",
";	c #DBDED8",
">	c #DCDFD9",
",	c #D7DBD4",
"'	c #D8DBD4",
")	c #D9DCD6",
"!	c #D9DDD6",
"~	c #DBDED7",
"{	c #DCDFD8",
"]	c #DDE0D9",
"^	c #DEE0DA",
"/	c #DADDD7",
"(	c #DCDFDA",
"_	c #DDE0DB",
":	c #DFE1DB",
"<	c #535353",
"[	c #DADDD8",
"}	c #DCDED9",
"|	c #DEE0DB",
"1	c #DFE2DD",
"2	c #A0A0A0",
"3	c #E0E2DD",
"4	c #E1E3DE",
"5	c #6C6C6C",
"6	c #DCE0D9",
"7	c #E1E3DD",
"8	c #E1E4DF",
"9	c #DBDBDB",
"0	c #DCDCDC",
"a	c #878787",
"b	c #DDDDDD",
"c	c #9D9E9A",
"d	c #DEDEDE",
"e	c #D8D8D8",
"f	c #D9D9D9",
"g	c #DADADA",
"h	c #DFDFDF",
"i	c #E0E0E0",
"j	c #E1E1E1",
"                    ",
"                    ",
"  ............      ",
"  .++++++++++.      ",
"  .+@@@@@@@@+.      ",
"  #$%&*=-;;>$#      ",
"  #$,')!~{]^$#      ",
"  #$')/~>(_:$#<<<<  ",
"  #$=-[}>||1$#222<  ",
"  #$/;{>|:34$#552<  ",
"  #$~{6|:178$#90$a  ",
"  #$$$$$$$$$$#0b$a  ",
"  ###########cbd$a  ",
"      a$efg90bbh$a  ",
"      a$g990bdhi$a  ",
"      a$g90bdhij$a  ",
"      a$$$$$$$$$$a  ",
"      aaaaaaaaaaaa  ",
"                    ",
"                    "};
