/* XPM */
static char * folder_32x32_xpm[] = {
"48 48 234 2",
"  	c None",
". 	c #8B8E88",
"+ 	c #8A8C86",
"@ 	c #888A85",
"# 	c #8C8F88",
"$ 	c #8D8E8A",
"% 	c #EAEAE9",
"& 	c #F8F8F7",
"* 	c #E3E3E2",
"= 	c #8F908B",
"- 	c #8A8B88",
"; 	c #F7F7F6",
"> 	c #EEEEEC",
", 	c #F5F5F4",
"' 	c #E6E7E5",
") 	c #8F908D",
"! 	c #888A87",
"~ 	c #F7F7F7",
"{ 	c #F4F4F3",
"] 	c #E7E7E6",
"^ 	c #90928F",
"/ 	c #898B88",
"( 	c #8C8E8B",
"_ 	c #8B8D8A",
": 	c #8B8D89",
"< 	c #E5E5E4",
"[ 	c #8D8D8B",
"} 	c #8C8E89",
"| 	c #E0E7EE",
"1 	c #D9E0E6",
"2 	c #DFE6EE",
"3 	c #8C8F8A",
"4 	c #386AA6",
"5 	c #3564A5",
"6 	c #3B68A1",
"7 	c #4672AB",
"8 	c #4571AA",
"9 	c #396BA6",
"0 	c #3364A3",
"a 	c #8CAED2",
"b 	c #92B0CD",
"c 	c #9CB9D6",
"d 	c #9DB8D5",
"e 	c #A0BAD6",
"f 	c #A2BCD6",
"g 	c #A4BCD7",
"h 	c #A7BED8",
"i 	c #A9C0D8",
"j 	c #AAC1D8",
"k 	c #ACC3D9",
"l 	c #AFC3DA",
"m 	c #B1C5DB",
"n 	c #B3C7DC",
"o 	c #B5C8DD",
"p 	c #B7CADE",
"q 	c #B9CBDF",
"r 	c #BBCDE0",
"s 	c #BDCEE0",
"t 	c #BECFE1",
"u 	c #C0D2E3",
"v 	c #C3D2E4",
"w 	c #C4D5E6",
"x 	c #C2D3E5",
"y 	c #C0D2E4",
"z 	c #BFD0E3",
"A 	c #BCCFE3",
"B 	c #BACDE2",
"C 	c #B8CCE1",
"D 	c #B6CBE1",
"E 	c #B4C9E0",
"F 	c #B2C8DF",
"G 	c #B1C7DF",
"H 	c #AFC6DF",
"I 	c #ADC5DE",
"J 	c #ABC3DD",
"K 	c #A9C2DC",
"L 	c #A7C1DC",
"M 	c #A6C0DC",
"N 	c #A4BFDB",
"O 	c #A3BFDB",
"P 	c #99B6D3",
"Q 	c #94B4D6",
"R 	c #3463A4",
"S 	c #3463A2",
"T 	c #7DA4CF",
"U 	c #82A6CD",
"V 	c #8CAFD5",
"W 	c #8BAED4",
"X 	c #7DA3CE",
"Y 	c #3363A3",
"Z 	c #779FCB",
"` 	c #80A3CB",
" .	c #8AACD3",
"..	c #89ABD2",
"+.	c #769DCA",
"@.	c #3464A2",
"#.	c #3464A3",
"$.	c #7098C6",
"%.	c #7DA1CA",
"&.	c #87AAD1",
"*.	c #86A9D0",
"=.	c #6F98C6",
"-.	c #3563A0",
";.	c #6A92C2",
">.	c #7B9FC8",
",.	c #84A7CF",
"'.	c #83A6CE",
").	c #3565A1",
"!.	c #3462A1",
"~.	c #648EBE",
"{.	c #799EC7",
"].	c #82A6CE",
"^.	c #81A5CD",
"/.	c #638DBF",
"(.	c #3463A0",
"_.	c #3362A0",
":.	c #5E88BA",
"<.	c #769BC6",
"[.	c #7FA3CC",
"}.	c #7EA2CB",
"|.	c #5E87BB",
"1.	c #33619E",
"2.	c #5882B7",
"3.	c #7499C6",
"4.	c #7CA0CB",
"5.	c #7B9FCA",
"6.	c #33619D",
"7.	c #315F9C",
"8.	c #537DB4",
"9.	c #7097C4",
"0.	c #799EC9",
"a.	c #789DC8",
"b.	c #527EB3",
"c.	c #315E9B",
"d.	c #2D5B9A",
"e.	c #4E79B0",
"f.	c #6F95C3",
"g.	c #779CC8",
"h.	c #769BC7",
"i.	c #4D79B0",
"j.	c #2D5C99",
"k.	c #4875AB",
"l.	c #6C92C1",
"m.	c #7398C5",
"n.	c #446EA9",
"o.	c #6A92C0",
"p.	c #7197C4",
"q.	c #7096C3",
"r.	c #446FA8",
"s.	c #3E6BA5",
"t.	c #688FBF",
"u.	c #6F94C2",
"v.	c #6E93C1",
"w.	c #3D6AA5",
"x.	c #3A66A1",
"y.	c #658EBF",
"z.	c #6C93C2",
"A.	c #6B92C1",
"B.	c #3966A1",
"C.	c #34629D",
"D.	c #628BBD",
"E.	c #6990C0",
"F.	c #305E99",
"G.	c #5E88BB",
"H.	c #668EBE",
"I.	c #658DBD",
"J.	c #305D9B",
"K.	c #2E5B97",
"L.	c #5B85B9",
"M.	c #638BBB",
"N.	c #628ABB",
"O.	c #2D5B97",
"P.	c #2A5893",
"Q.	c #5983B7",
"R.	c #6189B9",
"S.	c #6088B9",
"T.	c #285490",
"U.	c #5581B6",
"V.	c #5D87B8",
"W.	c #5C86B8",
"X.	c #275491",
"Y.	c #25528F",
"Z.	c #547EB4",
"`.	c #5C84B7",
" +	c #5B83B7",
".+	c #25538F",
"++	c #24508C",
"@+	c #4F7CB2",
"#+	c #5781B5",
"$+	c #5680B4",
"%+	c #5680B3",
"&+	c #24518D",
"*+	c #234E8D",
"=+	c #4B78AE",
"-+	c #527DB1",
";+	c #527DB0",
">+	c #517CB0",
",+	c #4B77AD",
"'+	c #244F8D",
")+	c #254E8B",
"!+	c #4571A9",
"~+	c #4F79AF",
"{+	c #4E78AE",
"]+	c #4D77AD",
"^+	c #244E8B",
"/+	c #234E89",
"(+	c #416EA7",
"_+	c #4B76AC",
":+	c #4A75AB",
"<+	c #4974AA",
"[+	c #4873A9",
"}+	c #416EA6",
"|+	c #234D89",
"1+	c #224B87",
"2+	c #3D69A1",
"3+	c #4773AA",
"4+	c #4672A9",
"5+	c #4571A8",
"6+	c #4470A7",
"7+	c #436FA6",
"8+	c #3D68A2",
"9+	c #214B86",
"0+	c #204A84",
"a+	c #36639C",
"b+	c #4671A8",
"c+	c #446FA7",
"d+	c #436EA6",
"e+	c #436EA5",
"f+	c #426DA5",
"g+	c #36629C",
"h+	c #214A84",
"i+	c #28518A",
"j+	c #284F89",
"k+	c #274E87",
"                                                                                                ",
"                                                                                                ",
"                                                                                                ",
"                                                                                                ",
"                                                                                                ",
"                                                                                                ",
"                                                                                                ",
"                                                                                                ",
"        . + @ @ @ @ @ @ @ @ @ @ #                                                               ",
"      $ % & & & & & & & & & & & * =                                                             ",
"      - ; > > > > > > > > > > > , ' )                                                           ",
"      ! ~ > > > > > > > > > > > > { ] ^ / / / / / / / / / / / / / / / / / / / / / / ( _         ",
"      : ; > > > > > > > > > > > > > { ; ; ; ; ; ; ; ; ; ; ; ; ; ; ; ; ; ; ; ; ; ; ; ; < [       ",
"      } | 1 1 1 1 1 1 1 1 1 1 1 1 1 1 1 1 1 1 1 1 1 1 1 1 1 1 1 1 1 1 1 1 1 1 1 1 1 1 2 3       ",
"  4 5 6 7 8 8 8 8 8 8 8 8 8 8 8 8 8 8 8 8 8 8 8 8 8 8 8 8 8 8 8 8 8 8 8 8 8 8 8 8 8 8 7 6 5 9   ",
"  0 a b c d e f g h i j k l m n o p q r s t u v w x y z A A B C D E F G H I J K L M N O P Q R   ",
"  S T U V W W W W W W W W W W W W W W W W W W W W W W W W W W W W W W W W W W W W W W V U X Y   ",
"  S Z `  ............................................................................. .` +.@.  ",
"  #.$.%.&.*.*.*.*.*.*.*.*.*.*.*.*.*.*.*.*.*.*.*.*.*.*.*.*.*.*.*.*.*.*.*.*.*.*.*.*.*.*.&.%.=.#.  ",
"  -.;.>.,.'.'.'.'.'.'.'.'.'.'.'.'.'.'.'.'.'.'.'.'.'.'.'.'.'.'.'.'.'.'.'.'.'.'.'.'.'.'.,.>.;.).  ",
"  !.~.{.].^.^.^.^.^.^.^.^.^.^.^.^.^.^.^.^.^.^.^.^.^.^.^.^.^.^.^.^.^.^.^.^.^.^.^.^.^.^.].{./.(.  ",
"  _.:.<.[.}.}.}.}.}.}.}.}.}.}.}.}.}.}.}.}.}.}.}.}.}.}.}.}.}.}.}.}.}.}.}.}.}.}.}.}.}.}.[.<.|._.  ",
"  1.2.3.4.5.5.5.5.5.5.5.5.5.5.5.5.5.5.5.5.5.5.5.5.5.5.5.5.5.5.5.5.5.5.5.5.5.5.5.5.5.5.4.3.2.6.  ",
"  7.8.9.0.a.a.a.a.a.a.a.a.a.a.a.a.a.a.a.a.a.a.a.a.a.a.a.a.a.a.a.a.a.a.a.a.a.a.a.a.a.a.0.9.b.c.  ",
"  d.e.f.g.h.h.h.h.h.h.h.h.h.h.h.h.h.h.h.h.h.h.h.h.h.h.h.h.h.h.h.h.h.h.h.h.h.h.h.h.h.h.g.f.i.j.  ",
"    k.l.3.m.m.m.m.m.m.m.m.m.m.m.m.m.m.m.m.m.m.m.m.m.m.m.m.m.m.m.m.m.m.m.m.m.m.m.m.m.m.3.l.k.    ",
"    n.o.p.q.q.q.q.q.q.q.q.q.q.q.q.q.q.q.q.q.q.q.q.q.q.q.q.q.q.q.q.q.q.q.q.q.q.q.q.q.q.p.o.r.    ",
"    s.t.u.v.v.v.v.v.v.v.v.v.v.v.v.v.v.v.v.v.v.v.v.v.v.v.v.v.v.v.v.v.v.v.v.v.v.v.v.v.v.u.t.w.    ",
"    x.y.z.A.A.A.A.A.A.A.A.A.A.A.A.A.A.A.A.A.A.A.A.A.A.A.A.A.A.A.A.A.A.A.A.A.A.A.A.A.A.z.y.B.    ",
"    C.D.E.t.t.t.t.t.t.t.t.t.t.t.t.t.t.t.t.t.t.t.t.t.t.t.t.t.t.t.t.t.t.t.t.t.t.t.t.t.t.E.D.C.    ",
"    F.G.H.I.I.I.I.I.I.I.I.I.I.I.I.I.I.I.I.I.I.I.I.I.I.I.I.I.I.I.I.I.I.I.I.I.I.I.I.I.I.H.G.J.    ",
"    K.L.M.N.N.N.N.N.N.N.N.N.N.N.N.N.N.N.N.N.N.N.N.N.N.N.N.N.N.N.N.N.N.N.N.N.N.N.N.N.N.M.L.O.    ",
"    P.Q.R.S.S.S.S.S.S.S.S.S.S.S.S.S.S.S.S.S.S.S.S.S.S.S.S.S.S.S.S.S.S.S.S.S.S.S.S.S.S.R.Q.P.    ",
"    T.U.V.W.W.W.W.W.W.W.W.W.W.W.W.W.W.W.W.W.W.W.W.W.W.W.W.W.W.W.W.W.W.W.W.W.W.W.W.W.W.V.U.X.    ",
"    Y.Z.`. + + + + + + + + + + + + + + + + + + + + + + + + + + + + + + + + + + + + + +`.Z..+    ",
"    ++@+#+$+$+$+%+%+%+%+%+%+%+%+%+%+%+%+%+%+%+%+%+%+%+%+%+%+%+%+%+%+%+%+%+%+%+%+$+$+$+#+@+&+    ",
"    *+=+-+;+>+>+>+>+>+>+>+>+>+>+>+>+>+>+>+>+>+>+>+>+>+>+>+>+>+>+>+>+>+>+>+>+>+>+>+>+;+-+,+'+    ",
"    )+!+~+{+]+]+]+]+]+]+]+]+]+]+]+]+]+]+]+]+]+]+]+]+]+]+]+]+]+]+]+]+]+]+]+]+]+]+]+]+{+~+!+^+    ",
"    /+(+_+:+<+[+[+[+[+[+[+[+[+[+[+[+[+[+[+[+[+[+[+[+[+[+[+[+[+[+[+[+[+[+[+[+[+[+[+<+:+_+}+|+    ",
"    1+2+3+4+5+6+6+7+7+7+7+7+7+7+7+7+7+7+7+7+7+7+7+7+7+7+7+7+7+7+7+7+7+7+7+7+7+6+6+5+4+3+8+9+    ",
"    0+a+b+c+d+e+d+f+f+f+f+f+f+f+f+f+f+f+f+f+f+f+f+f+f+f+f+f+f+f+f+f+f+f+f+f+f+d+e+d+c+b+g+h+    ",
"      i+j+j+k+k+k+k+k+k+k+k+k+k+k+k+k+k+k+k+k+k+k+k+k+k+k+k+k+k+k+k+k+k+k+k+k+k+k+k+j+j+i+      ",
"                                                                                                ",
"                                                                                                ",
"                                                                                                ",
"                                                                                                ",
"                                                                                                ",
"                                                                                                "};
