/* XPM */
static char * xterm_xpm[] = {
"20 20 68 1",
" 	c None",
".	c #0B0B0B",
"+	c #090909",
"@	c #222222",
"#	c #454545",
"$	c #525252",
"%	c #545454",
"&	c #212121",
"*	c #4A4A4A",
"=	c #3C3C3C",
"-	c #373737",
";	c #353535",
">	c #363636",
",	c #3A3A3A",
"'	c #383838",
")	c #595959",
"!	c #8F8F8F",
"~	c #6A6A6A",
"{	c #3B3B3B",
"]	c #393939",
"^	c #434343",
"/	c #A9A9A9",
"(	c #D3D3D3",
"_	c #888888",
":	c #404040",
"<	c #333333",
"[	c #343434",
"}	c #0A0A0A",
"|	c #8A8A8A",
"1	c #C2C2C2",
"2	c #7A7A7A",
"3	c #323232",
"4	c #535353",
"5	c #999999",
"6	c #B8B8B8",
"7	c #575757",
"8	c #2E2E2E",
"9	c #313131",
"0	c #3F3F3F",
"a	c #9D9D9D",
"b	c #D9D9D9",
"c	c #B3B3B3",
"d	c #242424",
"e	c #232323",
"f	c #303030",
"g	c #6B6B6B",
"h	c #202020",
"i	c #BDBDBD",
"j	c #E4E4E4",
"k	c #E2E2E2",
"l	c #DDDDDD",
"m	c #252525",
"n	c #2F2F2F",
"o	c #2D2D2D",
"p	c #2C2C2C",
"q	c #2A2A2A",
"r	c #080808",
"s	c #2B2B2B",
"t	c #292929",
"u	c #282828",
"v	c #272727",
"w	c #070707",
"x	c #060606",
"y	c #262626",
"z	c #141414",
"A	c #1F1F1F",
"B	c #050505",
"C	c #131313",
"   ..............   ",
" +@#$%%%%%%%%%%$#@+ ",
" &*==-;>>>>>>>>-=*& ",
".,')!~{>>>>>>>>>>>{.",
".]^/(_:<;;;;;;;;;[{.",
"};=|12'3<<<<<<<<<<>}",
"+<<456789999999999<+",
"+30abc*deee9ffffff3+",
"+f8^g*hijklm888888f+",
"+noopooqqqqooooooon+",
"rossssssssssssssssor",
"rpqqqqqqqqqqqqqqqqpr",
"rqttttttttttttttttqr",
"ruvvvvvvvvvvvvvvvvur",
"rvmmmmmmmmmmmmmmmmvr",
"wueeeeeeeeeeeeeeeeuw",
"xy@@@@@@@@@@@@@@@@yx",
" zndAAAAAAAAAAAAdnz ",
" BCq[;;;;;;;;;;[qCB ",
"   BxxxxxxxxxxxxB   "};
