/* XPM */
static char *collapse[]={
"16 22 130 2",
".a c #1d2d2b",
"#9 c #1e2b2a",
".b c #1e2d2a",
".l c #1e2d2b",
".d c #1e2e2c",
"#c c #1f2d2c",
".t c #1f2f2d",
".c c #202f2c",
"a# c #202f2d",
"#3 c #212d2c",
".k c #222d2b",
".# c #222d2d",
".f c #232f2d",
".e c #232f2e",
"#S c #233331",
"#T c #243231",
"#R c #243332",
"#V c #253231",
"a. c #262726",
"#U c #263333",
"#1 c #273432",
"#W c #273433",
"#0 c #273534",
"#O c #273634",
"#Q c #283635",
"#G c #2b3636",
"#H c #2b3837",
"#X c #2b3a39",
"#P c #2c3535",
"#Z c #2c3938",
"#M c #2d3637",
"#I c #2d3837",
"#J c #2d3938",
"#K c #2e3a38",
"#A c #2e3a39",
"Qt c #2f302f",
"#C c #2f3b3a",
"#B c #303c3b",
"#u c #313d3c",
"#w c #333c3c",
"#x c #333d3d",
"#D c #333e3e",
"#v c #333f3e",
"#p c #353f3e",
"#m c #35403f",
"#l c #36403f",
"#4 c #36413f",
"#t c #364140",
"#n c #37403e",
"#o c #374140",
"#y c #374241",
"#g c #384142",
"#f c #384241",
"#q c #3a4344",
"#. c #3b4344",
"#k c #3b4443",
"## c #3c4344",
"#a c #3c4445",
"#h c #3c4544",
"#e c #3d4645",
".5 c #3e4546",
".6 c #3f4546",
".7 c #404647",
".9 c #404849",
".0 c #414748",
".1 c #414849",
".2 c #424849",
".T c #434a4b",
".U c #444a4b",
".X c #444b4c",
".V c #454c4d",
".M c #464b4b",
".N c #464c4c",
".P c #464c4d",
".O c #474d4e",
".3 c #474e4e",
".H c #484d4e",
".G c #494e4f",
".S c #49504f",
".A c #4a4f50",
".B c #4b5051",
".z c #4c5152",
".L c #4c5253",
".w c #4d5152",
".I c #4e5455",
"#5 c #505456",
".F c #505556",
"#7 c #515456",
".y c #515556",
"#6 c #525456",
"#8 c #525557",
".C c #525657",
".v c #55595a",
"#2 c #565959",
"#Y c #565a5b",
".p c #5c5d5f",
".r c #5c5e60",
".o c #5d5d5f",
".q c #5d5e60",
"#N c #5f6264",
".s c #676a6b",
".n c #696b6b",
"#F c #6e7071",
"#L c #6e7273",
".j c #727979",
".g c #727b79",
"#z c #747678",
"#E c #757779",
"#s c #7c7e7f",
"#r c #838585",
"#j c #848687",
"#i c #8a8b8c",
"#d c #8b8c8d",
"#b c #909392",
".8 c #919393",
".4 c #98989a",
".Z c #9fa0a1",
".Y c #a6a7a8",
".R c #a7a7a8",
".Q c #adaeaf",
".K c #aeafb0",
".E c #b4b5b6",
".J c #b5b5b7",
".x c #bbbbbc",
".D c #bcbcbc",
".m c #c1c2c1",
".u c #c3c3c3",
".h c #c8c8c9",
".i c #cdcdce",
".W c #dcdcdc",
"Qt.#.a.a.a.a.a.a.b.c.d.c.a.c.eQt",
".f.g.h.i.i.i.i.i.i.i.i.i.i.h.j.k",
".l.m.n.o.p.p.p.p.q.p.p.p.r.s.m.a",
".t.u.v.w.w.w.w.w.w.w.w.w.w.v.u.a",
".a.x.y.z.A.B.B.B.A.A.A.A.A.C.D.a",
".d.E.F.G.A.G.G.G.G.H.H.H.H.I.J.d",
".a.K.L.M.N.O.P.O.N.O.M.N.M.L.Q.a",
".a.R.S.T.U.V.W.X.U.X.U.T.T.A.Y.d",
".a.Z.N.0.0.1.W.W.2.0.0.0.1.3.Z.d",
".d.4.T.5.5.6.5.W.W.5.5.5.7.X.4.a",
".d.8.9#.#.###.#..W.W#.#a#a.9#b#c",
".d#d#e#f#g#f#f.W.W#g#f#f#g#h#i#c",
".d#j#k#l#m#n.W.W#l#m#o#p#p#q#r.d",
".a#s#t#u#u#v.W#w#u#u#x#u#u#y#s.d",
".a#z#x#A#A#B#A#C#C#A#A#C#A#D#E.d",
".b#F#A#G#H#H#G#G#I#G#G#J#G#K#L.t",
".b#F#M#M#M#M#M#M#M#M#M#M#M#M#L.t",
".a#N#O#P#O#O#O#P#O#P#O#O#O#P#N.d",
".a#N#Q#R#S#T#U#U#V#W#R#T#X#X#N.d",
".a#Y#Z#Q#0#U#Q#1#U#0#Q#U#U#Z#2.a",
"#3#4#5#6#7.y#7#7#8#7#7.y#7.I#f#9",
"a.#9.t.a.aa#.a.a.c.t.a.c.d.c#3a."};
