/* XPM */
static char *expand_xpm[] = {
/* width height num_colors chars_per_pixel */
"    16    22      256            2",
/* colors */
"`` c #1d2d2b",
"`. c #1e2b2a",
"`# c #1e2d2a",
"`a c #1e2d2b",
"`b c #1e2e2c",
"`c c #1f2d2c",
"`d c #1f2f2d",
"`e c #202f2c",
"`f c #202f2d",
"`g c #212d2c",
"`h c #222d2b",
"`i c #222d2d",
"`j c #232f2d",
"`k c #232f2e",
"`l c #233331",
"`m c #243231",
"`n c #243332",
"`o c #253231",
"`p c #262726",
"`q c #263333",
"`r c #273432",
"`s c #273433",
"`t c #273534",
"`u c #273634",
"`v c #283635",
"`w c #2b3636",
"`x c #2b3837",
"`y c #2b3a39",
"`z c #2c3535",
"`A c #2c3938",
"`B c #2d3637",
"`C c #2d3837",
"`D c #2d3938",
"`E c #2e3a38",
"`F c #2e3a39",
"`G c #2f302f",
"`H c #2f3b3a",
"`I c #303c3b",
"`J c #313d3c",
"`K c #333c3c",
"`L c #333d3d",
"`M c #333e3e",
"`N c #333f3e",
"`O c #353f3e",
"`P c #35403f",
"`Q c #36403f",
"`R c #36413f",
"`S c #364140",
"`T c #37403e",
"`U c #374140",
"`V c #374241",
"`W c #384142",
"`X c #384241",
"`Y c #3a4344",
"`Z c #3b4344",
"`0 c #3b4443",
"`1 c #3c4344",
"`2 c #3c4445",
"`3 c #3c4544",
"`4 c #3d4645",
"`5 c #3e4546",
"`6 c #3f4546",
"`7 c #404647",
"`8 c #404849",
".` c #414748",
".. c #414849",
".# c #424849",
".a c #434a4b",
".b c #444a4b",
".c c #444b4c",
".d c #454c4d",
".e c #464b4b",
".f c #464c4c",
".g c #464c4d",
".h c #474d4e",
".i c #474e4e",
".j c #484d4e",
".k c #494e4f",
".l c #49504f",
".m c #4a4f50",
".n c #4b5051",
".o c #4c5152",
".p c #4c5253",
".q c #4d5152",
".r c #4e5455",
".s c #505456",
".t c #505556",
".u c #515456",
".v c #515556",
".w c #525456",
".x c #525557",
".y c #525657",
".z c #55595a",
".A c #565959",
".B c #565a5b",
".C c #5c5d5f",
".D c #5c5e60",
".E c #5d5d5f",
".F c #5d5e60",
".G c #5f6264",
".H c #676a6b",
".I c #696b6b",
".J c #6e7071",
".K c #6e7273",
".L c #727979",
".M c #727b79",
".N c #747678",
".O c #757779",
".P c #7c7e7f",
".Q c #838585",
".R c #848687",
".S c #8a8b8c",
".T c #8b8c8d",
".U c #909392",
".V c #919393",
".W c #98989a",
".X c #9fa0a1",
".Y c #a6a7a8",
".Z c #a7a7a8",
".0 c #adaeaf",
".1 c #aeafb0",
".2 c #b4b5b6",
".3 c #b5b5b7",
".4 c #bbbbbc",
".5 c #bcbcbc",
".6 c #c1c2c1",
".7 c #c3c3c3",
".8 c #c8c8c9",
"#` c #cdcdce",
"#. c #dcdcdc",
"## c #000000",
"#a c #000000",
"#b c #000000",
"#c c #000200",
"#d c #000000",
"#e c #000000",
"#f c #000000",
"#g c #000300",
"#h c #000000",
"#i c #fe4208",
"#j c #000000",
"#k c #000200",
"#l c #000000",
"#m c #000000",
"#n c #000000",
"#o c #000000",
"#p c #000000",
"#q c #010000",
"#r c #000000",
"#s c #00ffff",
"#t c #000000",
"#u c #000000",
"#v c #000000",
"#w c #000300",
"#x c #000000",
"#y c #c94208",
"#z c #000000",
"#A c #000200",
"#B c #000000",
"#C c #000000",
"#D c #000000",
"#E c #000000",
"#F c #000000",
"#G c #010000",
"#H c #000000",
"#I c #000078",
"#J c #420880",
"#K c #033408",
"#L c #00f842",
"#M c #082508",
"#N c #000000",
"#O c #000000",
"#P c #000000",
"#Q c #00d0d3",
"#R c #bfbf00",
"#S c #000000",
"#T c #000000",
"#U c #000000",
"#V c #000101",
"#W c #000000",
"#X c #000000",
"#Y c #000000",
"#Z c #000000",
"#0 c #000000",
"#1 c #000000",
"#2 c #000000",
"#3 c #000000",
"#4 c #000000",
"#5 c #000000",
"#6 c #000200",
"#7 c #000000",
"#8 c #000000",
"a` c #000000",
"a. c #002bc9",
"a# c #3b0880",
"aa c #c03708",
"ab c #200000",
"ac c #000000",
"ad c #000018",
"ae c #000000",
"af c #b5b5d3",
"ag c #000200",
"ah c #000001",
"ai c #010000",
"aj c #000000",
"ak c #000100",
"al c #0000ff",
"am c #ffff00",
"an c #020000",
"ao c #006262",
"ap c #720002",
"aq c #000000",
"ar c #010000",
"as c #000000",
"at c #000002",
"au c #000000",
"av c #000000",
"aw c #000000",
"ax c #000000",
"ay c #000000",
"az c #010000",
"aA c #000000",
"aB c #000000",
"aC c #000000",
"aD c #000000",
"aE c #000000",
"aF c #000000",
"aG c #000000",
"aH c #ce0000",
"aI c #000000",
"aJ c #00000c",
"aK c #000000",
"aL c #a0d7bf",
"aM c #bff14f",
"aN c #612858",
"aO c #d9bfbf",
"aP c #2ee042",
"aQ c #080c00",
"aR c #000076",
"aS c #4e6128",
"aT c #000000",
"aU c #000000",
"aV c #000000",
"aW c #000000",
"aX c #72775b",
"aY c #280000",
"aZ c #000000",
"a0 c #000000",
"a1 c #00a043",
"a2 c #08285c",
"a3 c #622800",
"a4 c #100000",
"a5 c #000000",
"a6 c #00a8d5",
"a7 c #bfbf81",
"a8 c #7b5b28",
/* pixels */
"`G`k`e```e`b`e`#`````````````i`G",
"`h.L.8#`#`#`#`#`#`#`#`#`#`.8.M`j",
"``.6.H.D.C.C.C.F.C.C.C.C.E.I.6`a",
"``.7.z.q.q.q.q.q.q.q.q.q.q.z.7`d",
"``.5.y.m.m.m.m.m.n.n.n.m.o.v.4``",
"`b.3.r.j.j.j.j.k.k.k.k.m.k.t.2`b",
"``.0.p.e.f.e.h.f.h.g.h.f.e.p.1``",
"`b.Y.m.a.a.b.c.b.c#..d.b.a.l.Z``",
"`b.X.i...`.`.`.##.#....`.`.f.X``",
"``.W.c`7`5`5`5#.#.`5`6`5`5.a.W`b",
"`c.U`8`2`2`Z#.#.`Z`Z`1`Z`Z`8.V`b",
"`c.S`3`W`X`X`W#.#.`X`X`W`X`4.T`b",
"`b.Q`Y`O`O`U`P`Q#.#.`T`P`Q`0.R`b",
"`b.P`V`J`J`L`J`J`K#.`N`J`J`S.P``",
"`b.O`M`F`H`F`F`H`H`F`I`F`F`L.N``",
"`d.K`E`w`D`w`w`C`w`w`x`x`w`F.J`#",
"`d.K`B`B`B`B`B`B`B`B`B`B`B`B.J`#",
"`b.G`z`u`u`u`z`u`z`u`u`u`z`u.G``",
"`b.G`y`y`m`n`s`o`q`q`m`l`n`v.G``",
"``.A`A`q`q`v`t`q`r`v`q`t`v`A.B``",
"`.`X.r.u.v.u.u.x.u.u.v.u.w.s`R`g",
"`p`g`e`b`e```d`e`````f`````d`.`p"
};
