/* XPM */
static char *windows[]={
"20 21 2 1",
". c None",
"# c #cfcfcf",
"....................",
"....................",
".##########.........",
".##########.........",
".#........#.........",
".#........#.........",
".#...##########.....",
".#...##########.....",
".#...#........#.....",
".#...#........#.....",
".#####...##########.",
".....#...##########.",
".....#...#........#.",
".....#...#........#.",
".....#####........#.",
".........#........#.",
".........#........#.",
".........#........#.",
".........##########.",
"....................",
"...................."};
