/* XPM */
static char * workspacebuttonactive_xpm[] = {
"14 18 48 1",
" 	c None",
".	c #727979",
"+	c #C8C8C9",
"@	c #CDCDCE",
"#	c #727B79",
"$	c #C1C2C1",
"%	c #676A6B",
"&	c #BCBCBC",
"*	c #525657",
"=	c #BBBBBC",
"-	c #B5B5B7",
";	c #4E5455",
">	c #B4B5B6",
",	c #ADAEAF",
"'	c #4C5253",
")	c #AEAFB0",
"!	c #A6A7A8",
"~	c #4A4F50",
"{	c #A7A7A8",
"]	c #9FA0A1",
"^	c #474E4E",
"/	c #98989A",
"(	c #444B4C",
"_	c #909392",
":	c #404849",
"<	c #919393",
"[	c #8A8B8C",
"}	c #3C4544",
"|	c #8B8C8D",
"1	c #838585",
"2	c #3A4344",
"3	c #848687",
"4	c #7C7E7F",
"5	c #374241",
"6	c #757779",
"7	c #333E3E",
"8	c #747678",
"9	c #6E7273",
"0	c #2E3A38",
"a	c #6E7071",
"b	c #2D3637",
"c	c #5F6264",
"d	c #2C3535",
"e	c #565959",
"f	c #2C3938",
"g	c #565A5B",
"h	c #384241",
"i	c #36413F",
".+@@@@@@@@@@+#",
"$%%%%%%%%%%%%$",
"&************=",
"-;;;;;;;;;;;;>",
",'''''''''''')",
"!~~~~~~~~~~~~{",
"]^^^^^^^^^^^^]",
"/((((((((((((/",
"_::::::::::::<",
"[}}}}}}}}}}}}|",
"12222222222223",
"45555555555554",
"67777777777778",
"9000000000000a",
"9bbbbbbbbbbbba",
"cddddddddddddc",
"effffffffffffg",
"hffffffffffffi"};
