/* XPM */
static char * workspacebuttonactive_xpm[] = {
"20 24 160 2",
"  	c None",
". 	c #717777",
"+ 	c #696D6F",
"@ 	c #787B7D",
"# 	c #9A9C9D",
"$ 	c #9B9C9D",
"% 	c #87898B",
"& 	c #636869",
"* 	c #A6A7A7",
"= 	c #D5D5D5",
"- 	c #C7C7C7",
"; 	c #D2D2D2",
"> 	c #D3D3D3",
", 	c #626667",
"' 	c #5D6263",
") 	c #A3A4A4",
"! 	c #818282",
"~ 	c #303233",
"{ 	c #333636",
"] 	c #333536",
"^ 	c #323535",
"/ 	c #323435",
"( 	c #313434",
"_ 	c #313334",
": 	c #2F3232",
"< 	c #4D4E4E",
"[ 	c #5C6061",
"} 	c #5A5E5F",
"| 	c #A0A1A1",
"1 	c #848585",
"2 	c #575B5C",
"3 	c #5C6162",
"4 	c #595E5F",
"5 	c #616464",
"6 	c #D1D1D1",
"7 	c #595D5E",
"8 	c #575C5D",
"9 	c #9E9F9F",
"0 	c #838485",
"a 	c #5F6465",
"b 	c #626465",
"c 	c #CDCDCD",
"d 	c #55595A",
"e 	c #555A5B",
"f 	c #9B9C9C",
"g 	c #818283",
"h 	c #5A5F60",
"i 	c #606263",
"j 	c #CACACA",
"k 	c #535859",
"l 	c #54595A",
"m 	c #989999",
"n 	c #7F8181",
"o 	c #565B5C",
"p 	c #5E6162",
"q 	c #C6C6C6",
"r 	c #535758",
"s 	c #525658",
"t 	c #7F8080",
"u 	c #54585A",
"v 	c #5A5E60",
"w 	c #575B5D",
"x 	c #5D5F60",
"y 	c #515456",
"z 	c #515356",
"A 	c #959696",
"B 	c #7B7C7D",
"C 	c #525558",
"D 	c #585B5E",
"E 	c #55585B",
"F 	c #5C5E5F",
"G 	c #C3C3C3",
"H 	c #4F5254",
"I 	c #959596",
"J 	c #7B7C7C",
"K 	c #505356",
"L 	c #56595C",
"M 	c #535659",
"N 	c #5B5C5E",
"O 	c #4E5053",
"P 	c #4E5253",
"Q 	c #929393",
"R 	c #7A7B7B",
"S 	c #505355",
"T 	c #55595B",
"U 	c #535658",
"V 	c #595B5C",
"W 	c #BFBFBF",
"X 	c #4D5052",
"Y 	c #4C5052",
"Z 	c #959595",
"` 	c #7A7B7C",
" .	c #4E5153",
"..	c #535759",
"+.	c #4B4E50",
"@.	c #494D4F",
"#.	c #929292",
"$.	c #797A7A",
"%.	c #4B4F50",
"&.	c #505456",
"*.	c #565859",
"=.	c #494C4E",
"-.	c #474B4E",
";.	c #8F8F90",
">.	c #767778",
",.	c #494D50",
"'.	c #4E5255",
").	c #4C5053",
"!.	c #545658",
"~.	c #BBBBBB",
"{.	c #474A4D",
"].	c #45484B",
"^.	c #8D8D8D",
"/.	c #737475",
"(.	c #464A4D",
"_.	c #4B4F52",
":.	c #525455",
"<.	c #B8B8B8",
"[.	c #44484A",
"}.	c #424648",
"|.	c #89898A",
"1.	c #717272",
"2.	c #43474A",
"3.	c #484C4F",
"4.	c #505254",
"5.	c #B4B4B4",
"6.	c #424548",
"7.	c #414446",
"8.	c #868687",
"9.	c #6E6F70",
"0.	c #4E5052",
"a.	c #B1B1B1",
"b.	c #3F4245",
"c.	c #848485",
"d.	c #6C6C6D",
"e.	c #404346",
"f.	c #434649",
"g.	c #4C4E4F",
"h.	c #ADADAD",
"i.	c #3E4143",
"j.	c #3D4143",
"k.	c #808181",
"l.	c #7A7A7B",
"m.	c #4C4F51",
"n.	c #4A4D4F",
"o.	c #5F6061",
"p.	c #A9A9A9",
"q.	c #3D4042",
"r.	c #757576",
"s.	c #A6A6A6",
"t.	c #9E9E9E",
"u.	c #3B3E40",
"v.	c #3B3D40",
"w.	c #2D2E30",
"x.	c #3B3B3C",
"y.	c #3F4040",
"z.	c #2F3031",
"A.	c #393C3E",
"B.	c #36383B",
"C.	c #1F1E20",
". . . . . . . . . . . . . . . . . . . . ",
"+ @ # # # # # # # # # # # # # # # $ % + ",
"& * = - - - - - - - - - - - - - - ; > , ",
"' ) ! ~ { { { { ] ] ^ ^ / ( ( _ : < = [ ",
"} | 1 2 3 3 3 3 3 3 3 3 [ [ [ [ 4 5 6 7 ",
"8 9 0 4 a a a a a a a a a a a a 3 b c d ",
"e f g 8 ' ' ' ' ' ' ' ' ' ' ' ' h i j k ",
"l m n o 3 3 3 3 3 3 3 3 3 3 3 3 4 p q r ",
"s m t u v v v v v v v v v v v v w x q y ",
"z A B C D D D D D D D D D D D D E F G H ",
"H I J K L L L L L L L L L L L L M N G O ",
"P Q R S T T T T T T T T T T T T U V W X ",
"Y Z `  .........................y V G +.",
"@.#.$.%.&.&.&.&.&.&.&.&.&.&.&.&.P *.W =.",
"-.;.>.,.'.'.'.'.'.'.'.'.'.'.'.'.).!.~.{.",
"].^./.(._._._._._._._._._._._._.,.:.<.[.",
"}.|.1.2.3.3.3.3.3.3.3.3.3.3.3.3.(.4.5.6.",
"7.8.9.6.{.{.{.{.{.{.{.{.{.{.{.{.].0.a.7.",
"b.c.d.e.].].].].].].].].].].].].f.g.h.i.",
"j.k.l.=.m.m.m.m.m.m.+.+.+.m.m.m.n.o.p.q.",
"q.r.s.s.s.s.s.s.s.s.s.s.s.s.s.s.s.s.t.u.",
"v.w.x.x.x.x.x.x.x.y.x.x.x.x.x.x.x.x.z.A.",
"B.B.B.B.B.B.B.B.B.B.B.B.B.B.B.B.B.B.B.B.",
"C.C.C.C.C.C.C.C.C.C.C.C.C.C.C.C.C.C.C.C."};
