/* XPM */
static char * workspacebuttonactive__xpm[] = {
"1 24 14 1",
" 	c None",
".	c #3F4649",
"+	c #4D5558",
"@	c #4D5458",
"#	c #4C5356",
"$	c #4C5558",
"%	c #4E575A",
"&	c #4A5255",
"*	c #495154",
"=	c #4B5356",
"-	c #4C5457",
";	c #4E5759",
">	c #4E5658",
",	c #1F1E20",
".",
"+",
"+",
"@",
"#",
"$",
"%",
"&",
"$",
"*",
"$",
"=",
"-",
"&",
";",
"&",
">",
"=",
">",
"=",
"%",
"%",
"%",
","};
