/* XPM */
static char * linux_xpm[] = {
"50 21 657 2",
"  	c None",
". 	c #547179",
"+ 	c #506D75",
"@ 	c #4C6971",
"# 	c #48656D",
"$ 	c #456169",
"% 	c #425D65",
"& 	c #3F5A62",
"* 	c #3C5860",
"= 	c #3A565E",
"- 	c #38545C",
"; 	c #37525A",
"> 	c #365159",
", 	c #355058",
"' 	c #345058",
") 	c #344F57",
"! 	c #334F57",
"~ 	c #324E57",
"{ 	c #324E56",
"] 	c #314E56",
"^ 	c #314D56",
"/ 	c #314D55",
"( 	c #304D55",
"_ 	c #304C55",
": 	c #304C54",
"< 	c #304D54",
"[ 	c #355159",
"} 	c #37535B",
"| 	c #39565E",
"1 	c #3D5961",
"2 	c #405D65",
"3 	c #446169",
"4 	c #4C6A72",
"5 	c #516E77",
"6 	c #537078",
"7 	c #6C858C",
"8 	c #E2EDF0",
"9 	c #FFFFFF",
"0 	c #FCFFFF",
"a 	c #6E868E",
"b 	c #526F77",
"c 	c #D8E4E7",
"d 	c #FDFFFF",
"e 	c #FBFFFF",
"f 	c #F8FFFF",
"g 	c #F7FCFE",
"h 	c #F6FBFB",
"i 	c #F4F9FB",
"j 	c #F4F9F9",
"k 	c #F3F8F9",
"l 	c #F4F8F9",
"m 	c #F5F8F9",
"n 	c #F5F9FB",
"o 	c #F5FAFA",
"p 	c #F6FAFC",
"q 	c #F7FBFD",
"r 	c #F9FCFD",
"s 	c #F8FCFE",
"t 	c #FAFDFE",
"u 	c #F9FDFF",
"v 	c #FBFFFE",
"w 	c #FEFDFC",
"x 	c #FBFEFF",
"y 	c #FEFFFF",
"z 	c #F3FBFD",
"A 	c #4F6C74",
"B 	c #526E76",
"C 	c #EFF9FC",
"D 	c #F1F9FB",
"E 	c #EEF6F8",
"F 	c #EAF2F4",
"G 	c #E8F0F2",
"H 	c #E7EDEE",
"I 	c #E4EBED",
"J 	c #E3E9EB",
"K 	c #E1E8EA",
"L 	c #E1E7E8",
"M 	c #E0E7E9",
"N 	c #E0E6E8",
"O 	c #E1E7E9",
"P 	c #E2E8EA",
"Q 	c #E2E8E9",
"R 	c #E2E9EB",
"S 	c #E4EAEC",
"T 	c #E5EAEC",
"U 	c #E5EBED",
"V 	c #E6EBED",
"W 	c #E6EDEF",
"X 	c #FFFEFD",
"Y 	c #EAEBEB",
"Z 	c #EAEFF1",
"` 	c #EBF0F2",
" .	c #ECF1F3",
"..	c #EEF1F3",
"+.	c #EDF3F4",
"@.	c #EFF3F4",
"#.	c #EFF4F6",
"$.	c #F0F4F6",
"%.	c #F0F5F7",
"&.	c #F2F6F8",
"*.	c #F5F9F9",
"=.	c #4E6B73",
"-.	c #516E76",
";.	c #E3EDF0",
">.	c #DFEAEB",
",.	c #DCE5E8",
"'.	c #D9E2E4",
").	c #D6DFE2",
"!.	c #D4DDDE",
"~.	c #D1DADD",
"{.	c #D0D9DA",
"].	c #CED7DA",
"^.	c #CED6D8",
"/.	c #CED5D8",
"(.	c #CDD6D7",
"_.	c #CFD6D9",
":.	c #CED7D9",
"<.	c #D0D7DA",
"[.	c #D1D9DA",
"}.	c #D1D8DC",
"|.	c #D2DADC",
"1.	c #D2DADD",
"2.	c #D3DBDD",
"3.	c #D9DFE3",
"4.	c #E5E2E1",
"5.	c #E2DEDE",
"6.	c #E0E2E4",
"7.	c #D7DFE1",
"8.	c #D8DFE2",
"9.	c #D8E0E2",
"0.	c #D9E0E2",
"a.	c #DBE1E3",
"b.	c #DCE2E4",
"c.	c #DDE4E5",
"d.	c #DFE6E7",
"e.	c #E2E7E9",
"f.	c #E7ECED",
"g.	c #E9F0F1",
"h.	c #EEF3F4",
"i.	c #F1F8F9",
"j.	c #F6FCFD",
"k.	c #4D6A72",
"l.	c #516D75",
"m.	c #D1DDE1",
"n.	c #CED9DC",
"o.	c #C9D5D9",
"p.	c #C7D1D5",
"q.	c #C3CFD2",
"r.	c #C2CCCF",
"s.	c #BFCACD",
"t.	c #BEC8CB",
"u.	c #BDC7CA",
"v.	c #BBC5C8",
"w.	c #BBC4C7",
"x.	c #BCC6C9",
"y.	c #BDC6C9",
"z.	c #BDC7CB",
"A.	c #BFC7CA",
"B.	c #BEC9CC",
"C.	c #C0C9CC",
"D.	c #C0CACC",
"E.	c #C2CBCF",
"F.	c #FEFEFD",
"G.	c #F7F4F2",
"H.	c #DDDAD9",
"I.	c #DFDADA",
"J.	c #DAD7D7",
"K.	c #C5C6C8",
"L.	c #C6CFD1",
"M.	c #C7CFD2",
"N.	c #C7D0D2",
"O.	c #C8D0D3",
"P.	c #C8D1D3",
"Q.	c #CAD1D4",
"R.	c #CAD3D4",
"S.	c #CBD2D6",
"T.	c #CDD4D6",
"U.	c #CDD5D8",
"V.	c #D0D7D9",
"W.	c #D1D9DC",
"X.	c #D4DCDE",
"Y.	c #D7DEE2",
"Z.	c #DBE3E5",
"`.	c #E0E6EA",
" +	c #E4ECEE",
".+	c #EAF0F4",
"++	c #EEF7F9",
"@+	c #F5FCFF",
"#+	c #BFCDD2",
"$+	c #BCCACD",
"%+	c #B8C5CA",
"&+	c #B5C2C5",
"*+	c #B1BEC3",
"=+	c #B0BCBF",
"-+	c #ADB9BE",
";+	c #ACB8BB",
">+	c #ABB6BB",
",+	c #A9B6B9",
"'+	c #AAB4B7",
")+	c #A9B5B8",
"!+	c #A9B5B7",
"~+	c #AAB6B9",
"{+	c #ACB7BA",
"]+	c #ABB7BA",
"^+	c #ADB8BB",
"/+	c #AEB9BC",
"(+	c #B1B9BC",
"_+	c #FFFFFE",
":+	c #D9D6D4",
"<+	c #928F8E",
"[+	c #BCB9B8",
"}+	c #DCD8D7",
"|+	c #CECCCB",
"1+	c #B1BCBF",
"2+	c #B6C0C3",
"3+	c #B5C0C3",
"4+	c #B7C1C4",
"5+	c #B8C2C5",
"6+	c #B9C2C5",
"7+	c #B9C3C6",
"8+	c #BBC3C6",
"9+	c #BEC6C9",
"0+	c #BFC9CD",
"a+	c #C3CBCE",
"b+	c #C9D2D5",
"c+	c #D2DBDF",
"d+	c #D8E1E5",
"e+	c #DDE6EA",
"f+	c #526D75",
"g+	c #ADBEC3",
"h+	c #AAB9BE",
"i+	c #A6B6B9",
"j+	c #A3B2B6",
"k+	c #A0AFB2",
"l+	c #9EACB0",
"m+	c #9DAAAD",
"n+	c #9AA8AC",
"o+	c #9AA7AA",
"p+	c #98A6AA",
"q+	c #98A6A9",
"r+	c #97A5A9",
"s+	c #99A5AA",
"t+	c #99A7AA",
"u+	c #9AA7AB",
"v+	c #9AA8AB",
"w+	c #9BA8AC",
"x+	c #9BA9AC",
"y+	c #9DA9AE",
"z+	c #9EABAE",
"A+	c #D5DBDC",
"B+	c #EFEBEA",
"C+	c #AAA6A5",
"D+	c #ABB2B4",
"E+	c #A7A8A9",
"F+	c #B7B3B2",
"G+	c #D8D4D3",
"H+	c #C4C8CA",
"I+	c #A5B0B4",
"J+	c #A4B1B4",
"K+	c #A6B1B5",
"L+	c #A5B2B5",
"M+	c #A7B2B7",
"N+	c #A8B3B6",
"O+	c #A8B3B8",
"P+	c #C5CBCD",
"Q+	c #BCC4C7",
"R+	c #AEB9BE",
"S+	c #B1BDC0",
"T+	c #B5BFC2",
"U+	c #B8C4C7",
"V+	c #C1CDD0",
"W+	c #C6D1D4",
"X+	c #CCD8DB",
"Y+	c #D1DDE0",
"Z+	c #4E6A72",
"`+	c #526E75",
" @	c #9CAEB2",
".@	c #99ABAF",
"+@	c #95A6AB",
"@@	c #92A3A8",
"#@	c #909FA4",
"$@	c #8D9EA2",
"%@	c #8C9B9F",
"&@	c #899A9E",
"*@	c #89979C",
"=@	c #87979B",
"-@	c #87969A",
";@	c #88969B",
">@	c #ABB4B6",
",@	c #88979B",
"'@	c #89989D",
")@	c #8A9A9E",
"!@	c #8C9A9E",
"~@	c #93A1A5",
"{@	c #E3E3E3",
"]@	c #BFBBBB",
"^@	c #9BA3A4",
"/@	c #909EA2",
"(@	c #989E9F",
"_@	c #B5B1B1",
":@	c #D6D2D0",
"<@	c #A9B2B5",
"[@	c #94A2A6",
"}@	c #95A3A7",
"|@	c #96A3A7",
"1@	c #96A4A7",
"2@	c #98A4A8",
"3@	c #EAEAEC",
"4@	c #D8D7D6",
"5@	c #9FABAE",
"6@	c #A1ADB2",
"7@	c #A7B4B8",
"8@	c #ACB9BC",
"9@	c #B0BDC1",
"0@	c #B5C3C6",
"a@	c #BBC8CC",
"b@	c #C0CED1",
"c@	c #536E76",
"d@	c #8A9FA4",
"e@	c #889BA1",
"f@	c #84989C",
"g@	c #819399",
"h@	c #7F9196",
"i@	c #7C8E94",
"j@	c #7B8C91",
"k@	c #788A90",
"l@	c #78898D",
"m@	c #76888D",
"n@	c #76888C",
"o@	c #808E94",
"p@	c #DFE2E2",
"q@	c #F1ECEC",
"r@	c #839496",
"s@	c #79898F",
"t@	c #7A8A8F",
"u@	c #7A8A90",
"v@	c #7B8C90",
"w@	c #7B8C92",
"x@	c #ADB6B9",
"y@	c #D2CFCF",
"z@	c #989B9C",
"A@	c #808F93",
"B@	c #809095",
"C@	c #819095",
"D@	c #819296",
"E@	c #939C9F",
"F@	c #B1AEAE",
"G@	c #D0CDCD",
"H@	c #909BA0",
"I@	c #859498",
"J@	c #869599",
"K@	c #87969B",
"L@	c #BDC5C7",
"M@	c #D2D2D2",
"N@	c #DCD7D5",
"O@	c #C2C5C6",
"P@	c #8F9CA0",
"Q@	c #97A6AA",
"R@	c #9BA9AE",
"S@	c #A0AFB3",
"T@	c #A4B3B8",
"U@	c #AFBEC3",
"V@	c #4F6B73",
"W@	c #536F76",
"X@	c #799096",
"Y@	c #778D93",
"Z@	c #74888E",
"`@	c #71868C",
" #	c #6F8288",
".#	c #6C8086",
"+#	c #6A7D83",
"@#	c #687C82",
"##	c #687A80",
"$#	c #677A80",
"%#	c #6F8084",
"&#	c #EBEBED",
"*#	c #EDE8E8",
"=#	c #D0CDCB",
"-#	c #ABB0B1",
";#	c #697C80",
">#	c #6A7C81",
",#	c #6A7D81",
"'#	c #6B7D83",
")#	c #758689",
"!#	c #CACBCC",
"~#	c #A9AAA8",
"{#	c #738389",
"]#	c #708286",
"^#	c #708288",
"/#	c #728388",
"(#	c #728389",
"_#	c #738589",
":#	c #839195",
"<#	c #B2B1B1",
"[#	c #B9BABB",
"}#	c #77888D",
"|#	c #76878C",
"1#	c #7E8E93",
"2#	c #CCCECE",
"3#	c #BEB9B7",
"4#	c #B7B4B2",
"5#	c #D7D3D2",
"6#	c #A6AEB1",
"7#	c #809196",
"8#	c #849599",
"9#	c #88979D",
"0#	c #8B9CA0",
"a#	c #90A0A6",
"b#	c #94A5AA",
"c#	c #9AAAB0",
"d#	c #9EB0B5",
"e#	c #506C74",
"f#	c #557077",
"g#	c #6A8288",
"h#	c #667D85",
"i#	c #647B81",
"j#	c #60777E",
"k#	c #5E757A",
"l#	c #5C7277",
"m#	c #5A7076",
"n#	c #5A6E73",
"o#	c #586D73",
"p#	c #627579",
"q#	c #E5E7E7",
"r#	c #E4E0DE",
"s#	c #D2CCCC",
"t#	c #C2BFBD",
"u#	c #CECBCA",
"v#	c #6B7C81",
"w#	c #5B6F75",
"x#	c #5C7076",
"y#	c #919EA0",
"z#	c #C2C0C0",
"A#	c #6D7D81",
"B#	c #60747A",
"C#	c #61747A",
"D#	c #61767B",
"E#	c #63767B",
"F#	c #63777D",
"G#	c #64777C",
"H#	c #65787E",
"I#	c #6A7B7F",
"J#	c #B0B1B2",
"K#	c #9CA5A7",
"L#	c #ACB5B7",
"M#	c #BEBABA",
"N#	c #8D9597",
"O#	c #768389",
"P#	c #B3B1B1",
"Q#	c #839397",
"R#	c #75868C",
"S#	c #798B90",
"T#	c #7B8E93",
"U#	c #809397",
"V#	c #84979D",
"W#	c #8A9DA1",
"X#	c #8EA1A7",
"Y#	c #567179",
"Z#	c #577077",
"`#	c #567076",
" $	c #546C74",
".$	c #516A70",
"+$	c #4F676E",
"@$	c #4C656B",
"#$	c #4B6269",
"$$	c #4B6267",
"%$	c #4D646A",
"&$	c #AAB2B5",
"*$	c #DFDBDB",
"=$	c #BFBBB9",
"-$	c #999594",
";$	c #818485",
">$	c #8F9B9D",
",$	c #4C6269",
"'$	c #4C6369",
")$	c #556970",
"!$	c #D0CFCF",
"~$	c #6A787E",
"{$	c #51676C",
"]$	c #51676E",
"^$	c #53686E",
"/$	c #53686F",
"($	c #546A6F",
"_$	c #566A71",
":$	c #566B71",
"<$	c #576B72",
"[$	c #576C72",
"}$	c #63757C",
"|$	c #9BA2A4",
"1$	c #7C8A8F",
"2$	c #768589",
"3$	c #BABBBC",
"4$	c #6E7D83",
"5$	c #5C7075",
"6$	c #5D7277",
"7$	c #6F8086",
"8$	c #A3A5A6",
"9$	c #C2C3C3",
"0$	c #6C8187",
"a$	c #71858B",
"b$	c #748A90",
"c$	c #7A8E94",
"d$	c #728890",
"e$	c #58737B",
"f$	c #546F76",
"g$	c #516B72",
"h$	c #4D676F",
"i$	c #4A646B",
"j$	c #476168",
"k$	c #455E65",
"l$	c #425B62",
"m$	c #ABB3B5",
"n$	c #D0CECC",
"o$	c #AAA7A7",
"p$	c #7E8688",
"q$	c #4A6065",
"r$	c #3B545B",
"s$	c #778183",
"t$	c #BFBEBE",
"u$	c #475E64",
"v$	c #3E575E",
"w$	c #829094",
"x$	c #949C9E",
"y$	c #425A61",
"z$	c #435A61",
"A$	c #435C63",
"B$	c #455C63",
"C$	c #475E65",
"D$	c #485F65",
"E$	c #485F66",
"F$	c #496066",
"G$	c #496067",
"H$	c #4A6167",
"I$	c #4C6168",
"J$	c #869498",
"K$	c #869296",
"L$	c #50676B",
"M$	c #4E646B",
"N$	c #4E656B",
"O$	c #50656C",
"P$	c #52686D",
"Q$	c #596D74",
"R$	c #9EA7A9",
"S$	c #5B7277",
"T$	c #5E747C",
"U$	c #62797F",
"V$	c #657B82",
"W$	c #637B81",
"X$	c #557179",
"Y$	c #5A757D",
"Z$	c #536E75",
"`$	c #506A71",
" %	c #4D676E",
".%	c #4B646B",
"+%	c #486168",
"@%	c #5E747A",
"#%	c #CDCFD0",
"$%	c #B8B7B8",
"%%	c #828C90",
"&%	c #51666C",
"*%	c #40585F",
"=%	c #3F585F",
"-%	c #425960",
";%	c #A5AAAC",
">%	c #8C999B",
",%	c #465D64",
"'%	c #A3ABAD",
")%	c #41585F",
"!%	c #405960",
"~%	c #415960",
"{%	c #415A61",
"]%	c #8C9A9D",
"^%	c #6B7F84",
"/%	c #486269",
"(%	c #4B656C",
"_%	c #4E686F",
":%	c #516B73",
"<%	c #546F77",
"[%	c #5B777E",
"}%	c #59737B",
"|%	c #567077",
"1%	c #536D74",
"2%	c #4E676E",
"3%	c #74878D",
"4%	c #C7CBCB",
"5%	c #7F8C90",
"6%	c #475F66",
"7%	c #445D64",
"8%	c #445C64",
"9%	c #445C63",
"0%	c #4F676C",
"a%	c #7A898F",
"b%	c #4D646B",
"c%	c #455D64",
"d%	c #465E65",
"e%	c #516970",
"f%	c #4C656D",
"g%	c #546E76",
"h%	c #577279",
"i%	c #5D7980",
"j%	c #58727A",
"k%	c #556F77",
"l%	c #536C74",
"m%	c #6A7F86",
"n%	c #86969A",
"o%	c #536A71",
"p%	c #4A636A",
"q%	c #496269",
"r%	c #486067",
"s%	c #476067",
"t%	c #536970",
"u%	c #4F666D",
"v%	c #496168",
"w%	c #4C656C",
"x%	c #4F6970",
"y%	c #546E75",
"z%	c #567178",
"A%	c #59747C",
"B%	c #5C777F",
"C%	c #5F7A82",
"D%	c #5A747C",
"E%	c #506970",
"F%	c #4D666D",
"G%	c #4C646C",
"H%	c #4C646B",
"I%	c #4D656C",
"J%	c #4F6870",
"K%	c #526C73",
"L%	c #5B767E",
"M%	c #5E7981",
"N%	c #607C84",
"O%	c #5C777E",
"P%	c #587279",
"Q%	c #516A71",
"R%	c #4F686F",
"S%	c #506870",
"T%	c #546D75",
"U%	c #556F76",
"V%	c #577179",
"W%	c #5D7880",
"X%	c #5F7B83",
"Y%	c #627E85",
"Z%	c #607B83",
"`%	c #5C767E",
" &	c #577178",
".&	c #526B73",
"+&	c #536C73",
"@&	c #546D74",
"#&	c #5F7B82",
"$&	c #617D85",
"%&	c #637F87",
"&&	c #5E7980",
"*&	c #5B757D",
"=&	c #59747B",
"-&	c #577078",
";&	c #566F77",
">&	c #567078",
". + @ # $ % & * = - ; > , ' ' ) ! ! ! ! ~ { { { ] ] ] ^ / / / ( ( ( _ : : < / { ! [ } | 1 2 3 # 4 5 ",
"6 7 8 9 9 9 9 9 9 9 9 9 9 9 9 9 9 9 9 9 9 9 9 9 9 9 9 9 9 9 9 9 9 9 9 9 9 9 9 9 9 9 9 9 9 9 9 0 a + ",
"b c 9 9 d e f g h i j k l m j n o p h q r s t u v w x d d y y 9 9 9 9 9 9 9 9 9 9 9 9 9 9 9 9 9 z A ",
"B C D E F G H I J K L M N O L P Q J R S T U V W y X Y Z Z ` `  ...+.@.#.$.%.&.*.p t 0 9 9 9 9 9 9 =.",
"-.;.>.,.'.).!.~.{.].^./.(./.^._.:.<.[.}.|.1.2.3.9 4.5.6.7.8.9.0.a.a.b.b.c.c.d.e.S f.g.h.i.j.0 9 9 k.",
"l.m.n.o.p.q.r.s.t.u.v.v.w.v.v.x.y.z.A.B.C.D.E.F.G.H.I.J.K.L.M.N.O.P.Q.R.S.T.U.V.W.X.Y.Z.`. +.+++@+k.",
"l.#+$+%+&+*+=+-+;+>+,+'+)+!+,+~+{+]+^+;+/+/+(+_+:+<+[+}+|+1+2+3+4+4+5+6+7+8+v.9+0+a+M.b+].c+d+e+;.k.",
"f+g+h+i+j+k+l+m+n+o+p+q+r+q+s+t+u+v+w+x+y+z+A+B+C+D+E+F+G+H+I+J+K+L+M+N+O+P+Q+^+R+S+T+U+u.V+W+X+Y+Z+",
"`+ @.@+@@@#@$@%@&@*@=@-@;@-@>@,@'@'@)@!@%@~@{@]@^@/@~@(@_@:@<@[@}@|@1@2@o+3@4@I+5@6@J+7@8@9@0@a@b@Z+",
"c@d@e@f@g@h@i@j@k@l@m@n@o@p@q@r@s@t@u@v@w@x@y@z@A@B@C@D@E@F@G@H@I@J@J@K@L@M@N@O@P@#@[@Q@R@S@T@h+U@V@",
"W@X@Y@Z@`@ #.#+#@###$#%#&#*#=#-#;#>#,#'#)#!#~#{#]#^#/#(#_#:#<#[#}#|#n@1#2#3#4#5#6#7#8#9#0#a#b#c#d#e#",
"f#g#h#i#j#k#l#m#n#o#p#q#r#s#t#u#v#w#w#x#y#z#A#B#C#D#E#F#G#H#I#J#K#$#$#L#M#N#O#P#G@Q#R#S#T#U#V#W#X#f+",
"Y#Z#`# $.$+$@$#$$$%$&$*$=$-$;$t#>$,$'$)$!$~${$]$^$/$($_$:$<$[$}$|$1$2$3$4$5$6$7$8$9$+#+#0$a$b$c$d$W@",
"e$f$g$h$i$j$k$l$/$m$n$o$p$q$r$s$t$u$v$w$x$y$z$A$B$k$C$D$E$F$G$H$I$J$K$L$M$N$O$P$Q$|$R$S$T$U$V$W$f#X$",
"Y$Y#Z$`$ %.%+%@%#%$%%%&%*%*%=%-%;%>%,%'%)%!%!%!%~%~%~%~%~%~%!%!%*%*%*%*%=%=%*%!%{%l$]%^%/%(%_%:%<%e$",
"[%}%|%1%`$2%3%4%5%6%k$7%8%9%9%A$0%D+a%b%7%7%c%c%c%c%c%c%c%c%c%c%7%7%7%9%9%9%8%c%d%6%+%e%f%_%g$g%h%Y$",
"i%Y$j%k%l%m%n%o%.%p%q%+%r%s%s%s%s%t%u%r%+%+%+%v%v%v%v%v%v%v%v%v%+%+%+%+%r%r%+%v%q%p%w% %x%:%y%z%A%B%",
"C%B%D%h%k%1%g$E%_%F%w%G%.%.%.%.%.%.%.%H%w%w%w%w%I%I%I%I%I%I%w%w%w%w%w%w%H%H%w%w%F%2%J%`$K%g%z%}%L%M%",
"N%M%O%D%P%|%y%l%g$Q%E%R%R%R%R%R%R%R%R%R%R%J%E%E%E%E%E%E%E%E%E%E%E%E%S%J%R%R%J%E%Q%g$K%T%U%V%}%L%W%X%",
"Y%Z%M%`%D%j% &k%g%T%l%K%.&.&.&.&.&K%K%K%+&+&+&l%1%1%1%@&1%1%1%l%l%+&+&+&+&+&+&1%T%y%k% &j%A%L%W%#&$&",
"%&$&X%&&B%*&=&j%V%-&|%k%U%U%U%U%U%U%k%;&;&|%|%|%|%|%Z#Z#Z#Z#Z#|%|%|%|%|%|%|%|%>& &h%j%=&Y$O%i%#&$&%&"};
