/* XPM */
static char *dummy[]={
"16 50 9 1",
". c #888888",
"b c #b78200",
"f c #e1af04",
"g c #e5a200",
"e c #eab500",
"a c #ffcb00",
"d c #ffec21",
"c c #ffff3f",
"# c #ffff50",
"................",
"################",
"aaaaaaaaaaaaaaaa",
"aaaaaaaaaaaaaaaa",
"aaaaaaaaaaaaaaaa",
"bbbbbbbbbbbbbbaa",
"bcccccccccccccaa",
"bccdcddddadabcaa",
"bcdcddddadaebcaa",
"bccddddadaaebcaa",
"bcddddadaaaebcaa",
"bcdddadaaaeebcaa",
"bcddadaaaeaebcaa",
"bcdadaaaeaeebcaa",
"bcadaaaeaeefbcaa",
"bcdaaaeaeeefbcaa",
"bcaeeeeeefffbcaa",
"bcbbbbbbbbbbbcaa",
"bcccccccccccccaa",
"aaaaaaaaaaaaaaaa",
"aaaaaaaaaaaaaaaa",
"aaaaaaaaaaaaaaaa",
"aaaaaaaaaaaaaaaa",
"aaaaaaaaaaaaaaaa",
"................",
"................",
"################",
"aaaaaaaaaaaaaaaa",
"aaaaaaaaaaaaaaaa",
"aaaaaaaaaaaaaaaa",
"bbbbbbbbbbbbbbaa",
"bggggggggggggcaa",
"bgfffeeeeeaagcaa",
"bgfeeeaeaaadgcaa",
"bgfeeaeaaadagcaa",
"bgeeaeaaadadgcaa",
"bgeaeaaadaddgcaa",
"bgeeaaadadddgcaa",
"bgeaaadaddddgcaa",
"bgeaadaddddcgcaa",
"bgeaaaddddcdgcaa",
"bgeaaddddcdcgcaa",
"bggggggggggggcaa",
"bcccccccccccccaa",
"aaaaaaaaaaaaaaaa",
"aaaaaaaaaaaaaaaa",
"aaaaaaaaaaaaaaaa",
"aaaaaaaaaaaaaaaa",
"aaaaaaaaaaaaaaaa",
"................"};
