/* XPM */
static char *dummy[]={
"30 30 6 1",
". c None",
"b c #606060",
"# c #888888",
"d c #af7b00",
"c c #ffcb00",
"a c #ffff50",
"..............................",
"..............................",
"..............................",
"..............................",
"..............................",
".........................#####",
".........................aaaab",
".........................cccdb",
".........................cccdb",
".........................cccdb",
".........................cccdb",
".........................cccdb",
".........................cccdb",
".........................cccdb",
".........................cccdb",
".........................cccdb",
".........................cccdb",
".........................cccdb",
".........................cccdb",
".........................cccdb",
".........................cccdb",
".........................cccdb",
".........................cccdb",
".........................cccdb",
".........................cccdb",
".........................cccdb",
".........................cccdb",
".........................cccdb",
".........................cccdb",
".........................####b"};
