/* XPM */
static char *dummy[]={
"5 5 5 1",
"c c #606060",
"b c #888888",
". c #989898",
"a c #d8d8d8",
"# c #f8f8f8",
".....",
"#####",
"aaaaa",
"bbbbb",
"ccccc"};
