/* XPM */
static char *dummy[]={
"30 30 6 1",
"d c None",
". c #606060",
"# c #888888",
"c c #989898",
"a c #d8d8d8",
"b c #f8f8f8",
".#abcddddddddddddddddddddddddd",
".#abcddddddddddddddddddddddddd",
".#abcddddddddddddddddddddddddd",
".#abcddddddddddddddddddddddddd",
".#abcddddddddddddddddddddddddd",
".#abcddddddddddddddddddddddddd",
".#abcddddddddddddddddddddddddd",
".#abcddddddddddddddddddddddddd",
".#abcddddddddddddddddddddddddd",
".#abcddddddddddddddddddddddddd",
".#abcddddddddddddddddddddddddd",
".#abcddddddddddddddddddddddddd",
".#abcddddddddddddddddddddddddd",
".#abcddddddddddddddddddddddddd",
".#abcddddddddddddddddddddddddd",
".#abcddddddddddddddddddddddddd",
".#abcddddddddddddddddddddddddd",
".#abcddddddddddddddddddddddddd",
".#abcddddddddddddddddddddddddd",
".#abcddddddddddddddddddddddddd",
".#abcddddddddddddddddddddddddd",
".#abcddddddddddddddddddddddddd",
".#abcddddddddddddddddddddddddd",
".#abcddddddddddddddddddddddddd",
".#abcddddddddddddddddddddddddd",
".#abcccccccccccccccccccccccccc",
".#abbbbbbbbbbbbbbbbbbbbbbbbbbb",
".#aaaaaaaaaaaaaaaaaaaaaaaaaaaa",
".#############################",
".............................."};
