/* XPM */
static char *dummy[]={
"16 50 12 1",
". c #888888",
"b c #b78200",
"g c #e5a200",
"f c #eab500",
"i c #f6bf00",
"j c #f8c800",
"e c #f8e040",
"c c #f8f830",
"a c #ffcb00",
"d c #ffec21",
"h c #ffff3f",
"# c #ffff50",
"................",
"################",
"aaaaaaaaaaaaaaaa",
"aaaaaaaaaaaaaaaa",
"aaaaaaaaaaaaaaaa",
"bbbbbbbbbaaaaaaa",
"bccccccccaaaaaaa",
"bccddaabcaaaaaaa",
"bcddaeabcbbbbbaa",
"bcdaeafbccccccaa",
"bcaeaafbcdddbcaa",
"bcaafffbcddfbcaa",
"bcbbbbbbcdafbcaa",
"bccccccccadfbcaa",
"aaabcdddadafbcaa",
"aaabcddadaafbcaa",
"aaabcaffffffbcaa",
"aaabcbbbbbbbbcaa",
"aaabccccccccccaa",
"aaaaaaaaaaaaaaaa",
"aaaaaaaaaaaaaaaa",
"aaaaaaaaaaaaaaaa",
"aaaaaaaaaaaaaaaa",
"aaaaaaaaaaaaaaaa",
"................",
"................",
"################",
"aaaaaaaaaaaaaaaa",
"aaaaaaaaaaaaaaaa",
"aaaaaaaaaaaaaaaa",
"bbbbbbbbbaaaaaaa",
"bggggggghaaaaaaa",
"bgiiiiegcaaaaaaa",
"bgiieejgcbbbbbaa",
"bgieeahgcgggghaa",
"bgieahagcgiegcaa",
"bgeehahgcgiegcaa",
"bgggggggcgiegcaa",
"bhcccccccghjgcaa",
"aaabggggggjhgcaa",
"aaabgiiihjhagcaa",
"aaabgeeejhahgcaa",
"aaabgggggggggcaa",
"aaabhcccccccccaa",
"aaaaaaaaaaaaaaaa",
"aaaaaaaaaaaaaaaa",
"aaaaaaaaaaaaaaaa",
"aaaaaaaaaaaaaaaa",
"aaaaaaaaaaaaaaaa",
"................"};
