/* XPM */
static char *dummy[]={
"16 50 12 1",
". c #888888",
"b c #b78200",
"g c #e5a200",
"f c #eab500",
"i c #f6bf00",
"j c #f8c800",
"e c #f8e040",
"c c #f8f830",
"a c #ffcb00",
"d c #ffec21",
"h c #ffff3f",
"# c #ffff50",
"................",
"################",
"aaaaaaaaaaaaaaaa",
"aaaaaaaaaaaaaaaa",
"aaaaaaaaaaaaaaaa",
"aaaaaaaaaaaaaaaa",
"aaaaaaaaaaaaaaaa",
"aaaaaaaaaaaaaaaa",
"aabbbbbbbbbaaaaa",
"aabccccccccaaaaa",
"aabccddaabcaaaaa",
"aabcddaeabcaaaaa",
"aabcdaeafbcaaaaa",
"aabcaeaafbcaaaaa",
"aabcaafffbcaaaaa",
"aabcbbbbbbcaaaaa",
"aabccccccccaaaaa",
"aaaaaaaaaaaaaaaa",
"aaaaaaaaaaaaaaaa",
"aaaaaaaaaaaaaaaa",
"aaaaaaaaaaaaaaaa",
"aaaaaaaaaaaaaaaa",
"aaaaaaaaaaaaaaaa",
"aaaaaaaaaaaaaaaa",
"................",
"................",
"################",
"aaaaaaaaaaaaaaaa",
"aaaaaaaaaaaaaaaa",
"aaaaaaaaaaaaaaaa",
"aaaaaaaaaaaaaaaa",
"aaaaaaaaaaaaaaaa",
"aaaaaaaaaaaaaaaa",
"aabbbbbbbbbaaaaa",
"aabggggggghaaaaa",
"aabgiiiiegcaaaaa",
"aabgiieejgcaaaaa",
"aabgieeahgcaaaaa",
"aabgieahagcaaaaa",
"aabgeehahgcaaaaa",
"aabgggggggcaaaaa",
"aabhcccccccaaaaa",
"aaaaaaaaaaaaaaaa",
"aaaaaaaaaaaaaaaa",
"aaaaaaaaaaaaaaaa",
"aaaaaaaaaaaaaaaa",
"aaaaaaaaaaaaaaaa",
"aaaaaaaaaaaaaaaa",
"aaaaaaaaaaaaaaaa",
"................"};
