/* XPM */
static char *dummy[]={
"16 50 8 1",
"b c #7f7f7f",
". c #888888",
"f c #989898",
"e c #afafaf",
"d c #bfbfbf",
"a c #d8d8d8",
"c c #e6e6e6",
"# c #f8f8f8",
"................",
"################",
"aaaaaaaaaaaaaaaa",
"aaaaaaaaaaaaaaaa",
"aaaaaaaaaaaaaaaa",
"bbbbbbbbbaaaaaaa",
"bccccccccaaaaaaa",
"bccccddbcaaaaaaa",
"bcccdcdbcbbbbbaa",
"bccdcdebccccccaa",
"bcdcddebccccbcaa",
"bcddeeebcccebcaa",
"bcbbbbbbccdebcaa",
"bccccccccdcebcaa",
"aaabccccdcdebcaa",
"aaabcccdcddebcaa",
"aaabcdeeeeeebcaa",
"aaabcbbbbbbbbcaa",
"aaabccccccccccaa",
"aaaaaaaaaaaaaaaa",
"aaaaaaaaaaaaaaaa",
"aaaaaaaaaaaaaaaa",
"aaaaaaaaaaaaaaaa",
"aaaaaaaaaaaaaaaa",
"ffffffffffffffff",
"................",
"################",
"aaaaaaaaaaaaaaaa",
"aaaaaaaaaaaaaaaa",
"aaaaaaaaaaaaaaaa",
"bbbbbbbbbaaaaaaa",
"bccccccccaaaaaaa",
"bccccddbcaaaaaaa",
"bcccdcdbcbbbbbaa",
"bccdcdebccccccaa",
"bcdcddebccccbcaa",
"bcddeeebcccebcaa",
"bcbbbbbbccdebcaa",
"bccccccccdcebcaa",
"aaabccccdcdebcaa",
"aaabcccdcddebcaa",
"aaabcdeeeeeebcaa",
"aaabcbbbbbbbbcaa",
"aaabccccccccccaa",
"aaaaaaaaaaaaaaaa",
"aaaaaaaaaaaaaaaa",
"aaaaaaaaaaaaaaaa",
"aaaaaaaaaaaaaaaa",
"aaaaaaaaaaaaaaaa",
"ffffffffffffffff"};
