/* XPM */
static char *dummy[]={
"16 50 13 1",
". c #888888",
"b c #9e6900",
"h c #cc8900",
"g c #d19c00",
"j c #dda600",
"k c #dfaf00",
"f c #dfc727",
"c c #dfdf17",
"e c #e6b200",
"d c #e6d308",
"i c #e6e626",
"a c #ffcb00",
"# c #ffff50",
"................",
"################",
"aaaaaaaaaaaaaaaa",
"aaaaaaaaaaaaaaaa",
"aaaaaaaaaaaaaaaa",
"bbbbbbbbbaaaaaaa",
"bccccccccaaaaaaa",
"bccddeebcaaaaaaa",
"bcddefebcbbbbbaa",
"bcdefegbccccccaa",
"bcefeegbcdddbcaa",
"bceegggbcddgbcaa",
"bcbbbbbbcdegbcaa",
"bccccccccedgbcaa",
"aaabcdddedegbcaa",
"aaabcddedeegbcaa",
"aaabceggggggbcaa",
"aaabcbbbbbbbbcaa",
"aaabccccccccccaa",
"aaaaaaaaaaaaaaaa",
"aaaaaaaaaaaaaaaa",
"aaaaaaaaaaaaaaaa",
"aaaaaaaaaaaaaaaa",
"aaaaaaaaaaaaaaaa",
"................",
"................",
"################",
"aaaaaaaaaaaaaaaa",
"aaaaaaaaaaaaaaaa",
"aaaaaaaaaaaaaaaa",
"bbbbbbbbbaaaaaaa",
"bhhhhhhhiaaaaaaa",
"bhjjjjfhcaaaaaaa",
"bhjjffkhcbbbbbaa",
"bhjffeihchhhhiaa",
"bhjfeiehchjfhcaa",
"bhffieihchjfhcaa",
"bhhhhhhhchjfhcaa",
"biccccccchikhcaa",
"aaabhhhhhhkihcaa",
"aaabhjjjikiehcaa",
"aaabhfffkieihcaa",
"aaabhhhhhhhhhcaa",
"aaabicccccccccaa",
"aaaaaaaaaaaaaaaa",
"aaaaaaaaaaaaaaaa",
"aaaaaaaaaaaaaaaa",
"aaaaaaaaaaaaaaaa",
"aaaaaaaaaaaaaaaa",
"................"};
