/* XPM */
static char *a[]={
"7 9 2 1",
". c #808080",
"# c #ffffff",
".......",
"..###..",
".#...#.",
".#...#.",
".#####.",
".#...#.",
".#...#.",
".#...#.",
"......."};
