/* XPM */
static char *colon[]={
"6 20 4 1",
"a c #515c5b",
". c #9da48c",
"b c #b3bba0",
"# c #dee7c6",
"......",
"######",
"######",
"######",
"######",
"######",
"##aa##",
"##aa##",
"######",
"######",
"######",
"######",
"##aa##",
"##aa##",
"######",
"######",
"######",
"######",
"######",
"bbbbbb"};
