/* XPM */
static char *n7[]={
"10 20 5 1",
"a c #515c5b",
"b c #808080",
". c #9da48c",
"c c #b3bba0",
"# c #dee7c6",
"..........",
"##########",
"##aaaaaa##",
"###aaaaba#",
"#######aa#",
"#######aa#",
"#######aa#",
"#######aa#",
"########a#",
"##########",
"##########",
"########a#",
"#######aa#",
"#######aa#",
"#######aa#",
"#######aa#",
"########a#",
"##########",
"##########",
"cccccccccc"};
