/* XPM */
static char *n9[]={
"10 20 4 1",
"a c #515c5b",
". c #9da48c",
"b c #b3bba0",
"# c #dee7c6",
"..........",
"##########",
"##aaaaaa##",
"#abaaaaba#",
"#aa####aa#",
"#aa####aa#",
"#aa####aa#",
"#aa####aa#",
"#a######a#",
"##aaaaaa##",
"##aaaaaa##",
"########a#",
"#######aa#",
"#######aa#",
"#######aa#",
"#######aa#",
"###aaaaba#",
"##aaaaaa##",
"##########",
"bbbbbbbbbb"};
