/* XPM */
static char * closeA_xpm[] = {
"11 32 7 1",
" 	c None",
".	c #CDCACD",
"+	c #D5D6D5",
"@	c #515151",
"#	c #000000",
"$	c #FFFFFF",
"%	c #E6E6E6",
"...........",
"+++++++++++",
"+++++++++++",
"++@@++@@+++",
"+++@@@@++++",
"++++@@+++++",
"+++@@@@++++",
"++@@++@@+++",
"+++++++++++",
"+++++++++++",
"+++++++++++",
"###########",
"$$$$$$$$$$$",
"%%%%%%%%%%%",
"...........",
"###########",
"...........",
"+++++++++++",
"+++++++++++",
"++##++##+++",
"+++####++++",
"++++##+++++",
"+++####++++",
"++##++##+++",
"+++++++++++",
"+++++++++++",
"+++++++++++",
"###########",
"$$$$$$$$$$$",
"%%%%%%%%%%%",
"...........",
"###########"};
