/* XPM */
static char * frameABR_xpm[] = {
"15 21 8 1",
" 	c None",
".	c #D5D2D5",
"+	c #000000",
"@	c #FFFFFF",
"#	c #E6E6E6",
"$	c #C5C6C5",
"%	c #CDCACD",
"&	c #E6E6EE",
"..........+@#$+",
"..........+@#$+",
"..........+@#$+",
"..........+@#$+",
"..........+@#$+",
"..........+@#$+",
"..........+@#$+",
"..........+@#$+",
"..........+@#$+",
"..........+@#$+",
"..........+@#$+",
"..........+@#$+",
"..........+@#$+",
"..........+@#$+",
"..........+@#%+",
"..........+@#%+",
"+++++++++++@#%+",
"@@@@@@@@@@@@#%+",
"######&######%+",
"%%%%%%%%%%$%%%+",
"+++++++++++++++"};
