/* XPM */
static char * frameAT_xpm[] = {
"10 5 5 1",
" 	c None",
".	c #000000",
"+	c #FFFFFF",
"@	c #E6E6E6",
"#	c #CDCACD",
"..........",
"++++++++++",
"@@@@@@@@@@",
"##########",
".........."};
