/* XPM */
static char * frameITL_xpm[] = {
"15 21 6 1",
" 	c None",
".	c #000000",
"+	c #FFFFFF",
"@	c #E6E6E6",
"#	c #C5C6C5",
"$	c #CDCACD",
"...............",
".++++++++++++++",
".+@@@@@@@@@@@@@",
".+@#$@@$$@@@@@@",
".+@$.+@$.+@@@@@",
".+@@++@@++@@@@@",
".+@@@@@@@@@@@@@",
".+@$$@@@@@@@@@@",
".+@$.+@@@@@@@@@",
".+@@@+@@@@@@@@@",
".+@@@@@@@@@@@@@",
".+@@@@@@@@@@@@@",
".+@@@@@@@@@@@@@",
".+@@@@@@@@@@@@@",
".+@@@@@@@@@@@@@",
".+@@@@@@@@@@@@@",
".+@@@@@@@@@@@@@",
".+@@@@@@@@@@@@@",
".+@@@@@@@@@@@@@",
".+@$#$$$$$$##$$",
".+@#..........."};
