/* XPM */
static char * frameIT_xpm[] = {
"10 5 4 1",
" 	c None",
".	c #000000",
"+	c #FFFFFF",
"@	c #E6E6E6",
"..........",
"++++++++++",
"@@@@@@@@@@",
"@@@@@@@@@@",
"@@@@@@@@@@"};
