/* XPM */
static char * frameATR_xpm[] = {
"15 21 7 1",
" 	c None",
".	c #000000",
"+	c #FFFFFF",
"@	c #E6E6E6",
"#	c #CDCACD",
"$	c #C5C6C5",
"%	c #D5D2D5",
"...............",
"+++++++++++++@.",
"@@@@@@@@@@@@@#.",
"####$######@@#.",
"...........+@#.",
"%%%%%%%%%%.+@$.",
"%%%%%%%%%%.+@$.",
"%%%%%%%%%%.+@#.",
"%%%%%%%%%%.+@#.",
"%%%%%%%%%%.+@$.",
"%%%%%%%%%%.+@#.",
"%%%%%%%%%%.+@$.",
"%%%%%%%%%%.+@#.",
"%%%%%%%%%%.+@#.",
"%%%%%%%%%%.+@#.",
"%%%%%%%%%%.+@$.",
"...........+@#.",
"++++++++++++@#.",
"@@@@@@@@@@@@@#.",
"###########@@#.",
"...........+@$."};
