/* XPM */
static char * minimizeI_xpm[] = {
"11 32 4 1",
" 	c None",
".	c #E6E6E6",
"+	c #CDCACD",
"@	c #000000",
"...........",
"...........",
"...........",
"...........",
"...........",
"...........",
"...........",
"...........",
"...........",
"...........",
"...........",
"...........",
"...........",
"...........",
"+++++++++++",
"@@@@@@@@@@@",
"...........",
"...........",
"...........",
"...........",
"...........",
"...........",
"...........",
"...........",
"...........",
"...........",
"...........",
"...........",
"...........",
"...........",
"+++++++++++",
"@@@@@@@@@@@"};
