/* XPM */
static char * titleAB_xpm[] = {
"9 16 6 1",
" 	c None",
".	c #CDCACD",
"+	c #D5D6D5",
"@	c #000000",
"#	c #FFFFFF",
"$	c #E6E6E6",
".........",
"+++++++++",
"+++++++++",
"+++++++++",
"+++++++++",
"+++++++++",
"+++++++++",
"+++++++++",
"+++++++++",
"+++++++++",
"+++++++++",
"@@@@@@@@@",
"#########",
"$$$$$$$$$",
".........",
"@@@@@@@@@"};
