/* XPM */
static char * closeA_xpm[] = {
"17 40 46 1",
" 	c None",
".	c #000000",
"+	c #FFFFFF",
"@	c #E2E2DE",
"#	c #E1E1DD",
"$	c #E0E0DC",
"%	c #D6D6D3",
"&	c #DDDDD9",
"*	c #DEDEDA",
"=	c #CFCFCB",
"-	c #DCDCD8",
";	c #C5C5C1",
">	c #CECECA",
",	c #DBDBD7",
"'	c #B5B5B2",
")	c #C1C1BE",
"!	c #B4B4B1",
"~	c #BDBDB9",
"{	c #B2B2AF",
"]	c #BCBCB9",
"^	c #B3B3B0",
"/	c #C9C9C6",
"(	c #A1A198",
"_	c #CCCCC9",
":	c #CBCBC8",
"<	c #CACAC7",
"[	c #C1C1BF",
"}	c #C8C8C4",
"|	c #C9C9C5",
"1	c #BBBBB7",
"2	c #C7C7C3",
"3	c #B2B2AE",
"4	c #BABAB6",
"5	c #C6C6C2",
"6	c #A3A3A1",
"7	c #AEAEAC",
"8	c #A3A3A0",
"9	c #ABABA7",
"0	c #A1A19E",
"a	c #AAAAA7",
"b	c #A2A29F",
"c	c #B6B6B3",
"d	c #E4E4E0",
"e	c #EBEBE8",
"f	c #EBEBE9",
"g	c #E9E9E7",
".................",
"+++++++++++++++++",
"@@@@@@@@@@@@@@@@@",
"@@@@@@@@@@@@@@@@@",
"@@@@#$$#@@@@#$$#@",
"@@@#..%&#@@#..%*@",
"@@@$...=-##...;%@",
"@@@$%...>,...')%@",
"@@@#&=......!~=&@",
"@@@@#->....{]>-#@",
"@@@@@#,....^/,#@@",
"@@@@@#....../,#@@",
"@@@@#...{^...>-#@",
"@@@#...!]//...=&@",
"@@@$..'~>,,>..)%@",
"@@@$%;)=-##-=);%@",
"@@@#*%%&#@@#&%%*@",
"@@@@@@@@@@@@@@@@@",
"@@@@@@@@@@@@@@@@@",
"@@@@@@@@@@@@@@@@@",
".................",
"+++++++++++++++++",
"@(((((((((((((((@",
"@(______________+",
"@(__:<<:____:<<:+",
"@(_:..[}:__:..[|+",
"@(_<...12::...3[+",
"@(_<[...45...67[+",
"@(_:}1......891}+",
"@(__:24....0a42:+",
"@(___:5....bc5:_+",
"@(___:......c5:_+",
"@(__:...0b...42:+",
"@(_:...8acc...1}+",
"@(_<..694554..7[+",
"@(_<[3712::2173[+",
"@(_:|[[}:__:}[[|+",
"@@+++++++++++++++",
"@@@@@@@@@@@@@@@@@",
"@deeeeffffffffeeg"};
