/* XPM */
static char * frameAR_xpm[] = {
"4 1 4 1",
" 	c None",
".	c #E2E2DE",
"+	c #A1A198",
"@	c #000000",
"..+@"};
