/* XPM */
static char * frameABL_xpm[] = {
"20 20 5 1",
" 	c None",
".	c #000000",
"+	c #FFFFFF",
"@	c #E2E2DE",
"#	c #A1A198",
".+@@                ",
".+@@                ",
".+@@                ",
".+@@                ",
".+@@                ",
".+@@                ",
".+@@                ",
".+@@                ",
".+@@                ",
".+@@                ",
".+@@                ",
".+@@                ",
".+@@                ",
".+@@                ",
".+@@                ",
".+@@                ",
".+@@@@@@@@@@@@@@@@@@",
".+@@@@@@@@@@@@@@@@@@",
".@##################",
"...................."};
