/* XPM */
static char * frameABR_xpm[] = {
"20 20 4 1",
" 	c None",
".	c #E2E2DE",
"+	c #A1A198",
"@	c #000000",
"                ..+@",
"                ..+@",
"                ..+@",
"                ..+@",
"                ..+@",
"                ..+@",
"                ..+@",
"                ..+@",
"                ..+@",
"                ..+@",
"                ..+@",
"                ..+@",
"                ..+@",
"                ..+@",
"                ..+@",
"                ..+@",
"..................+@",
"..................+@",
"+++++++++++++++++++@",
"@@@@@@@@@@@@@@@@@@@@"};
