/* XPM */
static char * maximizeA_xpm[] = {
"18 40 66 1",
" 	c None",
".	c #000000",
"+	c #FFFFFF",
"@	c #E2E2DE",
"#	c #E1E1DD",
"$	c #E0E0DC",
"%	c #232323",
"&	c #333332",
"*	c #D9D9D5",
"=	c #DFDFDB",
"-	c #C9C9C6",
";	c #BDBDB9",
">	c #B7B7B4",
",	c #B8B8B5",
"'	c #B9B9B6",
")	c #B6B6B2",
"!	c #BFBFBC",
"~	c #D4D4D0",
"{	c #C3C3C0",
"]	c #C7C7C3",
"^	c #CFCFCC",
"/	c #D2D2CE",
"(	c #D3D3CF",
"_	c #D1D1CD",
":	c #DEDEDA",
"<	c #C7C7C4",
"[	c #DEDEDB",
"}	c #343433",
"|	c #323231",
"1	c #C8C8C5",
"2	c #D6D6D2",
"3	c #DADAD6",
"4	c #CECECA",
"5	c #A1A198",
"6	c #CCCCC9",
"7	c #CBCBC8",
"8	c #CACAC7",
"9	c #1F1F1F",
"0	c #2E2E2D",
"a	c #C4C4C0",
"b	c #CACAC6",
"c	c #B6B6B3",
"d	c #ABABA7",
"e	c #A5A5A3",
"f	c #A6A6A3",
"g	c #A7A7A4",
"h	c #A4A4A1",
"i	c #ADADAA",
"j	c #C0C0BC",
"k	c #B0B0AD",
"l	c #B4B4B0",
"m	c #BBBBB8",
"n	c #BEBEBA",
"o	c #BFBFBB",
"p	c #C9C9C5",
"q	c #B4B4B1",
"r	c #2F2F2E",
"s	c #2D2D2C",
"t	c #B5B5B2",
"u	c #C1C1BE",
"v	c #C5C5C1",
"w	c #BABAB6",
"x	c #E4E4E0",
"y	c #EBEBE8",
"z	c #EBEBE9",
"A	c #E9E9E7",
"..................",
"++++++++++++++++++",
"@@@@@@@@@@@@@@@@@@",
"@@@@@@@@@@@@@@@@@@",
"@@@@@#$$$$$$$$#@@@",
"@@@@%........&*=@@",
"@@@#..........-*@@",
"@@@$.;>,'''').!~@@",
"@@@$.{]^////^.{(@@",
"@@@$.]_:$$$$:.]~@@",
"@@@$.<~$@@@@$.<~@@",
"@@@$.<~$@@@@$.<~@@",
"@@@$.<~$@@@@$.<~@@",
"@@@$.<([$$$$[.<~@@",
"@@@$}........|12@@",
"@@@#341<<<<<<143@@",
"@@@@=32~~~~~~23=@@",
"@@@@@@@@@@@@@@@@@@",
"@@@@@@@@@@@@@@@@@@",
"@@@@@@@@@@@@@@@@@@",
"..................",
"++++++++++++++++++",
"@555555555555555@@",
"@566666666666666+@",
"@566678888888876+@",
"@5669........0ab+@",
"@567..........ca+@",
"@568.defggggh.ij+@",
"@568.klmnnnnm.ko+@",
"@568.l;p8888p.lj+@",
"@568.qj866668.qj+@",
"@568.qj866668.qj+@",
"@568.qj866668.qj+@",
"@568.qo-8888-.qj+@",
"@568r........stu+@",
"@567vwtqqqqqqtwv+@",
"@566bvujjjjjjuvb+@",
"@@+++++++++++++++@",
"@@@@@@@@@@@@@@@@@@",
"@xyyyyzzzzzzzzyyA@"};
