/* XPM */
static char * minimizeA_xpm[] = {
"18 40 24 1",
" 	c None",
".	c #000000",
"+	c #FFFFFF",
"@	c #E2E2DE",
"#	c #E1E1DD",
"$	c #E0E0DC",
"%	c #D6D6D3",
"&	c #DEDEDA",
"*	c #C5C5C1",
"=	c #BBBBB8",
"-	c #BABAB7",
";	c #B9B9B6",
">	c #D2D2CE",
",	c #A1A198",
"'	c #CCCCC9",
")	c #CBCBC8",
"!	c #CACAC7",
"~	c #C1C1BF",
"{	c #C9C9C5",
"]	c #B2B2AE",
"^	c #A9A9A6",
"/	c #A8A8A5",
"(	c #A7A7A4",
"_	c #BEBEBA",
"..................",
"++++++++++++++++++",
"@@@@@@@@@@@@@@@@@@",
"@@@@@@@@@@@@@@@@@@",
"@@@@@@@@@@@@@@@@@@",
"@@@@@@@@@@@@@@@@@@",
"@@@@@@@@@@@@@@@@@@",
"@@@@@@@@@@@@@@@@@@",
"@@@@@@@@@@@@@@@@@@",
"@@@@@@@@@@@@@@@@@@",
"@@@@@@@@@@@@@@@@@@",
"@@@@@@@@@@@@@@@@@@",
"@@@@#$$$$$$$$$$#@@",
"@@@#..........%&@@",
"@@@$..........*%@@",
"@@@$%*=-;;;;;=*%@@",
"@@@#&%>>>>>>>>%&@@",
"@@@@@@@@@@@@@@@@@@",
"@@@@@@@@@@@@@@@@@@",
"@@@@@@@@@@@@@@@@@@",
"..................",
"++++++++++++++++++",
"@,,,,,,,,,,,,,,,@@",
"@,''''''''''''''+@",
"@,''''''''''''''+@",
"@,''''''''''''''+@",
"@,''''''''''''''+@",
"@,''''''''''''''+@",
"@,''''''''''''''+@",
"@,''''''''''''''+@",
"@,''''''''''''''+@",
"@,''''''''''''''+@",
"@,'')!!!!!!!!!!)+@",
"@,')..........~{+@",
"@,'!..........]~+@",
"@,'!~]^/(((((^]~+@",
"@,'){~________~{+@",
"@@+++++++++++++++@",
"@@@@@@@@@@@@@@@@@@",
"@@@@@@@@@@@@@@@@@@"};
