/* XPM */
static char * restoreA_xpm[] = {
"18 40 74 1",
" 	c None",
".	c #000000",
"+	c #FFFFFF",
"@	c #E2E2DE",
"#	c #E1E1DD",
"$	c #E0E0DC",
"%	c #232322",
"&	c #333332",
"*	c #D8D8D4",
"=	c #DEDEDB",
"-	c #C7C7C3",
";	c #D7D7D4",
">	c #BABAB7",
",	c #B7B7B4",
"'	c #B9B9B6",
")	c #B7B7B3",
"!	c #BFBFBB",
"~	c #D2D2CE",
"{	c #C3C3C0",
"]	c #C8C8C5",
"^	c #D0D0CD",
"/	c #C7C7C4",
"(	c #DEDEDA",
"_	c #DBDBD7",
":	c #BCBCB9",
"<	c #B4B4B1",
"[	c #313130",
"}	c #C2C2BF",
"|	c #CBCBC7",
"1	c #C6C6C2",
"2	c #C0C0BD",
"3	c #C4C4C0",
"4	c #CACAC6",
"5	c #D5D5D1",
"6	c #D3D3CF",
"7	c #D6D6D3",
"8	c #DADAD6",
"9	c #323231",
"0	c #D4D4D0",
"a	c #A1A198",
"b	c #CCCCC9",
"c	c #CBCBC8",
"d	c #CACAC7",
"e	c #1F1F1F",
"f	c #2E2E2E",
"g	c #C9C9C6",
"h	c #B3B3B1",
"i	c #C2C2C0",
"j	c #A8A8A6",
"k	c #A6A6A3",
"l	c #A7A7A5",
"m	c #A5A5A2",
"n	c #ACACA9",
"o	c #BEBEBB",
"p	c #B0B0AD",
"q	c #B5B5B2",
"r	c #C6C6C3",
"s	c #AAAAA7",
"t	c #A2A2A0",
"u	c #2C2C2B",
"v	c #AFAFAD",
"w	c #B7B7B5",
"x	c #B2B2B0",
"y	c #AEAEAB",
"z	c #B1B1AE",
"A	c #B6B6B4",
"B	c #BEBEBC",
"C	c #C5C5C2",
"D	c #2D2D2C",
"E	c #BFBFBC",
"F	c #E4E4E0",
"G	c #EBEBE8",
"H	c #EBEBE9",
"I	c #E9E9E7",
"..................",
"++++++++++++++++++",
"@@@@@@@@@@@@@@@@@@",
"@@@@@@@@@@@@@@@@@@",
"@@@##$$$$$$$##@@@@",
"@@#%.......&*=#@@@",
"@@$.........-;$@@@",
"@@$.>,'''').!~=$@@",
"@@$.{]^~~~^...&;@@",
"@@$./~($$$(....-@@",
"@@$./~(_$$=.:<.!@@",
"@@$&.......[}/.{@@",
"@@#*|1.23//-45./@@",
"@@#=*6.2]^~678./@@",
"@@@##=&.......9-@@",
"@@@@@#*4-/////-|@@",
"@@@@@#=*5000005*@@",
"@@@@@@@@@@@@@@@@@@",
"@@@@@@@@@@@@@@@@@@",
"@@@@@@@@@@@@@@@@@@",
"..................",
"++++++++++++++++++",
"@aaaaaaaaaaaaaaa@@",
"@abbbbbbbbbbbbbb+@",
"@abccdddddddccbb+@",
"@ace.......f{gcb+@",
"@ad.........hidb+@",
"@ad.jkllllm.nogd+@",
"@ad.pq:ooo:...fi+@",
"@ad.<o]ddd]....h+@",
"@ad.<o]rddg.st.n+@",
"@adf.......uv<.p+@",
"@ac{wx.yz<<hA2.<+@",
"@acg{B.yq:oB}C.<+@",
"@abccgf.......Dh+@",
"@abbbc{Ah<<<<<hw+@",
"@abbbcg{2EEEEE2{+@",
"@@+++++++++++++++@",
"@@@@@@@@@@@@@@@@@@",
"@FGGGGHHHHHHHHGGI@"};
