/* XPM */
static char * titleAL_xpm[] = {
"2 20 5 1",
" 	c #000000",
".	c #FFFFFF",
"+	c #E2E2DE",
"@	c #71716F",
"#	c #1B2A33",
"  ",
"..",
"+@",
"+#",
"+#",
"+#",
"+#",
"+#",
"+#",
"+#",
"+#",
"+#",
"+#",
"+#",
"+#",
"+#",
"+#",
"+@",
"++",
"++"};
