/* XPM */
static char * titleAT_xpm[] = {
"1 20 6 1",
" 	c #000000",
".	c #FFFFFF",
"+	c #1B2A33",
"@	c #3E6072",
"#	c #456B7F",
"$	c #E2E2DE",
" ",
".",
"+",
"@",
"#",
"@",
"#",
"@",
"#",
"@",
"#",
"@",
"#",
"@",
"#",
"@",
"#",
"+",
"$",
"$"};
