/* XPM */
static char * titleIR_xpm[] = {
"2 20 4 1",
" 	c #000000",
".	c #FFFFFF",
"+	c #B5B5B2",
"@	c #E2E2DE",
"  ",
"..",
"+@",
" @",
" @",
" @",
" @",
" @",
" @",
" @",
" @",
" @",
" @",
" @",
" @",
" @",
" @",
"+@",
"@@",
"@@"};
