/* XPM */
static char *dummy[]={
"30 30 7 1",
". c None",
"e c #888888",
"# c #989898",
"c c #d8d8d8",
"b c #ffcb00",
"a c #ffff50",
"d c #ffffff",
"..............................",
"..............................",
"..............................",
"..............................",
"..............................",
".........................#####",
".........................aaaa#",
".........................bbba#",
".........................bbba#",
".........................bbba#",
".........................bbba#",
".........................bbba#",
".........................bbba#",
".........................bbba#",
".........................bbba#",
".........................bbba#",
".........................bbba#",
".........................bbba#",
".........................bbba#",
".........................bbba#",
".........................bbba#",
".........................bbba#",
".........................bbba#",
".........................bbba#",
".........................bbba#",
".........................cccd#",
".........................cccd#",
".........................eecd#",
".........................#ecd#",
".........................#ecd#"};
