/* XPM */
static char *dummy[]={
"5 5 4 1",
"b c #606060",
". c #989898",
"a c #e8e8e8",
"# c #ffffff",
".....",
"#####",
"aaaaa",
".....",
"bbbbb"};
