/* XPM */
static char *dummy[]={
"5 5 3 1",
". c #989898",
"a c #e8e8e8",
"# c #ffffff",
".#a..",
".#a..",
".#a..",
".#a..",
".#a.."};
