/* XPM */
static char *dummy[]={
"30 30 5 1",
"b c None",
"c c #606060",
". c #989898",
"a c #e8e8e8",
"# c #ffffff",
".#a..bbbbbbbbbbbbbbbbbbbbbbbbb",
".#a..bbbbbbbbbbbbbbbbbbbbbbbbb",
".#a..bbbbbbbbbbbbbbbbbbbbbbbbb",
".#a..bbbbbbbbbbbbbbbbbbbbbbbbb",
".#a..bbbbbbbbbbbbbbbbbbbbbbbbb",
".#a..bbbbbbbbbbbbbbbbbbbbbbbbb",
".#a..bbbbbbbbbbbbbbbbbbbbbbbbb",
".#a..bbbbbbbbbbbbbbbbbbbbbbbbb",
".#a..bbbbbbbbbbbbbbbbbbbbbbbbb",
".#a..bbbbbbbbbbbbbbbbbbbbbbbbb",
".#a..bbbbbbbbbbbbbbbbbbbbbbbbb",
".#a..bbbbbbbbbbbbbbbbbbbbbbbbb",
".#a..bbbbbbbbbbbbbbbbbbbbbbbbb",
".#a..bbbbbbbbbbbbbbbbbbbbbbbbb",
".#a..bbbbbbbbbbbbbbbbbbbbbbbbb",
".#a..bbbbbbbbbbbbbbbbbbbbbbbbb",
".#a..bbbbbbbbbbbbbbbbbbbbbbbbb",
".#a..bbbbbbbbbbbbbbbbbbbbbbbbb",
".#a..bbbbbbbbbbbbbbbbbbbbbbbbb",
".#a..bbbbbbbbbbbbbbbbbbbbbbbbb",
".#a..bbbbbbbbbbbbbbbbbbbbbbbbb",
".#a..bbbbbbbbbbbbbbbbbbbbbbbbb",
".#a..bbbbbbbbbbbbbbbbbbbbbbbbb",
".#a..bbbbbbbbbbbbbbbbbbbbbbbbb",
".#a..bbbbbbbbbbbbbbbbbbbbbbbbb",
".#a...........................",
".#a.##########################",
".#aaaaaaaaaaaaaaaaaaaaaaaaaaaa",
"..............................",
"cccccccccccccccccccccccccccccc"};
