/* XPM */
static char *dummy[]={
"5 5 4 1",
"# c #888888",
". c #989898",
"a c #d8d8d8",
"b c #ffffff",
".#ab.",
".#ab.",
".#ab.",
".#ab.",
".#ab."};
