/* XPM */
static char *dummy[]={
"16 46 10 1",
"h c #888888",
". c #989898",
"b c #cb9800",
"g c #d8d8d8",
"e c #ffaf13",
"a c #ffcb00",
"d c #ffe346",
"f c #ffe446",
"c c #ffff33",
"# c #ffff66",
"................",
"################",
"aaaaaaaaaaaaaaaa",
"aaaaaaaaaaaaaaaa",
"bbbbbbbbaaaaaaaa",
"bccccccccaaaaaaa",
"bccddaabcaaaaaaa",
"bcddadabcbbbbbaa",
"bcdadaabccccccaa",
"bcadaaebcdddbcaa",
"bcaaeeebcddebcaa",
"bcbbbbbbcdaebcaa",
"accccccccadebcaa",
"aaabcddfadaebcaa",
"aaabcddadaaebcaa",
"aaabcdeeeeeebcaa",
"aaabcbbbbbbbbcaa",
"aaabccccccccccaa",
"aaaaaaaaaaaaaaaa",
"aaaaaaaaaaaaaaaa",
"gggggggggggggggg",
"gggggggggggggggg",
"hhhhhhhhhhhhhhhh",
"................",
"################",
"aaaaaaaaaaaaaaaa",
"aaaaaaaaaaaaaaaa",
"bbbbbbbbaaaaaaaa",
"bccccccccaaaaaaa",
"bceeeaabcaaaaaaa",
"bceaadabcbbbbbaa",
"bcaadadbccccccaa",
"bcadaddbceeebcaa",
"bcaaddcbceaabcaa",
"bcbbbbbbceadbcaa",
"accccccccedabcaa",
"aaabceeeedadbcaa",
"aaabcdadddddbcaa",
"aaabcafdddddbcaa",
"aaabcbbbbbbbbcaa",
"aaabccccccccccaa",
"aaaaaaaaaaaaaaaa",
"aaaaaaaaaaaaaaaa",
"gggggggggggggggg",
"gggggggggggggggg",
"hhhhhhhhhhhhhhhh"};
