/* XPM */
static char *dummy[]={
"16 46 12 1",
". c #989898",
"b c #a0a0a0",
"j c #d3d3d3",
"i c #d7d7d7",
"h c #dbdbdb",
"g c #e3e3e3",
"a c #e8e8e8",
"f c #ececec",
"e c #f1f1f1",
"d c #f5f5f5",
"c c #fafafa",
"# c #ffffff",
"................",
"################",
"aaaaaaaaaaaaaaaa",
"aaaaaaaaaaaaaaaa",
"aaaaaaaaaaaaaaaa",
"aaaaaaaaaaaaaaaa",
"aaaaaaaaaaaaaaaa",
"aaaaaaaaaaaaaaaa",
"aaaaaaaaaaaaaaaa",
"aaaaaaaaaaaaaaaa",
"aaaaaaaaaaaaaaaa",
"aaaaaaaaaaaaaaaa",
"bbbbbbbbbbbbbbaa",
"b#############aa",
"b####ccdeeeab#aa",
"b#cdefghhijjb#aa",
"b#bbbbbbbbbbb#aa",
"b#############aa",
"aaaaaaaaaaaaaaaa",
"aaaaaaaaaaaaaaaa",
"aaaaaaaaaaaaaaaa",
"aaaaaaaaaaaaaaaa",
"................",
"................",
"################",
"aaaaaaaaaaaaaaaa",
"aaaaaaaaaaaaaaaa",
"aaaaaaaaaaaaaaaa",
"aaaaaaaaaaaaaaaa",
"aaaaaaaaaaaaaaaa",
"aaaaaaaaaaaaaaaa",
"aaaaaaaaaaaaaaaa",
"aaaaaaaaaaaaaaaa",
"aaaaaaaaaaaaaaaa",
"aaaaaaaaaaaaaaaa",
"bbbbbbbbbbbbbbaa",
"b#############aa",
"b#jjihhgfedcb#aa",
"b#aeeedcc###b#aa",
"b#bbbbbbbbbbb#aa",
"b#############aa",
"aaaaaaaaaaaaaaaa",
"aaaaaaaaaaaaaaaa",
"aaaaaaaaaaaaaaaa",
"aaaaaaaaaaaaaaaa",
"................"};
