/* XPM */
static char *dummy[]={
"16 46 7 1",
". c #989898",
"b c #a2a2a2",
"e c #bababa",
"d c #cfcfcf",
"c c #e6e6e6",
"a c #e8e8e8",
"# c #ffffff",
"................",
"################",
"aaaaaaaaaaaaaaaa",
"aaaaaaaaaaaaaaaa",
"bbbbbbbbaaaaaaaa",
"bccccccccaaaaaaa",
"bccccddbcaaaaaaa",
"bcccdcdbcbbbbbaa",
"bccdcddbccccccaa",
"bcdcddebccccbcaa",
"bcddeeebcccebcaa",
"bcbbbbbbccdebcaa",
"accccccccdcebcaa",
"aaabccccdcdebcaa",
"aaabcccdcddebcaa",
"aaabcceeeeeebcaa",
"aaabcbbbbbbbbcaa",
"aaabccccccccccaa",
"aaaaaaaaaaaaaaaa",
"aaaaaaaaaaaaaaaa",
"aaaaaaaaaaaaaaaa",
"aaaaaaaaaaaaaaaa",
"................",
"................",
"################",
"aaaaaaaaaaaaaaaa",
"aaaaaaaaaaaaaaaa",
"bbbbbbbbaaaaaaaa",
"bccccccccaaaaaaa",
"bceeeddbcaaaaaaa",
"bceddcdbcbbbbbaa",
"bcddcdcbccccccaa",
"bcdcdccbcecdbcaa",
"bcddcccbcedcbcaa",
"bcbbbbbbceccbcaa",
"acccccccceccbcaa",
"aaabceeeecccbcaa",
"aaabceddcdccbcaa",
"aaabcedcdcccbcaa",
"aaabcbbbbbbbbcaa",
"aaabccccccccccaa",
"aaaaaaaaaaaaaaaa",
"aaaaaaaaaaaaaaaa",
"aaaaaaaaaaaaaaaa",
"aaaaaaaaaaaaaaaa",
"................"};
