#define shade_toggled_width 10
#define shade_toggled_height 10
static unsigned char shade_toggled_bits[] = {
 0x00, 0x00, 0x30, 0x00, 0x30, 0x00, 0x30, 0x00, 0x30, 0x00, 0x30, 0x00,
 0x30, 0x00, 0x30, 0x00, 0x30, 0x00, 0x00, 0x00 };
