/* XPM */
static char * folder_16x16_simple_xpm[] = {
"16 16 3 1",
" 	c None",
".	c #585858",
"+	c #CFCFCF",
"                ",
"    .....       ",
"   .+++++.      ",
"  ............  ",
" .++++++++++++. ",
" .++++++++++++. ",
" .++++++++++++. ",
" .++++++++++++. ",
" .++++++++++++. ",
" .++++++++++++. ",
" .++++++++++++. ",
" .++++++++++++. ",
" .++++++++++++. ",
"  ............  ",
"                ",
"                "};
