/* XPM */
static char * frameITR_xpm[] = {
"5 22 3 1",
" 	c None",
".	c #404444",
"+	c #606464",
".....",
"+++++",
"....+",
"....+",
"....+",
"....+",
"....+",
"....+",
"....+",
"....+",
"....+",
"....+",
"....+",
"....+",
"....+",
"....+",
"....+",
"....+",
"....+",
"....+",
"....+",
"....+"};
