/* XPM */
static char * frameIBL_xpm[] = {
"3 3 3 1",
" 	c None",
".	c #606464",
"+	c #404444",
".++",
".++",
" ++"};
