#define close_hover_width 13
#define close_hover_height 13
static unsigned char close_hover_bits[] = {
 0xF0, 0x01, 0x0C, 0x06, 0x02, 0x08, 0x0A, 0x0A, 0x11, 0x11, 0xA1, 0x10,
 0x41, 0x10, 0xA1, 0x10, 0x11, 0x11, 0x0A, 0x0A, 0x02, 0x08, 0x0C, 0x06,
 0xF0, 0x01 };
