#define close_width 13
#define close_height 13
static unsigned char close_bits[] = {
 0xF0, 0x01, 0x0C, 0x06, 0x02, 0x08, 0x02, 0x08, 0x01, 0x10, 0x01, 0x10,
 0x01, 0x10, 0x01, 0x10, 0x01, 0x10, 0x02, 0x08, 0x02, 0x08, 0x0C, 0x06,
 0xF0, 0x01 };
