#define desk_toggled_width 13
#define desk_toggled_height 13
static unsigned char desk_toggled_bits[] = {
 0x00, 0x00, 0x00, 0x00, 0x40, 0x00, 0xA0, 0x00, 0x10, 0x01, 0x08, 0x02,
 0x04, 0x04, 0x08, 0x02, 0x10, 0x01, 0xA0, 0x00, 0x40, 0x00, 0x00, 0x00,
 0x00, 0x00 };
