#define max_width 13
#define max_height 13
static unsigned char max_bits[] = {
 0xFC, 0x07, 0x02, 0x08, 0x01, 0x10, 0x01, 0x10, 0x01, 0x10, 0x01, 0x10,
 0x01, 0x10, 0x01, 0x10, 0x00, 0x10, 0x00, 0x10, 0x00, 0x10, 0x00, 0x08,
 0xE0, 0x07 };
