#define max_toggled_width 13
#define max_toggled_height 13
static unsigned char max_toggled_bits[] = {
 0xFC, 0x00, 0x02, 0x00, 0x01, 0x00, 0x01, 0x00, 0x01, 0x00, 0x01, 0x10,
 0x01, 0x10, 0x01, 0x10, 0x01, 0x10, 0x01, 0x10, 0x01, 0x10, 0x02, 0x08,
 0xFC, 0x07 };
