#define max_hover_width 13
#define max_hover_height 13
static unsigned char max_hover_bits[] = {
 0xFC, 0x07, 0x02, 0x08, 0x01, 0x10, 0xE1, 0x13, 0x01, 0x13, 0x81, 0x12,
 0x41, 0x12, 0x21, 0x12, 0x10, 0x10, 0x08, 0x10, 0x04, 0x10, 0x02, 0x08,
 0xE1, 0x07 };
