/* XPM */
static char * taskbarbg_xpm[] = {
"4 25 17 1",
" 	c None",
".	c #474747",
"+	c #454545",
"@	c #444444",
"#	c #434343",
"$	c #424242",
"%	c #414141",
"&	c #404040",
"*	c #3E3E3E",
"=	c #3D3D3D",
"-	c #3C3C3C",
";	c #3B3B3B",
">	c #3A3A3A",
",	c #393939",
"'	c #383838",
")	c #373737",
"!	c #2B2B2B",
"....",
"....",
"++++",
"++++",
"@@@@",
"####",
"$$$$",
"%%%%",
"%%%%",
"&&&&",
"&&&&",
"****",
"****",
"====",
"----",
";;;;",
">>>>",
">>>>",
",,,,",
"''''",
"))))",
"))))",
"))))",
"))))",
"!!!!"};
