/* XPM */
static char * taskbuttonactive_xpm[] = {
"4 25 15 1",
" 	c None",
".	c #333333",
"+	c #878787",
"@	c #898989",
"#	c #8A8A8A",
"$	c #888888",
"%	c #868686",
"&	c #858585",
"*	c #828282",
"=	c #818181",
"-	c #808080",
";	c #7F7F7F",
">	c #7E7E7E",
",	c #7D7D7D",
"'	c #7B7B7B",
"....",
"++++",
"++++",
"@@@@",
"####",
"@@@@",
"$$$$",
"++++",
"++++",
"%%%%",
"%%%%",
"&&&&",
"****",
"====",
"----",
"----",
";;;;",
">>>>",
">>>>",
",,,,",
",,,,",
"''''",
"''''",
";;;;",
"...."};
