/* XPM */
static char * windows_xpm[] = {
"20 20 203 2",
"  	c None",
". 	c #520A4C",
"+ 	c #530A4C",
"@ 	c #52094B",
"# 	c #53094C",
"$ 	c #522447",
"% 	c #7B1D68",
"& 	c #B83C92",
"* 	c #C9489F",
"= 	c #CB4AA1",
"- 	c #CA49A0",
"; 	c #B73C92",
"> 	c #7C1D69",
", 	c #4C0948",
"' 	c #7B1E68",
") 	c #C5429C",
"! 	c #BC3391",
"~ 	c #B92E8E",
"{ 	c #B82D8E",
"] 	c #B92D8E",
"^ 	c #BC3392",
"/ 	c #7A1D67",
"( 	c #500A4C",
"_ 	c #AF358D",
": 	c #B62F8F",
"< 	c #AF2B88",
"[ 	c #A92482",
"} 	c #A92483",
"| 	c #AA2583",
"1 	c #B32F8C",
"2 	c #B62E8F",
"3 	c #B72F90",
"4 	c #AE348C",
"5 	c #4F0A4B",
"6 	c #51094D",
"7 	c #B83594",
"8 	c #AD2C89",
"9 	c #AD458F",
"0 	c #C989B7",
"a 	c #C887B6",
"b 	c #C47CB0",
"c 	c #A1277F",
"d 	c #B02F8D",
"e 	c #B22F8E",
"f 	c #B2308F",
"g 	c #B22F8F",
"h 	c #B83593",
"i 	c #50094D",
"j 	c #B43392",
"k 	c #A52985",
"l 	c #BA6FA6",
"m 	c #FFFFFF",
"n 	c #FDFCFD",
"o 	c #840E65",
"p 	c #981E79",
"q 	c #A0247F",
"r 	c #AB308B",
"s 	c #AF308E",
"t 	c #AE308E",
"u 	c #4F094C",
"v 	c #B03291",
"w 	c #A12985",
"x 	c #B76EA6",
"y 	c #FEFDFE",
"z 	c #C4A4BC",
"A 	c #DBBAD3",
"B 	c #C485B4",
"C 	c #9A247E",
"D 	c #A92F8D",
"E 	c #AB308E",
"F 	c #B03292",
"G 	c #AC3391",
"H 	c #9E2A84",
"I 	c #B56EA5",
"J 	c #FEFEFE",
"K 	c #E6E8E7",
"L 	c #D7B8D0",
"M 	c #7E0E65",
"N 	c #911F77",
"O 	c #9A2A80",
"P 	c #A6318B",
"Q 	c #AD3391",
"R 	c #4E094C",
"S 	c #A83390",
"T 	c #9A2A84",
"U 	c #B36FA5",
"V 	c #E4E4E4",
"W 	c #FDFDFD",
"X 	c #ECE9EB",
"Y 	c #C9BFC7",
"Z 	c #DED4DB",
"` 	c #A75C97",
" .	c #9B2C85",
"..	c #4D094D",
"+.	c #A43390",
"@.	c #962A84",
"#.	c #AF6AA2",
"$.	c #E5E5E5",
"%.	c #EEEEEE",
"&.	c #D2D2D2",
"*.	c #EBF2EC",
"=.	c #A9679D",
"-.	c #972B85",
";.	c #4D094A",
">.	c #A13490",
",.	c #9A3289",
"'.	c #8F2D7E",
").	c #892879",
"!.	c #771868",
"~.	c #C1A6BC",
"{.	c #E6E8E6",
"].	c #E3E3E3",
"^.	c #F0F0F0",
"/.	c #D1D1D1",
"(.	c #A8679D",
"_.	c #942C84",
":.	c #A1348F",
"<.	c #4B094A",
"[.	c #9E3490",
"}.	c #99328C",
"|.	c #98328B",
"1.	c #953189",
"2.	c #862379",
"3.	c #C79FC1",
"4.	c #EEE5ED",
"5.	c #ECE3EB",
"6.	c #F5F5F5",
"7.	c #F9F9F9",
"8.	c #FAFAFA",
"9.	c #E8E8E8",
"0.	c #D4D4D4",
"a.	c #A5679D",
"b.	c #902C84",
"c.	c #9D348F",
"d.	c #4B0A4A",
"e.	c #99348F",
"f.	c #95328C",
"g.	c #96328C",
"h.	c #913288",
"i.	c #85267A",
"j.	c #7D1F74",
"k.	c #6B1161",
"l.	c #CBC9CB",
"m.	c #CFD1D0",
"n.	c #CFD1CF",
"o.	c #D3D5D4",
"p.	c #E1E3E2",
"q.	c #EEF5EF",
"r.	c #A2689D",
"s.	c #8C2C83",
"t.	c #4A0A4A",
"u.	c #96358E",
"v.	c #92338B",
"w.	c #91338A",
"x.	c #903289",
"y.	c #802879",
"z.	c #BC9DBA",
"A.	c #C4AAC2",
"B.	c #C3AAC2",
"C.	c #C6ACC4",
"D.	c #C7AEC5",
"E.	c #955290",
"F.	c #8C2F84",
"G.	c #93358F",
"H.	c #8F338B",
"I.	c #8A3286",
"J.	c #7F257A",
"K.	c #7E237A",
"L.	c #7E2379",
"M.	c #7D2379",
"N.	c #852D81",
"O.	c #8D338A",
"P.	c #490A4B",
"Q.	c #8E388E",
"R.	c #8B338A",
"S.	c #8B348A",
"T.	c #8B348B",
"U.	c #8A338A",
"V.	c #8B338B",
"W.	c #470A4A",
"X.	c #7F3582",
"Y.	c #88348A",
"Z.	c #87348A",
"`.	c #88348B",
" +	c #7F3581",
".+	c #480A4A",
"++	c #591B5E",
"@+	c #8F4395",
"#+	c #87378D",
"$+	c #833389",
"%+	c #833289",
"&+	c #581B5D",
"*+	c #3E0742",
"=+	c #551A59",
"-+	c #7D3B83",
";+	c #8E4996",
">+	c #8F4A98",
",+	c #551A5A",
"'+	c #5D3C61",
")+	c #3C083F",
"!+	c #3E0941",
"~+	c #3F0942",
"{+	c #3E0942",
"      . + @ @ @ @ @ @ @ @ @ @ # .       ",
"  $ % & * = - - - - - - - - = * ; > ,   ",
"  ' ) ! ~ { { { { { { ] ] ] ] ~ ^ ) /   ",
"( _ : < [ } } } } } | 1 : : : : 2 3 4 5 ",
"6 7 8 9 0 a a a a a b c d e f g g e h 6 ",
"i j k l m m m m m m n o p q r s t t j i ",
"u v w x m m m m m m y z A B C D E E F u ",
"u G H I m m m m m m J K m L M N O P Q R ",
"R S T U m m m m m m J V W X Y Z `  .S R ",
"..+.@.#.m m m m m m W $.J %.&.*.=.-.+...",
";.>.,.'.).!.~.{.].].V ^.m %./.*.(._.:.;.",
"<.[.}.|.1.2.3.4.5.6.6.7.8.9.0.*.a.b.c.<.",
"d.e.f.f.g.h.i.j.k.l.m.n.n.o.p.q.r.s.e.d.",
"t.u.v.v.v.v.w.x.y.z.A.A.B.A.C.D.E.F.u.t.",
"t.G.H.H.H.H.H.H.I.J.K.K.K.K.L.M.N.O.G.t.",
"P.Q.R.S.S.S.S.S.T.U.U.U.U.U.U.U.S.V.Q.P.",
"W.X.Y.Z.Z.Z.Z.Z.Z.Z.Z.Z.Z.Z.Z.Z.Z.`. +.+",
"  ++@+#+$+%+$+$+$+$+$+$+$+$+%+$+#+@+&+  ",
"  *+=+-+;+>+>+>+>+>+>+>+>+>+>+;+-+,+'+  ",
"      )+!+~+{+{+{+{+{+{+{+{+~+!+)+      "};
