#define max_width 10
#define max_height 10
static unsigned char max_bits[] = {
 0x00, 0x00, 0x00, 0x00, 0x30, 0x00, 0x78, 0x00, 0xFC, 0x00, 0xCE, 0x01,
 0x87, 0x03, 0x03, 0x03, 0x00, 0x00, 0x00, 0x00 };
