/* XPM */
static char *listbg[]={
"65 65 34 1",
"E c #3c3c3c",
"B c #3f3f3f",
"r c #404040",
"y c #414141",
"x c #424242",
"p c #434343",
"j c #444444",
"h c #454545",
"n c #464646",
"o c #474747",
". c #484848",
"g c #494949",
"b c #4a4a4a",
"l c #4b4b4b",
"a c #4c4c4c",
"f c #4d4d4d",
"d c #4e4e4e",
"q c #4f4f4f",
"k c #505050",
"i c #515151",
"s c #525252",
"m c #535353",
"t c #545454",
"e c #555555",
"u c #565656",
"# c #575757",
"c c #585858",
"v c #595959",
"w c #5a5a5a",
"A c #5b5b5b",
"z c #5c5c5c",
"F c #5d5d5d",
"C c #5e5e5e",
"D c #5f5f5f",
".#abcd.efgdfhi.jkllm.ndl.kopqj.inhepri.gs.akhatnpi.n#ghm.osoh#q.d",
"sqamlluj.uobqbom.lmohihliobi.omjlkjpsblq.gkpoifofbgif.#golnokgbeo",
"odfbpsonmabbbluggsalibotopedhu.omonqjji.oqhhslamgfsdgmjbdobknh#qq",
".vnju.qtj.thlt..s.fv.gfbnefpigge.oap.tn.kbdmj.upjtobmobch.t..ilbt",
"wjptbampfqnlu..iloidhfjbmjodrotokipav.ltnpklhih.#lgvhlijqihat.oig",
"d.sdoejnkoaq.lehb#hpsnbklltbxmgba.lmfnqllsohtnhtplqypm..illsglqob",
"okgliojipoconsajsf.dobipdugfelj#p.unbm.lealkog#lov.ps.buhgu..u.gi",
"m.pknhip.qgbtobia.mqjmoouoj#qhibaiookobig.egyvhhubjuhjioakj.mlgko",
".qtjpifjk.giaomgltg.ebn#jlv..ib.ih.kxpijjwqjsljt.okbovo.m.hilgtnj",
"nkhdfnlkgginlshgto.elhkogighdkntaguljclbkbbed.dookoasghtlbtfatg.i",
"ifqqngkfxtine.yw.htgltofeofbfosgb#.hdbnqg.#lhdabdjnkobm.bznamfnmp",
"h.talfbbea.qlni.g#.xiggq.pq.ouha#bgknls.bsghtlo#gjdbgalntgls.gAja",
"leogsbaAihiqht.hmjpij.ig.synchbeaptdgdybmpoeobtBasp.illdln#fgqndt",
"uloiaftfoag.saoihgmbbklhdooulkuboklgcooexok.gcloko.tlakpgclawlpkb",
"blm.btilidltilkgoiboegbdphm..molsa.kolmnluh.iflmnlcf.qpxigotl.c.l",
"otgokohsohi.rfbnixjmolk.oioxmrptl.iqysorAanzhn#xg#abd.pfdBdljdadt",
"ihjmlpilhdljab.mjl#gbeoxtojcookgotlou.lkhgcagu.oehpeaoij.kjpunjql",
"glih.#kpion#opf.a#ogCoocpbllgdoa#llqaoijpmfp#oodnokg.eonffxu.xidh",
"b#hnsohupkmogglbqhgtgnto.m.nmookoavlht.lfnlmggukpiolCghmonad.ka.u",
"q.hmnntphipl#sgtngm.lwl.djhdhbk.hebgzxhvbbdx.vhjmonenavhjko.mb.t.",
"g.dfnkoifoltajzjfshakplelgmlniloilgsllijfqjk#njejbtpgq..epoixns.s",
"otjpsgf#jlvflsa.slgknlkolvljmnoialighq.ltgbtalvo.ibo#aguonsplmoli",
"qb.qoq#gos.ncdgm.gtg.t..sb.q..iobkggfpjcllsn.ufnixg#fgshoslozgjmj",
"gntqxvggm.hdljuhasolqyotdnts.tggqnbi.adhlkoatnxu.yifgaor#a.ulnm.f",
"hiopkgbfanudpwopefhfngdno#l.#.rAogu.ftogegnslgmpfsjbqlbsgfko.#a.i",
"i.oinhtgdeqhilqqhbeghm.nkagilj#oawfbufl#boklbelnlaoslli.lspau.nsh",
"l.lpgs.lig.dn.qdbu..tngdlnqlpv.btabtpfqdnshy#hguoj#oougacjlt.giko",
"adbhfjjm.amjnilxapgcy.konufot.fejgtajk.atgbsbgvj.thiqdoAoav.aqhha",
"#glkpfkpi#.dsygcnbupomxlmh.iphkd.vabzplmagsdnehgtaatanigaspg#giaj",
"alknkidliglt.jtobkbhm..tgaeopi.otg.tol#ob#bnedlqgg#nlugosa.uhltdl",
".aa.#g.th.qpotnhth.kob#hg#abtggtoji.neagidfqlasnyiolslbt.fedhunlt",
"iobsoqqjlmjni.hwlospn#aniojsaoikhiljDnnm.otahmhainntgxkb.to.#afll",
"bgio.kfnkllelhvnoqjodbgtjlmpot.juh.eggmhot.judkttxibjtp.iaaiant.f",
"ldfololsh.mbbthddgpkfjvpgkobkfjdqhmagcdhuaotgfmggtxb#xlslpia.ugde",
"eogm.htjldnofjheoxd.jdhbkblkgbqor#.jcflqagiaovnbd.gmpntbosljddjta",
"ahskns.amlfdgjdlpmlxt.gejokj.sdoshgth.lgd#ojmxgmyhs.hqblkolindzh.",
"bkpowhhsoo#lbdodixge.ldxqsxbe.ozagmpqsbbio.fjaixkkpgkoninpqlni.hu",
"iggill#xnfohkjoubn#s.knnsabslluogiblwaashhk.g#g.ug.loqtobcb.vlju.",
".dAlgtfpkpoin.dhlk.ftonihgt.gmbjkgomj.thbe..eg.i.oejovlnifbqg.qag",
".egp#.js.ps.otg.khjmf.kjamh.tlruladjrikjklosf.mhaigli.aua.ukhuo.v",
"upymplulo#bEmhlwjacoltlotf.illupasoaklguphiadaal#agunhignsbjtlbt.",
"onslgmdxkldinpdgakh.eggi.ltg.mfbm.lidp#xatbdiohulldljmoamlai.hdjg",
".mbdq.hwglilnfyqtp.ddoqfhi.hv.ggiladhijgiafs.xko.t.jm.f#dgkali..m",
"do.tnb#ggvdgkobqgntoxtggqoganqigokl.khbuhgto.kbj#phuy.vhgva.ih.i.",
"n.dlgtabujbepduol#lhclduljikomp.thntnpkpakpodnovopdggbnjihgtpbdri",
"nchpvla#l.u..eloih.m.li.ok.g#obiafiglth.dolkhlmolkjgubpmhl#gau..i",
"alodgn#obslouoomhhsahfxnddalbdkbaeqlignch.vflc.pm.g#glm.oufbwg.#p",
"nxiipqlxu.jt.gmd.e..c.hv.oebospos.nilhigak.atgyioo#q.dahtg.eo.dga",
"jklgsaosgqmnh#qot.puhatdpdoheyltyodxqvfok..iojkyas.ftlomgfvgxtlgt",
"q.aup.mdatpnmnj#nlsa.aahdllknhs.ndkddgqkja#absolml.tqhkbaqgaihdsn",
"xae.othnvg.knhllaiglmxfkodqofdohfoquhbsllehgih.chjeghklfsnge.higj",
"llftmjauln#anklbdxnqoaf.bsojdhpAlgsogdnnqllinl#jhmhykga#oosbgkjgd",
"l.adookjif.ddolknnd.jilpeloqxdioqwbnijndoom.jioyubnunnqykixamohkh",
"blilpmjhihbdplkhlcojujnsala.dinbdo.qoyqobkhxuonkgailaq.hk.oi.lmo.",
"fa.islgdngtjotbgeahqlodfqinoslgu.hkohinoshndbokbdegb#bfmp.m..tdau",
"l.hdsdtylt.guhgslhqbjeijulomhdvjftllqdoq.jtlxig.v.lFgatjasoatblel",
".ldgaebhk.lsbpk..eormfaknbilla.oihougxmhjcahebluxj#a.cgjmgnmg.soh",
"okabihhunpuohkplt.jfghtajaghqnnmjaepomhodqacqodlgslf#hjqohfohqn.t",
"soauaof..m.biobd..bdgqa.vlpmydkoatlbkhbslleklqhgvgkvbjihlmrgmjj#n",
"hhkogkjgkgaunombbc.hvhaejgibot.gmj.ubksjhiboiflmofwgbulgsbbsndd.l",
"ssxbinoullesokjamyod.hqo.inauohigpdlhmox#l.#gospdvngta.wfheaotbpe",
"sllkhok.ntohs.oto.cohmjfabdkaaqngmojs.gsgqigkajaid.sfbdqamajchjko",
"jlvggt.gqgokhosaawd.sahupovbb#flmo.tlfdigqa.sbjvjgildi.jdffaljmg.",
"amgbmbg#aoskxigfsanmghshlqlam.lelykijs.gmp.exnsbatj.eonaojkqlqk.#",
"i.hdhhiojeopilg#pgeo.iqgmo.ibhiooknpknkdyjdnjqlo#lod.gqnhqpgzlx#d"};
