/* XPM */
static char *frameIBR[]={
"23 23 3 1",
". c None",
"# c #555555",
"a c #dddddd",
".................#aaaa#",
".................#aaaa#",
".................#aaaa#",
".................#aaaa#",
".................#aaaa#",
".................#aaaa#",
".................#aaaa#",
".................#aaaa#",
".................#aaaa#",
".................#aaaa#",
".................#aaaa#",
".................#aaaa#",
".................#aaaa#",
".................#aaaa#",
".................#aaaa#",
".................#aaaa#",
".................#aaaa#",
"##################aaaa#",
"aaaaaaaaaaaaaaaaaaaaaa#",
"aaaaaaaaaaaaaaaaaaaaaa#",
"aaaaaaaaaaaaaaaaaaaaaa#",
"aaaaaaaaaaaaaaaaaaaaaa#",
"#######################"};
