/* XPM */
static char *frameAT[]={
"1 6 3 1",
". c #303030",
"a c #cccccc",
"# c #f8f8f8",
".",
"#",
"a",
"a",
"a",
"a"};
