/* XPM */
static char *minimizeA[]={
"16 38 11 1",
"f c #000000",
"a c #303030",
"i c #808080",
"# c #888888",
"c c #999999",
"d c #aaaaaa",
"e c #bbbbbb",
". c #cccccc",
"g c #dddddd",
"h c #eeeeee",
"b c #ffffff",
"................",
"...############.",
"...#aaaaaaaaaaab",
"...#ab........ab",
"...#a.ccddee.#ab",
"...#a.cddee..#ab",
"...#afffffffffab",
"...#a.dee..gg#ab",
"...#afffffffffab",
"...#a.e..gghh#ab",
"...#a...gghhb#ab",
"...#a.########ab",
"...#aaaaaaaaaaab",
"....bbbbbbbbbbbb",
"................",
"................",
"................",
"################",
"aaaaaaaaaaaaaaaa",
"................",
"...############.",
"...#aaaaaaaaaaab",
"...#aiiiiiiiiiab",
"...#aib.......ab",
"...#ai.ccddee.ab",
"...#ai.cddee..ab",
"...#aiffffffffab",
"...#ai.dee..ggab",
"...#aiffffffffab",
"...#ai.e..gghhab",
"...#ai...gghhbab",
"...#aaaaaaaaaaab",
"....bbbbbbbbbbbb",
"................",
"................",
"................",
"################",
"aaaaaaaaaaaaaaaa"};
