/* XPM */
static char *titleAT[]={
"1 19 3 1",
"a c #303030",
"# c #808080",
". c #cccccc",
".",
".",
".",
".",
".",
".",
".",
".",
".",
".",
".",
".",
".",
".",
".",
".",
".",
"#",
"a"};
