/* XPM */
static char * titleAM_xpm[] = {
"6 19 6 1",
" 	c None",
".	c #CCCCCC",
"+	c #FFFFFF",
"@	c #888888",
"#	c #808080",
"$	c #303030",
"......",
"....++",
".....@",
"....++",
".....@",
"....++",
".....@",
"....++",
".....@",
"....++",
".....@",
"....++",
".....@",
"......",
"......",
"......",
"......",
"######",
"$$$$$$"};
