/* XPM */
static char *titleAL[]={
"1 19 4 1",
"b c #303030",
"a c #808080",
". c #cccccc",
"# c #ffffff",
".",
"#",
".",
"#",
".",
"#",
".",
"#",
".",
"#",
".",
"#",
".",
".",
".",
".",
".",
"a",
"b"};
