/* XPM */
static char * xterm_xpm[] = {
"20 20 97 2",
"  	c None",
". 	c #CACACA",
"+ 	c #D1D1D1",
"@ 	c #D3D3D3",
"# 	c #D2D2D2",
"$ 	c #C7C7C7",
"% 	c #6A6A6A",
"& 	c #575757",
"* 	c #585858",
"= 	c #565656",
"- 	c #555555",
"; 	c #535353",
"> 	c #525252",
", 	c #666666",
"' 	c #C6C6C6",
") 	c #414141",
"! 	c #3B3B3B",
"~ 	c #2C2C2C",
"{ 	c #292929",
"] 	c #272727",
"^ 	c #262626",
"/ 	c #242424",
"( 	c #232323",
"_ 	c #222222",
": 	c #202020",
"< 	c #1F1F1F",
"[ 	c #3A3A3A",
"} 	c #C3C3C3",
"| 	c #5A5A5A",
"1 	c #CDCDCD",
"2 	c #AAAAAA",
"3 	c #363636",
"4 	c #252525",
"5 	c #212121",
"6 	c #1E1E1E",
"7 	c #393939",
"8 	c #C0C0C0",
"9 	c #3F3F3F",
"0 	c #5F5F5F",
"a 	c #E2E2E2",
"b 	c #959595",
"c 	c #323232",
"d 	c #1D1D1D",
"e 	c #383838",
"f 	c #BDBDBD",
"g 	c #3D3D3D",
"h 	c #444444",
"i 	c #868686",
"j 	c #999999",
"k 	c #8E8E8E",
"l 	c #1B1B1B",
"m 	c #161616",
"n 	c #131313",
"o 	c #303030",
"p 	c #BEBEBE",
"q 	c #BABABA",
"r 	c #2E2E2E",
"s 	c #353535",
"t 	c #181818",
"u 	c #121212",
"v 	c #101010",
"w 	c #0F0F0F",
"x 	c #BBBBBB",
"y 	c #B8B8B8",
"z 	c #1A1A1A",
"A 	c #111111",
"B 	c #2F2F2F",
"C 	c #B5B5B5",
"D 	c #3C3C3C",
"E 	c #141414",
"F 	c #0E0E0E",
"G 	c #B1B1B1",
"H 	c #171717",
"I 	c #151515",
"J 	c #B2B2B2",
"K 	c #ADADAD",
"L 	c #191919",
"M 	c #2D2D2D",
"N 	c #ABABAB",
"O 	c #333333",
"P 	c #A7A7A7",
"Q 	c #0D0D0D",
"R 	c #A0A0A0",
"S 	c #0C0C0C",
"T 	c #0B0B0B",
"U 	c #0A0A0A",
"V 	c #9F9F9F",
"W 	c #979797",
"X 	c #4E4E4E",
"Y 	c #4F4F4F",
"Z 	c #4D4D4D",
"` 	c #4C4C4C",
" .	c #5C5C5C",
"..	c #797979",
"+.	c #7D7D7D",
"@.	c #7E7E7E",
"#.	c #7F7F7F",
"                                        ",
"                                        ",
"  . + @ # # # # # # @ @ @ @ @ @ @ # .   ",
"  $ % & * * * * * * & & = - - ; > , $   ",
"  ' ) > ! ~ { ] ] ] ^ / / ( _ : < [ '   ",
"  } ) | 1 2 3 ^ ^ 4 4 / _ 5 : : 6 7 }   ",
"  8 9 0 a b c ] ^ ( _ 5 : < 6 d d e 8   ",
"  f g h c ^ i j k ] : < < < l m n o p   ",
"  q g _ ( 4 r s r / < < t u v v w o x   ",
"  y g _ _ _ ( ( _ z m n u A A v v B y   ",
"  C D ( ( ( < z E n n n u v v w F r C   ",
"  G D ( : H m I E n n n u v v w w r J   ",
"  K e L m I m E E E u A A v w F F M K   ",
"  N O H m m I E E n u A A w v F F ~ N   ",
"  P c H m I I E n n A A v v w F Q ~ P   ",
"  R o n E n u A A v w F F S S T U { V   ",
"  W 0 X Y X X X X Z Z Z Z Z ` Z `  .W   ",
"  ..+.@.@.@.@.@.@.@.@.@.#.@.@.@.@.+...  ",
"                                        ",
"                                        "};
