/* XPM */
static char * closeI_xpm[] = {
"20 38 4 1",
" 	c None",
".	c #606464",
"+	c #AAAAAA",
"@	c #404444",
"....................",
"....................",
"....................",
"....................",
"....................",
"......++....++......",
"......+++..+++......",
".......++++++.......",
"........++++........",
"........++++........",
".......++++++.......",
"......+++..+++......",
"......++....++......",
"....................",
"....................",
"....................",
"....................",
"....................",
"....................",
"....................",
"....................",
"....................",
"....................",
"....................",
"....................",
"....................",
"....................",
".........@@.........",
".........@@.........",
"....................",
"....................",
"....................",
"....................",
"....................",
"....................",
"....................",
"....................",
"...................."};
