/* XPM */
static char * menuButtonO_xpm[] = {
"19 38 3 1",
" 	c None",
".	c #404444",
"+	c #FFFFFF",
"...................",
"...................",
"...................",
"...................",
"...................",
"...................",
"...................",
".......+++++.......",
".......+++++.......",
".......+++++.......",
".......+++++.......",
"...................",
"...................",
"...................",
"...................",
"...................",
"...................",
"...................",
"...................",
"...................",
"...................",
"...................",
"...................",
"...................",
"...................",
"...................",
"........+++........",
"........+++........",
"........+++........",
"...................",
"...................",
"...................",
"...................",
"...................",
"...................",
"...................",
"...................",
"..................."};
