/* XPM */
static char * menuButtonA_xpm[] = {
"19 38 3 1",
" 	c None",
".	c #404444",
"+	c #A2A4A6",
"...................",
"...................",
"...................",
"...................",
"...................",
"...................",
"...................",
".......+++++.......",
".......+++++.......",
".......+++++.......",
".......+++++.......",
"...................",
"...................",
"...................",
"...................",
"...................",
"...................",
"...................",
"...................",
"...................",
"...................",
"...................",
"...................",
"...................",
"...................",
"...................",
"........+++........",
"........+++........",
"........+++........",
"...................",
"...................",
"...................",
"...................",
"...................",
"...................",
"...................",
"...................",
"..................."};
