/* XPM */
static char * menuButtonI_xpm[] = {
"19 38 3 1",
" 	c None",
".	c #606464",
"+	c #A2A4A6",
"...................",
"...................",
"...................",
"...................",
"...................",
"...................",
"...................",
".......+++++.......",
".......+++++.......",
".......+++++.......",
".......+++++.......",
"...................",
"...................",
"...................",
"...................",
"...................",
"...................",
"...................",
"...................",
"...................",
"...................",
"...................",
"...................",
"...................",
"...................",
"...................",
"........+++........",
"........+++........",
"........+++........",
"...................",
"...................",
"...................",
"...................",
"...................",
"...................",
"...................",
"...................",
"..................."};
