/* XPM */
static char * restoreA_xpm[] = {
"20 38 3 1",
" 	c None",
".	c #404444",
"+	c #AAAAAA",
"....................",
"....................",
"....................",
"....................",
".....++++++++++.....",
".....++++++++++.....",
".....+........+.....",
".....+........+.....",
".....+........+.....",
".....+........+.....",
".....+........+.....",
".....+........+.....",
".....+........+.....",
".....++++++++++.....",
"....................",
"....................",
"....................",
"....................",
"....................",
"....................",
"....................",
"....................",
"....................",
".......++..++.......",
"......+......+......",
"......+......+......",
"....................",
"....................",
"......+......+......",
"......+......+......",
".......++..++.......",
"....................",
"....................",
"....................",
"....................",
"....................",
"....................",
"...................."};
